<svg width="23" height="16" viewBox="0 0 23 16" fill="none" xmlns="http://www.w3.org/2000/svg">
<path d="M20.1253 1.35449H20.1254C20.7305 1.35438 21.3134 1.58712 21.7544 2.006C22.1182 2.35147 22.3629 2.80205 22.4573 3.29203L11.5004 8.80606L0.543608 3.29203C0.638016 2.80205 0.882658 2.35147 1.24644 2.006C1.68752 1.58712 2.27035 1.35438 2.87545 1.35449H2.87554H20.1253Z" stroke="#39F0BA" stroke-linejoin="round"/>
<path d="M11.7247 10.7974L22.4997 5.37416V13.0741C22.4997 13.7101 22.2487 14.3193 21.803 14.7681C21.3573 15.2167 20.7536 15.4681 20.1248 15.4681H2.87497C2.24616 15.4681 1.64243 15.2167 1.19678 14.7681C0.751016 14.3193 0.5 13.7101 0.5 13.0741V5.37416L11.2751 10.7974C11.4165 10.8686 11.5832 10.8686 11.7247 10.7974Z" stroke="#39F0BA" stroke-linejoin="round"/>
</svg>
