<svg width="17" height="20" viewBox="0 0 17 20" fill="none" xmlns="http://www.w3.org/2000/svg">
<path d="M7.72917 18.6989C2.05333 11.2656 1 10.5034 1 7.77252C1 4.03183 4.3575 1 8.5 1C12.6425 1 16 4.03183 16 7.77252C16 10.5034 14.9467 11.2641 9.27083 18.6958C9.18464 18.8079 9.06973 18.8996 8.9359 18.963C8.80206 19.0263 8.65325 19.0596 8.50212 19.0599C8.35099 19.0602 8.20202 19.0275 8.06788 18.9647C7.93374 18.9018 7.8184 18.8106 7.73167 18.6989L7.73 18.6958L7.72917 18.6989ZM8.5 10.5944C9.3288 10.5944 10.1237 10.2971 10.7097 9.76789C11.2958 9.23869 11.625 8.52093 11.625 7.77252C11.625 7.02411 11.2958 6.30635 10.7097 5.77715C10.1237 5.24794 9.3288 4.95064 8.5 4.95064C7.6712 4.95064 6.87634 5.24794 6.29029 5.77715C5.70424 6.30635 5.375 7.02411 5.375 7.77252C5.375 8.52093 5.70424 9.23869 6.29029 9.76789C6.87634 10.2971 7.6712 10.5944 8.5 10.5944Z" stroke="#39F0BA"/>
</svg>
