<svg width="90" height="85" viewBox="0 0 90 85" fill="none" xmlns="http://www.w3.org/2000/svg">
<path d="M73.3104 36.8909C74.1549 37.23 75.1289 36.8558 75.4865 36.0549C76.2262 34.3946 76.6146 32.822 76.6516 31.3721C77.7243 30.6413 78.4332 29.4546 78.4332 28.1041C78.4332 25.8884 76.5468 24.0878 74.2227 24.0878C73.5878 24.0878 72.996 24.234 72.4596 24.4678C68.7362 22.5327 62.8305 22.3749 55.8028 23.8656C53.7006 17.277 50.6245 12.4306 47.0059 10.3026C46.8024 8.26226 45.0208 6.66626 42.8324 6.66626C40.6439 6.66626 38.8624 8.26226 38.6589 10.3026C35.0464 12.4306 31.9703 17.2712 29.8682 23.8481C24.5727 22.7023 19.8506 22.4626 16.269 23.2869C15.3812 23.4915 14.8326 24.345 15.0484 25.1927C15.2641 26.0404 16.158 26.5607 17.0519 26.3561C20.1157 25.6487 24.2768 25.8767 28.9989 26.894C28.253 29.8346 27.6797 33.0441 27.3222 36.4583C24.2953 38.4927 21.5397 40.6324 19.117 42.8189C18.3464 42.0355 17.6067 41.2463 16.9471 40.4629C12.8661 35.634 11.3866 31.413 12.8907 28.8875C13.3408 28.1275 13.0633 27.1629 12.2681 26.7361C11.4729 26.3035 10.4619 26.5724 10.0057 27.3324C7.76792 31.0973 9.30908 36.4641 14.3641 42.4447C15.0977 43.3158 15.9176 44.1869 16.7745 45.058C15.9176 45.929 15.0977 46.7943 14.3641 47.6653C9.30908 53.6401 7.76175 59.0069 9.99952 62.7776C11.7996 65.8001 15.8313 67.2616 21.2253 67.2616C23.8145 67.2616 26.7365 66.8933 29.862 66.2269C32.7347 75.23 37.426 81.0001 42.8324 81.0001C45.8037 81.0001 48.658 79.2989 51.0868 76.0718C51.617 75.3644 51.4506 74.3764 50.7046 73.8678C49.9649 73.3592 48.9231 73.5229 48.3929 74.2303C47.1538 75.8789 45.1811 77.8373 42.8324 77.8373C38.7514 77.8373 35.3547 72.6576 33.1108 65.4318C36.2177 64.59 39.4727 63.4792 42.8324 62.0586C46.2044 63.485 49.4717 64.6017 52.5972 65.4493C52.2273 66.6069 51.8389 67.7235 51.4012 68.7758C51.0622 69.5826 51.4814 70.5063 52.3321 70.822C53.1828 71.1435 54.1445 70.746 54.4836 69.9392C54.9706 68.7758 55.3959 67.5189 55.809 66.2327C58.9221 66.8992 61.8503 67.2675 64.4333 67.2675C69.8273 67.2675 73.859 65.806 75.6591 62.7835C77.903 59.0127 76.3557 53.646 71.3007 47.6653C70.5609 46.7943 69.741 45.9232 68.8842 45.0521C69.8397 44.0875 70.7459 43.117 71.5473 42.1466C72.1144 41.4626 71.9911 40.4687 71.2699 39.9309C70.5548 39.393 69.5068 39.51 68.9396 40.194C68.2184 41.0709 67.3985 41.9478 66.5416 42.8189C64.1251 40.6383 61.3633 38.4986 58.3426 36.4641C57.9851 33.0675 57.4179 29.8696 56.672 26.9466C62.2942 25.7072 67.2074 25.5201 70.2404 26.818C70.0924 27.2213 70 27.654 70 28.11C70 30.0158 71.3993 31.606 73.2734 32.0152C73.1378 33.0207 72.7925 34.0029 72.4288 34.8213C72.0713 35.6223 72.4658 36.5518 73.3042 36.8909H73.3104ZM39.6946 13.3367C40.4652 14.1669 41.581 14.6989 42.8324 14.6989C44.0838 14.6989 45.1996 14.1669 45.9702 13.3367C48.6518 15.2075 50.9081 19.3816 52.5479 24.6549C49.447 25.4967 46.186 26.6309 42.8386 28.0515C39.5158 26.6484 36.2486 25.5084 33.1231 24.649C34.7629 19.3816 37.013 15.2075 39.7008 13.3367H39.6946ZM32.2662 27.7066C34.3807 28.2912 36.5753 29.0103 38.8069 29.8638C37.5308 30.4835 36.2486 31.1266 34.9601 31.8223C33.6039 32.553 32.297 33.3189 31.0086 34.0964C31.3353 31.8924 31.7545 29.741 32.26 27.7066H32.2662ZM55.4761 45.0463C55.4761 47.3789 55.3713 49.6764 55.1802 51.9038C53.2383 53.1607 51.1978 54.3709 49.0648 55.5226C47.0552 56.6041 44.9592 57.6213 42.8324 58.5509C40.7056 57.6213 38.6096 56.61 36.5999 55.5226C34.4855 54.3767 32.4511 53.1724 30.5216 51.9213C30.3058 49.6297 30.1949 47.3204 30.1949 45.0404C30.1949 42.7604 30.312 40.4512 30.5216 38.1595C32.4511 36.9084 34.4855 35.7041 36.5999 34.5641C38.6158 33.4709 40.7241 32.4536 42.857 31.5241C44.9284 32.442 47.0058 33.4475 49.071 34.5641C51.1855 35.7041 53.2198 36.9143 55.1493 38.1595C55.3651 40.4512 55.4761 42.7604 55.4761 45.0404V45.0463ZM26.8906 46.4201C26.1201 45.5841 24.9981 45.0463 23.7405 45.0463C23.087 45.0463 22.4767 45.1983 21.9219 45.4496C21.7678 45.3152 21.6137 45.1807 21.4596 45.0463C23.1364 43.5321 24.9919 42.0413 26.9954 40.5915C26.9215 42.0472 26.8721 43.5321 26.8721 45.0463C26.8721 45.5081 26.8783 45.9641 26.8845 46.4201H26.8906ZM12.8907 61.2167C11.3866 58.6912 12.8661 54.4761 16.9471 49.6472C17.6067 48.858 18.3464 48.0746 19.117 47.2912C19.3205 47.4724 19.5301 47.6595 19.7458 47.8466C19.6164 48.2383 19.5239 48.6416 19.5239 49.0743C19.5239 51.29 21.4103 53.0847 23.7405 53.0847C24.4741 53.0847 25.1522 52.8918 25.7502 52.582C26.2618 52.9444 26.792 53.2952 27.3283 53.6518C27.6859 57.0484 28.253 60.2463 28.9928 63.1693C21.2993 64.8706 14.9066 64.6016 12.8969 61.2226L12.8907 61.2167ZM32.2539 62.345C31.7545 60.3281 31.3415 58.1943 31.0086 56.002C32.297 56.7853 33.6039 57.5453 34.9601 58.2761C36.2301 58.9601 37.5 59.6032 38.7576 60.2112C36.5691 61.0355 34.3745 61.7546 32.2539 62.345ZM46.9072 60.2053C48.1648 59.5973 49.4286 58.9601 50.7046 58.2703C52.0793 57.5278 53.4109 56.7503 54.7117 55.9669C54.3911 58.2001 53.9781 60.334 53.4726 62.3567C51.3273 61.7663 49.1203 61.0355 46.9072 60.2053ZM72.774 61.2109C70.7644 64.59 64.3716 64.853 56.672 63.1518C57.4179 60.1878 57.9789 56.9958 58.3303 53.646C61.3633 51.6056 64.1251 49.466 66.5416 47.2795C67.3183 48.0629 68.0519 48.8521 68.7115 49.6355C72.7925 54.4644 74.272 58.6795 72.7679 61.205L72.774 61.2109ZM64.2052 45.0463C62.5223 46.5604 60.6667 48.057 58.657 49.5127C58.7372 48.0395 58.7865 46.5546 58.7865 45.0463C58.7865 43.538 58.7433 42.0472 58.6693 40.5915C60.6729 42.0413 62.5284 43.5321 64.2052 45.0463ZM54.65 34.0906C53.3616 33.313 52.0547 32.5472 50.6985 31.8164C49.4347 31.1324 48.1648 30.4952 46.8949 29.8872C49.0895 29.0629 51.2779 28.338 53.4047 27.7475C53.9102 29.7703 54.3233 31.9041 54.65 34.0906Z" fill="#39F0BA"/>
<path d="M49.1377 11.4878C49.8413 8.64966 47.9856 5.80795 44.9928 5.14069C42 4.47344 39.0035 6.23331 38.2999 9.07148C37.5963 11.9097 39.452 14.7514 42.4448 15.4186C45.4376 16.0859 48.4341 14.326 49.1377 11.4878Z" fill="#39F0BA"/>
<path d="M30.7207 51.3333C31.4243 48.4951 29.5686 45.6534 26.5758 44.9861C23.583 44.3189 20.5865 46.0788 19.8829 48.9169C19.1793 51.7551 21.035 54.5968 24.0278 55.2641C27.0206 55.9313 30.0171 54.1715 30.7207 51.3333Z" fill="#39F0BA"/>
<path d="M78.7384 28.6244C79.4478 25.7875 77.5978 22.9424 74.6063 22.2697C71.6149 21.597 68.6148 23.3514 67.9055 26.1883C67.1961 29.0252 69.0461 31.8703 72.0376 32.543C75.029 33.2157 78.0291 31.4613 78.7384 28.6244Z" fill="#39F0BA"/>
</svg>
