<svg width="98" height="78" viewBox="0 0 98 78" fill="none" xmlns="http://www.w3.org/2000/svg">
<g filter="url(#filter0_d_2_3694)">
<g filter="url(#filter1_d_2_3694)">
<path d="M41.3809 33.0952L41.4958 44.2875" stroke="#39F0BA" stroke-width="5" stroke-linecap="round" stroke-linejoin="round"/>
</g>
<g filter="url(#filter2_d_2_3694)">
<path d="M41.417 51.5728L41.4277 51.5729" stroke="#39F0BA" stroke-width="5" stroke-linecap="round" stroke-linejoin="round"/>
</g>
<g clip-path="url(#clip0_2_3694)">
<g filter="url(#filter3_d_2_3694)">
<path d="M57.1736 44.7952C57.2482 44.7952 57.319 44.7876 57.3823 44.7688L66.2861 42.3527C66.4948 42.2962 66.67 42.1567 66.7781 41.9683C66.8862 41.776 66.916 41.5536 66.8601 41.3388C66.7483 40.9053 66.2824 40.6377 65.865 40.7508L56.9649 43.1669C56.7525 43.2234 56.5773 43.3591 56.4692 43.5513C56.3611 43.7436 56.3313 43.9659 56.3872 44.1808C56.4804 44.5464 56.8047 44.7989 57.1736 44.7989V44.7952Z" fill="#39F0BA"/>
</g>
<g filter="url(#filter4_d_2_3694)">
<path d="M71.4178 61.9978L62.514 64.4139C62.0816 64.5307 61.8245 64.983 61.9363 65.424C62.0295 65.7897 62.3537 66.0422 62.7227 66.0422C62.7898 66.0422 62.8606 66.0347 62.9314 66.0158L71.8315 63.5997C72.0402 63.5432 72.2191 63.4075 72.3272 63.2153C72.4352 63.023 72.4651 62.8007 72.4092 62.5896C72.2973 62.1599 71.8501 61.8847 71.414 62.0016L71.4178 61.9978Z" fill="#39F0BA"/>
</g>
<g filter="url(#filter5_d_2_3694)">
<path d="M83.229 30.9922C82.9196 30.6793 82.3904 30.6755 82.0811 30.9922C81.9283 31.1467 81.8425 31.3578 81.8425 31.5764C81.8425 31.7988 81.9283 32.0061 82.0811 32.1644L88.5809 38.8284C88.7337 38.9829 88.9387 39.0734 89.1549 39.0734C89.2257 39.0734 89.2965 39.0621 89.3673 39.047C89.5015 39.0093 89.6282 38.9339 89.7289 38.8322C89.8817 38.6776 89.9674 38.4703 89.9674 38.2479C89.9674 38.0255 89.8854 37.8182 89.7326 37.6599L83.2327 30.9959L83.229 30.9922Z" fill="#39F0BA"/>
</g>
<g filter="url(#filter6_d_2_3694)">
<path d="M53.4131 27.3776C52.9994 27.2607 52.5298 27.5283 52.4142 27.9618L50.014 37.0381C49.9581 37.2529 49.9842 37.4753 50.096 37.6676C50.2041 37.8598 50.3793 37.9955 50.588 38.052C50.6551 38.0709 50.7296 38.0822 50.8004 38.0822C50.8675 38.0822 50.9383 38.0746 51.0091 38.0558C51.2887 37.9766 51.5086 37.7542 51.5831 37.4716L53.9833 28.3915C54.0429 28.1804 54.0131 27.9542 53.905 27.762C53.7969 27.5698 53.6218 27.4341 53.4168 27.3776H53.4131Z" fill="#39F0BA"/>
</g>
<g filter="url(#filter7_d_2_3694)">
<path d="M67.9744 46.4951C67.6688 46.1822 67.1396 46.1785 66.8228 46.4951C66.67 46.6534 66.5843 46.8645 66.588 47.0831C66.588 47.3055 66.6737 47.5128 66.8228 47.6673L73.3227 54.3351C73.4755 54.4896 73.6805 54.5725 73.8966 54.5725C73.9675 54.5725 74.0383 54.565 74.1054 54.5462C74.2433 54.5085 74.3737 54.4331 74.4706 54.3313C74.6234 54.173 74.7091 53.9657 74.7091 53.7471C74.7091 53.5247 74.6234 53.3174 74.4706 53.1553L67.9707 46.4913L67.9744 46.4951Z" fill="#39F0BA"/>
</g>
<g filter="url(#filter8_d_2_3694)">
<path d="M74.2167 33.1256C73.803 33.0088 73.3296 33.2764 73.2178 33.7098L70.8176 42.7899C70.7617 43.0048 70.7878 43.2271 70.8959 43.4194C71.0077 43.6116 71.1829 43.7473 71.3879 43.8038C71.4587 43.8227 71.5295 43.834 71.6003 43.834C71.6674 43.834 71.7382 43.8264 71.809 43.8076C72.0886 43.7322 72.3122 43.5061 72.3867 43.2234L74.7906 34.1471C74.8465 33.9322 74.8167 33.7098 74.7124 33.5176C74.6043 33.3254 74.4291 33.1897 74.2241 33.1331L74.2167 33.1256Z" fill="#39F0BA"/>
</g>
<g filter="url(#filter9_d_2_3694)">
<path d="M93.9444 36.9513C93.7245 36.1032 92.8486 35.5642 91.9952 35.7904L85.2008 28.8286C85.2791 28.5497 85.2828 28.2481 85.2083 27.9617C85.0182 27.2493 84.3846 26.748 83.6616 26.748C83.52 26.748 83.3821 26.7668 83.2479 26.8045C82.6888 26.9553 82.2677 27.3925 82.1186 27.9428L72.7601 30.4833C72.3651 30.0838 71.7687 29.9179 71.2246 30.0649H71.2134L64.4042 23.0768C64.4825 22.7978 64.4825 22.4963 64.4116 22.2136C64.1918 21.3618 63.2898 20.8265 62.455 21.0527C61.8997 21.2034 61.471 21.6407 61.322 22.191L51.9635 24.7314C51.5684 24.3357 50.9721 24.1661 50.428 24.3168C50.0143 24.4299 49.6676 24.6975 49.4552 25.0744C49.239 25.4514 49.1831 25.8924 49.2949 26.3145C49.362 26.5746 49.4887 26.8121 49.6714 27.0081L47.137 36.5555C46.7494 36.6761 46.4214 36.94 46.2164 37.2981C46.0003 37.675 45.9444 38.116 46.0562 38.5381C46.2686 39.3561 47.0886 39.8875 47.916 39.7217L54.8184 46.7965C54.7662 47.0528 54.7699 47.3091 54.837 47.5617C54.9041 47.818 55.0345 48.0592 55.2097 48.2514L52.6791 57.8178C52.2952 57.9384 51.9747 58.1984 51.7697 58.5565C51.5572 58.9334 51.4976 59.3744 51.6094 59.7966C51.8218 60.6145 52.653 61.1422 53.4692 60.9801L60.3418 68.0286C60.2896 68.2774 60.297 68.5337 60.3604 68.7862C60.5468 69.4986 61.1803 69.9999 61.9071 69.9999C62.045 69.9999 62.1866 69.9811 62.3208 69.9434C62.8463 69.8001 63.2637 69.3893 63.4314 68.8691L72.8608 66.3098C73.2521 66.6754 73.8074 66.8262 74.3478 66.683C74.7615 66.5699 75.1081 66.3023 75.3243 65.9216C75.5367 65.5447 75.5964 65.1037 75.4883 64.6853C75.4137 64.4101 75.2758 64.1614 75.082 63.9578L77.6015 54.4405C77.6425 54.4254 77.6872 54.4141 77.7245 54.3953C78.1866 54.2219 78.5407 53.8412 78.6898 53.3663L88.1191 50.807C88.5104 51.1764 89.0806 51.3234 89.6062 51.1801C90.0198 51.0708 90.3665 50.7994 90.5789 50.4188C90.7951 50.0418 90.851 49.6008 90.7429 49.1787C90.6721 48.9073 90.5304 48.6585 90.3366 48.455L92.8561 38.9339C93.2512 38.8171 93.5791 38.5494 93.7916 38.1876C94.004 37.8107 94.0636 37.3697 93.9518 36.9475L93.9444 36.9513ZM49.1272 38.6135C49.2204 38.3195 49.2279 38.0029 49.1496 37.6976C49.0751 37.4111 48.926 37.1473 48.721 36.9438L51.2255 27.4754C51.2255 27.4754 51.2404 27.4717 51.2479 27.4679C51.8069 27.3171 52.2281 26.8799 52.3772 26.3296L61.7357 23.7891C62.1195 24.1736 62.6972 24.347 63.2265 24.2151L70.0841 31.2447C70.0171 31.5085 70.0208 31.7912 70.0879 32.0551C70.1549 32.3151 70.2891 32.5526 70.4643 32.7486L67.9337 42.3149C67.6504 42.4054 67.397 42.5712 67.2032 42.8011C67.0429 42.9858 66.9311 43.2044 66.864 43.4381L57.5055 45.9748C57.2074 45.6771 56.8011 45.5037 56.3837 45.5037C56.2458 45.5037 56.1042 45.5225 55.9737 45.5564C55.9551 45.564 55.9365 45.5678 55.9178 45.5715L49.1272 38.6135ZM73.5055 63.5281C72.939 63.6864 72.5067 64.1501 72.3762 64.723L63.0737 67.2484C62.7718 66.9204 62.3506 66.732 61.9071 66.732C61.7692 66.732 61.6276 66.7508 61.4971 66.7848C61.4785 66.7923 61.4599 66.7961 61.4412 66.7998L54.6842 59.872C54.7774 59.578 54.7848 59.2614 54.7065 58.9598C54.632 58.6658 54.4755 58.402 54.263 58.1984L56.7676 48.7301C56.7676 48.7301 56.7862 48.7301 56.7937 48.7226C57.3378 48.5756 57.759 48.1534 57.9155 47.6107L67.3038 45.0627C67.6765 45.4283 68.2244 45.5904 68.7238 45.4811L75.5777 52.5069C75.5218 52.7632 75.5256 53.0308 75.5926 53.2909C75.6672 53.5698 75.8125 53.8261 76.0175 54.0334L73.5018 63.5281H73.5055ZM88.7601 48.0291C88.1973 48.1874 87.765 48.651 87.6346 49.2239L78.332 51.7493C78.0301 51.4214 77.6089 51.2291 77.1654 51.2291C77.0238 51.2291 76.8859 51.248 76.7555 51.2857C76.7517 51.2857 76.7443 51.2857 76.7406 51.2857L69.9537 44.3239C70.0357 44.0412 70.0394 43.7397 69.9611 43.4532C69.8866 43.1667 69.7375 42.9067 69.5325 42.7031L72.0408 33.2197C72.0408 33.2197 72.0483 33.2197 72.052 33.2197C72.611 33.069 73.0359 32.6355 73.185 32.0814L82.5435 29.5448C82.9274 29.9292 83.4827 30.1026 84.0306 29.9707L90.851 36.9626C90.7839 37.234 90.7839 37.5204 90.851 37.7918C90.9255 38.0745 91.0709 38.3308 91.2721 38.5344L88.7601 48.0291Z" fill="#39F0BA"/>
</g>
</g>
<g filter="url(#filter10_d_2_3694)">
<path d="M50.3839 24.2406L44.0471 12.5977C42.939 10.5618 40.0391 10.4981 38.8426 12.4833L11.7413 57.4515C10.5363 59.4509 11.9762 62 14.3107 62H41.5446H54" stroke="#39F0BA" stroke-width="3" stroke-linecap="round" stroke-linejoin="round"/>
</g>
</g>
<defs>
<filter id="filter0_d_2_3694" x="5.80371" y="9.53198" width="92.1963" height="68.468" filterUnits="userSpaceOnUse" color-interpolation-filters="sRGB">
<feFlood flood-opacity="0" result="BackgroundImageFix"/>
<feColorMatrix in="SourceAlpha" type="matrix" values="0 0 0 0 0 0 0 0 0 0 0 0 0 0 0 0 0 0 127 0" result="hardAlpha"/>
<feOffset dy="4"/>
<feGaussianBlur stdDeviation="2"/>
<feComposite in2="hardAlpha" operator="out"/>
<feColorMatrix type="matrix" values="0 0 0 0 0 0 0 0 0 0 0 0 0 0 0 0 0 0 0.25 0"/>
<feBlend mode="normal" in2="BackgroundImageFix" result="effect1_dropShadow_2_3694"/>
<feBlend mode="normal" in="SourceGraphic" in2="effect1_dropShadow_2_3694" result="shape"/>
</filter>
<filter id="filter1_d_2_3694" x="29.8809" y="21.5952" width="23.115" height="34.1924" filterUnits="userSpaceOnUse" color-interpolation-filters="sRGB">
<feFlood flood-opacity="0" result="BackgroundImageFix"/>
<feColorMatrix in="SourceAlpha" type="matrix" values="0 0 0 0 0 0 0 0 0 0 0 0 0 0 0 0 0 0 127 0" result="hardAlpha"/>
<feOffset/>
<feGaussianBlur stdDeviation="4.5"/>
<feComposite in2="hardAlpha" operator="out"/>
<feColorMatrix type="matrix" values="0 0 0 0 0.694118 0 0 0 0 0.309804 0 0 0 0 1 0 0 0 0.2 0"/>
<feBlend mode="normal" in2="BackgroundImageFix" result="effect1_dropShadow_2_3694"/>
<feBlend mode="normal" in="SourceGraphic" in2="effect1_dropShadow_2_3694" result="shape"/>
</filter>
<filter id="filter2_d_2_3694" x="29.917" y="40.0728" width="23.0107" height="23" filterUnits="userSpaceOnUse" color-interpolation-filters="sRGB">
<feFlood flood-opacity="0" result="BackgroundImageFix"/>
<feColorMatrix in="SourceAlpha" type="matrix" values="0 0 0 0 0 0 0 0 0 0 0 0 0 0 0 0 0 0 127 0" result="hardAlpha"/>
<feOffset/>
<feGaussianBlur stdDeviation="4.5"/>
<feComposite in2="hardAlpha" operator="out"/>
<feColorMatrix type="matrix" values="0 0 0 0 0.694118 0 0 0 0 0.309804 0 0 0 0 1 0 0 0 0.2 0"/>
<feBlend mode="normal" in2="BackgroundImageFix" result="effect1_dropShadow_2_3694"/>
<feBlend mode="normal" in="SourceGraphic" in2="effect1_dropShadow_2_3694" result="shape"/>
</filter>
<filter id="filter3_d_2_3694" x="47.3596" y="31.7249" width="28.5281" height="22.074" filterUnits="userSpaceOnUse" color-interpolation-filters="sRGB">
<feFlood flood-opacity="0" result="BackgroundImageFix"/>
<feColorMatrix in="SourceAlpha" type="matrix" values="0 0 0 0 0 0 0 0 0 0 0 0 0 0 0 0 0 0 127 0" result="hardAlpha"/>
<feOffset/>
<feGaussianBlur stdDeviation="4.5"/>
<feComposite in2="hardAlpha" operator="out"/>
<feColorMatrix type="matrix" values="0 0 0 0 0.694118 0 0 0 0 0.309804 0 0 0 0 1 0 0 0 0.2 0"/>
<feBlend mode="normal" in2="BackgroundImageFix" result="effect1_dropShadow_2_3694"/>
<feBlend mode="normal" in="SourceGraphic" in2="effect1_dropShadow_2_3694" result="shape"/>
</filter>
<filter id="filter4_d_2_3694" x="52.9102" y="52.9746" width="28.5266" height="22.0676" filterUnits="userSpaceOnUse" color-interpolation-filters="sRGB">
<feFlood flood-opacity="0" result="BackgroundImageFix"/>
<feColorMatrix in="SourceAlpha" type="matrix" values="0 0 0 0 0 0 0 0 0 0 0 0 0 0 0 0 0 0 127 0" result="hardAlpha"/>
<feOffset/>
<feGaussianBlur stdDeviation="4.5"/>
<feComposite in2="hardAlpha" operator="out"/>
<feColorMatrix type="matrix" values="0 0 0 0 0.694118 0 0 0 0 0.309804 0 0 0 0 1 0 0 0 0.2 0"/>
<feBlend mode="normal" in2="BackgroundImageFix" result="effect1_dropShadow_2_3694"/>
<feBlend mode="normal" in="SourceGraphic" in2="effect1_dropShadow_2_3694" result="shape"/>
</filter>
<filter id="filter5_d_2_3694" x="72.8425" y="21.7561" width="26.1249" height="26.3174" filterUnits="userSpaceOnUse" color-interpolation-filters="sRGB">
<feFlood flood-opacity="0" result="BackgroundImageFix"/>
<feColorMatrix in="SourceAlpha" type="matrix" values="0 0 0 0 0 0 0 0 0 0 0 0 0 0 0 0 0 0 127 0" result="hardAlpha"/>
<feOffset/>
<feGaussianBlur stdDeviation="4.5"/>
<feComposite in2="hardAlpha" operator="out"/>
<feColorMatrix type="matrix" values="0 0 0 0 0.694118 0 0 0 0 0.309804 0 0 0 0 1 0 0 0 0.2 0"/>
<feBlend mode="normal" in2="BackgroundImageFix" result="effect1_dropShadow_2_3694"/>
<feBlend mode="normal" in="SourceGraphic" in2="effect1_dropShadow_2_3694" result="shape"/>
</filter>
<filter id="filter6_d_2_3694" x="40.9856" y="18.3501" width="22.0278" height="28.7322" filterUnits="userSpaceOnUse" color-interpolation-filters="sRGB">
<feFlood flood-opacity="0" result="BackgroundImageFix"/>
<feColorMatrix in="SourceAlpha" type="matrix" values="0 0 0 0 0 0 0 0 0 0 0 0 0 0 0 0 0 0 127 0" result="hardAlpha"/>
<feOffset/>
<feGaussianBlur stdDeviation="4.5"/>
<feComposite in2="hardAlpha" operator="out"/>
<feColorMatrix type="matrix" values="0 0 0 0 0.694118 0 0 0 0 0.309804 0 0 0 0 1 0 0 0 0.2 0"/>
<feBlend mode="normal" in2="BackgroundImageFix" result="effect1_dropShadow_2_3694"/>
<feBlend mode="normal" in="SourceGraphic" in2="effect1_dropShadow_2_3694" result="shape"/>
</filter>
<filter id="filter7_d_2_3694" x="57.5879" y="37.259" width="26.1213" height="26.3135" filterUnits="userSpaceOnUse" color-interpolation-filters="sRGB">
<feFlood flood-opacity="0" result="BackgroundImageFix"/>
<feColorMatrix in="SourceAlpha" type="matrix" values="0 0 0 0 0 0 0 0 0 0 0 0 0 0 0 0 0 0 127 0" result="hardAlpha"/>
<feOffset/>
<feGaussianBlur stdDeviation="4.5"/>
<feComposite in2="hardAlpha" operator="out"/>
<feColorMatrix type="matrix" values="0 0 0 0 0.694118 0 0 0 0 0.309804 0 0 0 0 1 0 0 0 0.2 0"/>
<feBlend mode="normal" in2="BackgroundImageFix" result="effect1_dropShadow_2_3694"/>
<feBlend mode="normal" in="SourceGraphic" in2="effect1_dropShadow_2_3694" result="shape"/>
</filter>
<filter id="filter8_d_2_3694" x="61.7891" y="24.0981" width="22.0293" height="28.7358" filterUnits="userSpaceOnUse" color-interpolation-filters="sRGB">
<feFlood flood-opacity="0" result="BackgroundImageFix"/>
<feColorMatrix in="SourceAlpha" type="matrix" values="0 0 0 0 0 0 0 0 0 0 0 0 0 0 0 0 0 0 127 0" result="hardAlpha"/>
<feOffset/>
<feGaussianBlur stdDeviation="4.5"/>
<feComposite in2="hardAlpha" operator="out"/>
<feColorMatrix type="matrix" values="0 0 0 0 0.694118 0 0 0 0 0.309804 0 0 0 0 1 0 0 0 0.2 0"/>
<feBlend mode="normal" in2="BackgroundImageFix" result="effect1_dropShadow_2_3694"/>
<feBlend mode="normal" in="SourceGraphic" in2="effect1_dropShadow_2_3694" result="shape"/>
</filter>
<filter id="filter9_d_2_3694" x="37" y="12.0007" width="66.0072" height="66.9993" filterUnits="userSpaceOnUse" color-interpolation-filters="sRGB">
<feFlood flood-opacity="0" result="BackgroundImageFix"/>
<feColorMatrix in="SourceAlpha" type="matrix" values="0 0 0 0 0 0 0 0 0 0 0 0 0 0 0 0 0 0 127 0" result="hardAlpha"/>
<feOffset/>
<feGaussianBlur stdDeviation="4.5"/>
<feComposite in2="hardAlpha" operator="out"/>
<feColorMatrix type="matrix" values="0 0 0 0 0.694118 0 0 0 0 0.309804 0 0 0 0 1 0 0 0 0.2 0"/>
<feBlend mode="normal" in2="BackgroundImageFix" result="effect1_dropShadow_2_3694"/>
<feBlend mode="normal" in="SourceGraphic" in2="effect1_dropShadow_2_3694" result="shape"/>
</filter>
<filter id="filter10_d_2_3694" x="0.803711" y="0.531982" width="63.6963" height="71.968" filterUnits="userSpaceOnUse" color-interpolation-filters="sRGB">
<feFlood flood-opacity="0" result="BackgroundImageFix"/>
<feColorMatrix in="SourceAlpha" type="matrix" values="0 0 0 0 0 0 0 0 0 0 0 0 0 0 0 0 0 0 127 0" result="hardAlpha"/>
<feOffset/>
<feGaussianBlur stdDeviation="4.5"/>
<feComposite in2="hardAlpha" operator="out"/>
<feColorMatrix type="matrix" values="0 0 0 0 0.694118 0 0 0 0 0.309804 0 0 0 0 1 0 0 0 0.2 0"/>
<feBlend mode="normal" in2="BackgroundImageFix" result="effect1_dropShadow_2_3694"/>
<feBlend mode="normal" in="SourceGraphic" in2="effect1_dropShadow_2_3694" result="shape"/>
</filter>
<clipPath id="clip0_2_3694">
<rect width="48" height="49" fill="white" transform="translate(46 21)"/>
</clipPath>
</defs>
</svg>
