<svg width="38" height="18" viewBox="0 0 38 18" fill="none" xmlns="http://www.w3.org/2000/svg">
<g clip-path="url(#clip0_0_3905)">
<path d="M28.873 -1.2412e-07H23.6694L32.7966 9L23.6694 18H28.873L38.0002 9L28.873 -1.2412e-07ZM24.7424 0.440764H28.6932L37.3728 9L28.6932 17.5592H24.7424L33.422 9L24.7424 0.440764V0.440764Z" fill="#00BDFF" fill-opacity="0.5"/>
<path d="M17.0392 -1.2412e-07H11.8356L20.9628 9L11.8335 18H17.0371L26.1643 9L17.0371 -1.2412e-07H17.0392ZM12.9085 0.440764H16.8593L25.5389 9L16.8593 17.5592H12.9085L21.5881 9L12.9085 0.440764V0.440764Z" fill="#00BDFF" fill-opacity="0.5"/>
<path d="M5.20359 -1.2412e-07H0L9.12719 9L0 18H5.20359L14.3308 9L5.20359 -1.2412e-07ZM1.07293 0.440764H5.02372L13.7033 9L5.02372 17.5592H1.07293L9.75255 9L1.07293 0.440764V0.440764Z" fill="#00BDFF" fill-opacity="0.5"/>
</g>
<defs>
<clipPath id="clip0_0_3905">
<rect width="38" height="18" fill="white" transform="matrix(1 0 0 -1 0 18)"/>
</clipPath>
</defs>
</svg>
