<svg width="1384" height="1276" viewBox="0 0 1384 1276" fill="none" xmlns="http://www.w3.org/2000/svg">
<g clip-path="url(#clip0_0_3521)">
<g filter="url(#filter0_d_0_3521)">
<path d="M1218.1 26.591C1180.3 11.7584 1122.01 -5.02979 1053.37 2.11305C961.621 11.6589 937.103 55.0463 849.001 86.1036C684.39 144.141 621.46 45.053 515.859 105.701C409.015 167.061 449.109 282.465 336.689 340.876C242.332 389.906 177.189 327.784 95.9317 382.871C7.80512 442.624 1.63229 571.842 0.762289 590.055C-8.40168 781.752 165.565 972.413 345.099 1004.41C452.879 1023.62 468.846 970.739 577.455 987.618C787.497 1020.25 827.633 1233.52 997.382 1270.39C1080.42 1288.42 1204.03 1266.31 1383.71 1094.01" stroke="url(#paint0_linear_0_3521)" stroke-opacity="0.2" shape-rendering="crispEdges"/>
</g>
<g filter="url(#filter1_d_0_3521)">
<path d="M1228.58 76.0356C1189.6 64.2524 1132.71 50.3562 1067.37 57.8554C978.83 68.2962 954.138 107.3 870.386 137.52C717.159 192.824 660.228 103.845 561.421 159.918C460.278 217.045 495.053 319.323 387.347 372.952C297.953 417.865 233.93 363.05 159.822 415.462C79.4595 472.149 78.7138 591.853 78.6392 608.898C77.8438 785.472 234.998 957.207 403.637 987.626C508.84 1006.86 523.829 962.179 627.964 977.766C822.18 1006.83 860.527 1202.19 1018.51 1231.71C1098.47 1246.66 1214.18 1222.29 1379.39 1063.47" stroke="url(#paint1_linear_0_3521)" stroke-opacity="0.2" shape-rendering="crispEdges"/>
</g>
<g filter="url(#filter2_d_0_3521)">
<path d="M1239.05 125.472C1198.9 116.73 1143.38 105.543 1081.37 113.589C996.006 124.668 971.157 159.529 891.764 188.929C749.913 241.456 699.105 162.827 606.976 214.128C514.848 265.429 540.815 355.791 437.99 405.021C353.409 445.508 290.662 398.309 223.697 448.035C151.106 501.665 155.779 611.823 156.508 627.725C163.874 788.953 304.499 941.612 462.159 970.822C564.835 989.839 578.797 953.619 678.457 967.897C856.84 993.46 893.562 1170.58 1039.62 1193.02C1116.59 1204.85 1224.31 1178.26 1375.05 1032.93" stroke="url(#paint2_linear_0_3521)" stroke-opacity="0.2" shape-rendering="crispEdges"/>
</g>
<g filter="url(#filter3_d_0_3521)">
<path d="M1249.52 174.917C1208.19 169.224 1154.06 160.855 1095.37 169.332C1013.19 181.198 988.184 211.758 913.149 240.346C782.666 290.056 737.923 221.701 652.539 268.345C562.938 317.293 586.693 392.483 488.64 437.089C408.965 473.333 347.394 433.567 287.588 480.609C222.769 531.18 232.853 631.76 234.394 646.56C249.606 792.184 373.966 926.266 520.706 954.017C620.83 972.959 633.789 945.068 728.975 958.027C891.507 980.16 926.787 1138.68 1060.76 1154.32C1134.84 1162.97 1234.46 1134.22 1370.74 1002.38" stroke="url(#paint3_linear_0_3521)" stroke-opacity="0.2" shape-rendering="crispEdges"/>
</g>
<g filter="url(#filter4_d_0_3521)">
<path d="M1260 224.362C1217.48 221.71 1164.73 216.191 1109.36 225.074C1030.38 237.752 1005.19 263.962 934.518 291.755C815.395 338.606 776.709 280.56 698.086 322.555C614.218 367.343 632.579 429.192 539.274 469.157C464.52 501.176 404.234 468.975 351.454 513.191C294.54 560.862 309.868 651.656 312.263 665.395C334.858 795.151 443.417 910.945 579.236 937.221C676.808 956.097 688.748 936.541 779.476 948.167C926.141 966.96 960.154 1106.42 1081.88 1115.63C1153.19 1121.04 1244.6 1090.2 1366.41 971.833" stroke="url(#paint4_linear_0_3521)" stroke-opacity="0.2" shape-rendering="crispEdges"/>
</g>
<g filter="url(#filter5_d_0_3521)">
<path d="M1270.47 273.806C1226.78 274.204 1175.41 271.536 1123.36 280.816C1047.56 294.331 1022.21 316.149 955.895 343.171C848.115 387.106 815.502 339.418 743.641 376.764C665.498 417.384 678.49 465.925 589.924 501.225C520.118 529.051 460.999 504.258 415.337 545.764C366.227 590.403 386.859 671.502 390.14 684.221C419.471 797.86 512.868 895.664 637.766 920.416C732.786 939.242 743.699 928.039 829.969 938.298C960.742 953.851 994.382 1089.68 1102.99 1076.95C1171.22 1068.94 1254.74 1046.16 1362.07 941.289" stroke="url(#paint5_linear_0_3521)" stroke-opacity="0.2" shape-rendering="crispEdges"/>
</g>
<g filter="url(#filter6_d_0_3521)">
<path d="M1280.95 323.243C1236.08 326.69 1186.1 326.905 1137.36 336.551C1064.75 350.927 1039.22 368.287 977.28 394.58C880.818 435.523 854.288 398.234 789.203 430.974C716.778 467.409 724.434 502.692 640.575 533.294C575.731 556.951 517.764 539.533 479.219 578.347C437.915 619.944 463.783 691.331 468.025 703.065C503.223 800.454 582.318 880.442 696.313 903.628C788.773 922.438 798.649 919.587 880.487 928.445C995.351 940.875 1029.18 1057.02 1124.13 1038.26C1189.01 1025.45 1264.89 1002.14 1357.76 910.746" stroke="url(#paint6_linear_0_3521)" stroke-opacity="0.2" shape-rendering="crispEdges"/>
</g>
<g filter="url(#filter7_d_0_3521)">
<path d="M1291.42 372.687C1245.38 379.175 1196.78 382.299 1151.35 392.293C1081.95 407.565 1056.21 420.4 998.657 445.997C913.481 483.874 893.048 457.042 834.758 485.191C768.025 517.417 770.403 539.517 691.217 565.362C631.353 584.901 574.513 574.792 543.102 610.92C509.595 649.452 540.6 711.127 545.903 721.891C585.889 803.089 651.752 865.245 754.851 886.823C844.742 905.641 853.592 911.185 930.996 918.576C1029.93 928.031 1064.02 1022.48 1145.26 999.575C1206.75 982.232 1275.04 958.11 1353.43 880.202" stroke="url(#paint7_linear_0_3521)" stroke-opacity="0.2" shape-rendering="crispEdges"/>
</g>
<g filter="url(#filter8_d_0_3521)">
<path d="M1301.9 422.132C1254.68 431.67 1207.47 437.719 1165.35 448.035C1099.15 464.243 1073.17 472.455 1020.03 497.414C946.11 532.125 931.775 515.818 880.305 539.409C819.256 567.392 816.381 576.416 741.859 597.438C687.008 612.909 631.253 610.042 606.976 643.51C581.258 678.968 617.276 730.998 623.771 740.734C667.387 806.139 721.17 850.114 813.373 870.035C900.687 888.903 908.493 902.882 981.49 908.732C1064.46 915.369 1094.93 972.164 1166.37 960.903C1227.6 951.249 1285.18 914.093 1349.1 849.675" stroke="url(#paint8_linear_0_3521)" stroke-opacity="0.2" shape-rendering="crispEdges"/>
</g>
<g filter="url(#filter9_d_0_3521)">
<path d="M1312.37 471.568C1263.97 484.147 1218.17 493.171 1179.34 503.769C1116.36 520.972 1090.1 524.419 1041.4 548.822C978.681 580.252 970.495 574.535 925.86 593.618C870.461 617.301 862.399 613.406 792.501 629.506C742.671 640.983 687.969 645.25 670.851 676.084C652.888 708.434 693.786 750.984 701.649 759.569C747.908 810.05 790.587 835.025 871.911 853.23C956.641 872.197 963.402 894.736 1031.99 898.863C1098.99 902.89 1128.56 936.889 1187.49 922.205C1246.42 907.522 1295.32 870.051 1344.77 819.123" stroke="url(#paint9_linear_0_3521)" stroke-opacity="0.2" shape-rendering="crispEdges"/>
</g>
<g filter="url(#filter10_d_0_3521)">
<path d="M1322.85 521.013C1273.28 536.641 1228.88 548.656 1193.35 559.512C1133.61 577.766 1106.97 576.258 1062.8 600.231C1011.19 628.247 1009.21 633.186 971.431 647.828C921.65 667.118 908.443 650.537 843.16 661.575C798.359 669.148 744.643 680.451 734.742 708.658C724.484 737.876 770.163 771.261 779.534 778.396C828.039 815.328 859.988 819.985 930.45 836.425C1012.58 855.583 1018.29 886.897 1082.5 888.994C1133.52 890.659 1161.79 900.893 1208.62 883.517C1264.22 862.884 1305.47 826.026 1340.45 788.58" stroke="url(#paint10_linear_0_3521)" stroke-opacity="0.2" shape-rendering="crispEdges"/>
</g>
<g filter="url(#filter11_d_0_3521)">
<path d="M1333.32 570.458C1282.57 589.127 1239.62 604.175 1207.35 615.254C1150.89 634.636 1123.68 627.882 1084.17 651.648C1043.56 676.076 1047.88 691.737 1016.99 702.045C972.773 716.787 954.462 687.867 893.81 693.643C854.022 697.43 801.226 715.652 798.624 741.24C795.973 767.342 846.507 791.928 857.411 797.231C908.791 822.231 929.372 805.02 988.988 819.629C1068.47 839.102 1073.21 879.813 1133.01 879.133C1168.08 878.735 1194.12 864.417 1229.75 844.828C1281.08 816.596 1315.62 781.992 1336.13 758.036" stroke="url(#paint11_linear_0_3521)" stroke-opacity="0.2" shape-rendering="crispEdges"/>
</g>
</g>
<defs>
<filter id="filter0_d_0_3521" x="-4.08447" y="-0.0844727" width="1392.14" height="1284.17" filterUnits="userSpaceOnUse" color-interpolation-filters="sRGB">
<feFlood flood-opacity="0" result="BackgroundImageFix"/>
<feColorMatrix in="SourceAlpha" type="matrix" values="0 0 0 0 0 0 0 0 0 0 0 0 0 0 0 0 0 0 127 0" result="hardAlpha"/>
<feOffset dy="4"/>
<feGaussianBlur stdDeviation="2"/>
<feComposite in2="hardAlpha" operator="out"/>
<feColorMatrix type="matrix" values="0 0 0 0 0 0 0 0 0 0 0 0 0 0 0 0 0 0 0.25 0"/>
<feBlend mode="normal" in2="BackgroundImageFix" result="effect1_dropShadow_0_3521"/>
<feBlend mode="normal" in="SourceGraphic" in2="effect1_dropShadow_0_3521" result="shape"/>
</filter>
<filter id="filter1_d_0_3521" x="74.1362" y="55.2346" width="1309.6" height="1188.74" filterUnits="userSpaceOnUse" color-interpolation-filters="sRGB">
<feFlood flood-opacity="0" result="BackgroundImageFix"/>
<feColorMatrix in="SourceAlpha" type="matrix" values="0 0 0 0 0 0 0 0 0 0 0 0 0 0 0 0 0 0 127 0" result="hardAlpha"/>
<feOffset dy="4"/>
<feGaussianBlur stdDeviation="2"/>
<feComposite in2="hardAlpha" operator="out"/>
<feColorMatrix type="matrix" values="0 0 0 0 0 0 0 0 0 0 0 0 0 0 0 0 0 0 0.25 0"/>
<feBlend mode="normal" in2="BackgroundImageFix" result="effect1_dropShadow_0_3521"/>
<feBlend mode="normal" in="SourceGraphic" in2="effect1_dropShadow_0_3521" result="shape"/>
</filter>
<filter id="filter2_d_0_3521" x="151.688" y="110.32" width="1227.71" height="1093.69" filterUnits="userSpaceOnUse" color-interpolation-filters="sRGB">
<feFlood flood-opacity="0" result="BackgroundImageFix"/>
<feColorMatrix in="SourceAlpha" type="matrix" values="0 0 0 0 0 0 0 0 0 0 0 0 0 0 0 0 0 0 127 0" result="hardAlpha"/>
<feOffset dy="4"/>
<feGaussianBlur stdDeviation="2"/>
<feComposite in2="hardAlpha" operator="out"/>
<feColorMatrix type="matrix" values="0 0 0 0 0 0 0 0 0 0 0 0 0 0 0 0 0 0 0.25 0"/>
<feBlend mode="normal" in2="BackgroundImageFix" result="effect1_dropShadow_0_3521"/>
<feBlend mode="normal" in="SourceGraphic" in2="effect1_dropShadow_0_3521" result="shape"/>
</filter>
<filter id="filter3_d_0_3521" x="228.419" y="165.223" width="1146.67" height="999.012" filterUnits="userSpaceOnUse" color-interpolation-filters="sRGB">
<feFlood flood-opacity="0" result="BackgroundImageFix"/>
<feColorMatrix in="SourceAlpha" type="matrix" values="0 0 0 0 0 0 0 0 0 0 0 0 0 0 0 0 0 0 127 0" result="hardAlpha"/>
<feOffset dy="4"/>
<feGaussianBlur stdDeviation="2"/>
<feComposite in2="hardAlpha" operator="out"/>
<feColorMatrix type="matrix" values="0 0 0 0 0 0 0 0 0 0 0 0 0 0 0 0 0 0 0.25 0"/>
<feBlend mode="normal" in2="BackgroundImageFix" result="effect1_dropShadow_0_3521"/>
<feBlend mode="normal" in="SourceGraphic" in2="effect1_dropShadow_0_3521" result="shape"/>
</filter>
<filter id="filter4_d_0_3521" x="304.104" y="219.721" width="1066.65" height="904.998" filterUnits="userSpaceOnUse" color-interpolation-filters="sRGB">
<feFlood flood-opacity="0" result="BackgroundImageFix"/>
<feColorMatrix in="SourceAlpha" type="matrix" values="0 0 0 0 0 0 0 0 0 0 0 0 0 0 0 0 0 0 127 0" result="hardAlpha"/>
<feOffset dy="4"/>
<feGaussianBlur stdDeviation="2"/>
<feComposite in2="hardAlpha" operator="out"/>
<feColorMatrix type="matrix" values="0 0 0 0 0 0 0 0 0 0 0 0 0 0 0 0 0 0 0.25 0"/>
<feBlend mode="normal" in2="BackgroundImageFix" result="effect1_dropShadow_0_3521"/>
<feBlend mode="normal" in="SourceGraphic" in2="effect1_dropShadow_0_3521" result="shape"/>
</filter>
<filter id="filter5_d_0_3521" x="378.554" y="273.238" width="987.864" height="813.049" filterUnits="userSpaceOnUse" color-interpolation-filters="sRGB">
<feFlood flood-opacity="0" result="BackgroundImageFix"/>
<feColorMatrix in="SourceAlpha" type="matrix" values="0 0 0 0 0 0 0 0 0 0 0 0 0 0 0 0 0 0 127 0" result="hardAlpha"/>
<feOffset dy="4"/>
<feGaussianBlur stdDeviation="2"/>
<feComposite in2="hardAlpha" operator="out"/>
<feColorMatrix type="matrix" values="0 0 0 0 0 0 0 0 0 0 0 0 0 0 0 0 0 0 0.25 0"/>
<feBlend mode="normal" in2="BackgroundImageFix" result="effect1_dropShadow_0_3521"/>
<feBlend mode="normal" in="SourceGraphic" in2="effect1_dropShadow_0_3521" result="shape"/>
</filter>
<filter id="filter6_d_0_3521" x="451.637" y="322.744" width="910.473" height="726.065" filterUnits="userSpaceOnUse" color-interpolation-filters="sRGB">
<feFlood flood-opacity="0" result="BackgroundImageFix"/>
<feColorMatrix in="SourceAlpha" type="matrix" values="0 0 0 0 0 0 0 0 0 0 0 0 0 0 0 0 0 0 127 0" result="hardAlpha"/>
<feOffset dy="4"/>
<feGaussianBlur stdDeviation="2"/>
<feComposite in2="hardAlpha" operator="out"/>
<feColorMatrix type="matrix" values="0 0 0 0 0 0 0 0 0 0 0 0 0 0 0 0 0 0 0.25 0"/>
<feBlend mode="normal" in2="BackgroundImageFix" result="effect1_dropShadow_0_3521"/>
<feBlend mode="normal" in="SourceGraphic" in2="effect1_dropShadow_0_3521" result="shape"/>
</filter>
<filter id="filter7_d_0_3521" x="523.252" y="372.192" width="834.535" height="639.453" filterUnits="userSpaceOnUse" color-interpolation-filters="sRGB">
<feFlood flood-opacity="0" result="BackgroundImageFix"/>
<feColorMatrix in="SourceAlpha" type="matrix" values="0 0 0 0 0 0 0 0 0 0 0 0 0 0 0 0 0 0 127 0" result="hardAlpha"/>
<feOffset dy="4"/>
<feGaussianBlur stdDeviation="2"/>
<feComposite in2="hardAlpha" operator="out"/>
<feColorMatrix type="matrix" values="0 0 0 0 0 0 0 0 0 0 0 0 0 0 0 0 0 0 0.25 0"/>
<feBlend mode="normal" in2="BackgroundImageFix" result="effect1_dropShadow_0_3521"/>
<feBlend mode="normal" in="SourceGraphic" in2="effect1_dropShadow_0_3521" result="shape"/>
</filter>
<filter id="filter8_d_0_3521" x="593.331" y="421.642" width="760.125" height="549.234" filterUnits="userSpaceOnUse" color-interpolation-filters="sRGB">
<feFlood flood-opacity="0" result="BackgroundImageFix"/>
<feColorMatrix in="SourceAlpha" type="matrix" values="0 0 0 0 0 0 0 0 0 0 0 0 0 0 0 0 0 0 127 0" result="hardAlpha"/>
<feOffset dy="4"/>
<feGaussianBlur stdDeviation="2"/>
<feComposite in2="hardAlpha" operator="out"/>
<feColorMatrix type="matrix" values="0 0 0 0 0 0 0 0 0 0 0 0 0 0 0 0 0 0 0.25 0"/>
<feBlend mode="normal" in2="BackgroundImageFix" result="effect1_dropShadow_0_3521"/>
<feBlend mode="normal" in="SourceGraphic" in2="effect1_dropShadow_0_3521" result="shape"/>
</filter>
<filter id="filter9_d_0_3521" x="661.834" y="471.084" width="687.292" height="463.279" filterUnits="userSpaceOnUse" color-interpolation-filters="sRGB">
<feFlood flood-opacity="0" result="BackgroundImageFix"/>
<feColorMatrix in="SourceAlpha" type="matrix" values="0 0 0 0 0 0 0 0 0 0 0 0 0 0 0 0 0 0 127 0" result="hardAlpha"/>
<feOffset dy="4"/>
<feGaussianBlur stdDeviation="2"/>
<feComposite in2="hardAlpha" operator="out"/>
<feColorMatrix type="matrix" values="0 0 0 0 0 0 0 0 0 0 0 0 0 0 0 0 0 0 0.25 0"/>
<feBlend mode="normal" in2="BackgroundImageFix" result="effect1_dropShadow_0_3521"/>
<feBlend mode="normal" in="SourceGraphic" in2="effect1_dropShadow_0_3521" result="shape"/>
</filter>
<filter id="filter10_d_0_3521" x="728.75" y="520.536" width="616.066" height="381.462" filterUnits="userSpaceOnUse" color-interpolation-filters="sRGB">
<feFlood flood-opacity="0" result="BackgroundImageFix"/>
<feColorMatrix in="SourceAlpha" type="matrix" values="0 0 0 0 0 0 0 0 0 0 0 0 0 0 0 0 0 0 127 0" result="hardAlpha"/>
<feOffset dy="4"/>
<feGaussianBlur stdDeviation="2"/>
<feComposite in2="hardAlpha" operator="out"/>
<feColorMatrix type="matrix" values="0 0 0 0 0 0 0 0 0 0 0 0 0 0 0 0 0 0 0.25 0"/>
<feBlend mode="normal" in2="BackgroundImageFix" result="effect1_dropShadow_0_3521"/>
<feBlend mode="normal" in="SourceGraphic" in2="effect1_dropShadow_0_3521" result="shape"/>
</filter>
<filter id="filter11_d_0_3521" x="794.024" y="569.989" width="546.481" height="317.653" filterUnits="userSpaceOnUse" color-interpolation-filters="sRGB">
<feFlood flood-opacity="0" result="BackgroundImageFix"/>
<feColorMatrix in="SourceAlpha" type="matrix" values="0 0 0 0 0 0 0 0 0 0 0 0 0 0 0 0 0 0 127 0" result="hardAlpha"/>
<feOffset dy="4"/>
<feGaussianBlur stdDeviation="2"/>
<feComposite in2="hardAlpha" operator="out"/>
<feColorMatrix type="matrix" values="0 0 0 0 0 0 0 0 0 0 0 0 0 0 0 0 0 0 0.25 0"/>
<feBlend mode="normal" in2="BackgroundImageFix" result="effect1_dropShadow_0_3521"/>
<feBlend mode="normal" in="SourceGraphic" in2="effect1_dropShadow_0_3521" result="shape"/>
</filter>
<linearGradient id="paint0_linear_0_3521" x1="692.063" y1="0.415527" x2="692.063" y2="1275.58" gradientUnits="userSpaceOnUse">
<stop stop-color="#53C3DC"/>
<stop offset="1" stop-color="#57E1FF" stop-opacity="0"/>
</linearGradient>
<linearGradient id="paint1_linear_0_3521" x1="729.015" y1="55.7346" x2="729.015" y2="1235.48" gradientUnits="userSpaceOnUse">
<stop stop-color="#53C3DC"/>
<stop offset="1" stop-color="#57E1FF" stop-opacity="0"/>
</linearGradient>
<linearGradient id="paint2_linear_0_3521" x1="765.62" y1="110.82" x2="765.62" y2="1195.51" gradientUnits="userSpaceOnUse">
<stop stop-color="#53C3DC"/>
<stop offset="1" stop-color="#57E1FF" stop-opacity="0"/>
</linearGradient>
<linearGradient id="paint3_linear_0_3521" x1="801.831" y1="165.723" x2="801.831" y2="1155.73" gradientUnits="userSpaceOnUse">
<stop stop-color="#53C3DC"/>
<stop offset="1" stop-color="#57E1FF" stop-opacity="0"/>
</linearGradient>
<linearGradient id="paint4_linear_0_3521" x1="837.506" y1="220.221" x2="837.506" y2="1116.22" gradientUnits="userSpaceOnUse">
<stop stop-color="#53C3DC"/>
<stop offset="1" stop-color="#57E1FF" stop-opacity="0"/>
</linearGradient>
<linearGradient id="paint5_linear_0_3521" x1="872.561" y1="273.738" x2="872.561" y2="1077.79" gradientUnits="userSpaceOnUse">
<stop stop-color="#53C3DC"/>
<stop offset="1" stop-color="#57E1FF" stop-opacity="0"/>
</linearGradient>
<linearGradient id="paint6_linear_0_3521" x1="906.948" y1="323.243" x2="906.948" y2="1040.31" gradientUnits="userSpaceOnUse">
<stop stop-color="#53C3DC"/>
<stop offset="1" stop-color="#57E1FF" stop-opacity="0"/>
</linearGradient>
<linearGradient id="paint7_linear_0_3521" x1="940.593" y1="372.687" x2="940.593" y2="1003.14" gradientUnits="userSpaceOnUse">
<stop stop-color="#53C3DC"/>
<stop offset="1" stop-color="#57E1FF" stop-opacity="0"/>
</linearGradient>
<linearGradient id="paint8_linear_0_3521" x1="973.466" y1="422.132" x2="973.466" y2="962.376" gradientUnits="userSpaceOnUse">
<stop stop-color="#53C3DC"/>
<stop offset="1" stop-color="#57E1FF" stop-opacity="0"/>
</linearGradient>
<linearGradient id="paint9_linear_0_3521" x1="1005.55" y1="471.568" x2="1005.55" y2="925.863" gradientUnits="userSpaceOnUse">
<stop stop-color="#53C3DC"/>
<stop offset="1" stop-color="#57E1FF" stop-opacity="0"/>
</linearGradient>
<linearGradient id="paint10_linear_0_3521" x1="1036.85" y1="521.013" x2="1036.85" y2="893.5" gradientUnits="userSpaceOnUse">
<stop stop-color="#53C3DC"/>
<stop offset="1" stop-color="#57E1FF" stop-opacity="0"/>
</linearGradient>
<linearGradient id="paint11_linear_0_3521" x1="1067.32" y1="570.458" x2="1067.32" y2="879.142" gradientUnits="userSpaceOnUse">
<stop stop-color="#53C3DC"/>
<stop offset="1" stop-color="#57E1FF" stop-opacity="0"/>
</linearGradient>
<clipPath id="clip0_0_3521">
<rect width="1384" height="1276" fill="white"/>
</clipPath>
</defs>
</svg>
