<svg width="115" height="100" viewBox="0 0 115 100" fill="none" xmlns="http://www.w3.org/2000/svg">
<path d="M44.2998 42.9807L44.4464 57.2557" stroke="#39F0BA" stroke-width="5.40557" stroke-linecap="round" stroke-linejoin="round"/>
<path d="M44.3457 66.5474L44.3593 66.5475" stroke="#39F0BA" stroke-width="5.40557" stroke-linecap="round" stroke-linejoin="round"/>
<path d="M66.285 55.6099C66.3572 55.6099 66.4259 55.6028 66.4873 55.5851L75.1165 53.316C75.3188 53.2629 75.4886 53.1319 75.5933 52.9549C75.6981 52.7743 75.727 52.5655 75.6728 52.3637C75.5644 51.9566 75.1129 51.7053 74.7084 51.8115L66.0827 54.0806C65.8768 54.1337 65.7071 54.2611 65.6023 54.4417C65.4976 54.6222 65.4687 54.8311 65.5229 55.0329C65.6132 55.3762 65.9274 55.6134 66.285 55.6134V55.6099Z" fill="#39F0BA"/>
<path d="M80.9649 79.8685L71.2556 82.1413C70.7842 82.2512 70.5037 82.6767 70.6257 83.0915C70.7273 83.4354 71.0808 83.673 71.4832 83.673C71.5564 83.673 71.6336 83.6659 71.7108 83.6482L81.416 81.3754C81.6436 81.3222 81.8387 81.1946 81.9565 81.0137C82.0744 80.8329 82.1069 80.6237 82.046 80.4252C81.924 80.021 81.4363 79.7621 80.9608 79.872L80.9649 79.8685Z" fill="#39F0BA"/>
<path d="M97.6295 41.8371C97.2895 41.5013 96.708 41.4973 96.3681 41.8371C96.2002 42.003 96.106 42.2296 96.106 42.4643C96.106 42.703 96.2002 42.9255 96.3681 43.0954L103.51 50.2488C103.678 50.4147 103.904 50.5118 104.141 50.5118C104.219 50.5118 104.297 50.4996 104.375 50.4834C104.522 50.443 104.661 50.3621 104.772 50.2528C104.94 50.0869 105.034 49.8644 105.034 49.6257C105.034 49.387 104.944 49.1644 104.776 48.9945L97.6336 41.8412L97.6295 41.8371Z" fill="#39F0BA"/>
<path d="M62.1844 36.5113C61.6605 36.3863 61.0657 36.6726 60.9193 37.1362L57.8793 46.8441C57.8085 47.0739 57.8415 47.3118 57.9831 47.5174C58.12 47.723 58.3419 47.8681 58.6063 47.9286C58.6912 47.9487 58.7856 47.9608 58.8753 47.9608C58.9603 47.9608 59.05 47.9528 59.1397 47.9326C59.4937 47.8479 59.7722 47.6101 59.8666 47.3077L62.9067 37.5958C62.9822 37.37 62.9444 37.1281 62.8076 36.9225C62.6707 36.7169 62.4488 36.5718 62.1892 36.5113H62.1844Z" fill="#39F0BA"/>
<path d="M77.2235 62.244C76.8875 61.908 76.3057 61.904 75.9575 62.244C75.7895 62.414 75.6952 62.6407 75.6993 62.8754C75.6993 63.1143 75.7936 63.3369 75.9575 63.5029L83.1031 70.6635C83.2711 70.8295 83.4964 70.9185 83.734 70.9185C83.8119 70.9185 83.8897 70.9104 83.9635 70.8902C84.1151 70.8497 84.2585 70.7687 84.365 70.6594C84.533 70.4894 84.6272 70.2668 84.6272 70.032C84.6272 69.7932 84.533 69.5706 84.365 69.3965L77.2194 62.2399L77.2235 62.244Z" fill="#39F0BA"/>
<path d="M87.8824 44.1639C87.4895 44.0389 87.04 44.3251 86.9338 44.7885L84.6546 54.4971C84.6015 54.7268 84.6263 54.9646 84.7289 55.1701C84.8351 55.3756 85.0014 55.5207 85.1961 55.5812C85.2633 55.6013 85.3306 55.6134 85.3978 55.6134C85.4615 55.6134 85.5288 55.6054 85.596 55.5852C85.8615 55.5046 86.0738 55.2628 86.1446 54.9605L88.4274 45.256C88.4805 45.0263 88.4522 44.7885 88.3531 44.583C88.2504 44.3775 88.0841 44.2324 87.8894 44.1719L87.8824 44.1639Z" fill="#39F0BA"/>
<mask id="path-9-outside-1_1132_43591" maskUnits="userSpaceOnUse" x="49.1904" y="26.5549" width="63" height="65" fill="black">
<rect fill="white" x="49.1904" y="26.5549" width="63" height="65"/>
<path d="M111.34 47.8988C111.06 46.8171 109.943 46.1297 108.854 46.4181L100.188 37.5388C100.288 37.1831 100.293 36.7985 100.198 36.4331C99.9555 35.5245 99.1474 34.8852 98.2252 34.8852C98.0446 34.8852 97.8687 34.9092 97.6976 34.9573C96.9846 35.1496 96.4474 35.7072 96.2573 36.4091L84.3212 39.6493C83.8173 39.1397 83.0567 38.9282 82.3627 39.1157H82.3484L73.6637 30.2028C73.7636 29.847 73.7636 29.4624 73.6732 29.1019C73.3928 28.0154 72.2424 27.3327 71.1776 27.6212C70.4694 27.8135 69.9227 28.3711 69.7326 29.073L57.7964 32.3132C57.2926 31.8084 56.532 31.5921 55.838 31.7844C55.3103 31.9286 54.8683 32.2699 54.5973 32.7507C54.3216 33.2314 54.2503 33.7939 54.3929 34.3323C54.4785 34.664 54.6401 34.9669 54.873 35.2169L51.6406 47.394C51.1462 47.5479 50.7279 47.8844 50.4665 48.3411C50.1908 48.8218 50.1195 49.3843 50.2621 49.9227C50.533 50.9659 51.5788 51.6438 52.6341 51.4322L61.4376 60.4557C61.3711 60.7826 61.3759 61.1095 61.4614 61.4316C61.547 61.7585 61.7134 62.0662 61.9368 62.3114L58.7091 74.5126C58.2195 74.6664 57.8107 74.9981 57.5493 75.4548C57.2783 75.9355 57.2022 76.498 57.3449 77.0364C57.6158 78.0796 58.6758 78.7527 59.7169 78.546L68.4824 87.5358C68.4158 87.8531 68.4253 88.18 68.5062 88.5021C68.7438 89.4107 69.5519 90.0501 70.4789 90.0501C70.6547 90.0501 70.8354 90.026 71.0065 89.978C71.6768 89.7953 72.2092 89.2713 72.4231 88.6079L84.4495 85.3436C84.9486 85.8099 85.6569 86.0022 86.3462 85.8196C86.8738 85.6753 87.3159 85.334 87.5916 84.8485C87.8625 84.3677 87.9386 83.8053 87.8007 83.2716C87.7057 82.9207 87.5298 82.6034 87.2826 82.3438L90.496 70.2051C90.5483 70.1859 90.6053 70.1715 90.6529 70.1474C91.2423 69.9263 91.6939 69.4408 91.884 68.835L103.91 65.5708C104.41 66.0419 105.137 66.2294 105.807 66.0467C106.335 65.9073 106.777 65.5612 107.048 65.0756C107.324 64.5949 107.395 64.0324 107.257 63.494C107.167 63.1479 106.986 62.8306 106.739 62.571L109.952 50.4275C110.456 50.2785 110.874 49.9371 111.145 49.4756C111.416 48.9949 111.492 48.4324 111.35 47.894L111.34 47.8988ZM54.179 50.0189C54.2978 49.6439 54.3073 49.2401 54.2075 48.8507C54.1125 48.4853 53.9223 48.1488 53.6609 47.8892L56.8552 35.813C56.8552 35.813 56.8743 35.8082 56.8838 35.8034C57.5968 35.6111 58.1339 35.0534 58.3241 34.3515L70.2602 31.1114C70.7498 31.6017 71.4866 31.8228 72.1616 31.6546L80.9081 40.6204C80.8226 40.9569 80.8273 41.3175 80.9129 41.654C80.9984 41.9857 81.1696 42.2886 81.393 42.5385L78.1653 54.7397C77.8041 54.8551 77.4808 55.0666 77.2336 55.3599C77.0292 55.5954 76.8866 55.8743 76.8011 56.1723L64.8649 59.4077C64.4847 59.0279 63.9665 58.8068 63.4341 58.8068C63.2583 58.8068 63.0776 58.8308 62.9112 58.8741C62.8875 58.8837 62.8637 58.8885 62.8399 58.8933L54.179 50.0189ZM85.2719 81.7958C84.5493 81.9977 83.9979 82.589 83.8315 83.3197L71.9667 86.5407C71.5817 86.1224 71.0445 85.8821 70.4789 85.8821C70.303 85.8821 70.1224 85.9061 69.956 85.9494C69.9322 85.959 69.9084 85.9638 69.8847 85.9686L61.2665 77.1326C61.3854 76.7576 61.3949 76.3538 61.295 75.9692C61.2 75.5942 61.0003 75.2577 60.7294 74.9981L63.9237 62.9219C63.9237 62.9219 63.9475 62.9219 63.957 62.9123C64.651 62.7248 65.1882 62.1864 65.3878 61.4941L77.362 58.2443C77.8373 58.7106 78.5361 58.9174 79.1731 58.7779L87.9148 67.7389C87.8435 68.0658 87.8483 68.4072 87.9338 68.7389C88.0289 69.0946 88.2143 69.4215 88.4758 69.6859L85.2671 81.7958H85.2719ZM104.728 62.0277C104.01 62.2297 103.459 62.821 103.293 63.5517L91.4277 66.7726C91.0427 66.3544 90.5055 66.1092 89.9398 66.1092C89.7592 66.1092 89.5833 66.1333 89.4169 66.1813C89.4122 66.1813 89.4027 66.1813 89.3979 66.1813L80.7417 57.3021C80.8463 56.9415 80.8511 56.5569 80.7513 56.1916C80.6562 55.8262 80.466 55.4945 80.2046 55.2349L83.4037 43.1395C83.4037 43.1395 83.4132 43.1395 83.418 43.1395C84.131 42.9472 84.6729 42.3943 84.8631 41.6876L96.7992 38.4523C97.2888 38.9426 97.9971 39.1637 98.6958 38.9955L107.395 47.9132C107.309 48.2593 107.309 48.6247 107.395 48.9708C107.49 49.3314 107.675 49.6583 107.932 49.9179L104.728 62.0277Z"/>
</mask>
<path d="M111.34 47.8988C111.06 46.8171 109.943 46.1297 108.854 46.4181L100.188 37.5388C100.288 37.1831 100.293 36.7985 100.198 36.4331C99.9555 35.5245 99.1474 34.8852 98.2252 34.8852C98.0446 34.8852 97.8687 34.9092 97.6976 34.9573C96.9846 35.1496 96.4474 35.7072 96.2573 36.4091L84.3212 39.6493C83.8173 39.1397 83.0567 38.9282 82.3627 39.1157H82.3484L73.6637 30.2028C73.7636 29.847 73.7636 29.4624 73.6732 29.1019C73.3928 28.0154 72.2424 27.3327 71.1776 27.6212C70.4694 27.8135 69.9227 28.3711 69.7326 29.073L57.7964 32.3132C57.2926 31.8084 56.532 31.5921 55.838 31.7844C55.3103 31.9286 54.8683 32.2699 54.5973 32.7507C54.3216 33.2314 54.2503 33.7939 54.3929 34.3323C54.4785 34.664 54.6401 34.9669 54.873 35.2169L51.6406 47.394C51.1462 47.5479 50.7279 47.8844 50.4665 48.3411C50.1908 48.8218 50.1195 49.3843 50.2621 49.9227C50.533 50.9659 51.5788 51.6438 52.6341 51.4322L61.4376 60.4557C61.3711 60.7826 61.3759 61.1095 61.4614 61.4316C61.547 61.7585 61.7134 62.0662 61.9368 62.3114L58.7091 74.5126C58.2195 74.6664 57.8107 74.9981 57.5493 75.4548C57.2783 75.9355 57.2022 76.498 57.3449 77.0364C57.6158 78.0796 58.6758 78.7527 59.7169 78.546L68.4824 87.5358C68.4158 87.8531 68.4253 88.18 68.5062 88.5021C68.7438 89.4107 69.5519 90.0501 70.4789 90.0501C70.6547 90.0501 70.8354 90.026 71.0065 89.978C71.6768 89.7953 72.2092 89.2713 72.4231 88.6079L84.4495 85.3436C84.9486 85.8099 85.6569 86.0022 86.3462 85.8196C86.8738 85.6753 87.3159 85.334 87.5916 84.8485C87.8625 84.3677 87.9386 83.8053 87.8007 83.2716C87.7057 82.9207 87.5298 82.6034 87.2826 82.3438L90.496 70.2051C90.5483 70.1859 90.6053 70.1715 90.6529 70.1474C91.2423 69.9263 91.6939 69.4408 91.884 68.835L103.91 65.5708C104.41 66.0419 105.137 66.2294 105.807 66.0467C106.335 65.9073 106.777 65.5612 107.048 65.0756C107.324 64.5949 107.395 64.0324 107.257 63.494C107.167 63.1479 106.986 62.8306 106.739 62.571L109.952 50.4275C110.456 50.2785 110.874 49.9371 111.145 49.4756C111.416 48.9949 111.492 48.4324 111.35 47.894L111.34 47.8988ZM54.179 50.0189C54.2978 49.6439 54.3073 49.2401 54.2075 48.8507C54.1125 48.4853 53.9223 48.1488 53.6609 47.8892L56.8552 35.813C56.8552 35.813 56.8743 35.8082 56.8838 35.8034C57.5968 35.6111 58.1339 35.0534 58.3241 34.3515L70.2602 31.1114C70.7498 31.6017 71.4866 31.8228 72.1616 31.6546L80.9081 40.6204C80.8226 40.9569 80.8273 41.3175 80.9129 41.654C80.9984 41.9857 81.1696 42.2886 81.393 42.5385L78.1653 54.7397C77.8041 54.8551 77.4808 55.0666 77.2336 55.3599C77.0292 55.5954 76.8866 55.8743 76.8011 56.1723L64.8649 59.4077C64.4847 59.0279 63.9665 58.8068 63.4341 58.8068C63.2583 58.8068 63.0776 58.8308 62.9112 58.8741C62.8875 58.8837 62.8637 58.8885 62.8399 58.8933L54.179 50.0189ZM85.2719 81.7958C84.5493 81.9977 83.9979 82.589 83.8315 83.3197L71.9667 86.5407C71.5817 86.1224 71.0445 85.8821 70.4789 85.8821C70.303 85.8821 70.1224 85.9061 69.956 85.9494C69.9322 85.959 69.9084 85.9638 69.8847 85.9686L61.2665 77.1326C61.3854 76.7576 61.3949 76.3538 61.295 75.9692C61.2 75.5942 61.0003 75.2577 60.7294 74.9981L63.9237 62.9219C63.9237 62.9219 63.9475 62.9219 63.957 62.9123C64.651 62.7248 65.1882 62.1864 65.3878 61.4941L77.362 58.2443C77.8373 58.7106 78.5361 58.9174 79.1731 58.7779L87.9148 67.7389C87.8435 68.0658 87.8483 68.4072 87.9338 68.7389C88.0289 69.0946 88.2143 69.4215 88.4758 69.6859L85.2671 81.7958H85.2719ZM104.728 62.0277C104.01 62.2297 103.459 62.821 103.293 63.5517L91.4277 66.7726C91.0427 66.3544 90.5055 66.1092 89.9398 66.1092C89.7592 66.1092 89.5833 66.1333 89.4169 66.1813C89.4122 66.1813 89.4027 66.1813 89.3979 66.1813L80.7417 57.3021C80.8463 56.9415 80.8511 56.5569 80.7513 56.1916C80.6562 55.8262 80.466 55.4945 80.2046 55.2349L83.4037 43.1395C83.4037 43.1395 83.4132 43.1395 83.418 43.1395C84.131 42.9472 84.6729 42.3943 84.8631 41.6876L96.7992 38.4523C97.2888 38.9426 97.9971 39.1637 98.6958 38.9955L107.395 47.9132C107.309 48.2593 107.309 48.6247 107.395 48.9708C107.49 49.3314 107.675 49.6583 107.932 49.9179L104.728 62.0277Z" fill="#39F0BA"/>
<path d="M111.34 47.8988C111.06 46.8171 109.943 46.1297 108.854 46.4181L100.188 37.5388C100.288 37.1831 100.293 36.7985 100.198 36.4331C99.9555 35.5245 99.1474 34.8852 98.2252 34.8852C98.0446 34.8852 97.8687 34.9092 97.6976 34.9573C96.9846 35.1496 96.4474 35.7072 96.2573 36.4091L84.3212 39.6493C83.8173 39.1397 83.0567 38.9282 82.3627 39.1157H82.3484L73.6637 30.2028C73.7636 29.847 73.7636 29.4624 73.6732 29.1019C73.3928 28.0154 72.2424 27.3327 71.1776 27.6212C70.4694 27.8135 69.9227 28.3711 69.7326 29.073L57.7964 32.3132C57.2926 31.8084 56.532 31.5921 55.838 31.7844C55.3103 31.9286 54.8683 32.2699 54.5973 32.7507C54.3216 33.2314 54.2503 33.7939 54.3929 34.3323C54.4785 34.664 54.6401 34.9669 54.873 35.2169L51.6406 47.394C51.1462 47.5479 50.7279 47.8844 50.4665 48.3411C50.1908 48.8218 50.1195 49.3843 50.2621 49.9227C50.533 50.9659 51.5788 51.6438 52.6341 51.4322L61.4376 60.4557C61.3711 60.7826 61.3759 61.1095 61.4614 61.4316C61.547 61.7585 61.7134 62.0662 61.9368 62.3114L58.7091 74.5126C58.2195 74.6664 57.8107 74.9981 57.5493 75.4548C57.2783 75.9355 57.2022 76.498 57.3449 77.0364C57.6158 78.0796 58.6758 78.7527 59.7169 78.546L68.4824 87.5358C68.4158 87.8531 68.4253 88.18 68.5062 88.5021C68.7438 89.4107 69.5519 90.0501 70.4789 90.0501C70.6547 90.0501 70.8354 90.026 71.0065 89.978C71.6768 89.7953 72.2092 89.2713 72.4231 88.6079L84.4495 85.3436C84.9486 85.8099 85.6569 86.0022 86.3462 85.8196C86.8738 85.6753 87.3159 85.334 87.5916 84.8485C87.8625 84.3677 87.9386 83.8053 87.8007 83.2716C87.7057 82.9207 87.5298 82.6034 87.2826 82.3438L90.496 70.2051C90.5483 70.1859 90.6053 70.1715 90.6529 70.1474C91.2423 69.9263 91.6939 69.4408 91.884 68.835L103.91 65.5708C104.41 66.0419 105.137 66.2294 105.807 66.0467C106.335 65.9073 106.777 65.5612 107.048 65.0756C107.324 64.5949 107.395 64.0324 107.257 63.494C107.167 63.1479 106.986 62.8306 106.739 62.571L109.952 50.4275C110.456 50.2785 110.874 49.9371 111.145 49.4756C111.416 48.9949 111.492 48.4324 111.35 47.894L111.34 47.8988ZM54.179 50.0189C54.2978 49.6439 54.3073 49.2401 54.2075 48.8507C54.1125 48.4853 53.9223 48.1488 53.6609 47.8892L56.8552 35.813C56.8552 35.813 56.8743 35.8082 56.8838 35.8034C57.5968 35.6111 58.1339 35.0534 58.3241 34.3515L70.2602 31.1114C70.7498 31.6017 71.4866 31.8228 72.1616 31.6546L80.9081 40.6204C80.8226 40.9569 80.8273 41.3175 80.9129 41.654C80.9984 41.9857 81.1696 42.2886 81.393 42.5385L78.1653 54.7397C77.8041 54.8551 77.4808 55.0666 77.2336 55.3599C77.0292 55.5954 76.8866 55.8743 76.8011 56.1723L64.8649 59.4077C64.4847 59.0279 63.9665 58.8068 63.4341 58.8068C63.2583 58.8068 63.0776 58.8308 62.9112 58.8741C62.8875 58.8837 62.8637 58.8885 62.8399 58.8933L54.179 50.0189ZM85.2719 81.7958C84.5493 81.9977 83.9979 82.589 83.8315 83.3197L71.9667 86.5407C71.5817 86.1224 71.0445 85.8821 70.4789 85.8821C70.303 85.8821 70.1224 85.9061 69.956 85.9494C69.9322 85.959 69.9084 85.9638 69.8847 85.9686L61.2665 77.1326C61.3854 76.7576 61.3949 76.3538 61.295 75.9692C61.2 75.5942 61.0003 75.2577 60.7294 74.9981L63.9237 62.9219C63.9237 62.9219 63.9475 62.9219 63.957 62.9123C64.651 62.7248 65.1882 62.1864 65.3878 61.4941L77.362 58.2443C77.8373 58.7106 78.5361 58.9174 79.1731 58.7779L87.9148 67.7389C87.8435 68.0658 87.8483 68.4072 87.9338 68.7389C88.0289 69.0946 88.2143 69.4215 88.4758 69.6859L85.2671 81.7958H85.2719ZM104.728 62.0277C104.01 62.2297 103.459 62.821 103.293 63.5517L91.4277 66.7726C91.0427 66.3544 90.5055 66.1092 89.9398 66.1092C89.7592 66.1092 89.5833 66.1333 89.4169 66.1813C89.4122 66.1813 89.4027 66.1813 89.3979 66.1813L80.7417 57.3021C80.8463 56.9415 80.8511 56.5569 80.7513 56.1916C80.6562 55.8262 80.466 55.4945 80.2046 55.2349L83.4037 43.1395C83.4037 43.1395 83.4132 43.1395 83.418 43.1395C84.131 42.9472 84.6729 42.3943 84.8631 41.6876L96.7992 38.4523C97.2888 38.9426 97.9971 39.1637 98.6958 38.9955L107.395 47.9132C107.309 48.2593 107.309 48.6247 107.395 48.9708C107.49 49.3314 107.675 49.6583 107.932 49.9179L104.728 62.0277Z" stroke="#39F0BA" stroke-width="1.08111" mask="url(#path-9-outside-1_1132_43591)"/>
<path d="M55.7824 31.6872L47.2139 15.9441C46.0159 13.743 42.8808 13.6741 41.5873 15.8204L5.96367 74.9293C4.66089 77.0909 6.21764 79.8467 8.74153 79.8467H44.5085H60.3945" stroke="#39F0BA" stroke-width="3.24334" stroke-linecap="round" stroke-linejoin="round"/>
</svg>
