<svg width="358" height="299" viewBox="0 0 358 299" fill="none" xmlns="http://www.w3.org/2000/svg">
<circle cx="343.622" cy="63.9337" r="1.82119" fill="#B14FFF" fill-opacity="0.2"/>
<circle cx="343.622" cy="93.0728" r="1.82119" fill="#B14FFF" fill-opacity="0.2"/>
<circle cx="343.622" cy="122.212" r="1.82119" fill="#B14FFF" fill-opacity="0.2"/>
<circle cx="343.622" cy="151.351" r="1.82119" fill="#B14FFF" fill-opacity="0.2"/>
<circle cx="343.622" cy="180.49" r="1.82119" fill="#B14FFF" fill-opacity="0.2"/>
<circle cx="343.622" cy="209.629" r="1.82119" fill="#B14FFF" fill-opacity="0.2"/>
<circle cx="343.622" cy="238.768" r="1.82119" fill="#B14FFF" fill-opacity="0.2"/>
<circle cx="343.622" cy="267.907" r="1.82119" fill="#B14FFF" fill-opacity="0.2"/>
<circle cx="343.622" cy="297.046" r="1.82119" fill="#B14FFF" fill-opacity="0.2"/>
<circle cx="100.897" cy="7.9461" r="0.969049" fill="#B14FFF" fill-opacity="0.2"/>
<circle cx="100.897" cy="23.4509" r="0.969049" fill="#B14FFF" fill-opacity="0.2"/>
<circle cx="100.897" cy="38.9557" r="0.969049" fill="#B14FFF" fill-opacity="0.2"/>
<circle cx="100.897" cy="54.4605" r="0.969049" fill="#B14FFF" fill-opacity="0.2"/>
<circle cx="100.897" cy="69.9653" r="0.969049" fill="#B14FFF" fill-opacity="0.2"/>
<circle cx="100.897" cy="85.47" r="0.969049" fill="#B14FFF" fill-opacity="0.2"/>
<circle cx="100.897" cy="100.975" r="0.969049" fill="#B14FFF" fill-opacity="0.2"/>
<circle cx="100.897" cy="116.48" r="0.969049" fill="#B14FFF" fill-opacity="0.2"/>
<circle cx="100.897" cy="131.984" r="0.969049" fill="#B14FFF" fill-opacity="0.2"/>
<circle cx="318.622" cy="63.9337" r="1.82119" fill="#B14FFF" fill-opacity="0.2"/>
<circle cx="318.622" cy="93.0728" r="1.82119" fill="#B14FFF" fill-opacity="0.2"/>
<circle cx="318.622" cy="122.212" r="1.82119" fill="#B14FFF" fill-opacity="0.2"/>
<circle cx="318.622" cy="151.351" r="1.82119" fill="#B14FFF" fill-opacity="0.2"/>
<circle cx="318.622" cy="180.49" r="1.82119" fill="#B14FFF" fill-opacity="0.2"/>
<circle cx="318.622" cy="209.629" r="1.82119" fill="#B14FFF" fill-opacity="0.2"/>
<circle cx="318.622" cy="238.768" r="1.82119" fill="#B14FFF" fill-opacity="0.2"/>
<circle cx="318.622" cy="267.907" r="1.82119" fill="#B14FFF" fill-opacity="0.2"/>
<circle cx="318.622" cy="297.046" r="1.82119" fill="#B14FFF" fill-opacity="0.2"/>
<circle cx="87.595" cy="7.9461" r="0.969049" fill="#B14FFF" fill-opacity="0.2"/>
<circle cx="87.595" cy="23.4509" r="0.969049" fill="#B14FFF" fill-opacity="0.2"/>
<circle cx="87.595" cy="38.9557" r="0.969049" fill="#B14FFF" fill-opacity="0.2"/>
<circle cx="87.595" cy="54.4605" r="0.969049" fill="#B14FFF" fill-opacity="0.2"/>
<circle cx="87.595" cy="69.9653" r="0.969049" fill="#B14FFF" fill-opacity="0.2"/>
<circle cx="87.595" cy="85.47" r="0.969049" fill="#B14FFF" fill-opacity="0.2"/>
<circle cx="87.595" cy="100.975" r="0.969049" fill="#B14FFF" fill-opacity="0.2"/>
<circle cx="87.595" cy="116.48" r="0.969049" fill="#B14FFF" fill-opacity="0.2"/>
<circle cx="87.595" cy="131.984" r="0.969049" fill="#B14FFF" fill-opacity="0.2"/>
<circle cx="293.622" cy="63.9337" r="1.82119" fill="#B14FFF" fill-opacity="0.2"/>
<circle cx="293.622" cy="93.0728" r="1.82119" fill="#B14FFF" fill-opacity="0.2"/>
<circle cx="293.622" cy="122.212" r="1.82119" fill="#B14FFF" fill-opacity="0.2"/>
<circle cx="293.622" cy="151.351" r="1.82119" fill="#B14FFF" fill-opacity="0.2"/>
<circle cx="293.622" cy="180.49" r="1.82119" fill="#B14FFF" fill-opacity="0.2"/>
<circle cx="293.622" cy="209.629" r="1.82119" fill="#B14FFF" fill-opacity="0.2"/>
<circle cx="293.622" cy="238.768" r="1.82119" fill="#B14FFF" fill-opacity="0.2"/>
<circle cx="293.622" cy="267.907" r="1.82119" fill="#B14FFF" fill-opacity="0.2"/>
<circle cx="293.622" cy="297.046" r="1.82119" fill="#B14FFF" fill-opacity="0.2"/>
<circle cx="74.2923" cy="7.9461" r="0.969049" fill="#B14FFF" fill-opacity="0.2"/>
<circle cx="74.2923" cy="23.4509" r="0.969049" fill="#B14FFF" fill-opacity="0.2"/>
<circle cx="74.2923" cy="38.9557" r="0.969049" fill="#B14FFF" fill-opacity="0.2"/>
<circle cx="74.2923" cy="54.4605" r="0.969049" fill="#B14FFF" fill-opacity="0.2"/>
<circle cx="74.2923" cy="69.9653" r="0.969049" fill="#B14FFF" fill-opacity="0.2"/>
<circle cx="74.2923" cy="85.47" r="0.969049" fill="#B14FFF" fill-opacity="0.2"/>
<circle cx="74.2923" cy="100.975" r="0.969049" fill="#B14FFF" fill-opacity="0.2"/>
<circle cx="74.2923" cy="116.48" r="0.969049" fill="#B14FFF" fill-opacity="0.2"/>
<circle cx="74.2923" cy="131.984" r="0.969049" fill="#B14FFF" fill-opacity="0.2"/>
<circle cx="268.622" cy="63.9337" r="1.82119" fill="#B14FFF" fill-opacity="0.2"/>
<circle cx="268.622" cy="93.0728" r="1.82119" fill="#B14FFF" fill-opacity="0.2"/>
<circle cx="268.622" cy="122.212" r="1.82119" fill="#B14FFF" fill-opacity="0.2"/>
<circle cx="268.622" cy="151.351" r="1.82119" fill="#B14FFF" fill-opacity="0.2"/>
<circle cx="268.622" cy="180.49" r="1.82119" fill="#B14FFF" fill-opacity="0.2"/>
<circle cx="268.622" cy="209.629" r="1.82119" fill="#B14FFF" fill-opacity="0.2"/>
<circle cx="268.622" cy="238.768" r="1.82119" fill="#B14FFF" fill-opacity="0.2"/>
<circle cx="268.622" cy="267.907" r="1.82119" fill="#B14FFF" fill-opacity="0.2"/>
<circle cx="268.622" cy="297.046" r="1.82119" fill="#B14FFF" fill-opacity="0.2"/>
<circle cx="60.99" cy="7.9461" r="0.969049" fill="#B14FFF" fill-opacity="0.2"/>
<circle cx="60.99" cy="23.4509" r="0.969049" fill="#B14FFF" fill-opacity="0.2"/>
<circle cx="60.99" cy="38.9557" r="0.969049" fill="#B14FFF" fill-opacity="0.2"/>
<circle cx="60.99" cy="54.4605" r="0.969049" fill="#B14FFF" fill-opacity="0.2"/>
<circle cx="60.99" cy="69.9653" r="0.969049" fill="#B14FFF" fill-opacity="0.2"/>
<circle cx="60.99" cy="85.47" r="0.969049" fill="#B14FFF" fill-opacity="0.2"/>
<circle cx="60.99" cy="100.975" r="0.969049" fill="#B14FFF" fill-opacity="0.2"/>
<circle cx="60.99" cy="116.48" r="0.969049" fill="#B14FFF" fill-opacity="0.2"/>
<circle cx="60.99" cy="131.984" r="0.969049" fill="#B14FFF" fill-opacity="0.2"/>
<circle cx="243.622" cy="63.9337" r="1.82119" fill="#B14FFF" fill-opacity="0.2"/>
<circle cx="243.622" cy="93.0728" r="1.82119" fill="#B14FFF" fill-opacity="0.2"/>
<circle cx="243.622" cy="122.212" r="1.82119" fill="#B14FFF" fill-opacity="0.2"/>
<circle cx="243.622" cy="151.351" r="1.82119" fill="#B14FFF" fill-opacity="0.2"/>
<circle cx="243.622" cy="180.49" r="1.82119" fill="#B14FFF" fill-opacity="0.2"/>
<circle cx="243.622" cy="209.629" r="1.82119" fill="#B14FFF" fill-opacity="0.2"/>
<circle cx="243.622" cy="238.768" r="1.82119" fill="#B14FFF" fill-opacity="0.2"/>
<circle cx="243.622" cy="267.907" r="1.82119" fill="#B14FFF" fill-opacity="0.2"/>
<circle cx="243.622" cy="297.046" r="1.82119" fill="#B14FFF" fill-opacity="0.2"/>
<circle cx="47.6878" cy="7.9461" r="0.969049" fill="#B14FFF" fill-opacity="0.2"/>
<circle cx="47.6878" cy="23.4509" r="0.969049" fill="#B14FFF" fill-opacity="0.2"/>
<circle cx="47.6878" cy="38.9557" r="0.969049" fill="#B14FFF" fill-opacity="0.2"/>
<circle cx="47.6878" cy="54.4605" r="0.969049" fill="#B14FFF" fill-opacity="0.2"/>
<circle cx="47.6878" cy="69.9653" r="0.969049" fill="#B14FFF" fill-opacity="0.2"/>
<circle cx="47.6878" cy="85.47" r="0.969049" fill="#B14FFF" fill-opacity="0.2"/>
<circle cx="47.6878" cy="100.975" r="0.969049" fill="#B14FFF" fill-opacity="0.2"/>
<circle cx="47.6878" cy="116.48" r="0.969049" fill="#B14FFF" fill-opacity="0.2"/>
<circle cx="47.6878" cy="131.984" r="0.969049" fill="#B14FFF" fill-opacity="0.2"/>
<circle cx="193.622" cy="63.9337" r="1.82119" fill="#B14FFF" fill-opacity="0.2"/>
<circle cx="193.622" cy="93.0728" r="1.82119" fill="#B14FFF" fill-opacity="0.2"/>
<circle cx="193.622" cy="122.212" r="1.82119" fill="#B14FFF" fill-opacity="0.2"/>
<circle cx="193.622" cy="151.351" r="1.82119" fill="#B14FFF" fill-opacity="0.2"/>
<circle cx="193.622" cy="180.49" r="1.82119" fill="#B14FFF" fill-opacity="0.2"/>
<circle cx="193.622" cy="209.629" r="1.82119" fill="#B14FFF" fill-opacity="0.2"/>
<circle cx="193.622" cy="238.768" r="1.82119" fill="#B14FFF" fill-opacity="0.2"/>
<circle cx="193.622" cy="267.907" r="1.82119" fill="#B14FFF" fill-opacity="0.2"/>
<circle cx="193.622" cy="297.046" r="1.82119" fill="#B14FFF" fill-opacity="0.2"/>
<circle cx="21.0828" cy="7.9461" r="0.969049" fill="#B14FFF" fill-opacity="0.2"/>
<circle cx="21.0828" cy="23.4509" r="0.969049" fill="#B14FFF" fill-opacity="0.2"/>
<circle cx="21.0828" cy="38.9557" r="0.969049" fill="#B14FFF" fill-opacity="0.2"/>
<circle cx="21.0828" cy="54.4605" r="0.969049" fill="#B14FFF" fill-opacity="0.2"/>
<circle cx="21.0828" cy="69.9653" r="0.969049" fill="#B14FFF" fill-opacity="0.2"/>
<circle cx="21.0828" cy="85.47" r="0.969049" fill="#B14FFF" fill-opacity="0.2"/>
<circle cx="21.0828" cy="100.975" r="0.969049" fill="#B14FFF" fill-opacity="0.2"/>
<circle cx="21.0828" cy="116.48" r="0.969049" fill="#B14FFF" fill-opacity="0.2"/>
<circle cx="21.0828" cy="131.984" r="0.969049" fill="#B14FFF" fill-opacity="0.2"/>
<circle cx="218.622" cy="63.9337" r="1.82119" fill="#B14FFF" fill-opacity="0.2"/>
<circle cx="218.622" cy="93.0728" r="1.82119" fill="#B14FFF" fill-opacity="0.2"/>
<circle cx="218.622" cy="122.212" r="1.82119" fill="#B14FFF" fill-opacity="0.2"/>
<circle cx="218.622" cy="151.351" r="1.82119" fill="#B14FFF" fill-opacity="0.2"/>
<circle cx="218.622" cy="180.49" r="1.82119" fill="#B14FFF" fill-opacity="0.2"/>
<circle cx="218.622" cy="209.629" r="1.82119" fill="#B14FFF" fill-opacity="0.2"/>
<circle cx="218.622" cy="238.768" r="1.82119" fill="#B14FFF" fill-opacity="0.2"/>
<circle cx="218.622" cy="267.907" r="1.82119" fill="#B14FFF" fill-opacity="0.2"/>
<circle cx="218.622" cy="297.046" r="1.82119" fill="#B14FFF" fill-opacity="0.2"/>
<circle cx="34.3851" cy="7.9461" r="0.969049" fill="#B14FFF" fill-opacity="0.2"/>
<circle cx="34.3851" cy="23.4509" r="0.969049" fill="#B14FFF" fill-opacity="0.2"/>
<circle cx="34.3851" cy="38.9557" r="0.969049" fill="#B14FFF" fill-opacity="0.2"/>
<circle cx="34.3851" cy="54.4605" r="0.969049" fill="#B14FFF" fill-opacity="0.2"/>
<circle cx="34.3851" cy="69.9653" r="0.969049" fill="#B14FFF" fill-opacity="0.2"/>
<circle cx="34.3851" cy="85.47" r="0.969049" fill="#B14FFF" fill-opacity="0.2"/>
<circle cx="34.3851" cy="100.975" r="0.969049" fill="#B14FFF" fill-opacity="0.2"/>
<circle cx="34.3851" cy="116.48" r="0.969049" fill="#B14FFF" fill-opacity="0.2"/>
<circle cx="34.3851" cy="131.984" r="0.969049" fill="#B14FFF" fill-opacity="0.2"/>
<circle cx="168.622" cy="63.9337" r="1.82119" fill="#B14FFF" fill-opacity="0.2"/>
<circle cx="168.622" cy="93.0728" r="1.82119" fill="#B14FFF" fill-opacity="0.2"/>
<circle cx="168.622" cy="122.212" r="1.82119" fill="#B14FFF" fill-opacity="0.2"/>
<circle cx="168.622" cy="151.351" r="1.82119" fill="#B14FFF" fill-opacity="0.2"/>
<circle cx="168.622" cy="180.49" r="1.82119" fill="#B14FFF" fill-opacity="0.2"/>
<circle cx="168.622" cy="209.629" r="1.82119" fill="#B14FFF" fill-opacity="0.2"/>
<circle cx="168.622" cy="238.768" r="1.82119" fill="#B14FFF" fill-opacity="0.2"/>
<circle cx="168.622" cy="267.907" r="1.82119" fill="#B14FFF" fill-opacity="0.2"/>
<circle cx="168.622" cy="297.046" r="1.82119" fill="#B14FFF" fill-opacity="0.2"/>
<circle cx="7.78057" cy="7.9461" r="0.969049" fill="#B14FFF" fill-opacity="0.2"/>
<circle cx="7.78057" cy="23.4509" r="0.969049" fill="#B14FFF" fill-opacity="0.2"/>
<circle cx="7.78057" cy="38.9557" r="0.969049" fill="#B14FFF" fill-opacity="0.2"/>
<circle cx="7.78057" cy="54.4605" r="0.969049" fill="#B14FFF" fill-opacity="0.2"/>
<circle cx="7.78057" cy="69.9653" r="0.969049" fill="#B14FFF" fill-opacity="0.2"/>
<circle cx="7.78057" cy="85.47" r="0.969049" fill="#B14FFF" fill-opacity="0.2"/>
<circle cx="7.78057" cy="100.975" r="0.969049" fill="#B14FFF" fill-opacity="0.2"/>
<circle cx="7.78057" cy="116.48" r="0.969049" fill="#B14FFF" fill-opacity="0.2"/>
<circle cx="7.78057" cy="131.984" r="0.969049" fill="#B14FFF" fill-opacity="0.2"/>
<circle cx="355.821" cy="50.8212" r="1.82119" fill="#B14FFF" fill-opacity="0.2"/>
<circle cx="355.821" cy="79.9602" r="1.82119" fill="#B14FFF" fill-opacity="0.2"/>
<circle cx="355.821" cy="109.099" r="1.82119" fill="#B14FFF" fill-opacity="0.2"/>
<circle cx="355.821" cy="138.238" r="1.82119" fill="#B14FFF" fill-opacity="0.2"/>
<circle cx="355.821" cy="167.377" r="1.82119" fill="#B14FFF" fill-opacity="0.2"/>
<circle cx="355.821" cy="196.517" r="1.82119" fill="#B14FFF" fill-opacity="0.2"/>
<circle cx="355.821" cy="225.656" r="1.82119" fill="#B14FFF" fill-opacity="0.2"/>
<circle cx="355.821" cy="254.795" r="1.82119" fill="#B14FFF" fill-opacity="0.2"/>
<circle cx="355.821" cy="283.934" r="1.82119" fill="#B14FFF" fill-opacity="0.2"/>
<circle cx="107.388" cy="0.969049" r="0.969049" fill="#B14FFF" fill-opacity="0.2"/>
<circle cx="107.388" cy="16.4738" r="0.969049" fill="#B14FFF" fill-opacity="0.2"/>
<circle cx="107.388" cy="31.9787" r="0.969049" fill="#B14FFF" fill-opacity="0.2"/>
<circle cx="107.388" cy="47.4835" r="0.969049" fill="#B14FFF" fill-opacity="0.2"/>
<circle cx="107.388" cy="62.9882" r="0.969049" fill="#B14FFF" fill-opacity="0.2"/>
<circle cx="107.388" cy="78.493" r="0.969049" fill="#B14FFF" fill-opacity="0.2"/>
<circle cx="107.388" cy="93.9977" r="0.969049" fill="#B14FFF" fill-opacity="0.2"/>
<circle cx="107.388" cy="109.502" r="0.969049" fill="#B14FFF" fill-opacity="0.2"/>
<circle cx="107.388" cy="125.007" r="0.969049" fill="#B14FFF" fill-opacity="0.2"/>
<circle cx="330.821" cy="50.8212" r="1.82119" fill="#B14FFF" fill-opacity="0.2"/>
<circle cx="330.821" cy="79.9602" r="1.82119" fill="#B14FFF" fill-opacity="0.2"/>
<circle cx="330.821" cy="109.099" r="1.82119" fill="#B14FFF" fill-opacity="0.2"/>
<circle cx="330.821" cy="138.238" r="1.82119" fill="#B14FFF" fill-opacity="0.2"/>
<circle cx="330.821" cy="167.377" r="1.82119" fill="#B14FFF" fill-opacity="0.2"/>
<circle cx="330.821" cy="196.517" r="1.82119" fill="#B14FFF" fill-opacity="0.2"/>
<circle cx="330.821" cy="225.656" r="1.82119" fill="#B14FFF" fill-opacity="0.2"/>
<circle cx="330.821" cy="254.795" r="1.82119" fill="#B14FFF" fill-opacity="0.2"/>
<circle cx="330.821" cy="283.934" r="1.82119" fill="#B14FFF" fill-opacity="0.2"/>
<circle cx="94.0857" cy="0.969049" r="0.969049" fill="#B14FFF" fill-opacity="0.2"/>
<circle cx="94.0857" cy="16.4738" r="0.969049" fill="#B14FFF" fill-opacity="0.2"/>
<circle cx="94.0857" cy="31.9787" r="0.969049" fill="#B14FFF" fill-opacity="0.2"/>
<circle cx="94.0857" cy="47.4835" r="0.969049" fill="#B14FFF" fill-opacity="0.2"/>
<circle cx="94.0857" cy="62.9882" r="0.969049" fill="#B14FFF" fill-opacity="0.2"/>
<circle cx="94.0857" cy="78.493" r="0.969049" fill="#B14FFF" fill-opacity="0.2"/>
<circle cx="94.0857" cy="93.9977" r="0.969049" fill="#B14FFF" fill-opacity="0.2"/>
<circle cx="94.0857" cy="109.502" r="0.969049" fill="#B14FFF" fill-opacity="0.2"/>
<circle cx="94.0857" cy="125.007" r="0.969049" fill="#B14FFF" fill-opacity="0.2"/>
<circle cx="305.821" cy="50.8212" r="1.82119" fill="#B14FFF" fill-opacity="0.2"/>
<circle cx="305.821" cy="79.9602" r="1.82119" fill="#B14FFF" fill-opacity="0.2"/>
<circle cx="305.821" cy="109.099" r="1.82119" fill="#B14FFF" fill-opacity="0.2"/>
<circle cx="305.821" cy="138.238" r="1.82119" fill="#B14FFF" fill-opacity="0.2"/>
<circle cx="305.821" cy="167.377" r="1.82119" fill="#B14FFF" fill-opacity="0.2"/>
<circle cx="305.821" cy="196.517" r="1.82119" fill="#B14FFF" fill-opacity="0.2"/>
<circle cx="305.821" cy="225.656" r="1.82119" fill="#B14FFF" fill-opacity="0.2"/>
<circle cx="305.821" cy="254.795" r="1.82119" fill="#B14FFF" fill-opacity="0.2"/>
<circle cx="305.821" cy="283.934" r="1.82119" fill="#B14FFF" fill-opacity="0.2"/>
<circle cx="80.7835" cy="0.969049" r="0.969049" fill="#B14FFF" fill-opacity="0.2"/>
<circle cx="80.7835" cy="16.4738" r="0.969049" fill="#B14FFF" fill-opacity="0.2"/>
<circle cx="80.7835" cy="31.9787" r="0.969049" fill="#B14FFF" fill-opacity="0.2"/>
<circle cx="80.7835" cy="47.4835" r="0.969049" fill="#B14FFF" fill-opacity="0.2"/>
<circle cx="80.7835" cy="62.9882" r="0.969049" fill="#B14FFF" fill-opacity="0.2"/>
<circle cx="80.7835" cy="78.493" r="0.969049" fill="#B14FFF" fill-opacity="0.2"/>
<circle cx="80.7835" cy="93.9977" r="0.969049" fill="#B14FFF" fill-opacity="0.2"/>
<circle cx="80.7835" cy="109.502" r="0.969049" fill="#B14FFF" fill-opacity="0.2"/>
<circle cx="80.7835" cy="125.007" r="0.969049" fill="#B14FFF" fill-opacity="0.2"/>
<circle cx="280.821" cy="50.8212" r="1.82119" fill="#B14FFF" fill-opacity="0.2"/>
<circle cx="280.821" cy="79.9602" r="1.82119" fill="#B14FFF" fill-opacity="0.2"/>
<circle cx="280.821" cy="109.099" r="1.82119" fill="#B14FFF" fill-opacity="0.2"/>
<circle cx="280.821" cy="138.238" r="1.82119" fill="#B14FFF" fill-opacity="0.2"/>
<circle cx="280.821" cy="167.377" r="1.82119" fill="#B14FFF" fill-opacity="0.2"/>
<circle cx="280.821" cy="196.517" r="1.82119" fill="#B14FFF" fill-opacity="0.2"/>
<circle cx="280.821" cy="225.656" r="1.82119" fill="#B14FFF" fill-opacity="0.2"/>
<circle cx="280.821" cy="254.795" r="1.82119" fill="#B14FFF" fill-opacity="0.2"/>
<circle cx="280.821" cy="283.934" r="1.82119" fill="#B14FFF" fill-opacity="0.2"/>
<circle cx="67.4808" cy="0.969049" r="0.969049" fill="#B14FFF" fill-opacity="0.2"/>
<circle cx="67.4808" cy="16.4738" r="0.969049" fill="#B14FFF" fill-opacity="0.2"/>
<circle cx="67.4808" cy="31.9787" r="0.969049" fill="#B14FFF" fill-opacity="0.2"/>
<circle cx="67.4808" cy="47.4835" r="0.969049" fill="#B14FFF" fill-opacity="0.2"/>
<circle cx="67.4808" cy="62.9882" r="0.969049" fill="#B14FFF" fill-opacity="0.2"/>
<circle cx="67.4808" cy="78.493" r="0.969049" fill="#B14FFF" fill-opacity="0.2"/>
<circle cx="67.4808" cy="93.9977" r="0.969049" fill="#B14FFF" fill-opacity="0.2"/>
<circle cx="67.4808" cy="109.502" r="0.969049" fill="#B14FFF" fill-opacity="0.2"/>
<circle cx="67.4808" cy="125.007" r="0.969049" fill="#B14FFF" fill-opacity="0.2"/>
<circle cx="255.821" cy="50.8212" r="1.82119" fill="#B14FFF" fill-opacity="0.2"/>
<circle cx="255.821" cy="79.9602" r="1.82119" fill="#B14FFF" fill-opacity="0.2"/>
<circle cx="255.821" cy="109.099" r="1.82119" fill="#B14FFF" fill-opacity="0.2"/>
<circle cx="255.821" cy="138.238" r="1.82119" fill="#B14FFF" fill-opacity="0.2"/>
<circle cx="255.821" cy="167.377" r="1.82119" fill="#B14FFF" fill-opacity="0.2"/>
<circle cx="255.821" cy="196.517" r="1.82119" fill="#B14FFF" fill-opacity="0.2"/>
<circle cx="255.821" cy="225.656" r="1.82119" fill="#B14FFF" fill-opacity="0.2"/>
<circle cx="255.821" cy="254.795" r="1.82119" fill="#B14FFF" fill-opacity="0.2"/>
<circle cx="255.821" cy="283.934" r="1.82119" fill="#B14FFF" fill-opacity="0.2"/>
<circle cx="54.1785" cy="0.969049" r="0.969049" fill="#B14FFF" fill-opacity="0.2"/>
<circle cx="54.1785" cy="16.4738" r="0.969049" fill="#B14FFF" fill-opacity="0.2"/>
<circle cx="54.1785" cy="31.9787" r="0.969049" fill="#B14FFF" fill-opacity="0.2"/>
<circle cx="54.1785" cy="47.4835" r="0.969049" fill="#B14FFF" fill-opacity="0.2"/>
<circle cx="54.1785" cy="62.9882" r="0.969049" fill="#B14FFF" fill-opacity="0.2"/>
<circle cx="54.1785" cy="78.493" r="0.969049" fill="#B14FFF" fill-opacity="0.2"/>
<circle cx="54.1785" cy="93.9977" r="0.969049" fill="#B14FFF" fill-opacity="0.2"/>
<circle cx="54.1785" cy="109.502" r="0.969049" fill="#B14FFF" fill-opacity="0.2"/>
<circle cx="54.1785" cy="125.007" r="0.969049" fill="#B14FFF" fill-opacity="0.2"/>
<circle cx="230.821" cy="50.8212" r="1.82119" fill="#B14FFF" fill-opacity="0.2"/>
<circle cx="230.821" cy="79.9602" r="1.82119" fill="#B14FFF" fill-opacity="0.2"/>
<circle cx="230.821" cy="109.099" r="1.82119" fill="#B14FFF" fill-opacity="0.2"/>
<circle cx="230.821" cy="138.238" r="1.82119" fill="#B14FFF" fill-opacity="0.2"/>
<circle cx="230.821" cy="167.377" r="1.82119" fill="#B14FFF" fill-opacity="0.2"/>
<circle cx="230.821" cy="196.517" r="1.82119" fill="#B14FFF" fill-opacity="0.2"/>
<circle cx="230.821" cy="225.656" r="1.82119" fill="#B14FFF" fill-opacity="0.2"/>
<circle cx="230.821" cy="254.795" r="1.82119" fill="#B14FFF" fill-opacity="0.2"/>
<circle cx="230.821" cy="283.934" r="1.82119" fill="#B14FFF" fill-opacity="0.2"/>
<circle cx="40.8763" cy="0.969049" r="0.969049" fill="#B14FFF" fill-opacity="0.2"/>
<circle cx="40.8763" cy="16.4738" r="0.969049" fill="#B14FFF" fill-opacity="0.2"/>
<circle cx="40.8763" cy="31.9787" r="0.969049" fill="#B14FFF" fill-opacity="0.2"/>
<circle cx="40.8763" cy="47.4835" r="0.969049" fill="#B14FFF" fill-opacity="0.2"/>
<circle cx="40.8763" cy="62.9882" r="0.969049" fill="#B14FFF" fill-opacity="0.2"/>
<circle cx="40.8763" cy="78.493" r="0.969049" fill="#B14FFF" fill-opacity="0.2"/>
<circle cx="40.8763" cy="93.9977" r="0.969049" fill="#B14FFF" fill-opacity="0.2"/>
<circle cx="40.8763" cy="109.502" r="0.969049" fill="#B14FFF" fill-opacity="0.2"/>
<circle cx="40.8763" cy="125.007" r="0.969049" fill="#B14FFF" fill-opacity="0.2"/>
<circle cx="180.821" cy="50.8212" r="1.82119" fill="#B14FFF" fill-opacity="0.2"/>
<circle cx="180.821" cy="79.9602" r="1.82119" fill="#B14FFF" fill-opacity="0.2"/>
<circle cx="180.821" cy="109.099" r="1.82119" fill="#B14FFF" fill-opacity="0.2"/>
<circle cx="180.821" cy="138.238" r="1.82119" fill="#B14FFF" fill-opacity="0.2"/>
<circle cx="180.821" cy="167.377" r="1.82119" fill="#B14FFF" fill-opacity="0.2"/>
<circle cx="180.821" cy="196.517" r="1.82119" fill="#B14FFF" fill-opacity="0.2"/>
<circle cx="180.821" cy="225.656" r="1.82119" fill="#B14FFF" fill-opacity="0.2"/>
<circle cx="180.821" cy="254.795" r="1.82119" fill="#B14FFF" fill-opacity="0.2"/>
<circle cx="180.821" cy="283.934" r="1.82119" fill="#B14FFF" fill-opacity="0.2"/>
<circle cx="14.2713" cy="0.969049" r="0.969049" fill="#B14FFF" fill-opacity="0.2"/>
<circle cx="14.2713" cy="16.4738" r="0.969049" fill="#B14FFF" fill-opacity="0.2"/>
<circle cx="14.2713" cy="31.9787" r="0.969049" fill="#B14FFF" fill-opacity="0.2"/>
<circle cx="14.2713" cy="47.4835" r="0.969049" fill="#B14FFF" fill-opacity="0.2"/>
<circle cx="14.2713" cy="62.9882" r="0.969049" fill="#B14FFF" fill-opacity="0.2"/>
<circle cx="14.2713" cy="78.493" r="0.969049" fill="#B14FFF" fill-opacity="0.2"/>
<circle cx="14.2713" cy="93.9977" r="0.969049" fill="#B14FFF" fill-opacity="0.2"/>
<circle cx="14.2713" cy="109.502" r="0.969049" fill="#B14FFF" fill-opacity="0.2"/>
<circle cx="14.2713" cy="125.007" r="0.969049" fill="#B14FFF" fill-opacity="0.2"/>
<circle cx="205.821" cy="50.8212" r="1.82119" fill="#B14FFF" fill-opacity="0.2"/>
<circle cx="205.821" cy="79.9602" r="1.82119" fill="#B14FFF" fill-opacity="0.2"/>
<circle cx="205.821" cy="109.099" r="1.82119" fill="#B14FFF" fill-opacity="0.2"/>
<circle cx="205.821" cy="138.238" r="1.82119" fill="#B14FFF" fill-opacity="0.2"/>
<circle cx="205.821" cy="167.377" r="1.82119" fill="#B14FFF" fill-opacity="0.2"/>
<circle cx="205.821" cy="196.517" r="1.82119" fill="#B14FFF" fill-opacity="0.2"/>
<circle cx="205.821" cy="225.656" r="1.82119" fill="#B14FFF" fill-opacity="0.2"/>
<circle cx="205.821" cy="254.795" r="1.82119" fill="#B14FFF" fill-opacity="0.2"/>
<circle cx="205.821" cy="283.934" r="1.82119" fill="#B14FFF" fill-opacity="0.2"/>
<circle cx="27.574" cy="0.969049" r="0.969049" fill="#B14FFF" fill-opacity="0.2"/>
<circle cx="27.574" cy="16.4738" r="0.969049" fill="#B14FFF" fill-opacity="0.2"/>
<circle cx="27.574" cy="31.9787" r="0.969049" fill="#B14FFF" fill-opacity="0.2"/>
<circle cx="27.574" cy="47.4835" r="0.969049" fill="#B14FFF" fill-opacity="0.2"/>
<circle cx="27.574" cy="62.9882" r="0.969049" fill="#B14FFF" fill-opacity="0.2"/>
<circle cx="27.574" cy="78.493" r="0.969049" fill="#B14FFF" fill-opacity="0.2"/>
<circle cx="27.574" cy="93.9977" r="0.969049" fill="#B14FFF" fill-opacity="0.2"/>
<circle cx="27.574" cy="109.502" r="0.969049" fill="#B14FFF" fill-opacity="0.2"/>
<circle cx="27.574" cy="125.007" r="0.969049" fill="#B14FFF" fill-opacity="0.2"/>
<circle cx="155.821" cy="50.8212" r="1.82119" fill="#B14FFF" fill-opacity="0.2"/>
<circle cx="155.821" cy="79.9602" r="1.82119" fill="#B14FFF" fill-opacity="0.2"/>
<circle cx="155.821" cy="109.099" r="1.82119" fill="#B14FFF" fill-opacity="0.2"/>
<circle cx="155.821" cy="138.238" r="1.82119" fill="#B14FFF" fill-opacity="0.2"/>
<circle cx="155.821" cy="167.377" r="1.82119" fill="#B14FFF" fill-opacity="0.2"/>
<circle cx="155.821" cy="196.517" r="1.82119" fill="#B14FFF" fill-opacity="0.2"/>
<circle cx="155.821" cy="225.656" r="1.82119" fill="#B14FFF" fill-opacity="0.2"/>
<circle cx="155.821" cy="254.795" r="1.82119" fill="#B14FFF" fill-opacity="0.2"/>
<circle cx="155.821" cy="283.934" r="1.82119" fill="#B14FFF" fill-opacity="0.2"/>
<circle cx="0.969049" cy="0.969049" r="0.969049" fill="#B14FFF" fill-opacity="0.2"/>
<circle cx="0.969049" cy="16.4738" r="0.969049" fill="#B14FFF" fill-opacity="0.2"/>
<circle cx="0.969049" cy="31.9787" r="0.969049" fill="#B14FFF" fill-opacity="0.2"/>
<circle cx="0.969049" cy="47.4835" r="0.969049" fill="#B14FFF" fill-opacity="0.2"/>
<circle cx="0.969049" cy="62.9882" r="0.969049" fill="#B14FFF" fill-opacity="0.2"/>
<circle cx="0.969049" cy="78.493" r="0.969049" fill="#B14FFF" fill-opacity="0.2"/>
<circle cx="0.969049" cy="93.9977" r="0.969049" fill="#B14FFF" fill-opacity="0.2"/>
<circle cx="0.969049" cy="109.502" r="0.969049" fill="#B14FFF" fill-opacity="0.2"/>
<circle cx="0.969049" cy="125.007" r="0.969049" fill="#B14FFF" fill-opacity="0.2"/>
</svg>
