<svg width="115" height="100" viewBox="0 0 115 100" fill="none" xmlns="http://www.w3.org/2000/svg">
<path d="M72.4644 8.71868L72.4683 8.71986C78.3466 10.4807 84.2884 12.5694 87.7965 13.8398C88.7875 14.2034 89.7037 14.8831 90.418 15.8402C91.1347 16.8003 91.6095 17.9902 91.7619 19.2776L91.7625 19.2819C94.8772 45.2136 87.6515 64.3098 78.9813 76.8799L78.9755 76.8883C75.3001 82.2639 70.9241 86.9881 65.9986 90.9079L65.9979 90.9085C64.3438 92.2258 62.5944 93.3823 60.7692 94.3666C59.3172 95.1239 58.1752 95.5 57.5 95.5C56.8257 95.5 55.6909 95.1252 54.2291 94.3657C52.4045 93.3816 50.6557 92.2254 49.0021 90.9085L49.0014 90.9079C44.076 86.988 39.7 82.2638 36.0244 76.8883L36.0187 76.8799C27.3485 64.3098 20.1228 45.2136 23.2375 19.2819L23.2381 19.2776C23.3905 17.9902 23.8653 16.8003 24.582 15.8402C25.2967 14.8826 26.2136 14.2026 27.2052 13.8391C32.2789 11.9954 37.3919 10.2877 42.5395 8.7175C48.4155 6.94694 54.2353 5.5 57.5 5.5C60.7654 5.5 66.5871 6.94759 72.4644 8.71868Z" stroke="#39F0BA" stroke-width="5"/>
</svg>
