<svg width="115" height="100" viewBox="0 0 115 100" fill="none" xmlns="http://www.w3.org/2000/svg">
<path d="M57.4949 55.9539C57.2795 55.9539 57.0655 55.8978 56.8726 55.7869L37.2082 44.421C36.8224 44.198 36.5859 43.7868 36.5859 43.342V20.6101C36.5859 20.1653 36.8224 19.7529 37.2082 19.5311L56.8726 8.1639C57.2584 7.94211 57.7313 7.94211 58.1171 8.1639L77.7815 19.5298C78.1673 19.7529 78.4038 20.164 78.4038 20.6089V43.3407C78.4038 43.7856 78.1673 44.198 77.7815 44.4198L58.1171 55.7857C57.9242 55.8966 57.7102 55.9527 57.4949 55.9527V55.9539ZM39.0751 42.623L57.4949 53.27L75.9146 42.623V21.329L57.4949 10.682L39.0751 21.329V42.623Z" fill="#39F0BA"/>
<path d="M77.7973 67.681C73.2936 67.681 70.2676 64.5767 70.2676 59.9552C70.2676 55.3337 73.2936 52.2307 77.7973 52.2307C82.301 52.2307 85.327 55.335 85.327 59.9552C85.327 64.5755 82.301 67.681 77.7973 67.681ZM77.7973 54.7221C74.3267 54.7221 73.0903 57.4252 73.0903 59.9552C73.0903 62.4852 74.3267 65.1896 77.7973 65.1896C81.2679 65.1896 82.5042 62.4852 82.5042 59.9552C82.5042 57.4252 81.2679 54.7221 77.7973 54.7221Z" fill="#39F0BA"/>
<path d="M91.7478 82.4551C91.0596 82.4551 90.5033 81.8982 90.5033 81.2091C90.5033 75.672 86.6924 71.6524 81.4402 71.6524H74.0002C68.7493 71.6524 64.9384 75.672 64.9384 81.2091C64.9384 81.8982 64.382 82.4551 63.6938 82.4551C63.0055 82.4551 62.4492 81.8982 62.4492 81.2091C62.4492 74.34 67.4151 69.1604 74.0002 69.1604H81.4402C88.0266 69.1604 92.9924 74.34 92.9924 81.2091C92.9924 81.8982 92.4361 82.4551 91.7478 82.4551V82.4551Z" fill="#39F0BA"/>
<path d="M77.1594 90.9999C76.9441 90.9999 76.7288 90.9438 76.5371 90.8329L56.8728 79.467C56.487 79.244 56.2505 78.8328 56.2505 78.388V55.6561C56.2505 54.967 56.8081 54.4101 57.4951 54.4101C58.1821 54.4101 58.7396 54.967 58.7396 55.6561V77.669L77.1594 88.316L95.5792 77.669V56.375L82.0867 48.5764C81.4905 48.2325 81.2864 47.4699 81.6312 46.8743C81.9747 46.2775 82.7376 46.0732 83.3313 46.4183L97.446 54.5771C97.8319 54.8001 98.0683 55.2113 98.0683 55.6561V78.388C98.0683 78.8328 97.8319 79.2452 97.446 79.467L77.7817 90.8329C77.59 90.9438 77.3747 90.9999 77.1594 90.9999Z" fill="#39F0BA"/>
<path d="M37.9089 91.0001C37.6936 91.0001 37.4795 90.944 37.2866 90.8331L17.6223 79.4672C17.2365 79.2442 17 78.833 17 78.3882V55.6563C17 55.2115 17.2365 54.7991 17.6223 54.5773L32.8024 45.803C33.3961 45.4591 34.1578 45.6622 34.5025 46.259C34.846 46.8559 34.6419 47.6172 34.047 47.9611L19.4892 56.3752V77.6692L37.9089 88.3162L56.3287 77.6692V55.6563C56.3287 54.9673 56.8863 54.4103 57.5733 54.4103C58.2603 54.4103 58.8178 54.9673 58.8178 55.6563V78.3882C58.8178 78.833 58.5814 79.2454 58.1956 79.4672L38.5312 90.8331C38.3383 90.944 38.1242 91.0001 37.9089 91.0001V91.0001Z" fill="#39F0BA"/>
<path d="M52.4095 42.7218C52.1979 42.7218 51.9838 42.6682 51.7872 42.5536C48.2675 40.5164 46.082 36.7236 46.082 32.6579C46.082 26.357 51.2022 21.231 57.4948 21.231C58.1818 21.231 58.7394 21.7879 58.7394 22.4769C58.7394 23.166 58.1818 23.7229 57.4948 23.7229C52.5738 23.7229 48.5712 27.7313 48.5712 32.6579C48.5712 35.839 50.2812 38.8044 53.033 40.398C53.6279 40.7419 53.832 41.5045 53.4873 42.1001C53.2558 42.4988 52.8388 42.7218 52.4082 42.7218H52.4095Z" fill="#39F0BA"/>
<path d="M55.8332 26.0854C55.5842 26.0854 55.3341 26.0106 55.115 25.8561C54.5537 25.4586 54.4218 24.6799 54.8188 24.1179L55.8668 22.6365L54.6184 21.4453C54.1206 20.9706 54.1019 20.1819 54.5761 19.6835C55.0503 19.1863 55.8394 19.1689 56.336 19.6423L58.3634 21.5774C58.8102 22.0047 58.8774 22.6938 58.5202 23.1996L56.85 25.5608C56.6073 25.9035 56.2239 26.0866 55.8332 26.0866V26.0854Z" fill="#39F0BA"/>
<path d="M57.4946 44.086C56.8076 44.086 56.25 43.529 56.25 42.84C56.25 42.1509 56.8076 41.594 57.4946 41.594C62.4156 41.594 66.4182 37.5856 66.4182 32.659C66.4182 29.4792 64.7082 26.5137 61.9551 24.9189C61.3602 24.575 61.1561 23.8124 61.5021 23.2168C61.8444 22.62 62.6048 22.4157 63.2022 22.7633C66.7206 24.8017 68.9074 28.5933 68.9074 32.659C68.9074 38.96 63.7872 44.086 57.4946 44.086V44.086Z" fill="#39F0BA"/>
<path d="M59.5122 46.0187C59.2035 46.0187 58.8948 45.9041 58.6534 45.6748L56.626 43.741C56.1792 43.3149 56.112 42.6246 56.4692 42.1187L58.1406 39.7563C58.5377 39.1944 59.313 39.0623 59.8756 39.4598C60.4356 39.8573 60.5688 40.6348 60.1718 41.198L59.1226 42.6794L60.3697 43.8706C60.8675 44.3453 60.8874 45.134 60.412 45.6312C60.168 45.8891 59.8395 46.0187 59.5109 46.0187H59.5122Z" fill="#39F0BA"/>
<path d="M37.9448 63.9158L37.988 68.1285" stroke="#39F0BA" stroke-width="2.07575" stroke-linecap="round" stroke-linejoin="round"/>
<path d="M37.9678 71.7791L37.9681 71.3421" stroke="#39F0BA" stroke-width="2.07575" stroke-linecap="round" stroke-linejoin="round"/>
<path d="M25.0617 76.1484L37.9436 54.7497C37.959 54.7242 37.9711 54.7166 37.9783 54.7127C37.9892 54.7068 38.007 54.7011 38.0298 54.7011C38.0527 54.7012 38.0704 54.707 38.0813 54.713C38.0884 54.7169 38.1005 54.7246 38.1158 54.7502L50.5019 75.5848C50.6896 75.9005 50.462 76.3004 50.0948 76.3004H38.0382H25.1476C25.116 76.3004 25.1033 76.2934 25.097 76.2896C25.0865 76.2832 25.0722 76.2704 25.0603 76.2495C25.0485 76.2286 25.0449 76.2096 25.0449 76.1974C25.0449 76.19 25.0454 76.1756 25.0617 76.1484Z" stroke="#39F0BA" stroke-width="3" stroke-linecap="round" stroke-linejoin="round"/>
</svg>
