<svg width="170" height="29" viewBox="0 0 170 29" fill="none" xmlns="http://www.w3.org/2000/svg">
<path fill-rule="evenodd" clip-rule="evenodd" d="M115.435 23.3587V5.1905L118.207 4.01074V23.3587H115.435ZM111.069 15.7493C111.069 14.6285 110.657 13.8027 109.949 13.1538C109.241 12.505 108.356 12.1511 107.353 12.1511C106.35 12.1511 105.466 12.505 104.758 13.1538C104.05 13.8027 103.696 14.6875 103.578 15.7493H111.069ZM107.294 23.5947C105.348 23.5947 103.755 22.9458 102.516 21.7071C101.278 20.4683 100.688 18.7577 100.688 16.6931C100.688 14.6285 101.337 12.9769 102.575 11.6792C103.814 10.4404 105.407 9.79155 107.412 9.79155C109.418 9.79155 110.952 10.3814 112.19 11.6202C113.429 12.7999 114.019 14.3926 114.019 16.3392C114.019 16.8111 114.019 17.224 113.901 17.6369H103.578C103.637 18.7577 104.05 19.6425 104.699 20.2914C105.407 20.9402 106.232 21.2941 107.294 21.2941C108.828 21.2941 109.89 20.6453 110.48 19.4065H113.488C113.075 20.6453 112.308 21.6481 111.246 22.4149C110.185 23.1818 108.828 23.5947 107.235 23.5947H107.294ZM89.7749 10.0275V12.1511C90.6598 10.6174 92.1344 9.85054 94.081 9.85054C95.6147 9.85054 96.8535 10.3224 97.8563 11.3252C98.859 12.328 99.3309 13.7437 99.3309 15.5133V23.3587H96.5585V15.9263C96.5585 14.7465 96.2636 13.8027 95.6737 13.1538C95.0838 12.505 94.258 12.21 93.1962 12.21C92.1344 12.21 91.3086 12.505 90.7187 13.1538C90.1289 13.8027 89.7749 14.6875 89.7749 15.9263V23.3587H87.0025V10.0275H89.7749ZM81.8116 23.3587V10.0275H84.584V23.3587H81.8116ZM79.806 12.269H76.5027V19.6425C76.5027 20.1144 76.6207 20.5273 76.8566 20.7043C77.0926 20.9402 77.5055 21.0582 78.0954 21.0582H79.806V23.3587H77.6235C75.028 23.3587 73.7303 22.12 73.7303 19.6425V7.84495L76.5617 6.66519V9.9685H79.865V12.21L79.806 12.269ZM62.8765 10.0275V12.1511C63.7614 10.6174 65.236 9.85054 67.1826 9.85054C68.7163 9.85054 69.9551 10.3224 70.9578 11.3252C71.9606 12.328 72.4325 13.7437 72.4325 15.5133V23.3587H69.6601V15.9263C69.6601 14.7465 69.3652 13.8027 68.7753 13.1538C68.1854 12.505 67.3596 12.21 66.2978 12.21C65.236 12.21 64.4102 12.505 63.8203 13.1538C63.2305 13.8027 62.8765 14.6875 62.8765 15.9263V23.3587H60.1041V10.0275H62.8765ZM55.68 15.7493C55.68 14.6285 55.2671 13.8027 54.5593 13.1538C53.8514 12.505 52.9666 12.1511 51.9638 12.1511C50.961 12.1511 50.0762 12.505 49.3683 13.1538C48.6605 13.8027 48.3066 14.6875 48.1886 15.7493H55.68ZM51.9048 23.5947C49.9582 23.5947 48.3656 22.9458 47.1268 21.7071C45.8881 20.4683 45.2982 18.7577 45.2982 16.6931C45.2982 14.6285 45.9471 12.9769 47.1858 11.6792C48.4246 10.4404 50.0172 9.79155 52.0228 9.79155C54.0284 9.79155 55.5621 10.3814 56.8008 11.6202C58.0396 12.8589 58.6294 14.3926 58.6294 16.3392C58.6294 16.8111 58.6294 17.224 58.5114 17.6369H48.1886C48.2476 18.7577 48.6605 19.6425 49.3094 20.2914C50.0172 20.9402 50.843 21.2941 51.9048 21.2941C53.4385 21.2941 54.5003 20.6453 55.0902 19.4065H58.0985C57.6856 20.6453 56.9188 21.6481 55.857 22.4149C54.7952 23.1818 53.4385 23.5947 51.8458 23.5947H51.9048ZM37.9837 8.61179C37.1579 8.61179 36.45 8.84774 35.9781 9.26066C35.4472 9.67357 35.2113 10.2634 35.2113 11.0893C35.2113 11.9151 35.5063 12.505 36.1551 12.9179C36.804 13.3308 37.5118 13.6257 38.3966 13.8617C39.2814 14.0387 40.1663 14.2746 41.0511 14.5106C41.9359 14.7465 42.7027 15.2184 43.2926 15.9263C43.9415 16.5751 44.2364 17.5779 44.2364 18.8167C44.2364 20.0554 43.7055 21.1762 42.6438 22.179C41.582 23.1817 40.1663 23.6536 38.3966 23.6536C36.627 23.6536 35.1523 23.2407 34.0905 22.4149C32.9698 21.5891 32.4389 20.4683 32.4389 18.9936H35.4472C35.5062 19.7605 35.8012 20.3503 36.2731 20.7633C36.745 21.1762 37.4528 21.4121 38.4556 21.4121C39.4584 21.4121 40.1663 21.1762 40.6971 20.7043C41.228 20.2324 41.523 19.6425 41.523 18.9936C41.523 18.3448 41.346 17.8139 40.9921 17.4599C40.6382 17.106 40.2253 16.8111 39.6944 16.6341C39.1635 16.4572 38.5736 16.2802 37.9247 16.1622C37.2759 16.0442 36.627 15.8673 35.9781 15.6313C35.3293 15.4544 34.7394 15.1594 34.2085 14.8645C33.6776 14.5695 33.2647 14.0976 32.9108 13.5078C32.5568 12.9179 32.3799 12.21 32.3799 11.3252C32.3799 9.85054 32.9108 8.67078 33.9726 7.78596C35.0343 6.90115 36.4501 6.42925 38.1607 6.42925C39.8713 6.42925 41.2281 6.84216 42.2308 7.609C43.2336 8.37584 43.8235 9.4966 43.9415 10.9713H40.8741C40.8151 10.3224 40.5202 9.79155 40.0483 9.37863C39.5764 8.96572 38.8685 8.72977 38.0427 8.72977L37.9837 8.61179Z" fill="#472A63"/>
<path fill-rule="evenodd" clip-rule="evenodd" d="M159.085 10.7945C158.141 10.7945 157.256 10.9715 156.43 11.3844C155.604 11.7973 154.956 12.3872 154.484 13.213C154.012 14.0388 153.717 15.0416 153.717 16.2214H164.158C164.217 15.0416 164.04 14.0388 163.568 13.213C163.096 12.3872 162.447 11.7973 161.68 11.3844C160.854 10.9715 160.029 10.7945 159.085 10.7945ZM159.085 22.3561C160.441 22.3561 161.562 22.0022 162.447 21.3533C163.332 20.7044 163.922 19.7606 164.099 18.6399H165.219C164.984 20.0556 164.335 21.1763 163.214 22.0022C162.152 22.828 160.736 23.2999 159.085 23.2999C157.846 23.2999 156.725 23.005 155.722 22.4741C154.779 21.9432 154.012 21.1763 153.422 20.1735C152.891 19.1708 152.596 17.991 152.596 16.5753C152.596 15.1596 152.891 14.0388 153.422 13.036C153.953 12.0332 154.72 11.2664 155.722 10.7355C156.666 10.2046 157.787 9.90967 159.085 9.90967C160.382 9.90967 161.503 10.2046 162.447 10.7355C163.391 11.2664 164.099 11.9742 164.571 12.8591C165.043 13.7439 165.278 14.6877 165.278 15.6315C165.278 16.0444 165.278 16.4573 165.16 16.9292H153.717C153.717 18.168 154.012 19.1708 154.484 19.9966C154.956 20.8224 155.604 21.4123 156.43 21.8252C157.197 22.2381 158.082 22.4151 159.026 22.4151L159.085 22.3561ZM145.459 9.79171C147.051 9.79171 148.29 10.2636 149.293 11.2074C150.296 12.1512 150.767 13.5669 150.767 15.4545V23.0639H149.647V15.5135C149.647 13.9208 149.234 12.7411 148.467 11.9153C147.641 11.0894 146.579 10.6765 145.164 10.6765C143.748 10.6765 142.568 11.1484 141.683 12.0332C140.799 12.977 140.386 14.3338 140.386 16.1034V23.005H139.265V9.96866H140.386V13.39C140.74 12.1512 141.329 11.2664 142.273 10.6175C143.217 9.96867 144.279 9.67373 145.459 9.67373V9.79171ZM128.883 7.31422C127.526 7.31422 126.288 7.60916 125.226 8.25803C124.164 8.90689 123.279 9.7917 122.63 10.9125C121.981 12.0922 121.687 13.39 121.687 14.9236C121.687 16.4573 121.981 17.814 122.63 18.9348C123.279 20.1146 124.105 20.9994 125.226 21.5892C126.288 22.2381 127.526 22.5331 128.883 22.5331C130.24 22.5331 131.42 22.2381 132.54 21.5892C133.661 20.9404 134.487 20.0556 135.136 18.9348C135.785 17.755 136.08 16.4573 136.08 14.9236C136.08 13.39 135.785 12.0332 135.136 10.9125C134.487 9.73271 133.661 8.8479 132.54 8.25803C131.42 7.60916 130.24 7.31422 128.883 7.31422ZM128.883 6.31143C130.476 6.31143 131.891 6.66536 133.13 7.37321C134.369 8.08106 135.372 9.14284 136.08 10.4406C136.787 11.7383 137.141 13.213 137.141 14.9236C137.141 16.6343 136.787 18.05 136.08 19.4067C135.372 20.7044 134.369 21.7662 133.13 22.4741C131.891 23.1819 130.417 23.5948 128.883 23.5948C127.349 23.5948 125.875 23.2409 124.636 22.4741C123.397 21.7072 122.394 20.7044 121.687 19.4067C120.979 18.109 120.625 16.6343 120.625 14.9236C120.625 13.213 120.979 11.7973 121.687 10.4406C122.394 9.14284 123.397 8.14005 124.636 7.37321C125.875 6.60637 127.349 6.31143 128.883 6.31143Z" fill="#472A63"/>
<path fill-rule="evenodd" clip-rule="evenodd" d="M165.517 10.2635V9.90958H166.932V10.2635H166.46V12.2691H166.048V10.2635H165.576H165.517ZM170 9.90958V12.2691H169.528V10.6764L168.82 12.2691H168.466L167.758 10.6174V12.2691H167.345V9.90958H167.935L168.643 11.6792L169.41 9.90958H169.941H170Z" fill="#472A63"/>
<path d="M13.4487 0H9.6145V23.0642H13.4487V0Z" fill="#472A63"/>
<path fill-rule="evenodd" clip-rule="evenodd" d="M14.3958 28.6682L18.23 26.3087V6.37087C17.1092 5.54504 15.8115 4.95516 14.3958 4.66022V28.7272V28.6682Z" fill="#472A63"/>
<path fill-rule="evenodd" clip-rule="evenodd" d="M4.83875 26.2497L8.67296 28.6092V4.54221C7.25725 4.83714 5.95951 5.42703 4.83875 6.25285V26.1907V26.2497Z" fill="#472A63"/>
<path fill-rule="evenodd" clip-rule="evenodd" d="M19.1707 1.12106V25.8369L20.9993 24.7161C22.238 23.9493 23.0638 22.4746 23.0638 20.823V9.14339C23.0638 5.78109 19.2296 1.06207 19.2296 1.06207L19.1707 1.12106Z" fill="#472A63"/>
<path fill-rule="evenodd" clip-rule="evenodd" d="M0 20.8224C0 22.474 0.825819 23.9487 2.06456 24.7156L3.89319 25.8363V1.12048C3.89319 1.12048 0.0589778 5.78052 0.0589778 9.2018V20.8814L0 20.8224Z" fill="#472A63"/>
</svg>
