<svg width="363" height="128" viewBox="0 0 363 128" fill="none" xmlns="http://www.w3.org/2000/svg">
<path opacity="0.77" d="M53.0344 14.4803L45.2476 27.471C45.1132 27.6941 45.28 27.9752 45.5533 27.9752H61.1223C61.3909 27.9752 61.5623 27.6941 61.428 27.471L53.6412 14.4803C53.5069 14.2572 53.1687 14.2572 53.0344 14.4803Z" fill="url(#paint0_linear_0_1)" stroke="#6B0AEA" stroke-miterlimit="10"/>
<path opacity="0.77" d="M98.0344 1.48034L90.2476 14.471C90.1132 14.6941 90.28 14.9752 90.5533 14.9752H106.122C106.391 14.9752 106.562 14.6941 106.428 14.471L98.6412 1.48034C98.5069 1.25721 98.1687 1.25721 98.0344 1.48034Z" fill="url(#paint1_linear_0_1)" stroke="#6B0AEA" stroke-miterlimit="10"/>
<g filter="url(#filter0_f_0_1)">
<path d="M52.8235 138.14L14.0689 71.6091C13.5937 70.797 12.3974 70.797 11.9222 71.6091L-26.8324 138.14C-27.3076 138.952 -26.7177 139.976 -25.7509 139.976H51.7584C52.7088 139.976 53.3151 138.952 52.8399 138.14H52.8235ZM10.1197 101.642C10.5294 100.993 11.1521 100.684 11.9878 100.684C12.8891 100.684 13.5281 101.009 13.8886 101.642C14.2492 102.292 14.3966 102.958 14.3311 103.656L13.1021 117.138H10.8571L9.59532 103.656C9.52977 102.958 9.69364 102.292 10.1033 101.642H10.1197ZM13.6428 123.895C13.1676 124.399 12.5941 124.642 11.955 124.642C11.3159 124.642 10.7588 124.399 10.2836 123.895C9.80835 123.392 9.57893 122.791 9.57893 122.092C9.57893 121.394 9.82473 120.793 10.2999 120.289C10.7752 119.786 11.3487 119.542 11.9878 119.542C12.676 119.542 13.2332 119.786 13.692 120.289C14.1508 120.793 14.3639 121.394 14.3639 122.092C14.3639 122.791 14.1181 123.392 13.6428 123.895Z" fill="#6B0AEA"/>
</g>
<path d="M94.912 101.088L76.0191 68.3045C75.7875 67.9043 75.2043 67.9043 74.9726 68.3045L56.0798 101.088C55.8481 101.488 56.1357 101.992 56.607 101.992H94.3928C94.8561 101.992 95.1517 101.488 94.92 101.088H94.912ZM74.0939 83.1035C74.2936 82.7834 74.5972 82.6313 75.0046 82.6313C75.444 82.6313 75.7555 82.7914 75.9313 83.1035C76.107 83.4237 76.1789 83.7518 76.1469 84.096L75.5478 90.7391H74.4534L73.8383 84.096C73.8063 83.7518 73.8862 83.4237 74.0859 83.1035H74.0939ZM75.8114 94.0687C75.5798 94.3168 75.3002 94.4368 74.9886 94.4368C74.6771 94.4368 74.4055 94.3168 74.1738 94.0687C73.9421 93.8205 73.8303 93.5244 73.8303 93.1802C73.8303 92.8361 73.9501 92.5399 74.1818 92.2918C74.4134 92.0437 74.693 91.9237 75.0046 91.9237C75.3401 91.9237 75.6117 92.0437 75.8354 92.2918C76.0591 92.5399 76.1629 92.8361 76.1629 93.1802C76.1629 93.5244 76.0431 93.8205 75.8114 94.0687Z" fill="#6B0AEA"/>
<g filter="url(#filter1_f_0_1)">
<path d="M39.9483 50.4634L28.8063 31.179C28.6697 30.9436 28.3258 30.9436 28.1892 31.179L17.0472 50.4634C16.9106 50.6988 17.0802 50.9954 17.3582 50.9954H39.6421C39.9153 50.9954 40.0896 50.6988 39.953 50.4634H39.9483ZM27.6709 39.8843C27.7887 39.6959 27.9677 39.6065 28.208 39.6065C28.4671 39.6065 28.6509 39.7007 28.7545 39.8843C28.8582 40.0726 28.9006 40.2656 28.8817 40.4681L28.5284 44.3758H27.8829L27.5202 40.4681C27.5013 40.2656 27.5484 40.0726 27.6662 39.8843H27.6709ZM28.6838 46.3344C28.5472 46.4803 28.3823 46.5509 28.1986 46.5509C28.0149 46.5509 27.8547 46.4803 27.718 46.3344C27.5814 46.1884 27.5155 46.0142 27.5155 45.8118C27.5155 45.6093 27.5861 45.4351 27.7228 45.2892C27.8594 45.1432 28.0243 45.0726 28.208 45.0726C28.4059 45.0726 28.5661 45.1432 28.698 45.2892C28.8299 45.4351 28.8911 45.6093 28.8911 45.8118C28.8911 46.0142 28.8205 46.1884 28.6838 46.3344Z" fill="#6B0AEA"/>
</g>
<path opacity="0.77" d="M262.109 84.2205L252.061 101.336C251.888 101.63 252.103 102 252.456 102H272.545C272.892 102 273.113 101.63 272.94 101.336L262.892 84.2205C262.719 83.9265 262.282 83.9265 262.109 84.2205Z" fill="url(#paint2_linear_0_1)" stroke="#6B0AEA" stroke-miterlimit="10"/>
<path opacity="0.77" d="M328.525 13.1104L322.685 22.8533C322.584 23.0207 322.709 23.2315 322.914 23.2315H334.591C334.792 23.2315 334.921 23.0207 334.82 22.8533L328.98 13.1104C328.879 12.943 328.626 12.943 328.525 13.1104Z" fill="url(#paint3_linear_0_1)" stroke="#6B0AEA" stroke-miterlimit="10"/>
<path d="M322.914 104.115L304.506 72.2957C304.28 71.9073 303.712 71.9073 303.486 72.2957L285.078 104.115C284.852 104.503 285.132 104.993 285.591 104.993H322.408C322.86 104.993 323.148 104.503 322.922 104.115H322.914ZM302.63 86.6594C302.824 86.3487 303.12 86.2011 303.517 86.2011C303.945 86.2011 304.249 86.3564 304.42 86.6594C304.591 86.9701 304.661 87.2886 304.63 87.6227L304.047 94.0704H302.98L302.381 87.6227C302.35 87.2886 302.428 86.9701 302.622 86.6594H302.63ZM304.303 97.3021C304.078 97.5429 303.805 97.6594 303.502 97.6594C303.198 97.6594 302.933 97.5429 302.708 97.3021C302.482 97.0612 302.373 96.7738 302.373 96.4398C302.373 96.1057 302.49 95.8183 302.716 95.5775C302.941 95.3367 303.214 95.2201 303.517 95.2201C303.844 95.2201 304.109 95.3367 304.327 95.5775C304.545 95.8183 304.646 96.1057 304.646 96.4398C304.646 96.7738 304.529 97.0612 304.303 97.3021Z" fill="#6B0AEA"/>
<path d="M338.968 52.6511L332.186 40.1162C332.103 39.9632 331.894 39.9632 331.81 40.1162L325.028 52.6511C324.945 52.8041 325.048 52.9969 325.218 52.9969H338.782C338.948 52.9969 339.054 52.8041 338.971 52.6511H338.968ZM331.495 45.7747C331.567 45.6522 331.676 45.5941 331.822 45.5941C331.98 45.5941 332.091 45.6553 332.155 45.7747C332.218 45.8971 332.243 46.0225 332.232 46.1541L332.017 48.6941H331.624L331.403 46.1541C331.392 46.0225 331.42 45.8971 331.492 45.7747H331.495ZM332.112 49.9672C332.028 50.0621 331.928 50.108 331.816 50.108C331.704 50.108 331.607 50.0621 331.524 49.9672C331.44 49.8723 331.4 49.7591 331.4 49.6275C331.4 49.4959 331.443 49.3827 331.527 49.2878C331.61 49.193 331.71 49.1471 331.822 49.1471C331.942 49.1471 332.04 49.193 332.12 49.2878C332.2 49.3827 332.238 49.4959 332.238 49.6275C332.238 49.7591 332.195 49.8723 332.112 49.9672Z" fill="#6B0AEA"/>
<path d="M261.966 27.6246L254.699 14.1255C254.61 13.9608 254.386 13.9608 254.297 14.1255L247.03 27.6246C246.941 27.7894 247.052 27.997 247.233 27.997H261.766C261.944 27.997 262.058 27.7894 261.969 27.6246H261.966ZM253.959 20.2192C254.036 20.0874 254.153 20.0248 254.309 20.0248C254.478 20.0248 254.598 20.0907 254.666 20.2192C254.733 20.3511 254.761 20.4862 254.749 20.6279L254.518 23.3633H254.097L253.861 20.6279C253.848 20.4862 253.879 20.3511 253.956 20.2192H253.959ZM254.62 24.7343C254.53 24.8365 254.423 24.8859 254.303 24.8859C254.183 24.8859 254.079 24.8365 253.99 24.7343C253.901 24.6321 253.858 24.5102 253.858 24.3685C253.858 24.2268 253.904 24.1048 253.993 24.0027C254.082 23.9005 254.189 23.8511 254.309 23.8511C254.438 23.8511 254.543 23.9005 254.629 24.0027C254.715 24.1048 254.755 24.2268 254.755 24.3685C254.755 24.5102 254.709 24.6321 254.62 24.7343Z" fill="#6B0AEA"/>
<g opacity="0.77" filter="url(#filter2_f_0_1)">
<path d="M344.829 76.8658L309.269 138.579C308.656 139.639 309.417 140.975 310.665 140.975H381.763C382.99 140.975 383.773 139.639 383.16 138.579L347.6 76.8658C346.986 75.8058 345.442 75.8058 344.829 76.8658Z" fill="url(#paint4_linear_0_1)"/>
<path d="M344.829 76.8658L309.269 138.579C308.656 139.639 309.417 140.975 310.665 140.975H381.763C382.99 140.975 383.773 139.639 383.16 138.579L347.6 76.8658C346.986 75.8058 345.442 75.8058 344.829 76.8658Z" stroke="#C927E0" stroke-miterlimit="10"/>
</g>
<defs>
<filter id="filter0_f_0_1" x="-38" y="60" width="102.005" height="90.9756" filterUnits="userSpaceOnUse" color-interpolation-filters="sRGB">
<feFlood flood-opacity="0" result="BackgroundImageFix"/>
<feBlend mode="normal" in="SourceGraphic" in2="BackgroundImageFix" result="shape"/>
<feGaussianBlur stdDeviation="5.5" result="effect1_foregroundBlur_0_1"/>
</filter>
<filter id="filter1_f_0_1" x="15.999" y="30.0024" width="25.002" height="21.9932" filterUnits="userSpaceOnUse" color-interpolation-filters="sRGB">
<feFlood flood-opacity="0" result="BackgroundImageFix"/>
<feBlend mode="normal" in="SourceGraphic" in2="BackgroundImageFix" result="shape"/>
<feGaussianBlur stdDeviation="0.5" result="effect1_foregroundBlur_0_1"/>
</filter>
<filter id="filter2_f_0_1" x="304.552" y="71.5708" width="83.3223" height="73.9038" filterUnits="userSpaceOnUse" color-interpolation-filters="sRGB">
<feFlood flood-opacity="0" result="BackgroundImageFix"/>
<feBlend mode="normal" in="SourceGraphic" in2="BackgroundImageFix" result="shape"/>
<feGaussianBlur stdDeviation="2" result="effect1_foregroundBlur_0_1"/>
</filter>
<linearGradient id="paint0_linear_0_1" x1="46.855" y1="21.143" x2="61.1825" y2="21.143" gradientUnits="userSpaceOnUse">
<stop stop-color="#2D2E46"/>
<stop offset="0.4" stop-color="#1A1B2F"/>
<stop offset="1"/>
</linearGradient>
<linearGradient id="paint1_linear_0_1" x1="91.855" y1="8.14299" x2="106.182" y2="8.14299" gradientUnits="userSpaceOnUse">
<stop stop-color="#2D2E46"/>
<stop offset="0.4" stop-color="#1A1B2F"/>
<stop offset="1"/>
</linearGradient>
<linearGradient id="paint2_linear_0_1" x1="254.135" y1="92.9985" x2="272.623" y2="92.9985" gradientUnits="userSpaceOnUse">
<stop stop-color="#2D2E46"/>
<stop offset="0.4" stop-color="#1A1B2F"/>
<stop offset="1"/>
</linearGradient>
<linearGradient id="paint3_linear_0_1" x1="323.89" y1="18.1074" x2="334.636" y2="18.1074" gradientUnits="userSpaceOnUse">
<stop stop-color="#2D2E46"/>
<stop offset="0.4" stop-color="#1A1B2F"/>
<stop offset="1"/>
</linearGradient>
<linearGradient id="paint4_linear_0_1" x1="316.61" y1="108.517" x2="382.038" y2="108.517" gradientUnits="userSpaceOnUse">
<stop stop-color="#2D2E46"/>
<stop offset="0.4" stop-color="#1A1B2F"/>
<stop offset="1"/>
</linearGradient>
</defs>
</svg>
