<svg width="342" height="98" viewBox="0 0 342 98" fill="none" xmlns="http://www.w3.org/2000/svg">
<path d="M396.725 60.1284H136.878L118.57 64.3994V69.1011H396.725V60.1284Z" stroke="#6B0AEA"/>
<path d="M391.536 72.1913H392.574V72.0118H391.536V72.1913ZM117.532 72.1913V72.0118H116.494V72.1913H117.532ZM117.532 104.672H116.494V104.852H117.532V104.672ZM321.644 104.672C321.644 105.2 324.114 105.631 327.187 105.631C330.259 105.631 332.729 105.204 332.729 104.672C332.729 104.141 330.259 103.714 327.187 103.714C324.114 103.714 321.644 104.141 321.644 104.672ZM385.994 76.4982C385.994 77.0258 388.464 77.4565 391.536 77.4565C394.608 77.4565 397.078 77.0294 397.078 76.4982C397.078 75.967 394.608 75.5399 391.536 75.5399C388.464 75.5399 385.994 75.967 385.994 76.4982ZM391.536 72.0118H117.532C117.532 72.0118 117.532 72.0118 117.532 72.1913C117.532 72.3707 117.532 72.3707 117.532 72.3707H391.536V72.0118V72.0118ZM116.494 72.1913V104.672H118.57V72.1913H116.494ZM117.532 104.852H327.187V104.493H117.532V104.852V104.852ZM390.498 72.1913V76.4982H392.574V72.1913H390.498Z" fill="#6B0AEA"/>
<path d="M341.717 56.4352H128.928L102.441 62.4038V97.853" stroke="#6B0AEA" stroke-width="2"/>
<path opacity="0.92" d="M341.717 51.3889H122.659L93.2246 58.2728V97.8207" stroke="#6B0AEA" stroke-width="1.84"/>
<path opacity="0.83" d="M341.717 46.3428H116.39L84.0081 54.1418V97.7885" stroke="#6B0AEA" stroke-width="1.68"/>
<path opacity="0.75" d="M341.717 41.2965H110.121L74.8123 50.0108V97.7561" stroke="#6B0AEA" stroke-width="1.52"/>
<path opacity="0.67" d="M341.717 36.2502H103.852L65.5957 45.8761V97.7238" stroke="#6B0AEA" stroke-width="1.36"/>
<path opacity="0.59" d="M341.717 31.2004H97.5838L56.3794 41.7451V97.6915" stroke="#6B0AEA" stroke-width="1.2"/>
<path opacity="0.5" d="M341.717 26.1543H91.3149L47.1836 37.6142V97.6557" stroke="#BE39EE" stroke-width="1.05"/>
<path opacity="0.42" d="M341.717 21.108H85.0459L37.967 33.4831V97.6234" stroke="#C036EB" stroke-width="0.89"/>
<path opacity="0.34" d="M341.717 16.0618H78.777L28.7505 29.3521V97.591" stroke="#C232E8" stroke-width="0.73"/>
<path opacity="0.26" d="M341.717 11.0155H72.5083L19.5549 25.221V97.5587" stroke="#C52EE6" stroke-width="0.57"/>
<path opacity="0.17" d="M341.717 5.96936H66.2394L10.3384 21.0865V97.5265" stroke="#C72BE3" stroke-width="0.41"/>
<path opacity="0.09" d="M341.717 0.923096H59.9704L1.12183 16.9555V97.4941" stroke="#C927E0" stroke-width="0.25"/>
</svg>
