<svg width="62" height="62" viewBox="0 0 62 62" fill="none" xmlns="http://www.w3.org/2000/svg">
<g clip-path="url(#clip0_2_3925)">
<path d="M29 55.5C16.5722 55.5 6.5 45.4278 6.5 33C6.5 20.5722 16.5722 10.5 29 10.5C41.4278 10.5 51.5 20.5722 51.5 33C51.5 45.4278 41.4278 55.5 29 55.5Z" stroke="#6B0AEA" stroke-width="3"/>
<path d="M29 22.7144V33.5715L36.4286 41.0001" stroke="#6B0AEA" stroke-width="3" stroke-linecap="round"/>
<path d="M56.2011 25.4155C56.8414 25.2736 57.2481 24.6385 57.0782 24.0051C55.7986 19.2346 53.2325 14.8984 49.6501 11.4763C46.0677 8.05422 41.6186 5.6891 36.7947 4.62914C36.1541 4.48838 35.5383 4.92366 35.4258 5.56981C35.3134 6.21596 35.7469 6.82805 36.3869 6.97152C40.7473 7.94901 44.7675 10.0968 48.0095 13.1937C51.2515 16.2907 53.581 20.2085 54.7569 24.5195C54.9295 25.1523 55.5608 25.5574 56.2011 25.4155Z" fill="#6B0AEA"/>
<path d="M47.32 5.57705C47.5556 5.21009 47.4495 4.72068 47.0767 4.49453C42.4328 1.67775 37.1298 0.130467 31.6998 0.00789633C31.2638 -0.00194443 30.9112 0.353632 30.9125 0.7897V0.7897C30.9137 1.22577 31.2684 1.57714 31.7044 1.58757C36.8303 1.71029 41.8357 3.17074 46.2233 5.82388C46.5965 6.04952 47.0845 5.94402 47.32 5.57705V5.57705Z" fill="#6B0AEA"/>
</g>
<defs>
<clipPath id="clip0_2_3925">
<rect width="62" height="62" fill="white"/>
</clipPath>
</defs>
</svg>
