<svg width="42" height="42" viewBox="0 0 42 42" fill="none" xmlns="http://www.w3.org/2000/svg">
<g clip-path="url(#clip0_2_3939)">
<path d="M40.96 31.5213L40.9604 31.5193C41.1169 30.8473 40.7294 30.0352 40.0112 29.6403L31.1511 25.8423L31.1477 25.8408C30.5122 25.5655 29.7627 25.7526 29.332 26.2869L29.327 26.2932L29.327 26.2931L25.711 30.7064C25.4167 31.0657 24.9136 31.175 24.4967 30.9703C18.6183 28.0837 13.8408 23.3063 10.9558 17.4293C10.7496 17.0091 10.8624 16.502 11.2274 16.2089L15.6404 12.6656C16.1747 12.2271 16.3579 11.4833 16.0872 10.8454C16.087 10.8449 16.0868 10.8444 16.0866 10.844L12.2734 1.95046C11.9624 1.24583 11.2084 0.871303 10.4813 1.0398L10.4803 1.04004L2.21155 2.94726L2.20914 2.94782L2.20914 2.94781C1.49744 3.11012 1 3.73229 1 4.4707C1 24.6149 17.3851 41 37.5285 41.0016L40.96 31.5213ZM40.96 31.5213L39.0527 39.7901L39.0524 39.7914M40.96 31.5213L39.0524 39.7914M39.0524 39.7914C38.889 40.5046 38.2671 41.0016 37.5286 41.0016L39.0524 39.7914Z" stroke="#6B0AEA" stroke-width="2" stroke-linejoin="round"/>
</g>
<defs>
<clipPath id="clip0_2_3939">
<rect width="42" height="42" fill="white"/>
</clipPath>
</defs>
</svg>
