<svg width="51" height="50" viewBox="0 0 51 50" fill="none" xmlns="http://www.w3.org/2000/svg">
<mask id="path-1-outside-1_581_93098" maskUnits="userSpaceOnUse" x="0.131836" y="0" width="51" height="50" fill="black">
<rect fill="white" x="0.131836" width="51" height="50"/>
<path fill-rule="evenodd" clip-rule="evenodd" d="M27.5756 46.5655C27.5756 47.486 28.7141 47.9176 29.3243 47.2284L48.1648 25.9466C48.4998 25.5682 48.4998 24.9993 48.1648 24.6209L29.3243 3.33915C28.7141 2.64992 27.5756 3.0815 27.5756 4.00201V14.6479C27.5756 15.2002 27.1279 15.6479 26.5756 15.6479H3.13184C2.57955 15.6479 2.13184 16.0957 2.13184 16.6479V32.6333C2.13184 33.1856 2.57955 33.6333 3.13184 33.6333H26.5756C27.1279 33.6333 27.5756 34.081 27.5756 34.6333V46.5655Z"/>
</mask>
<path d="M29.3243 3.33915L30.8218 2.01344L29.3243 3.33915ZM29.3243 47.2284L30.8218 48.5541L29.3243 47.2284ZM48.1648 25.9466L46.6673 24.6209L48.1648 25.9466ZM48.1648 24.6209L46.6673 25.9466L48.1648 24.6209ZM46.6673 24.6209L27.8268 45.9026L30.8218 48.5541L49.6623 27.2723L46.6673 24.6209ZM27.8268 4.66487L46.6673 25.9466L49.6623 23.2952L30.8218 2.01344L27.8268 4.66487ZM29.5756 14.6479V4.00201H25.5756V14.6479H29.5756ZM3.13184 17.6479H26.5756V13.6479H3.13184V17.6479ZM4.13184 32.6333V16.6479H0.131836V32.6333H4.13184ZM26.5756 31.6333H3.13184V35.6333H26.5756V31.6333ZM29.5756 46.5655V34.6333H25.5756V46.5655H29.5756ZM26.5756 35.6333C26.0233 35.6333 25.5756 35.1856 25.5756 34.6333H29.5756C29.5756 32.9764 28.2324 31.6333 26.5756 31.6333V35.6333ZM0.131836 32.6333C0.131836 34.2902 1.47498 35.6333 3.13184 35.6333V31.6333C3.68412 31.6333 4.13184 32.081 4.13184 32.6333H0.131836ZM3.13184 13.6479C1.47498 13.6479 0.131836 14.9911 0.131836 16.6479H4.13184C4.13184 17.2002 3.68412 17.6479 3.13184 17.6479V13.6479ZM25.5756 14.6479C25.5756 14.0957 26.0233 13.6479 26.5756 13.6479V17.6479C28.2324 17.6479 29.5756 16.3048 29.5756 14.6479H25.5756ZM30.8218 2.01344C28.9913 -0.0542486 25.5756 1.24049 25.5756 4.00201H29.5756C29.5756 4.92251 28.437 5.3541 27.8268 4.66487L30.8218 2.01344ZM27.8268 45.9026C28.437 45.2134 29.5756 45.645 29.5756 46.5655H25.5756C25.5756 49.327 28.9913 50.6217 30.8218 48.5541L27.8268 45.9026ZM49.6623 27.2723C50.6673 26.1371 50.6673 24.4304 49.6623 23.2952L46.6673 25.9466C46.3323 25.5682 46.3323 24.9993 46.6673 24.6209L49.6623 27.2723Z" fill="#6B0AEA" mask="url(#path-1-outside-1_581_93098)"/>
</svg>
