<svg width="89" height="56" viewBox="0 0 89 56" fill="none" xmlns="http://www.w3.org/2000/svg">
<path d="M37.9019 4.50971C37.6312 4.56387 37.4556 4.82728 37.5097 5.09806L38.3922 9.51067C38.4464 9.78145 38.7098 9.95706 38.9806 9.9029C39.2514 9.84875 39.427 9.58533 39.3728 9.31456L38.5883 5.39223L42.5107 4.60777C42.7815 4.55361 42.9571 4.2902 42.9029 4.01942C42.8487 3.74864 42.5853 3.57303 42.3146 3.62719L37.9019 4.50971ZM53.0981 15.4903C53.3688 15.4361 53.5444 15.1727 53.4903 14.9019L52.6078 10.4893C52.5536 10.2185 52.2902 10.0429 52.0194 10.0971C51.7486 10.1513 51.573 10.4147 51.6272 10.6854L52.4117 14.6078L48.4893 15.3922C48.2185 15.4464 48.0429 15.7098 48.0971 15.9806C48.1513 16.2514 48.4147 16.427 48.6854 16.3728L53.0981 15.4903ZM37.7226 5.41603L52.7226 15.416L53.2774 14.584L38.2774 4.58397L37.7226 5.41603Z" fill="#6B0AEA"/>
<path d="M18 3V15C18 15.5523 18.4477 16 19 16H30" stroke="#6B0AEA" stroke-width="3"/>
<path d="M75 19V31C75 31.5523 75.4477 32 76 32H87" stroke="#6B0AEA" stroke-width="3"/>
<path d="M19.3 2.36324L20.4566 1.40809L19.3 2.36324ZM29.7711 15.0428L30.9277 14.0876L29.7711 15.0428ZM0.5 3V37H3.5V3H0.5ZM3 39.5H29V36.5H3V39.5ZM31.5 37V15.6795H28.5V37H31.5ZM30.9277 14.0876L20.4566 1.40809L18.1434 3.31838L28.6145 15.9979L30.9277 14.0876ZM18.5289 0.5H3V3.5H18.5289V0.5ZM20.4566 1.40809C19.9816 0.833006 19.2747 0.5 18.5289 0.5V3.5C18.3797 3.5 18.2384 3.4334 18.1434 3.31838L20.4566 1.40809ZM31.5 15.6795C31.5 15.0985 31.2976 14.5356 30.9277 14.0876L28.6145 15.9979C28.5405 15.9083 28.5 15.7957 28.5 15.6795H31.5ZM29 39.5C30.3807 39.5 31.5 38.3807 31.5 37H28.5C28.5 36.7239 28.7239 36.5 29 36.5V39.5ZM0.5 37C0.5 38.3807 1.61929 39.5 3 39.5V36.5C3.27614 36.5 3.5 36.7239 3.5 37H0.5ZM3.5 3C3.5 3.27614 3.27614 3.5 3 3.5V0.5C1.61929 0.5 0.5 1.61929 0.5 3H3.5Z" fill="#6B0AEA"/>
<path d="M76.3 18.3632L77.4566 17.4081L76.3 18.3632ZM86.7711 31.0428L87.9277 30.0876L86.7711 31.0428ZM57.5 19V53H60.5V19H57.5ZM60 55.5H86V52.5H60V55.5ZM88.5 53V31.6795H85.5V53H88.5ZM87.9277 30.0876L77.4566 17.4081L75.1434 19.3184L85.6145 31.9979L87.9277 30.0876ZM75.5289 16.5H60V19.5H75.5289V16.5ZM77.4566 17.4081C76.9816 16.833 76.2747 16.5 75.5289 16.5V19.5C75.3797 19.5 75.2384 19.4334 75.1434 19.3184L77.4566 17.4081ZM88.5 31.6795C88.5 31.0985 88.2976 30.5356 87.9277 30.0876L85.6145 31.9979C85.5405 31.9083 85.5 31.7957 85.5 31.6795H88.5ZM86 55.5C87.3807 55.5 88.5 54.3807 88.5 53H85.5C85.5 52.7239 85.7239 52.5 86 52.5V55.5ZM57.5 53C57.5 54.3807 58.6193 55.5 60 55.5V52.5C60.2761 52.5 60.5 52.7239 60.5 53H57.5ZM60.5 19C60.5 19.2761 60.2761 19.5 60 19.5V16.5C58.6193 16.5 57.5 17.6193 57.5 19H60.5Z" fill="#6B0AEA"/>
</svg>
