<svg width="52" height="52" viewBox="0 0 52 52" fill="none" xmlns="http://www.w3.org/2000/svg">
<path d="M26.7882 5.09804C26.7882 5.81194 27.2914 6.42693 27.9911 6.56832C34.6187 7.90753 39.6018 13.7377 39.6018 20.7108V22.5827C39.6018 27.6437 41.471 32.5087 44.8371 36.2859L44.84 36.2892L45.5766 37.111C45.5773 37.1117 45.5779 37.1124 45.5785 37.1131C46.0307 37.6234 46.1331 38.3242 45.8628 38.9189C45.5853 39.5292 44.9776 39.9216 44.3052 39.9216H5.8645C5.18978 39.9216 4.58246 39.5275 4.30953 38.9227C4.03894 38.3231 4.1422 37.6206 4.59018 37.1124C4.59115 37.1114 4.59211 37.1103 4.59307 37.1092L5.32865 36.2904L5.33199 36.2866C8.70316 32.5084 10.5679 27.6429 10.5679 22.5827V20.7108C10.5679 13.7298 15.4682 7.90775 22.1751 6.56902C22.8765 6.42902 23.3814 5.81328 23.3814 5.09804V3.18627C23.3814 2.26193 24.1347 1.5 25.0848 1.5C26.035 1.5 26.7882 2.26193 26.7882 3.18627V5.09804ZM25.0848 49.4804C23.7748 49.4804 22.5248 48.9669 21.6079 48.0549C21.0678 47.5177 20.6647 46.8316 20.4265 46.1078H29.7432C29.505 46.8316 29.1019 47.5177 28.5618 48.0549C27.6526 48.9593 26.3159 49.4804 25.0848 49.4804Z" stroke="#6B0AEA" stroke-width="3" stroke-linejoin="round"/>
</svg>
