<svg width="52" height="52" viewBox="0 0 52 52" fill="none" xmlns="http://www.w3.org/2000/svg">
<path d="M24.28 34.888L23.368 25C23.32 24.488 23.44 24 23.728 23.536C24.032 23.056 24.488 22.816 25.096 22.816C25.752 22.816 26.208 23.056 26.464 23.536C26.736 24 26.848 24.488 26.8 25L25.912 34.888H24.28ZM25.072 40.384C24.608 40.384 24.2 40.2 23.848 39.832C23.512 39.464 23.344 39.024 23.344 38.512C23.344 38 23.52 37.56 23.872 37.192C24.224 36.824 24.632 36.64 25.096 36.64C25.592 36.64 26 36.824 26.32 37.192C26.656 37.56 26.824 38 26.824 38.512C26.824 39.024 26.648 39.464 26.296 39.832C25.944 40.2 25.536 40.384 25.072 40.384Z" fill="#6B0AEA"/>
<path d="M25.067 5.75C25.2594 5.41667 25.7406 5.41667 25.933 5.75L48.8827 45.5C49.0751 45.8333 48.8346 46.25 48.4497 46.25H2.55033C2.16543 46.25 1.92487 45.8333 2.11731 45.5L25.067 5.75Z" stroke="#6B0AEA" stroke-width="3" stroke-linejoin="round"/>
</svg>
