<svg width="56" height="32" viewBox="0 0 56 32" fill="none" xmlns="http://www.w3.org/2000/svg">
<mask id="path-1-outside-1_2_3941" maskUnits="userSpaceOnUse" x="0" y="0" width="56" height="32" fill="black">
<rect fill="white" width="56" height="32"/>
<path fill-rule="evenodd" clip-rule="evenodd" d="M30.8118 28.2262C30.8118 28.996 31.6451 29.4771 32.3118 29.0922L53.291 16.9799C53.9577 16.595 53.9577 15.6327 53.291 15.2478L32.3118 3.13547C31.6451 2.75057 30.8118 3.23169 30.8118 4.00149V9.53688C30.8118 10.0892 30.3641 10.5369 29.8118 10.5369H3C2.44772 10.5369 2 10.9846 2 11.5369V19.9465C2 20.4988 2.44771 20.9465 3 20.9465H29.8118C30.3641 20.9465 30.8118 21.3942 30.8118 21.9465V28.2262Z"/>
</mask>
<path d="M32.3118 3.13547L31.3118 4.86752L32.3118 3.13547ZM32.3118 29.0922L31.3118 27.3602L32.3118 29.0922ZM53.291 16.9799L54.291 18.7119L53.291 16.9799ZM53.291 15.2478L52.291 16.9799L53.291 15.2478ZM52.291 15.2478L31.3118 27.3602L33.3118 30.8243L54.291 18.7119L52.291 15.2478ZM31.3118 4.86752L52.291 16.9799L54.291 13.5158L33.3118 1.40342L31.3118 4.86752ZM32.8118 9.53688V4.00149H28.8118V9.53688H32.8118ZM3 12.5369H29.8118V8.53688H3V12.5369ZM4 19.9465V11.5369H0V19.9465H4ZM29.8118 18.9465H3V22.9465H29.8118V18.9465ZM32.8118 28.2262V21.9465H28.8118V28.2262H32.8118ZM29.8118 22.9465C29.2595 22.9465 28.8118 22.4988 28.8118 21.9465H32.8118C32.8118 20.2896 31.4687 18.9465 29.8118 18.9465V22.9465ZM0 19.9465C0 21.6033 1.34314 22.9465 3 22.9465V18.9465C3.55229 18.9465 4 19.3942 4 19.9465H0ZM3 8.53688C1.34314 8.53688 0 9.88003 0 11.5369H4C4 12.0892 3.55229 12.5369 3 12.5369V8.53688ZM28.8118 9.53688C28.8118 8.9846 29.2595 8.53688 29.8118 8.53688V12.5369C31.4687 12.5369 32.8118 11.1937 32.8118 9.53688H28.8118ZM33.3118 1.40342C31.3118 0.248715 28.8118 1.69209 28.8118 4.00149H32.8118C32.8118 4.77129 31.9785 5.25242 31.3118 4.86752L33.3118 1.40342ZM31.3118 27.3602C31.9785 26.9753 32.8118 27.4564 32.8118 28.2262H28.8118C28.8118 30.5356 31.3118 31.979 33.3118 30.8243L31.3118 27.3602ZM54.291 18.7119C56.291 17.5572 56.291 14.6705 54.291 13.5158L52.291 16.9799C51.6244 16.595 51.6243 15.6327 52.291 15.2478L54.291 18.7119Z" fill="#6B0AEA" mask="url(#path-1-outside-1_2_3941)"/>
</svg>
