<svg width="40" height="40" viewBox="0 0 40 40" fill="none" xmlns="http://www.w3.org/2000/svg">
<g clip-path="url(#clip0_2_3935)">
<path d="M12.5 27.5H27.5V12.5H12.5V27.5ZM35 13.75H38.75C39.4375 13.75 40 13.1875 40 12.5C40 11.8125 39.4405 11.25 38.75 11.25H35V10C35 7.23828 32.7617 5 30 5H28.75V1.25C28.75 0.559687 28.1875 0 27.5 0C26.8097 0 26.25 0.559687 26.25 1.25V5H21.25V1.25C21.25 0.559687 20.6875 0 20 0C19.3125 0 18.75 0.559687 18.75 1.25V5H13.75V1.25C13.75 0.559687 13.1875 0 12.5 0C11.8125 0 11.25 0.559687 11.25 1.25V5H10C7.23828 5 5 7.23828 5 10V11.25H1.25C0.559687 11.25 0 11.8125 0 12.5C0 13.1875 0.559687 13.75 1.25 13.75H5V18.75H1.25C0.559687 18.75 0 19.3125 0 20C0 20.6875 0.559687 21.25 1.25 21.25H5V26.25H1.25C0.559687 26.25 0 26.8125 0 27.5C0 28.1875 0.559687 28.75 1.25 28.75H5V30C5 32.7617 7.23828 35 10 35H11.25V38.75C11.25 39.4375 11.8125 40 12.5 40C13.1905 40 13.75 39.4403 13.75 38.75V35H18.75V38.75C18.75 39.4403 19.3097 40 20 40C20.6905 40 21.25 39.4403 21.25 38.75V35H26.25V38.75C26.25 39.4403 26.8097 40 27.5 40C28.1905 40 28.75 39.4403 28.75 38.75V35H30C32.7617 35 35 32.7617 35 30V28.75H38.75C39.4405 28.75 40 28.1903 40 27.5C40 26.8097 39.4405 26.25 38.75 26.25H35V21.25H38.75C39.4375 21.25 40 20.6875 40 20C40 19.3125 39.4405 18.75 38.75 18.75H35V13.75ZM30 28.75C30 29.4403 29.4405 30 28.75 30H11.25C10.5625 30 10 29.4375 10 28.75V11.25C10 10.5625 10.5625 10 11.25 10H28.75C29.4375 10 30 10.5625 30 11.25V28.75Z" fill="#6B0AEA"/>
</g>
<defs>
<clipPath id="clip0_2_3935">
<rect width="40" height="40" fill="white"/>
</clipPath>
</defs>
</svg>
