<svg width="43" height="54" viewBox="0 0 43 54" fill="none" xmlns="http://www.w3.org/2000/svg">
<path d="M24.5 3V20C24.5 20.5523 24.9477 21 25.5 21H41.5" stroke="#6B0AEA" stroke-width="3"/>
<path d="M25.9785 2.36216L27.1338 1.4054L25.9785 2.36216ZM40.7702 20.2225L41.9254 19.2657L40.7702 20.2225ZM0.5 3V51H3.5V3H0.5ZM3 53.5H40V50.5H3V53.5ZM42.5 51V20.8603H39.5V51H42.5ZM41.9254 19.2657L27.1338 1.4054L24.8233 3.31892L39.6149 21.1792L41.9254 19.2657ZM25.2083 0.5H3V3.5H25.2083V0.5ZM27.1338 1.4054C26.6588 0.831918 25.953 0.5 25.2083 0.5V3.5C25.0594 3.5 24.9182 3.43362 24.8233 3.31892L27.1338 1.4054ZM42.5 20.8603C42.5 20.2781 42.2968 19.7141 41.9254 19.2657L39.6149 21.1792C39.5406 21.0896 39.5 20.9768 39.5 20.8603H42.5ZM40 53.5C41.3807 53.5 42.5 52.3807 42.5 51H39.5C39.5 50.7239 39.7239 50.5 40 50.5V53.5ZM0.5 51C0.5 52.3807 1.61929 53.5 3 53.5V50.5C3.27614 50.5 3.5 50.7239 3.5 51H0.5ZM3.5 3C3.5 3.27614 3.27614 3.5 3 3.5V0.5C1.61929 0.5 0.5 1.61929 0.5 3H3.5Z" fill="#6B0AEA"/>
</svg>
