<svg width="54" height="46" viewBox="0 0 54 46" fill="none" xmlns="http://www.w3.org/2000/svg">
<path d="M26.28 30.888L25.368 21C25.32 20.488 25.44 20 25.728 19.536C26.032 19.056 26.488 18.816 27.096 18.816C27.752 18.816 28.208 19.056 28.464 19.536C28.736 20 28.848 20.488 28.8 21L27.912 30.888H26.28ZM27.072 36.384C26.608 36.384 26.2 36.2 25.848 35.832C25.512 35.464 25.344 35.024 25.344 34.512C25.344 34 25.52 33.56 25.872 33.192C26.224 32.824 26.632 32.64 27.096 32.64C27.592 32.64 28 32.824 28.32 33.192C28.656 33.56 28.824 34 28.824 34.512C28.824 35.024 28.648 35.464 28.296 35.832C27.944 36.2 27.536 36.384 27.072 36.384Z" fill="#6B0AEA"/>
<path d="M26.567 1.75C26.7594 1.41667 27.2406 1.41666 27.433 1.75L51.6817 43.75C51.8742 44.0833 51.6336 44.5 51.2487 44.5H2.75129C2.36639 44.5 2.12582 44.0833 2.31828 43.75L26.567 1.75Z" stroke="#6B0AEA" stroke-width="3" stroke-linejoin="round"/>
</svg>
