<svg width="45" height="54" viewBox="0 0 45 54" fill="none" xmlns="http://www.w3.org/2000/svg">
<path d="M10 5.05882V3C10 1.89543 10.8954 1 12 1H42C43.1046 1 44 1.89543 44 3V45C44 46.1046 43.1046 47 42 47H38.4865" stroke="#6B0AEA" stroke-width="2" stroke-linecap="round" stroke-linejoin="round"/>
<path d="M7 17H28" stroke="#6B0AEA" stroke-width="3" stroke-linecap="round" stroke-linejoin="round"/>
<path d="M7 24H18" stroke="#6B0AEA" stroke-width="3" stroke-linecap="round" stroke-linejoin="round"/>
<path d="M7 29H29" stroke="#6B0AEA" stroke-width="3" stroke-linecap="round" stroke-linejoin="round"/>
<path d="M0.5 7V51H3.5V7H0.5ZM3 53.5H36V50.5H3V53.5ZM38.5 51V23.02H35.5V51H38.5ZM38.5 23.02V7H35.5V23.02H38.5ZM36 4.5H3V7.5H36V4.5ZM38.5 7C38.5 5.61928 37.3807 4.5 36 4.5V7.5C35.7239 7.5 35.5 7.27614 35.5 7H38.5ZM36 53.5C37.3807 53.5 38.5 52.3807 38.5 51H35.5C35.5 50.7239 35.7239 50.5 36 50.5V53.5ZM0.5 51C0.5 52.3807 1.61929 53.5 3 53.5V50.5C3.27614 50.5 3.5 50.7239 3.5 51H0.5ZM3.5 7C3.5 7.27614 3.27614 7.5 3 7.5V4.5C1.61929 4.5 0.5 5.61929 0.5 7H3.5Z" fill="#6B0AEA"/>
</svg>
