<svg width="53" height="61" viewBox="0 0 53 61" fill="none" xmlns="http://www.w3.org/2000/svg">
<path d="M21.0426 10.0674C22.1118 8.12015 24.2002 6.8125 26.5711 6.8125C27.1787 6.8125 27.7638 6.8995 28.3159 7.05964C29.4068 5.22516 31.4165 4 33.714 4C37.1543 4 39.9997 6.75321 39.9997 10.2188V15.6627C40.6761 15.3418 41.4763 15.4254 42.0723 15.8814L44.8312 17.9925C44.86 18.0145 44.8881 18.0373 44.9156 18.0609C46.2779 19.2258 47.1426 20.9865 47.1426 22.875V28.957C47.1426 32.5184 45.3971 35.8889 42.4857 37.9766L42.4842 37.9777L38.5711 40.7781V51C38.5711 52.1046 37.6757 53 36.5711 53H13.714C12.6094 53 11.714 52.1046 11.714 51V40.7771C8.24657 38.0998 5.99972 33.9335 5.99972 29.2383V18.6562C5.99972 15.193 8.8446 12.4375 12.2854 12.4375C12.6659 12.4375 13.0366 12.4726 13.3952 12.5381C14.5091 10.7825 16.4795 9.625 18.714 9.625C19.5362 9.625 20.3221 9.78205 21.0426 10.0674Z" stroke="#6B0AEA" stroke-width="4" stroke-linejoin="round"/>
</svg>
