<svg width="52" height="52" viewBox="0 0 52 52" fill="none" xmlns="http://www.w3.org/2000/svg">
<path d="M6.39111 24.4785L2.35313 17.9112C1.7812 16.9839 1.91419 15.793 2.67805 15.0164C15.8157 1.66095 37.185 1.66095 50.3221 15.018C51.0854 15.7941 51.2193 16.9857 50.6465 17.9122L46.6085 24.4796C46.0212 25.4368 44.8434 25.8276 43.8019 25.4145L35.7301 22.1332C34.7815 21.7445 34.1972 20.7621 34.2998 19.7281L34.8522 14.5891C29.4787 12.7235 23.6178 12.7235 18.2421 14.5891L18.7482 19.771C18.8572 20.8017 18.2702 21.7933 17.3166 22.1769L9.2453 25.4587C8.20834 25.7862 6.97429 25.4314 6.39111 24.4785Z" stroke="#6B0AEA" stroke-width="2" stroke-linecap="round" stroke-linejoin="round"/>
<path d="M39.2851 23.1548H13.8534C13.0318 23.1548 12.298 23.6774 12.0172 24.4625L5.26764 43.3346C4.80428 44.6302 5.74795 46 7.10384 46H46.4097C47.7803 46 48.7249 44.6026 48.2338 43.3016L41.1092 24.4295C40.8193 23.6617 40.0941 23.1548 39.2851 23.1548Z" stroke="#6B0AEA" stroke-width="2" stroke-linecap="round" stroke-linejoin="round"/>
</svg>
