<svg width="52" height="52" viewBox="0 0 52 52" fill="none" xmlns="http://www.w3.org/2000/svg">
<path d="M28 3V19C28 19.5523 28.4477 20 29 20H44" stroke="#6B0AEA" stroke-width="3"/>
<path d="M44.7588 19.109L43.6206 20.086L44.7588 19.109ZM5.5 3V48H8.5V3H5.5ZM8 50.5H44V47.5H8V50.5ZM46.5 48V19.7604H43.5V48H46.5ZM45.8969 18.1319L31.5089 1.37158L29.2326 3.32568L43.6206 20.086L45.8969 18.1319ZM29.612 0.5H8V3.5H29.612V0.5ZM31.5089 1.37158C31.0339 0.818332 30.3411 0.5 29.612 0.5V3.5C29.4661 3.5 29.3276 3.43633 29.2326 3.32568L31.5089 1.37158ZM46.5 19.7604C46.5 19.1629 46.2861 18.5852 45.8969 18.1319L43.6206 20.086C43.5428 19.9954 43.5 19.8798 43.5 19.7604H46.5ZM44 50.5C45.3807 50.5 46.5 49.3807 46.5 48H43.5C43.5 47.7239 43.7239 47.5 44 47.5V50.5ZM5.5 48C5.5 49.3807 6.61929 50.5 8 50.5V47.5C8.27614 47.5 8.5 47.7239 8.5 48H5.5ZM8.5 3C8.5 3.27614 8.27614 3.5 8 3.5V0.5C6.61929 0.5 5.5 1.61929 5.5 3H8.5Z" fill="#6B0AEA"/>
</svg>
