<svg width="44" height="55" viewBox="0 0 44 55" fill="none" xmlns="http://www.w3.org/2000/svg">
<path d="M24.5 3V20C24.5 20.5523 24.9477 21 25.5 21H41.5" stroke="#6B0AEA" stroke-width="3"/>
<path d="M26.5856 2.36007L27.7382 1.40018L26.5856 2.36007ZM41.7684 20.5919L42.9211 19.632L41.7684 20.5919ZM0.5 3V52H3.5V3H0.5ZM3 54.5H41V51.5H3V54.5ZM43.5 52V21.2319H40.5V52H43.5ZM42.9211 19.632L27.7382 1.40018L25.4329 3.31996L40.6158 21.5518L42.9211 19.632ZM25.8171 0.5H3V3.5H25.8171V0.5ZM27.7382 1.40018C27.2632 0.829817 26.5594 0.5 25.8171 0.5V3.5C25.6687 3.5 25.5279 3.43404 25.4329 3.31996L27.7382 1.40018ZM43.5 21.2319C43.5 20.6473 43.2952 20.0812 42.9211 19.632L40.6158 21.5518C40.541 21.462 40.5 21.3488 40.5 21.2319H43.5ZM41 54.5C42.3807 54.5 43.5 53.3807 43.5 52H40.5C40.5 51.7239 40.7239 51.5 41 51.5V54.5ZM0.5 52C0.5 53.3807 1.61929 54.5 3 54.5V51.5C3.27614 51.5 3.5 51.7239 3.5 52H0.5ZM3.5 3C3.5 3.27614 3.27614 3.5 3 3.5V0.5C1.61929 0.5 0.5 1.61929 0.5 3H3.5Z" fill="#6B0AEA"/>
</svg>
