<svg width="49" height="50" viewBox="0 0 49 50" fill="none" xmlns="http://www.w3.org/2000/svg">
<path d="M25.7882 5C25.7882 5.71601 26.2943 6.33219 26.9966 6.47138C33.6415 7.78826 38.6018 13.5094 38.6018 20.3125V22.1484C38.6018 27.1278 40.4772 31.9096 43.8467 35.6181L43.8497 35.6213L44.5863 36.4273C44.5868 36.4278 44.5873 36.4284 44.5878 36.429C45.0329 36.9213 45.128 37.5862 44.8674 38.1485C44.5973 38.7312 43.9938 39.125 43.3052 39.125H4.8645C4.17352 39.125 3.57054 38.7295 3.30498 38.1523C3.044 37.5851 3.14006 36.9186 3.5806 36.4286C3.58154 36.4275 3.58248 36.4265 3.58342 36.4255L4.31891 35.6225L4.32229 35.6188C7.69699 31.9094 9.56789 27.1271 9.56789 22.1484V20.3125C9.56789 13.5016 14.4455 7.78841 21.1696 6.47206C21.8736 6.33425 22.3814 5.71732 22.3814 5V3.125C22.3814 2.26175 23.1071 1.5 24.0848 1.5C25.0626 1.5 25.7882 2.26175 25.7882 3.125V5ZM24.0848 48.5C22.7656 48.5 21.5123 47.9926 20.5975 47.1001C20.0712 46.5867 19.6772 45.9361 19.4395 45.25H28.7302C28.4925 45.9361 28.0985 46.5867 27.5722 47.1001C26.6649 47.9852 25.3249 48.5 24.0848 48.5Z" stroke="#6B0AEA" stroke-width="3" stroke-linejoin="round"/>
</svg>
