<svg width="52" height="52" viewBox="0 0 52 52" fill="none" xmlns="http://www.w3.org/2000/svg">
<mask id="path-1-outside-1_827_40453" maskUnits="userSpaceOnUse" x="1.13184" y="1" width="51" height="50" fill="black">
<rect fill="white" x="1.13184" y="1" width="51" height="50"/>
<path fill-rule="evenodd" clip-rule="evenodd" d="M28.5756 47.5655C28.5756 48.486 29.7141 48.9176 30.3243 48.2284L49.1648 26.9466C49.4998 26.5682 49.4998 25.9993 49.1648 25.6209L30.3243 4.33915C29.7141 3.64992 28.5756 4.0815 28.5756 5.00201V15.6479C28.5756 16.2002 28.1279 16.6479 27.5756 16.6479H4.13184C3.57955 16.6479 3.13184 17.0957 3.13184 17.6479V33.6333C3.13184 34.1856 3.57955 34.6333 4.13184 34.6333H27.5756C28.1279 34.6333 28.5756 35.081 28.5756 35.6333V47.5655Z"/>
</mask>
<path d="M30.3243 4.33915L31.8218 3.01344L30.3243 4.33915ZM30.3243 48.2284L31.8218 49.5541L30.3243 48.2284ZM49.1648 26.9466L47.6673 25.6209L49.1648 26.9466ZM49.1648 25.6209L47.6673 26.9466L49.1648 25.6209ZM47.6673 25.6209L28.8268 46.9026L31.8218 49.5541L50.6623 28.2723L47.6673 25.6209ZM28.8268 5.66487L47.6673 26.9466L50.6623 24.2952L31.8218 3.01344L28.8268 5.66487ZM30.5756 15.6479V5.00201H26.5756V15.6479H30.5756ZM4.13184 18.6479H27.5756V14.6479H4.13184V18.6479ZM5.13184 33.6333V17.6479H1.13184V33.6333H5.13184ZM27.5756 32.6333H4.13184V36.6333H27.5756V32.6333ZM30.5756 47.5655V35.6333H26.5756V47.5655H30.5756ZM27.5756 36.6333C27.0233 36.6333 26.5756 36.1856 26.5756 35.6333H30.5756C30.5756 33.9764 29.2324 32.6333 27.5756 32.6333V36.6333ZM1.13184 33.6333C1.13184 35.2902 2.47498 36.6333 4.13184 36.6333V32.6333C4.68412 32.6333 5.13184 33.081 5.13184 33.6333H1.13184ZM4.13184 14.6479C2.47498 14.6479 1.13184 15.9911 1.13184 17.6479H5.13184C5.13184 18.2002 4.68412 18.6479 4.13184 18.6479V14.6479ZM26.5756 15.6479C26.5756 15.0957 27.0233 14.6479 27.5756 14.6479V18.6479C29.2324 18.6479 30.5756 17.3048 30.5756 15.6479H26.5756ZM31.8218 3.01344C29.9913 0.945751 26.5756 2.24049 26.5756 5.00201H30.5756C30.5756 5.92251 29.437 6.3541 28.8268 5.66487L31.8218 3.01344ZM28.8268 46.9026C29.437 46.2134 30.5756 46.645 30.5756 47.5655H26.5756C26.5756 50.327 29.9913 51.6217 31.8218 49.5541L28.8268 46.9026ZM50.6623 28.2723C51.6673 27.1371 51.6673 25.4304 50.6623 24.2952L47.6673 26.9466C47.3323 26.5682 47.3323 25.9993 47.6673 25.6209L50.6623 28.2723Z" fill="#6B0AEA" mask="url(#path-1-outside-1_827_40453)"/>
</svg>
