<svg width="42" height="39" viewBox="0 0 42 39" fill="none" xmlns="http://www.w3.org/2000/svg">
<g clip-path="url(#clip0_2_3897)">
<path d="M31.5123 24.111L10.4914 24.111L19.2462 2.4172L19.2489 2.41041L19.2516 2.40359C19.42 1.96798 19.6827 1.62495 20.0472 1.38087L20.1094 1.33921L20.1647 1.28876C20.3487 1.12086 20.6502 0.999949 21.0001 0.999949C21.3995 0.999949 21.6619 1.10061 21.9932 1.34949L22.0149 1.36578L22.0374 1.38087C22.3471 1.58827 22.5489 1.88703 22.7487 2.40359L22.7513 2.41048L22.7541 2.41733L31.5123 24.111ZM4.02585 34.2913C4.01779 34.2119 4.00936 34.1288 4.00033 34.0416C4.00539 33.4846 4.09546 32.9248 4.26591 32.4133C4.31075 32.3186 4.35276 32.2289 4.39266 32.1437C4.64448 31.6061 4.81253 31.2473 5.08014 30.9269C5.41337 30.5279 5.80324 30.2159 6.20969 30.0145C6.62515 29.8087 7.06462 29.7031 7.49073 29.7031L34.5114 29.7031C35.3719 29.7031 36.2456 30.1153 36.9213 30.9261C37.5948 31.7343 38.0025 32.9693 38.0001 34.0891L38.0001 34.0893C37.9977 35.3126 37.5923 36.4391 36.9095 37.2548C36.2337 38.0623 35.3599 38.4682 34.4935 38.4682L34.4007 38.4682L33.2955 38.4682L33.4057 39.5679C33.4643 40.1526 33.4945 40.7372 33.4964 41.3332C33.496 45.3964 32.144 49.2705 29.7766 52.1031C27.4107 54.9338 24.2487 56.4736 21.0845 56.4736C17.754 56.4736 14.594 54.928 12.233 52.1031C9.8649 49.2697 8.50948 45.3948 8.50948 41.3316C8.50948 40.733 8.53627 40.1512 8.59763 39.5739L8.71516 38.4682L7.60323 38.4682L7.50948 38.4682C7.07097 38.4682 6.63249 38.3682 6.22844 38.168C5.81512 37.9633 5.42683 37.6595 5.08951 37.2556C4.75668 36.8571 4.47846 36.3693 4.29214 35.8301C4.13627 35.3791 4.09461 34.9686 4.02585 34.2913Z" stroke="#6B0AEA" stroke-width="2"/>
<path d="M7.98047 38.5L33.1805 38.5" stroke="#6B0AEA" stroke-width="2" stroke-linecap="round" stroke-linejoin="round"/>
</g>
<defs>
<clipPath id="clip0_2_3897">
<rect width="42" height="39" fill="white" transform="translate(42 39) rotate(-180)"/>
</clipPath>
</defs>
</svg>
