<svg width="39" height="40" viewBox="0 0 39 40" fill="none" xmlns="http://www.w3.org/2000/svg">
<path d="M20.2191 4C20.2191 4.71546 20.7244 5.33133 21.4261 5.4711C26.575 6.49674 30.4176 10.9529 30.4176 16.25V17.7188C30.4176 21.776 31.938 25.672 34.6692 28.6934L34.6721 28.6966L35.2576 29.3405C35.2582 29.3411 35.2588 29.3418 35.2594 29.3425C35.5345 29.6491 35.5886 30.0549 35.4317 30.3953C35.2659 30.7548 34.8942 31 34.4673 31H3.87164C3.44234 31 3.07174 30.753 2.90969 30.3991C2.75157 30.0537 2.80748 29.646 3.07904 29.3416L3.66572 28.6978L3.66909 28.6941C6.40464 25.6718 7.92128 21.7752 7.92128 17.7188V16.25C7.92128 10.9451 11.6996 6.49691 16.9094 5.47178C17.6127 5.33339 18.1198 4.71677 18.1198 4V2.5C18.1198 1.97472 18.5606 1.5 19.1695 1.5C19.7783 1.5 20.2191 1.97472 20.2191 2.5V4ZM19.1695 38.5C18.1999 38.5 17.2805 38.1252 16.6103 37.468C16.3278 37.191 16.0968 36.858 15.9249 36.5H22.4141C22.2421 36.858 22.0111 37.191 21.7286 37.468C21.066 38.1177 20.0783 38.5 19.1695 38.5Z" stroke="#6B0AEA" stroke-width="3" stroke-linejoin="round"/>
</svg>
