<svg width="40" height="36" viewBox="0 0 40 36" fill="none" xmlns="http://www.w3.org/2000/svg">
<path d="M4.48891 14.7576L4.49003 14.7594C4.66996 15.0486 5.12743 15.236 5.58344 15.1092L11.9631 12.5579L11.9666 12.5566C12.3071 12.4219 12.518 12.0701 12.4793 11.7104L12.4785 11.7024L12.4785 11.7024L12.0758 7.64702C12.0299 7.18482 12.3083 6.75186 12.7479 6.60182C17.2347 5.07028 22.1255 5.07024 26.6109 6.60185C27.0539 6.75313 27.3327 7.1915 27.2818 7.65686L26.8428 11.6737C26.8075 12.0382 27.0181 12.3864 27.359 12.5243C27.3594 12.5245 27.3597 12.5246 27.3601 12.5248L33.7756 15.0898C34.1624 15.239 34.5856 15.093 34.7938 14.7593L34.7943 14.7584L38.0074 9.6188L38.0087 9.6167L38.0087 9.61671C38.2148 9.28873 38.1692 8.87008 37.8901 8.59091C27.8273 -1.47185 11.4568 -1.47189 1.39356 8.58966L4.48891 14.7576ZM4.48891 14.7576L1.27585 9.61797L1.27512 9.6168M4.48891 14.7576L1.27512 9.6168M1.27512 9.6168C1.06846 9.28724 1.11443 8.86884 1.3935 8.58972L1.27512 9.6168ZM35.6421 15.2884L35.642 15.2884L35.6421 15.2884Z" stroke="#6B0AEA" stroke-width="2" stroke-linejoin="round"/>
<path d="M29.4854 16.7856H9.89436C9.05335 16.7856 8.30219 17.3118 8.01477 18.1022L2.97581 31.9593C2.5015 33.2637 3.46748 34.6428 4.85541 34.6428H34.8043C36.2073 34.6428 37.1743 33.2359 36.6715 31.9261L31.3526 18.069C31.0559 17.2959 30.3135 16.7856 29.4854 16.7856Z" stroke="#6B0AEA" stroke-width="2" stroke-linecap="round" stroke-linejoin="round"/>
</svg>
