<svg width="43" height="52" viewBox="0 0 43 52" fill="none" xmlns="http://www.w3.org/2000/svg">
<path d="M10 4.88235V3C10 1.89543 10.8954 1 12 1H40C41.1046 1 42 1.89543 42 3V43C42 44.1046 41.1046 45 40 45H36.8108" stroke="#6B0AEA" stroke-width="2" stroke-linecap="round" stroke-linejoin="round"/>
<path d="M7 16H27" stroke="#6B0AEA" stroke-width="3" stroke-linecap="round" stroke-linejoin="round"/>
<path d="M7 23H17" stroke="#6B0AEA" stroke-width="3" stroke-linecap="round" stroke-linejoin="round"/>
<path d="M7 28H28" stroke="#6B0AEA" stroke-width="3" stroke-linecap="round" stroke-linejoin="round"/>
<path d="M0.5 7V49H3.5V7H0.5ZM3 51.5H34V48.5H3V51.5ZM36.5 49V22.28H33.5V49H36.5ZM36.5 22.28V7H33.5V22.28H36.5ZM34 4.5H3V7.5H34V4.5ZM36.5 7C36.5 5.61929 35.3807 4.5 34 4.5V7.5C33.7239 7.5 33.5 7.27614 33.5 7H36.5ZM34 51.5C35.3807 51.5 36.5 50.3807 36.5 49H33.5C33.5 48.7239 33.7239 48.5 34 48.5V51.5ZM0.5 49C0.5 50.3807 1.61929 51.5 3 51.5V48.5C3.27614 48.5 3.5 48.7239 3.5 49H0.5ZM3.5 7C3.5 7.27614 3.27614 7.5 3 7.5V4.5C1.61929 4.5 0.5 5.61929 0.5 7H3.5Z" fill="#6B0AEA"/>
</svg>
