<svg width="923" height="681" viewBox="0 0 923 681" fill="none" xmlns="http://www.w3.org/2000/svg">
<path opacity="0.2" d="M42.5 10H807" stroke="#6B0AEA"/>
<g clip-path="url(#clip0_0_1)">
<path d="M348.662 3.38428H138.909V11.606H348.662V3.38428Z" fill="#6B0AEA" fill-opacity="0.2"/>
<path d="M6.06299 7.5H138.909" stroke="#6B0AEA" stroke-opacity="0.2" stroke-width="1.78" stroke-miterlimit="10"/>
<path d="M348.662 7.5H899" stroke="#6B0AEA" stroke-opacity="0.2" stroke-width="1.78" stroke-miterlimit="10"/>
<path d="M9.00331 7.5L0 0V15L9.00331 7.5Z" fill="#6B0AEA" fill-opacity="0.2"/>
<path d="M483.205 3.38428H475.114V11.606H483.205V3.38428Z" fill="#6B0AEA" fill-opacity="0.2"/>
<path d="M714.094 3.38428H706.003V11.606H714.094V3.38428Z" fill="#6B0AEA" fill-opacity="0.2"/>
<path d="M834.24 3.38428H830.927V11.606H834.24V3.38428Z" fill="#6B0AEA" fill-opacity="0.2"/>
</g>
<g opacity="0.4" clip-path="url(#clip1_0_1)">
<path d="M125.433 112.11C125.433 109.962 127.17 108.221 129.313 108.221C131.456 108.221 133.194 109.962 133.194 112.11C133.194 114.258 131.456 116 129.313 116C127.17 116 125.433 114.258 125.433 112.11Z" fill="url(#paint0_linear_0_1)"/>
<path d="M102.15 112.11C102.15 109.962 103.888 108.221 106.031 108.221C108.174 108.221 109.911 109.962 109.911 112.11C109.911 114.258 108.174 116 106.031 116C103.888 116 102.15 114.258 102.15 112.11Z" fill="url(#paint1_linear_0_1)"/>
<path d="M78.8675 112.11C78.8675 109.962 80.605 108.221 82.748 108.221C84.8909 108.221 86.6284 109.962 86.6284 112.11C86.6284 114.258 84.8909 116 82.748 116C80.605 116 78.8675 114.258 78.8675 112.11Z" fill="url(#paint2_linear_0_1)"/>
<path d="M55.5848 112.11C55.5848 109.962 57.3223 108.221 59.4652 108.221C61.6082 108.221 63.3457 109.962 63.3457 112.11C63.3457 114.258 61.6082 116 59.4652 116C57.3223 116 55.5848 114.258 55.5848 112.11Z" fill="url(#paint3_linear_0_1)"/>
<path d="M32.3021 112.11C32.3021 109.962 34.0396 108.221 36.1825 108.221C38.3255 108.221 40.063 109.962 40.063 112.11C40.063 114.258 38.3255 116 36.1825 116C34.0396 116 32.3021 114.258 32.3021 112.11Z" fill="url(#paint4_linear_0_1)"/>
<path d="M8.99982 112.11C8.99982 109.962 10.7373 108.221 12.8803 108.221C15.0232 108.221 16.7607 109.962 16.7607 112.11C16.7607 114.258 15.0232 116 12.8803 116C10.7373 116 8.99982 114.258 8.99982 112.11Z" fill="url(#paint5_linear_0_1)"/>
<path d="M129.313 90.3203C127.17 90.3203 125.433 92.0618 125.433 94.21C125.433 96.3582 127.17 98.0997 129.313 98.0997C131.457 98.0997 133.194 96.3582 133.194 94.21C133.194 92.0618 131.457 90.3203 129.313 90.3203Z" fill="url(#paint6_linear_0_1)"/>
<path d="M155.589 90.3203C153.445 90.3203 151.708 92.0618 151.708 94.21C151.708 96.3582 153.445 98.0997 155.589 98.0997C157.732 98.0997 159.469 96.3582 159.469 94.21C159.469 92.0618 157.732 90.3203 155.589 90.3203Z" fill="url(#paint7_linear_0_1)"/>
<path d="M102.15 94.21C102.15 92.0619 103.888 90.3203 106.031 90.3203C108.174 90.3203 109.911 92.0619 109.911 94.21C109.911 96.358 108.174 98.0997 106.031 98.0997C103.888 98.0997 102.15 96.358 102.15 94.21Z" fill="url(#paint8_linear_0_1)"/>
<path d="M78.8675 94.21C78.8675 92.0619 80.605 90.3203 82.748 90.3203C84.8909 90.3203 86.6284 92.0619 86.6284 94.21C86.6284 96.358 84.8909 98.0997 82.748 98.0997C80.605 98.0997 78.8675 96.358 78.8675 94.21Z" fill="url(#paint9_linear_0_1)"/>
<path d="M55.5848 94.21C55.5848 92.0619 57.3223 90.3203 59.4652 90.3203C61.6082 90.3203 63.3457 92.0619 63.3457 94.21C63.3457 96.358 61.6082 98.0997 59.4652 98.0997C57.3223 98.0997 55.5848 96.358 55.5848 94.21Z" fill="url(#paint10_linear_0_1)"/>
<path d="M32.3021 94.21C32.3021 92.0619 34.0396 90.3203 36.1825 90.3203C38.3255 90.3203 40.063 92.0619 40.063 94.21C40.063 96.358 38.3255 98.0997 36.1825 98.0997C34.0396 98.0997 32.3021 96.358 32.3021 94.21Z" fill="url(#paint11_linear_0_1)"/>
<path d="M12.8803 90.3203C10.7372 90.3203 8.99982 92.0618 8.99982 94.21C8.99982 96.3582 10.7372 98.0997 12.8803 98.0997C15.0234 98.0997 16.7607 96.3582 16.7607 94.21C16.7607 92.0618 15.0234 90.3203 12.8803 90.3203Z" fill="url(#paint12_linear_0_1)"/>
<path d="M125.433 76.329C125.433 74.181 127.17 72.4393 129.313 72.4393C131.456 72.4393 133.194 74.181 133.194 76.329C133.194 78.477 131.456 80.2187 129.313 80.2187C127.17 80.2187 125.433 78.477 125.433 76.329Z" fill="url(#paint13_linear_0_1)"/>
<path d="M151.708 76.329C151.708 74.181 153.446 72.4393 155.589 72.4393C157.731 72.4393 159.469 74.181 159.469 76.329C159.469 78.477 157.731 80.2187 155.589 80.2187C153.446 80.2187 151.708 78.477 151.708 76.329V76.329Z" fill="url(#paint14_linear_0_1)"/>
<path d="M177.964 76.329C177.964 74.181 179.701 72.4393 181.844 72.4393C183.987 72.4393 185.725 74.181 185.725 76.329C185.725 78.477 183.987 80.2187 181.844 80.2187C179.701 80.2187 177.964 78.477 177.964 76.329Z" fill="url(#paint15_linear_0_1)"/>
<path d="M204.239 76.329C204.239 74.181 205.977 72.4393 208.12 72.4393C210.262 72.4393 212 74.181 212 76.329C212 78.477 210.262 80.2187 208.12 80.2187C205.977 80.2187 204.239 78.477 204.239 76.329Z" fill="url(#paint16_linear_0_1)"/>
<path d="M102.15 76.329C102.15 74.181 103.888 72.4393 106.031 72.4393C108.174 72.4393 109.911 74.181 109.911 76.329C109.911 78.477 108.174 80.2187 106.031 80.2187C103.888 80.2187 102.15 78.477 102.15 76.329Z" fill="url(#paint17_linear_0_1)"/>
<path d="M78.8675 76.329C78.8675 74.181 80.605 72.4393 82.748 72.4393C84.8909 72.4393 86.6284 74.181 86.6284 76.329C86.6284 78.477 84.8909 80.2187 82.748 80.2187C80.605 80.2187 78.8675 78.477 78.8675 76.329Z" fill="url(#paint18_linear_0_1)"/>
<path d="M55.5848 76.329C55.5848 74.181 57.3223 72.4393 59.4652 72.4393C61.6082 72.4393 63.3457 74.181 63.3457 76.329C63.3457 78.477 61.6082 80.2187 59.4652 80.2187C57.3223 80.2187 55.5848 78.477 55.5848 76.329Z" fill="url(#paint19_linear_0_1)"/>
<path d="M32.3021 76.329C32.3021 74.181 34.0396 72.4393 36.1825 72.4393C38.3255 72.4393 40.063 74.181 40.063 76.329C40.063 78.477 38.3255 80.2187 36.1825 80.2187C34.0396 80.2187 32.3021 78.477 32.3021 76.329Z" fill="url(#paint20_linear_0_1)"/>
<path d="M9.00007 76.329C9.00007 74.1809 10.7376 72.4393 12.8805 72.4393C15.0235 72.4393 16.761 74.1809 16.761 76.329C16.761 78.477 15.0235 80.2187 12.8805 80.2187C10.7376 80.2187 9.00007 78.477 9.00007 76.329Z" fill="url(#paint21_linear_0_1)"/>
<path d="M78.8675 58.4286C78.8675 56.2806 80.605 54.5389 82.748 54.5389C84.8909 54.5389 86.6284 56.2806 86.6284 58.4286C86.6284 60.5767 84.8909 62.3183 82.748 62.3183C80.605 62.3183 78.8675 60.5767 78.8675 58.4286Z" fill="url(#paint22_linear_0_1)"/>
<path d="M55.5848 58.4286C55.5848 56.2806 57.3223 54.5389 59.4652 54.5389C61.6082 54.5389 63.3457 56.2806 63.3457 58.4286C63.3457 60.5767 61.6082 62.3183 59.4652 62.3183C57.3223 62.3183 55.5848 60.5767 55.5848 58.4286Z" fill="url(#paint23_linear_0_1)"/>
<path d="M32.3021 58.4286C32.3021 56.2806 34.0396 54.5389 36.1825 54.5389C38.3255 54.5389 40.063 56.2806 40.063 58.4286C40.063 60.5767 38.3255 62.3183 36.1825 62.3183C34.0396 62.3183 32.3021 60.5767 32.3021 58.4286Z" fill="url(#paint24_linear_0_1)"/>
<path d="M9.00007 58.4286C9.00007 56.2806 10.7376 54.5389 12.8805 54.5389C15.0235 54.5389 16.761 56.2806 16.761 58.4286C16.761 60.5767 15.0235 62.3183 12.8805 62.3183C10.7376 62.3183 9.00007 60.5767 9.00007 58.4286Z" fill="url(#paint25_linear_0_1)"/>
<path d="M129.313 36.0193C127.17 36.0193 125.433 37.7608 125.433 39.909C125.433 42.0573 127.17 43.7987 129.313 43.7987C131.457 43.7987 133.194 42.0573 133.194 39.909C133.194 37.7608 131.457 36.0193 129.313 36.0193Z" fill="url(#paint26_linear_0_1)"/>
<path d="M102.15 39.909C102.15 37.761 103.888 36.0193 106.031 36.0193C108.174 36.0193 109.911 37.761 109.911 39.909C109.911 42.0571 108.174 43.7987 106.031 43.7987C103.888 43.7987 102.15 42.0571 102.15 39.909Z" fill="url(#paint27_linear_0_1)"/>
<path d="M78.8675 39.909C78.8675 37.761 80.605 36.0193 82.748 36.0193C84.8909 36.0193 86.6284 37.761 86.6284 39.909C86.6284 42.0571 84.8909 43.7987 82.748 43.7987C80.605 43.7987 78.8675 42.0571 78.8675 39.909Z" fill="url(#paint28_linear_0_1)"/>
<path d="M55.5848 39.909C55.5848 37.761 57.3223 36.0193 59.4652 36.0193C61.6082 36.0193 63.3457 37.761 63.3457 39.909C63.3457 42.0571 61.6082 43.7987 59.4652 43.7987C57.3223 43.7987 55.5848 42.0571 55.5848 39.909Z" fill="url(#paint29_linear_0_1)"/>
<path d="M32.3021 39.909C32.3021 37.761 34.0396 36.0193 36.1825 36.0193C38.3255 36.0193 40.063 37.761 40.063 39.909C40.063 42.0571 38.3255 43.7987 36.1825 43.7987C34.0396 43.7987 32.3021 42.0571 32.3021 39.909Z" fill="url(#paint30_linear_0_1)"/>
<path d="M12.8803 36.0193C10.7372 36.0193 8.99982 37.7608 8.99982 39.909C8.99982 42.0573 10.7372 43.7987 12.8803 43.7987C15.0234 43.7987 16.7607 42.0573 16.7607 39.909C16.7607 37.7608 15.0234 36.0193 12.8803 36.0193Z" fill="url(#paint31_linear_0_1)"/>
</g>
<g opacity="0.4" clip-path="url(#clip2_0_1)">
<path d="M432.567 294.89C432.567 297.038 430.83 298.779 428.687 298.779C426.544 298.779 424.806 297.038 424.806 294.89C424.806 292.742 426.544 291 428.687 291C430.83 291 432.567 292.742 432.567 294.89Z" fill="url(#paint32_linear_0_1)"/>
<path d="M455.85 294.89C455.85 297.038 454.112 298.779 451.969 298.779C449.826 298.779 448.089 297.038 448.089 294.89C448.089 292.742 449.826 291 451.969 291C454.112 291 455.85 292.742 455.85 294.89Z" fill="url(#paint33_linear_0_1)"/>
<path d="M479.132 294.89C479.132 297.038 477.395 298.779 475.252 298.779C473.109 298.779 471.372 297.038 471.372 294.89C471.372 292.742 473.109 291 475.252 291C477.395 291 479.132 292.742 479.132 294.89Z" fill="url(#paint34_linear_0_1)"/>
<path d="M502.415 294.89C502.415 297.038 500.678 298.779 498.535 298.779C496.392 298.779 494.654 297.038 494.654 294.89C494.654 292.742 496.392 291 498.535 291C500.678 291 502.415 292.742 502.415 294.89Z" fill="url(#paint35_linear_0_1)"/>
<path d="M525.698 294.89C525.698 297.038 523.96 298.779 521.817 298.779C519.675 298.779 517.937 297.038 517.937 294.89C517.937 292.742 519.675 291 521.817 291C523.96 291 525.698 292.742 525.698 294.89Z" fill="url(#paint36_linear_0_1)"/>
<path d="M549 294.89C549 297.038 547.263 298.779 545.12 298.779C542.977 298.779 541.239 297.038 541.239 294.89C541.239 292.742 542.977 291 545.12 291C547.263 291 549 292.742 549 294.89Z" fill="url(#paint37_linear_0_1)"/>
<path d="M428.687 316.68C430.83 316.68 432.567 314.938 432.567 312.79C432.567 310.642 430.83 308.9 428.687 308.9C426.543 308.9 424.806 310.642 424.806 312.79C424.806 314.938 426.543 316.68 428.687 316.68Z" fill="url(#paint38_linear_0_1)"/>
<path d="M402.411 316.68C404.555 316.68 406.292 314.938 406.292 312.79C406.292 310.642 404.555 308.9 402.411 308.9C400.268 308.9 398.531 310.642 398.531 312.79C398.531 314.938 400.268 316.68 402.411 316.68Z" fill="url(#paint39_linear_0_1)"/>
<path d="M455.85 312.79C455.85 314.938 454.112 316.68 451.969 316.68C449.826 316.68 448.089 314.938 448.089 312.79C448.089 310.642 449.826 308.9 451.969 308.9C454.112 308.9 455.85 310.642 455.85 312.79Z" fill="url(#paint40_linear_0_1)"/>
<path d="M479.132 312.79C479.132 314.938 477.395 316.68 475.252 316.68C473.109 316.68 471.372 314.938 471.372 312.79C471.372 310.642 473.109 308.9 475.252 308.9C477.395 308.9 479.132 310.642 479.132 312.79Z" fill="url(#paint41_linear_0_1)"/>
<path d="M502.415 312.79C502.415 314.938 500.678 316.68 498.535 316.68C496.392 316.68 494.654 314.938 494.654 312.79C494.654 310.642 496.392 308.9 498.535 308.9C500.678 308.9 502.415 310.642 502.415 312.79Z" fill="url(#paint42_linear_0_1)"/>
<path d="M525.698 312.79C525.698 314.938 523.96 316.68 521.817 316.68C519.675 316.68 517.937 314.938 517.937 312.79C517.937 310.642 519.675 308.9 521.817 308.9C523.96 308.9 525.698 310.642 525.698 312.79Z" fill="url(#paint43_linear_0_1)"/>
<path d="M545.12 316.68C547.263 316.68 549 314.938 549 312.79C549 310.642 547.263 308.9 545.12 308.9C542.977 308.9 541.239 310.642 541.239 312.79C541.239 314.938 542.977 316.68 545.12 316.68Z" fill="url(#paint44_linear_0_1)"/>
<path d="M432.567 330.671C432.567 332.819 430.83 334.561 428.687 334.561C426.544 334.561 424.806 332.819 424.806 330.671C424.806 328.523 426.544 326.781 428.687 326.781C430.83 326.781 432.567 328.523 432.567 330.671Z" fill="url(#paint45_linear_0_1)"/>
<path d="M406.292 330.671C406.292 332.819 404.554 334.561 402.411 334.561C400.269 334.561 398.531 332.819 398.531 330.671C398.531 328.523 400.269 326.781 402.411 326.781C404.554 326.781 406.292 328.523 406.292 330.671V330.671Z" fill="url(#paint46_linear_0_1)"/>
<path d="M380.036 330.671C380.036 332.819 378.299 334.561 376.156 334.561C374.013 334.561 372.275 332.819 372.275 330.671C372.275 328.523 374.013 326.781 376.156 326.781C378.299 326.781 380.036 328.523 380.036 330.671Z" fill="url(#paint47_linear_0_1)"/>
<path d="M353.761 330.671C353.761 332.819 352.023 334.561 349.88 334.561C347.738 334.561 346 332.819 346 330.671C346 328.523 347.738 326.781 349.88 326.781C352.023 326.781 353.761 328.523 353.761 330.671Z" fill="url(#paint48_linear_0_1)"/>
<path d="M455.85 330.671C455.85 332.819 454.112 334.561 451.969 334.561C449.826 334.561 448.089 332.819 448.089 330.671C448.089 328.523 449.826 326.781 451.969 326.781C454.112 326.781 455.85 328.523 455.85 330.671Z" fill="url(#paint49_linear_0_1)"/>
<path d="M479.132 330.671C479.132 332.819 477.395 334.561 475.252 334.561C473.109 334.561 471.372 332.819 471.372 330.671C471.372 328.523 473.109 326.781 475.252 326.781C477.395 326.781 479.132 328.523 479.132 330.671Z" fill="url(#paint50_linear_0_1)"/>
<path d="M502.415 330.671C502.415 332.819 500.678 334.561 498.535 334.561C496.392 334.561 494.654 332.819 494.654 330.671C494.654 328.523 496.392 326.781 498.535 326.781C500.678 326.781 502.415 328.523 502.415 330.671Z" fill="url(#paint51_linear_0_1)"/>
<path d="M525.698 330.671C525.698 332.819 523.96 334.561 521.817 334.561C519.675 334.561 517.937 332.819 517.937 330.671C517.937 328.523 519.675 326.781 521.817 326.781C523.96 326.781 525.698 328.523 525.698 330.671Z" fill="url(#paint52_linear_0_1)"/>
<path d="M549 330.671C549 332.819 547.262 334.561 545.119 334.561C542.977 334.561 541.239 332.819 541.239 330.671C541.239 328.523 542.977 326.781 545.119 326.781C547.262 326.781 549 328.523 549 330.671Z" fill="url(#paint53_linear_0_1)"/>
<path d="M479.132 348.571C479.132 350.719 477.395 352.461 475.252 352.461C473.109 352.461 471.372 350.719 471.372 348.571C471.372 346.423 473.109 344.682 475.252 344.682C477.395 344.682 479.132 346.423 479.132 348.571Z" fill="url(#paint54_linear_0_1)"/>
<path d="M502.415 348.571C502.415 350.719 500.678 352.461 498.535 352.461C496.392 352.461 494.654 350.719 494.654 348.571C494.654 346.423 496.392 344.682 498.535 344.682C500.678 344.682 502.415 346.423 502.415 348.571Z" fill="url(#paint55_linear_0_1)"/>
<path d="M525.698 348.571C525.698 350.719 523.96 352.461 521.817 352.461C519.675 352.461 517.937 350.719 517.937 348.571C517.937 346.423 519.675 344.682 521.817 344.682C523.96 344.682 525.698 346.423 525.698 348.571Z" fill="url(#paint56_linear_0_1)"/>
<path d="M549 348.571C549 350.719 547.262 352.461 545.119 352.461C542.977 352.461 541.239 350.719 541.239 348.571C541.239 346.423 542.977 344.682 545.119 344.682C547.262 344.682 549 346.423 549 348.571Z" fill="url(#paint57_linear_0_1)"/>
<path d="M428.687 370.981C430.83 370.981 432.567 369.239 432.567 367.091C432.567 364.943 430.83 363.201 428.687 363.201C426.543 363.201 424.806 364.943 424.806 367.091C424.806 369.239 426.543 370.981 428.687 370.981Z" fill="url(#paint58_linear_0_1)"/>
<path d="M455.85 367.091C455.85 369.239 454.112 370.981 451.969 370.981C449.826 370.981 448.089 369.239 448.089 367.091C448.089 364.943 449.826 363.201 451.969 363.201C454.112 363.201 455.85 364.943 455.85 367.091Z" fill="url(#paint59_linear_0_1)"/>
<path d="M479.132 367.091C479.132 369.239 477.395 370.981 475.252 370.981C473.109 370.981 471.372 369.239 471.372 367.091C471.372 364.943 473.109 363.201 475.252 363.201C477.395 363.201 479.132 364.943 479.132 367.091Z" fill="url(#paint60_linear_0_1)"/>
<path d="M502.415 367.091C502.415 369.239 500.678 370.981 498.535 370.981C496.392 370.981 494.654 369.239 494.654 367.091C494.654 364.943 496.392 363.201 498.535 363.201C500.678 363.201 502.415 364.943 502.415 367.091Z" fill="url(#paint61_linear_0_1)"/>
<path d="M525.698 367.091C525.698 369.239 523.96 370.981 521.817 370.981C519.675 370.981 517.937 369.239 517.937 367.091C517.937 364.943 519.675 363.201 521.817 363.201C523.96 363.201 525.698 364.943 525.698 367.091Z" fill="url(#paint62_linear_0_1)"/>
<path d="M545.12 370.981C547.263 370.981 549 369.239 549 367.091C549 364.943 547.263 363.201 545.12 363.201C542.977 363.201 541.239 364.943 541.239 367.091C541.239 369.239 542.977 370.981 545.12 370.981Z" fill="url(#paint63_linear_0_1)"/>
</g>
<g opacity="0.4" clip-path="url(#clip3_0_1)">
<path d="M479.804 112.063C479.804 113.755 478.443 115.126 476.764 115.126C475.086 115.126 473.725 113.755 473.725 112.063C473.725 110.372 475.086 109 476.764 109C478.443 109 479.804 110.372 479.804 112.063Z" fill="url(#paint64_linear_0_1)"/>
<path d="M498.04 112.063C498.04 113.755 496.679 115.126 495.001 115.126C493.322 115.126 491.961 113.755 491.961 112.063C491.961 110.372 493.322 109 495.001 109C496.679 109 498.04 110.372 498.04 112.063Z" fill="url(#paint65_linear_0_1)"/>
<path d="M516.276 112.063C516.276 113.755 514.915 115.126 513.237 115.126C511.558 115.126 510.197 113.755 510.197 112.063C510.197 110.372 511.558 109 513.237 109C514.915 109 516.276 110.372 516.276 112.063Z" fill="url(#paint66_linear_0_1)"/>
<path d="M534.512 112.063C534.512 113.755 533.151 115.126 531.473 115.126C529.795 115.126 528.434 113.755 528.434 112.063C528.434 110.372 529.795 109 531.473 109C533.151 109 534.512 110.372 534.512 112.063Z" fill="url(#paint67_linear_0_1)"/>
<path d="M552.748 112.063C552.748 113.755 551.388 115.126 549.709 115.126C548.031 115.126 546.67 113.755 546.67 112.063C546.67 110.372 548.031 109 549.709 109C551.388 109 552.748 110.372 552.748 112.063Z" fill="url(#paint68_linear_0_1)"/>
<path d="M571 112.063C571 113.755 569.639 115.126 567.961 115.126C566.282 115.126 564.921 113.755 564.921 112.063C564.921 110.372 566.282 109 567.961 109C569.639 109 571 110.372 571 112.063Z" fill="url(#paint69_linear_0_1)"/>
<path d="M476.764 129.223C478.443 129.223 479.804 127.851 479.804 126.16C479.804 124.468 478.443 123.097 476.764 123.097C475.086 123.097 473.725 124.468 473.725 126.16C473.725 127.851 475.086 129.223 476.764 129.223Z" fill="url(#paint70_linear_0_1)"/>
<path d="M456.184 129.223C457.863 129.223 459.224 127.851 459.224 126.16C459.224 124.468 457.863 123.097 456.184 123.097C454.506 123.097 453.145 124.468 453.145 126.16C453.145 127.851 454.506 129.223 456.184 129.223Z" fill="url(#paint71_linear_0_1)"/>
<path d="M498.04 126.16C498.04 127.851 496.679 129.223 495.001 129.223C493.322 129.223 491.961 127.851 491.961 126.16C491.961 124.468 493.322 123.097 495.001 123.097C496.679 123.097 498.04 124.468 498.04 126.16Z" fill="url(#paint72_linear_0_1)"/>
<path d="M516.276 126.16C516.276 127.851 514.915 129.223 513.237 129.223C511.558 129.223 510.198 127.851 510.198 126.16C510.198 124.468 511.558 123.097 513.237 123.097C514.915 123.097 516.276 124.468 516.276 126.16Z" fill="url(#paint73_linear_0_1)"/>
<path d="M534.513 126.16C534.513 127.851 533.152 129.223 531.473 129.223C529.795 129.223 528.434 127.851 528.434 126.16C528.434 124.468 529.795 123.097 531.473 123.097C533.152 123.097 534.513 124.468 534.513 126.16Z" fill="url(#paint74_linear_0_1)"/>
<path d="M552.749 126.16C552.749 127.851 551.388 129.223 549.709 129.223C548.031 129.223 546.67 127.851 546.67 126.16C546.67 124.468 548.031 123.097 549.709 123.097C551.388 123.097 552.749 124.468 552.749 126.16Z" fill="url(#paint75_linear_0_1)"/>
<path d="M567.961 129.223C569.639 129.223 571 127.851 571 126.16C571 124.468 569.639 123.097 567.961 123.097C566.282 123.097 564.921 124.468 564.921 126.16C564.921 127.851 566.282 129.223 567.961 129.223Z" fill="url(#paint76_linear_0_1)"/>
<path d="M479.804 140.241C479.804 141.933 478.443 143.304 476.764 143.304C475.086 143.304 473.725 141.933 473.725 140.241C473.725 138.549 475.086 137.178 476.764 137.178C478.443 137.178 479.804 138.549 479.804 140.241Z" fill="url(#paint77_linear_0_1)"/>
<path d="M459.224 140.241C459.224 141.933 457.863 143.304 456.184 143.304C454.506 143.304 453.145 141.933 453.145 140.241C453.145 138.549 454.506 137.178 456.184 137.178C457.863 137.178 459.224 138.549 459.224 140.241V140.241Z" fill="url(#paint78_linear_0_1)"/>
<path d="M438.659 140.241C438.659 141.933 437.298 143.304 435.619 143.304C433.941 143.304 432.58 141.933 432.58 140.241C432.58 138.549 433.941 137.178 435.619 137.178C437.298 137.178 438.659 138.549 438.659 140.241Z" fill="url(#paint79_linear_0_1)"/>
<path d="M418.079 140.241C418.079 141.933 416.718 143.304 415.039 143.304C413.361 143.304 412 141.933 412 140.241C412 138.549 413.361 137.178 415.039 137.178C416.718 137.178 418.079 138.549 418.079 140.241Z" fill="url(#paint80_linear_0_1)"/>
<path d="M498.04 140.241C498.04 141.933 496.679 143.304 495.001 143.304C493.322 143.304 491.961 141.933 491.961 140.241C491.961 138.549 493.322 137.178 495.001 137.178C496.679 137.178 498.04 138.549 498.04 140.241Z" fill="url(#paint81_linear_0_1)"/>
<path d="M516.276 140.241C516.276 141.933 514.915 143.304 513.237 143.304C511.558 143.304 510.198 141.933 510.198 140.241C510.198 138.549 511.558 137.178 513.237 137.178C514.915 137.178 516.276 138.549 516.276 140.241Z" fill="url(#paint82_linear_0_1)"/>
<path d="M534.512 140.241C534.512 141.933 533.151 143.304 531.473 143.304C529.795 143.304 528.434 141.933 528.434 140.241C528.434 138.549 529.795 137.178 531.473 137.178C533.151 137.178 534.512 138.549 534.512 140.241Z" fill="url(#paint83_linear_0_1)"/>
<path d="M552.749 140.241C552.749 141.933 551.388 143.304 549.709 143.304C548.031 143.304 546.67 141.933 546.67 140.241C546.67 138.549 548.031 137.178 549.709 137.178C551.388 137.178 552.749 138.549 552.749 140.241Z" fill="url(#paint84_linear_0_1)"/>
<path d="M571 140.241C571 141.933 569.639 143.304 567.961 143.304C566.282 143.304 564.921 141.933 564.921 140.241C564.921 138.549 566.282 137.178 567.961 137.178C569.639 137.178 571 138.549 571 140.241Z" fill="url(#paint85_linear_0_1)"/>
<path d="M516.276 154.337C516.276 156.029 514.915 157.401 513.237 157.401C511.558 157.401 510.198 156.029 510.198 154.337C510.198 152.646 511.558 151.274 513.237 151.274C514.915 151.274 516.276 152.646 516.276 154.337Z" fill="url(#paint86_linear_0_1)"/>
<path d="M534.513 154.337C534.513 156.029 533.152 157.401 531.473 157.401C529.795 157.401 528.434 156.029 528.434 154.337C528.434 152.646 529.795 151.274 531.473 151.274C533.152 151.274 534.513 152.646 534.513 154.337Z" fill="url(#paint87_linear_0_1)"/>
<path d="M552.749 154.337C552.749 156.029 551.388 157.401 549.709 157.401C548.031 157.401 546.67 156.029 546.67 154.337C546.67 152.646 548.031 151.274 549.709 151.274C551.388 151.274 552.749 152.646 552.749 154.337Z" fill="url(#paint88_linear_0_1)"/>
<path d="M571 154.337C571 156.029 569.639 157.401 567.961 157.401C566.282 157.401 564.921 156.029 564.921 154.337C564.921 152.646 566.282 151.274 567.961 151.274C569.639 151.274 571 152.646 571 154.337Z" fill="url(#paint89_linear_0_1)"/>
<path d="M476.764 171.985C478.443 171.985 479.804 170.613 479.804 168.922C479.804 167.23 478.443 165.858 476.764 165.858C475.086 165.858 473.725 167.23 473.725 168.922C473.725 170.613 475.086 171.985 476.764 171.985Z" fill="url(#paint90_linear_0_1)"/>
<path d="M498.04 168.922C498.04 170.613 496.679 171.985 495.001 171.985C493.322 171.985 491.961 170.613 491.961 168.922C491.961 167.23 493.322 165.858 495.001 165.858C496.679 165.858 498.04 167.23 498.04 168.922Z" fill="url(#paint91_linear_0_1)"/>
<path d="M516.276 168.922C516.276 170.613 514.915 171.985 513.237 171.985C511.558 171.985 510.197 170.613 510.197 168.922C510.197 167.23 511.558 165.858 513.237 165.858C514.915 165.858 516.276 167.23 516.276 168.922Z" fill="url(#paint92_linear_0_1)"/>
<path d="M534.512 168.922C534.512 170.613 533.151 171.985 531.473 171.985C529.795 171.985 528.434 170.613 528.434 168.922C528.434 167.23 529.795 165.858 531.473 165.858C533.151 165.858 534.512 167.23 534.512 168.922Z" fill="url(#paint93_linear_0_1)"/>
<path d="M552.748 168.922C552.748 170.613 551.388 171.985 549.709 171.985C548.031 171.985 546.67 170.613 546.67 168.922C546.67 167.23 548.031 165.858 549.709 165.858C551.388 165.858 552.748 167.23 552.748 168.922Z" fill="url(#paint94_linear_0_1)"/>
<path d="M567.961 171.985C569.639 171.985 571 170.613 571 168.922C571 167.23 569.639 165.858 567.961 165.858C566.282 165.858 564.921 167.23 564.921 168.922C564.921 170.613 566.282 171.985 567.961 171.985Z" fill="url(#paint95_linear_0_1)"/>
</g>
<g opacity="0.4" clip-path="url(#clip4_0_1)">
<path d="M789.36 61.4731C789.36 63.9434 787.366 65.9463 784.906 65.9463C782.447 65.9463 780.452 63.9434 780.452 61.4731C780.452 59.0029 782.447 57 784.906 57C787.366 57 789.36 59.0029 789.36 61.4731Z" fill="url(#paint96_linear_0_1)"/>
<path d="M816.084 61.4731C816.084 63.9434 814.089 65.9463 811.63 65.9463C809.17 65.9463 807.176 63.9434 807.176 61.4731C807.176 59.0029 809.17 57 811.63 57C814.089 57 816.084 59.0029 816.084 61.4731Z" fill="url(#paint97_linear_0_1)"/>
<path d="M842.807 61.4731C842.807 63.9434 840.813 65.9463 838.353 65.9463C835.894 65.9463 833.899 63.9434 833.899 61.4731C833.899 59.0029 835.894 57 838.353 57C840.813 57 842.807 59.0029 842.807 61.4731Z" fill="url(#paint98_linear_0_1)"/>
<path d="M869.531 61.4731C869.531 63.9434 867.536 65.9463 865.077 65.9463C862.617 65.9463 860.623 63.9434 860.623 61.4731C860.623 59.0029 862.617 57 865.077 57C867.536 57 869.531 59.0029 869.531 61.4731Z" fill="url(#paint99_linear_0_1)"/>
<path d="M896.254 61.4731C896.254 63.9434 894.26 65.9463 891.8 65.9463C889.341 65.9463 887.346 63.9434 887.346 61.4731C887.346 59.0029 889.341 57 891.8 57C894.26 57 896.254 59.0029 896.254 61.4731Z" fill="url(#paint100_linear_0_1)"/>
<path d="M923 61.4731C923 63.9434 921.006 65.9463 918.546 65.9463C916.086 65.9463 914.092 63.9434 914.092 61.4731C914.092 59.0029 916.086 57 918.546 57C921.006 57 923 59.0029 923 61.4731Z" fill="url(#paint101_linear_0_1)"/>
<path d="M784.906 86.5317C787.366 86.5317 789.36 84.529 789.36 82.0585C789.36 79.5881 787.366 77.5854 784.906 77.5854C782.446 77.5854 780.452 79.5881 780.452 82.0585C780.452 84.529 782.446 86.5317 784.906 86.5317Z" fill="url(#paint102_linear_0_1)"/>
<path d="M754.748 86.5317C757.208 86.5317 759.202 84.529 759.202 82.0585C759.202 79.5881 757.208 77.5854 754.748 77.5854C752.288 77.5854 750.294 79.5881 750.294 82.0585C750.294 84.529 752.288 86.5317 754.748 86.5317Z" fill="url(#paint103_linear_0_1)"/>
<path d="M816.084 82.0585C816.084 84.5288 814.089 86.5317 811.63 86.5317C809.17 86.5317 807.176 84.5288 807.176 82.0585C807.176 79.5883 809.17 77.5854 811.63 77.5854C814.089 77.5854 816.084 79.5883 816.084 82.0585Z" fill="url(#paint104_linear_0_1)"/>
<path d="M842.807 82.0585C842.807 84.5288 840.813 86.5317 838.353 86.5317C835.894 86.5317 833.899 84.5288 833.899 82.0585C833.899 79.5883 835.894 77.5854 838.353 77.5854C840.813 77.5854 842.807 79.5883 842.807 82.0585Z" fill="url(#paint105_linear_0_1)"/>
<path d="M869.531 82.0585C869.531 84.5288 867.536 86.5317 865.077 86.5317C862.617 86.5317 860.623 84.5288 860.623 82.0585C860.623 79.5883 862.617 77.5854 865.077 77.5854C867.536 77.5854 869.531 79.5883 869.531 82.0585Z" fill="url(#paint106_linear_0_1)"/>
<path d="M896.254 82.0585C896.254 84.5288 894.26 86.5317 891.8 86.5317C889.341 86.5317 887.346 84.5288 887.346 82.0585C887.346 79.5883 889.341 77.5854 891.8 77.5854C894.26 77.5854 896.254 79.5883 896.254 82.0585Z" fill="url(#paint107_linear_0_1)"/>
<path d="M918.546 86.5317C921.006 86.5317 923 84.529 923 82.0585C923 79.5881 921.006 77.5854 918.546 77.5854C916.086 77.5854 914.092 79.5881 914.092 82.0585C914.092 84.529 916.086 86.5317 918.546 86.5317Z" fill="url(#paint108_linear_0_1)"/>
<path d="M789.36 102.622C789.36 105.092 787.366 107.095 784.906 107.095C782.447 107.095 780.452 105.092 780.452 102.622C780.452 100.151 782.447 98.1485 784.906 98.1485C787.366 98.1485 789.36 100.151 789.36 102.622Z" fill="url(#paint109_linear_0_1)"/>
<path d="M759.202 102.622C759.202 105.092 757.208 107.095 754.748 107.095C752.288 107.095 750.294 105.092 750.294 102.622C750.294 100.151 752.288 98.1485 754.748 98.1485C757.208 98.1485 759.202 100.151 759.202 102.622V102.622Z" fill="url(#paint110_linear_0_1)"/>
<path d="M729.066 102.622C729.066 105.092 727.072 107.095 724.612 107.095C722.152 107.095 720.158 105.092 720.158 102.622C720.158 100.151 722.152 98.1485 724.612 98.1485C727.072 98.1485 729.066 100.151 729.066 102.622Z" fill="url(#paint111_linear_0_1)"/>
<path d="M698.908 102.622C698.908 105.092 696.914 107.095 694.454 107.095C691.994 107.095 690 105.092 690 102.622C690 100.151 691.994 98.1485 694.454 98.1485C696.914 98.1485 698.908 100.151 698.908 102.622Z" fill="url(#paint112_linear_0_1)"/>
<path d="M816.084 102.622C816.084 105.092 814.089 107.095 811.63 107.095C809.17 107.095 807.176 105.092 807.176 102.622C807.176 100.151 809.17 98.1485 811.63 98.1485C814.089 98.1485 816.084 100.151 816.084 102.622Z" fill="url(#paint113_linear_0_1)"/>
<path d="M842.807 102.622C842.807 105.092 840.813 107.095 838.353 107.095C835.894 107.095 833.899 105.092 833.899 102.622C833.899 100.151 835.894 98.1485 838.353 98.1485C840.813 98.1485 842.807 100.151 842.807 102.622Z" fill="url(#paint114_linear_0_1)"/>
<path d="M869.531 102.622C869.531 105.092 867.536 107.095 865.077 107.095C862.617 107.095 860.623 105.092 860.623 102.622C860.623 100.151 862.617 98.1485 865.077 98.1485C867.536 98.1485 869.531 100.151 869.531 102.622Z" fill="url(#paint115_linear_0_1)"/>
<path d="M896.254 102.622C896.254 105.092 894.26 107.095 891.8 107.095C889.341 107.095 887.346 105.092 887.346 102.622C887.346 100.151 889.341 98.1485 891.8 98.1485C894.26 98.1485 896.254 100.151 896.254 102.622Z" fill="url(#paint116_linear_0_1)"/>
<path d="M923 102.622C923 105.092 921.006 107.095 918.546 107.095C916.086 107.095 914.092 105.092 914.092 102.622C914.092 100.151 916.086 98.1485 918.546 98.1485C921.006 98.1485 923 100.151 923 102.622Z" fill="url(#paint117_linear_0_1)"/>
<path d="M842.807 123.207C842.807 125.677 840.813 127.68 838.353 127.68C835.894 127.68 833.899 125.677 833.899 123.207C833.899 120.737 835.894 118.734 838.353 118.734C840.813 118.734 842.807 120.737 842.807 123.207Z" fill="url(#paint118_linear_0_1)"/>
<path d="M869.531 123.207C869.531 125.677 867.536 127.68 865.077 127.68C862.617 127.68 860.623 125.677 860.623 123.207C860.623 120.737 862.617 118.734 865.077 118.734C867.536 118.734 869.531 120.737 869.531 123.207Z" fill="url(#paint119_linear_0_1)"/>
<path d="M896.254 123.207C896.254 125.677 894.26 127.68 891.8 127.68C889.341 127.68 887.346 125.677 887.346 123.207C887.346 120.737 889.341 118.734 891.8 118.734C894.26 118.734 896.254 120.737 896.254 123.207Z" fill="url(#paint120_linear_0_1)"/>
<path d="M923 123.207C923 125.677 921.006 127.68 918.546 127.68C916.086 127.68 914.092 125.677 914.092 123.207C914.092 120.737 916.086 118.734 918.546 118.734C921.006 118.734 923 120.737 923 123.207Z" fill="url(#paint121_linear_0_1)"/>
<path d="M784.906 148.978C787.366 148.978 789.36 146.975 789.36 144.505C789.36 142.034 787.366 140.031 784.906 140.031C782.446 140.031 780.452 142.034 780.452 144.505C780.452 146.975 782.446 148.978 784.906 148.978Z" fill="url(#paint122_linear_0_1)"/>
<path d="M816.084 144.505C816.084 146.975 814.089 148.978 811.63 148.978C809.17 148.978 807.176 146.975 807.176 144.505C807.176 142.034 809.17 140.031 811.63 140.031C814.089 140.031 816.084 142.034 816.084 144.505Z" fill="url(#paint123_linear_0_1)"/>
<path d="M842.807 144.505C842.807 146.975 840.813 148.978 838.353 148.978C835.894 148.978 833.899 146.975 833.899 144.505C833.899 142.034 835.894 140.031 838.353 140.031C840.813 140.031 842.807 142.034 842.807 144.505Z" fill="url(#paint124_linear_0_1)"/>
<path d="M869.531 144.505C869.531 146.975 867.536 148.978 865.077 148.978C862.617 148.978 860.623 146.975 860.623 144.505C860.623 142.034 862.617 140.031 865.077 140.031C867.536 140.031 869.531 142.034 869.531 144.505Z" fill="url(#paint125_linear_0_1)"/>
<path d="M896.254 144.505C896.254 146.975 894.26 148.978 891.8 148.978C889.341 148.978 887.346 146.975 887.346 144.505C887.346 142.034 889.341 140.031 891.8 140.031C894.26 140.031 896.254 142.034 896.254 144.505Z" fill="url(#paint126_linear_0_1)"/>
<path d="M918.546 148.978C921.006 148.978 923 146.975 923 144.505C923 142.034 921.006 140.031 918.546 140.031C916.086 140.031 914.092 142.034 914.092 144.505C914.092 146.975 916.086 148.978 918.546 148.978Z" fill="url(#paint127_linear_0_1)"/>
</g>
<g opacity="0.2" clip-path="url(#clip5_0_1)">
<path d="M769.36 593.473C769.36 595.943 767.366 597.946 764.906 597.946C762.447 597.946 760.452 595.943 760.452 593.473C760.452 591.003 762.447 589 764.906 589C767.366 589 769.36 591.003 769.36 593.473Z" fill="url(#paint128_linear_0_1)"/>
<path d="M796.084 593.473C796.084 595.943 794.089 597.946 791.63 597.946C789.17 597.946 787.176 595.943 787.176 593.473C787.176 591.003 789.17 589 791.63 589C794.089 589 796.084 591.003 796.084 593.473Z" fill="url(#paint129_linear_0_1)"/>
<path d="M822.807 593.473C822.807 595.943 820.813 597.946 818.353 597.946C815.894 597.946 813.899 595.943 813.899 593.473C813.899 591.003 815.894 589 818.353 589C820.813 589 822.807 591.003 822.807 593.473Z" fill="url(#paint130_linear_0_1)"/>
<path d="M849.531 593.473C849.531 595.943 847.536 597.946 845.077 597.946C842.617 597.946 840.623 595.943 840.623 593.473C840.623 591.003 842.617 589 845.077 589C847.536 589 849.531 591.003 849.531 593.473Z" fill="url(#paint131_linear_0_1)"/>
<path d="M876.254 593.473C876.254 595.943 874.26 597.946 871.8 597.946C869.341 597.946 867.346 595.943 867.346 593.473C867.346 591.003 869.341 589 871.8 589C874.26 589 876.254 591.003 876.254 593.473Z" fill="url(#paint132_linear_0_1)"/>
<path d="M903 593.473C903 595.943 901.006 597.946 898.546 597.946C896.086 597.946 894.092 595.943 894.092 593.473C894.092 591.003 896.086 589 898.546 589C901.006 589 903 591.003 903 593.473Z" fill="url(#paint133_linear_0_1)"/>
<path d="M764.906 618.532C767.366 618.532 769.36 616.529 769.36 614.059C769.36 611.588 767.366 609.585 764.906 609.585C762.446 609.585 760.452 611.588 760.452 614.059C760.452 616.529 762.446 618.532 764.906 618.532Z" fill="url(#paint134_linear_0_1)"/>
<path d="M734.748 618.532C737.208 618.532 739.202 616.529 739.202 614.059C739.202 611.588 737.208 609.585 734.748 609.585C732.288 609.585 730.294 611.588 730.294 614.059C730.294 616.529 732.288 618.532 734.748 618.532Z" fill="url(#paint135_linear_0_1)"/>
<path d="M796.084 614.059C796.084 616.529 794.089 618.532 791.63 618.532C789.17 618.532 787.176 616.529 787.176 614.059C787.176 611.588 789.17 609.585 791.63 609.585C794.089 609.585 796.084 611.588 796.084 614.059Z" fill="url(#paint136_linear_0_1)"/>
<path d="M822.807 614.059C822.807 616.529 820.813 618.532 818.353 618.532C815.894 618.532 813.899 616.529 813.899 614.059C813.899 611.588 815.894 609.585 818.353 609.585C820.813 609.585 822.807 611.588 822.807 614.059Z" fill="url(#paint137_linear_0_1)"/>
<path d="M849.531 614.059C849.531 616.529 847.536 618.532 845.077 618.532C842.617 618.532 840.623 616.529 840.623 614.059C840.623 611.588 842.617 609.585 845.077 609.585C847.536 609.585 849.531 611.588 849.531 614.059Z" fill="url(#paint138_linear_0_1)"/>
<path d="M876.254 614.059C876.254 616.529 874.26 618.532 871.8 618.532C869.341 618.532 867.346 616.529 867.346 614.059C867.346 611.588 869.341 609.585 871.8 609.585C874.26 609.585 876.254 611.588 876.254 614.059Z" fill="url(#paint139_linear_0_1)"/>
<path d="M898.546 618.532C901.006 618.532 903 616.529 903 614.059C903 611.588 901.006 609.585 898.546 609.585C896.086 609.585 894.092 611.588 894.092 614.059C894.092 616.529 896.086 618.532 898.546 618.532Z" fill="url(#paint140_linear_0_1)"/>
<path d="M769.36 634.622C769.36 637.092 767.366 639.095 764.906 639.095C762.447 639.095 760.452 637.092 760.452 634.622C760.452 632.151 762.447 630.149 764.906 630.149C767.366 630.149 769.36 632.151 769.36 634.622Z" fill="url(#paint141_linear_0_1)"/>
<path d="M739.202 634.622C739.202 637.092 737.208 639.095 734.748 639.095C732.288 639.095 730.294 637.092 730.294 634.622C730.294 632.151 732.288 630.149 734.748 630.149C737.208 630.149 739.202 632.151 739.202 634.622V634.622Z" fill="url(#paint142_linear_0_1)"/>
<path d="M709.066 634.622C709.066 637.092 707.072 639.095 704.612 639.095C702.152 639.095 700.158 637.092 700.158 634.622C700.158 632.151 702.152 630.149 704.612 630.149C707.072 630.149 709.066 632.151 709.066 634.622Z" fill="url(#paint143_linear_0_1)"/>
<path d="M678.908 634.622C678.908 637.092 676.914 639.095 674.454 639.095C671.994 639.095 670 637.092 670 634.622C670 632.151 671.994 630.149 674.454 630.149C676.914 630.149 678.908 632.151 678.908 634.622Z" fill="url(#paint144_linear_0_1)"/>
<path d="M796.084 634.622C796.084 637.092 794.089 639.095 791.63 639.095C789.17 639.095 787.176 637.092 787.176 634.622C787.176 632.151 789.17 630.149 791.63 630.149C794.089 630.149 796.084 632.151 796.084 634.622Z" fill="url(#paint145_linear_0_1)"/>
<path d="M822.807 634.622C822.807 637.092 820.813 639.095 818.353 639.095C815.894 639.095 813.899 637.092 813.899 634.622C813.899 632.151 815.894 630.149 818.353 630.149C820.813 630.149 822.807 632.151 822.807 634.622Z" fill="url(#paint146_linear_0_1)"/>
<path d="M849.531 634.622C849.531 637.092 847.536 639.095 845.077 639.095C842.617 639.095 840.623 637.092 840.623 634.622C840.623 632.151 842.617 630.149 845.077 630.149C847.536 630.149 849.531 632.151 849.531 634.622Z" fill="url(#paint147_linear_0_1)"/>
<path d="M876.254 634.622C876.254 637.092 874.26 639.095 871.8 639.095C869.341 639.095 867.346 637.092 867.346 634.622C867.346 632.151 869.341 630.149 871.8 630.149C874.26 630.149 876.254 632.151 876.254 634.622Z" fill="url(#paint148_linear_0_1)"/>
<path d="M903 634.622C903 637.092 901.006 639.095 898.546 639.095C896.086 639.095 894.092 637.092 894.092 634.622C894.092 632.151 896.086 630.149 898.546 630.149C901.006 630.149 903 632.151 903 634.622Z" fill="url(#paint149_linear_0_1)"/>
<path d="M822.807 655.207C822.807 657.677 820.813 659.68 818.353 659.68C815.894 659.68 813.899 657.677 813.899 655.207C813.899 652.737 815.894 650.734 818.353 650.734C820.813 650.734 822.807 652.737 822.807 655.207Z" fill="url(#paint150_linear_0_1)"/>
<path d="M849.531 655.207C849.531 657.677 847.536 659.68 845.077 659.68C842.617 659.68 840.623 657.677 840.623 655.207C840.623 652.737 842.617 650.734 845.077 650.734C847.536 650.734 849.531 652.737 849.531 655.207Z" fill="url(#paint151_linear_0_1)"/>
<path d="M876.254 655.207C876.254 657.677 874.26 659.68 871.8 659.68C869.341 659.68 867.346 657.677 867.346 655.207C867.346 652.737 869.341 650.734 871.8 650.734C874.26 650.734 876.254 652.737 876.254 655.207Z" fill="url(#paint152_linear_0_1)"/>
<path d="M903 655.207C903 657.677 901.006 659.68 898.546 659.68C896.086 659.68 894.092 657.677 894.092 655.207C894.092 652.737 896.086 650.734 898.546 650.734C901.006 650.734 903 652.737 903 655.207Z" fill="url(#paint153_linear_0_1)"/>
<path d="M764.906 680.978C767.366 680.978 769.36 678.975 769.36 676.505C769.36 674.034 767.366 672.031 764.906 672.031C762.446 672.031 760.452 674.034 760.452 676.505C760.452 678.975 762.446 680.978 764.906 680.978Z" fill="url(#paint154_linear_0_1)"/>
<path d="M796.084 676.505C796.084 678.975 794.089 680.978 791.63 680.978C789.17 680.978 787.176 678.975 787.176 676.505C787.176 674.034 789.17 672.031 791.63 672.031C794.089 672.031 796.084 674.034 796.084 676.505Z" fill="url(#paint155_linear_0_1)"/>
<path d="M822.807 676.505C822.807 678.975 820.813 680.978 818.353 680.978C815.894 680.978 813.899 678.975 813.899 676.505C813.899 674.034 815.894 672.031 818.353 672.031C820.813 672.031 822.807 674.034 822.807 676.505Z" fill="url(#paint156_linear_0_1)"/>
<path d="M849.531 676.505C849.531 678.975 847.536 680.978 845.077 680.978C842.617 680.978 840.623 678.975 840.623 676.505C840.623 674.034 842.617 672.031 845.077 672.031C847.536 672.031 849.531 674.034 849.531 676.505Z" fill="url(#paint157_linear_0_1)"/>
<path d="M876.254 676.505C876.254 678.975 874.26 680.978 871.8 680.978C869.341 680.978 867.346 678.975 867.346 676.505C867.346 674.034 869.341 672.031 871.8 672.031C874.26 672.031 876.254 674.034 876.254 676.505Z" fill="url(#paint158_linear_0_1)"/>
<path d="M898.546 680.978C901.006 680.978 903 678.975 903 676.505C903 674.034 901.006 672.031 898.546 672.031C896.086 672.031 894.092 674.034 894.092 676.505C894.092 678.975 896.086 680.978 898.546 680.978Z" fill="url(#paint159_linear_0_1)"/>
</g>
<defs>
<linearGradient id="paint0_linear_0_1" x1="130.839" y1="112.052" x2="-44.3618" y2="116.925" gradientUnits="userSpaceOnUse">
<stop stop-color="#6B0AEA"/>
<stop offset="1" stop-color="#A55AFF" stop-opacity="0"/>
</linearGradient>
<linearGradient id="paint1_linear_0_1" x1="130.819" y1="111.414" x2="-44.3811" y2="116.267" gradientUnits="userSpaceOnUse">
<stop stop-color="#6B0AEA"/>
<stop offset="1" stop-color="#A55AFF" stop-opacity="0"/>
</linearGradient>
<linearGradient id="paint2_linear_0_1" x1="130.8" y1="110.756" x2="-44.4003" y2="115.628" gradientUnits="userSpaceOnUse">
<stop stop-color="#6B0AEA"/>
<stop offset="1" stop-color="#A55AFF" stop-opacity="0"/>
</linearGradient>
<linearGradient id="paint3_linear_0_1" x1="130.781" y1="110.117" x2="-44.4196" y2="114.971" gradientUnits="userSpaceOnUse">
<stop stop-color="#6B0AEA"/>
<stop offset="1" stop-color="#A55AFF" stop-opacity="0"/>
</linearGradient>
<linearGradient id="paint4_linear_0_1" x1="130.762" y1="109.478" x2="-44.439" y2="114.332" gradientUnits="userSpaceOnUse">
<stop stop-color="#6B0AEA"/>
<stop offset="1" stop-color="#A55AFF" stop-opacity="0"/>
</linearGradient>
<linearGradient id="paint5_linear_0_1" x1="130.742" y1="108.821" x2="-44.4585" y2="113.674" gradientUnits="userSpaceOnUse">
<stop stop-color="#6B0AEA"/>
<stop offset="1" stop-color="#A55AFF" stop-opacity="0"/>
</linearGradient>
<linearGradient id="paint6_linear_0_1" x1="130.337" y1="94.1713" x2="-44.8638" y2="99.044" gradientUnits="userSpaceOnUse">
<stop stop-color="#6B0AEA"/>
<stop offset="1" stop-color="#A55AFF" stop-opacity="0"/>
</linearGradient>
<linearGradient id="paint7_linear_0_1" x1="156.612" y1="94.1713" x2="-18.5886" y2="99.044" gradientUnits="userSpaceOnUse">
<stop stop-color="#6B0AEA"/>
<stop offset="1" stop-color="#A55AFF" stop-opacity="0"/>
</linearGradient>
<linearGradient id="paint8_linear_0_1" x1="130.317" y1="93.5327" x2="-44.8831" y2="98.3862" gradientUnits="userSpaceOnUse">
<stop stop-color="#6B0AEA"/>
<stop offset="1" stop-color="#A55AFF" stop-opacity="0"/>
</linearGradient>
<linearGradient id="paint9_linear_0_1" x1="130.298" y1="92.8747" x2="-44.9022" y2="97.7475" gradientUnits="userSpaceOnUse">
<stop stop-color="#6B0AEA"/>
<stop offset="1" stop-color="#A55AFF" stop-opacity="0"/>
</linearGradient>
<linearGradient id="paint10_linear_0_1" x1="130.279" y1="92.2361" x2="-44.9022" y2="97.0896" gradientUnits="userSpaceOnUse">
<stop stop-color="#6B0AEA"/>
<stop offset="1" stop-color="#A55AFF" stop-opacity="0"/>
</linearGradient>
<linearGradient id="paint11_linear_0_1" x1="130.26" y1="91.5975" x2="-44.9217" y2="96.451" gradientUnits="userSpaceOnUse">
<stop stop-color="#6B0AEA"/>
<stop offset="1" stop-color="#A55AFF" stop-opacity="0"/>
</linearGradient>
<linearGradient id="paint12_linear_0_1" x1="130.259" y1="90.9395" x2="-44.9411" y2="95.7931" gradientUnits="userSpaceOnUse">
<stop stop-color="#6B0AEA"/>
<stop offset="1" stop-color="#A55AFF" stop-opacity="0"/>
</linearGradient>
<linearGradient id="paint13_linear_0_1" x1="129.854" y1="76.2903" x2="-45.3657" y2="81.163" gradientUnits="userSpaceOnUse">
<stop stop-color="#6B0AEA"/>
<stop offset="1" stop-color="#A55AFF" stop-opacity="0"/>
</linearGradient>
<linearGradient id="paint14_linear_0_1" x1="156.11" y1="76.2903" x2="-19.0906" y2="81.163" gradientUnits="userSpaceOnUse">
<stop stop-color="#6B0AEA"/>
<stop offset="1" stop-color="#A55AFF" stop-opacity="0"/>
</linearGradient>
<linearGradient id="paint15_linear_0_1" x1="182.385" y1="76.2903" x2="7.18462" y2="81.163" gradientUnits="userSpaceOnUse">
<stop stop-color="#6B0AEA"/>
<stop offset="1" stop-color="#A55AFF" stop-opacity="0"/>
</linearGradient>
<linearGradient id="paint16_linear_0_1" x1="208.641" y1="76.2903" x2="33.4404" y2="81.163" gradientUnits="userSpaceOnUse">
<stop stop-color="#6B0AEA"/>
<stop offset="1" stop-color="#A55AFF" stop-opacity="0"/>
</linearGradient>
<linearGradient id="paint17_linear_0_1" x1="129.835" y1="75.6517" x2="-45.3657" y2="80.5052" gradientUnits="userSpaceOnUse">
<stop stop-color="#6B0AEA"/>
<stop offset="1" stop-color="#A55AFF" stop-opacity="0"/>
</linearGradient>
<linearGradient id="paint18_linear_0_1" x1="129.815" y1="74.9937" x2="-45.3849" y2="79.8665" gradientUnits="userSpaceOnUse">
<stop stop-color="#6B0AEA"/>
<stop offset="1" stop-color="#A55AFF" stop-opacity="0"/>
</linearGradient>
<linearGradient id="paint19_linear_0_1" x1="129.796" y1="74.3551" x2="-45.4042" y2="79.2086" gradientUnits="userSpaceOnUse">
<stop stop-color="#6B0AEA"/>
<stop offset="1" stop-color="#A55AFF" stop-opacity="0"/>
</linearGradient>
<linearGradient id="paint20_linear_0_1" x1="129.777" y1="73.7165" x2="-45.4236" y2="78.57" gradientUnits="userSpaceOnUse">
<stop stop-color="#6B0AEA"/>
<stop offset="1" stop-color="#A55AFF" stop-opacity="0"/>
</linearGradient>
<linearGradient id="paint21_linear_0_1" x1="129.758" y1="73.0585" x2="-45.4429" y2="77.912" gradientUnits="userSpaceOnUse">
<stop stop-color="#6B0AEA"/>
<stop offset="1" stop-color="#A55AFF" stop-opacity="0"/>
</linearGradient>
<linearGradient id="paint22_linear_0_1" x1="129.313" y1="57.1127" x2="-45.8868" y2="61.9855" gradientUnits="userSpaceOnUse">
<stop stop-color="#6B0AEA"/>
<stop offset="1" stop-color="#A55AFF" stop-opacity="0"/>
</linearGradient>
<linearGradient id="paint23_linear_0_1" x1="129.294" y1="56.4741" x2="-45.9061" y2="61.3276" gradientUnits="userSpaceOnUse">
<stop stop-color="#6B0AEA"/>
<stop offset="1" stop-color="#A55AFF" stop-opacity="0"/>
</linearGradient>
<linearGradient id="paint24_linear_0_1" x1="129.275" y1="55.8355" x2="-45.9256" y2="60.689" gradientUnits="userSpaceOnUse">
<stop stop-color="#6B0AEA"/>
<stop offset="1" stop-color="#A55AFF" stop-opacity="0"/>
</linearGradient>
<linearGradient id="paint25_linear_0_1" x1="129.256" y1="55.1776" x2="-45.9448" y2="60.0311" gradientUnits="userSpaceOnUse">
<stop stop-color="#6B0AEA"/>
<stop offset="1" stop-color="#A55AFF" stop-opacity="0"/>
</linearGradient>
<linearGradient id="paint26_linear_0_1" x1="129.352" y1="39.8897" x2="-45.8484" y2="44.7432" gradientUnits="userSpaceOnUse">
<stop stop-color="#6B0AEA"/>
<stop offset="1" stop-color="#A55AFF" stop-opacity="0"/>
</linearGradient>
<linearGradient id="paint27_linear_0_1" x1="129.333" y1="39.2511" x2="-45.8677" y2="44.1046" gradientUnits="userSpaceOnUse">
<stop stop-color="#6B0AEA"/>
<stop offset="1" stop-color="#A55AFF" stop-opacity="0"/>
</linearGradient>
<linearGradient id="paint28_linear_0_1" x1="129.313" y1="38.5931" x2="-45.8868" y2="43.4466" gradientUnits="userSpaceOnUse">
<stop stop-color="#6B0AEA"/>
<stop offset="1" stop-color="#A55AFF" stop-opacity="0"/>
</linearGradient>
<linearGradient id="paint29_linear_0_1" x1="129.294" y1="37.9545" x2="-45.9061" y2="42.808" gradientUnits="userSpaceOnUse">
<stop stop-color="#6B0AEA"/>
<stop offset="1" stop-color="#A55AFF" stop-opacity="0"/>
</linearGradient>
<linearGradient id="paint30_linear_0_1" x1="129.275" y1="37.2966" x2="-45.9256" y2="42.1501" gradientUnits="userSpaceOnUse">
<stop stop-color="#6B0AEA"/>
<stop offset="1" stop-color="#A55AFF" stop-opacity="0"/>
</linearGradient>
<linearGradient id="paint31_linear_0_1" x1="129.255" y1="36.658" x2="-45.9451" y2="41.5115" gradientUnits="userSpaceOnUse">
<stop stop-color="#6B0AEA"/>
<stop offset="1" stop-color="#A55AFF" stop-opacity="0"/>
</linearGradient>
<linearGradient id="paint32_linear_0_1" x1="427.161" y1="294.948" x2="602.362" y2="290.075" gradientUnits="userSpaceOnUse">
<stop stop-color="#6B0AEA"/>
<stop offset="1" stop-color="#A55AFF" stop-opacity="0"/>
</linearGradient>
<linearGradient id="paint33_linear_0_1" x1="427.181" y1="295.586" x2="602.381" y2="290.733" gradientUnits="userSpaceOnUse">
<stop stop-color="#6B0AEA"/>
<stop offset="1" stop-color="#A55AFF" stop-opacity="0"/>
</linearGradient>
<linearGradient id="paint34_linear_0_1" x1="427.2" y1="296.244" x2="602.4" y2="291.372" gradientUnits="userSpaceOnUse">
<stop stop-color="#6B0AEA"/>
<stop offset="1" stop-color="#A55AFF" stop-opacity="0"/>
</linearGradient>
<linearGradient id="paint35_linear_0_1" x1="427.219" y1="296.883" x2="602.42" y2="292.029" gradientUnits="userSpaceOnUse">
<stop stop-color="#6B0AEA"/>
<stop offset="1" stop-color="#A55AFF" stop-opacity="0"/>
</linearGradient>
<linearGradient id="paint36_linear_0_1" x1="427.238" y1="297.522" x2="602.439" y2="292.668" gradientUnits="userSpaceOnUse">
<stop stop-color="#6B0AEA"/>
<stop offset="1" stop-color="#A55AFF" stop-opacity="0"/>
</linearGradient>
<linearGradient id="paint37_linear_0_1" x1="427.258" y1="298.179" x2="602.459" y2="293.326" gradientUnits="userSpaceOnUse">
<stop stop-color="#6B0AEA"/>
<stop offset="1" stop-color="#A55AFF" stop-opacity="0"/>
</linearGradient>
<linearGradient id="paint38_linear_0_1" x1="427.663" y1="312.829" x2="602.864" y2="307.956" gradientUnits="userSpaceOnUse">
<stop stop-color="#6B0AEA"/>
<stop offset="1" stop-color="#A55AFF" stop-opacity="0"/>
</linearGradient>
<linearGradient id="paint39_linear_0_1" x1="401.388" y1="312.829" x2="576.589" y2="307.956" gradientUnits="userSpaceOnUse">
<stop stop-color="#6B0AEA"/>
<stop offset="1" stop-color="#A55AFF" stop-opacity="0"/>
</linearGradient>
<linearGradient id="paint40_linear_0_1" x1="427.683" y1="313.467" x2="602.883" y2="308.614" gradientUnits="userSpaceOnUse">
<stop stop-color="#6B0AEA"/>
<stop offset="1" stop-color="#A55AFF" stop-opacity="0"/>
</linearGradient>
<linearGradient id="paint41_linear_0_1" x1="427.702" y1="314.125" x2="602.902" y2="309.253" gradientUnits="userSpaceOnUse">
<stop stop-color="#6B0AEA"/>
<stop offset="1" stop-color="#A55AFF" stop-opacity="0"/>
</linearGradient>
<linearGradient id="paint42_linear_0_1" x1="427.721" y1="314.764" x2="602.902" y2="309.91" gradientUnits="userSpaceOnUse">
<stop stop-color="#6B0AEA"/>
<stop offset="1" stop-color="#A55AFF" stop-opacity="0"/>
</linearGradient>
<linearGradient id="paint43_linear_0_1" x1="427.74" y1="315.403" x2="602.922" y2="310.549" gradientUnits="userSpaceOnUse">
<stop stop-color="#6B0AEA"/>
<stop offset="1" stop-color="#A55AFF" stop-opacity="0"/>
</linearGradient>
<linearGradient id="paint44_linear_0_1" x1="427.741" y1="316.06" x2="602.941" y2="311.207" gradientUnits="userSpaceOnUse">
<stop stop-color="#6B0AEA"/>
<stop offset="1" stop-color="#A55AFF" stop-opacity="0"/>
</linearGradient>
<linearGradient id="paint45_linear_0_1" x1="428.146" y1="330.71" x2="603.366" y2="325.837" gradientUnits="userSpaceOnUse">
<stop stop-color="#6B0AEA"/>
<stop offset="1" stop-color="#A55AFF" stop-opacity="0"/>
</linearGradient>
<linearGradient id="paint46_linear_0_1" x1="401.89" y1="330.71" x2="577.091" y2="325.837" gradientUnits="userSpaceOnUse">
<stop stop-color="#6B0AEA"/>
<stop offset="1" stop-color="#A55AFF" stop-opacity="0"/>
</linearGradient>
<linearGradient id="paint47_linear_0_1" x1="375.615" y1="330.71" x2="550.815" y2="325.837" gradientUnits="userSpaceOnUse">
<stop stop-color="#6B0AEA"/>
<stop offset="1" stop-color="#A55AFF" stop-opacity="0"/>
</linearGradient>
<linearGradient id="paint48_linear_0_1" x1="349.359" y1="330.71" x2="524.56" y2="325.837" gradientUnits="userSpaceOnUse">
<stop stop-color="#6B0AEA"/>
<stop offset="1" stop-color="#A55AFF" stop-opacity="0"/>
</linearGradient>
<linearGradient id="paint49_linear_0_1" x1="428.165" y1="331.348" x2="603.366" y2="326.495" gradientUnits="userSpaceOnUse">
<stop stop-color="#6B0AEA"/>
<stop offset="1" stop-color="#A55AFF" stop-opacity="0"/>
</linearGradient>
<linearGradient id="paint50_linear_0_1" x1="428.185" y1="332.006" x2="603.385" y2="327.134" gradientUnits="userSpaceOnUse">
<stop stop-color="#6B0AEA"/>
<stop offset="1" stop-color="#A55AFF" stop-opacity="0"/>
</linearGradient>
<linearGradient id="paint51_linear_0_1" x1="428.204" y1="332.645" x2="603.404" y2="327.791" gradientUnits="userSpaceOnUse">
<stop stop-color="#6B0AEA"/>
<stop offset="1" stop-color="#A55AFF" stop-opacity="0"/>
</linearGradient>
<linearGradient id="paint52_linear_0_1" x1="428.223" y1="333.283" x2="603.424" y2="328.43" gradientUnits="userSpaceOnUse">
<stop stop-color="#6B0AEA"/>
<stop offset="1" stop-color="#A55AFF" stop-opacity="0"/>
</linearGradient>
<linearGradient id="paint53_linear_0_1" x1="428.242" y1="333.941" x2="603.443" y2="329.088" gradientUnits="userSpaceOnUse">
<stop stop-color="#6B0AEA"/>
<stop offset="1" stop-color="#A55AFF" stop-opacity="0"/>
</linearGradient>
<linearGradient id="paint54_linear_0_1" x1="428.687" y1="349.887" x2="603.887" y2="345.015" gradientUnits="userSpaceOnUse">
<stop stop-color="#6B0AEA"/>
<stop offset="1" stop-color="#A55AFF" stop-opacity="0"/>
</linearGradient>
<linearGradient id="paint55_linear_0_1" x1="428.706" y1="350.526" x2="603.906" y2="345.672" gradientUnits="userSpaceOnUse">
<stop stop-color="#6B0AEA"/>
<stop offset="1" stop-color="#A55AFF" stop-opacity="0"/>
</linearGradient>
<linearGradient id="paint56_linear_0_1" x1="428.725" y1="351.164" x2="603.926" y2="346.311" gradientUnits="userSpaceOnUse">
<stop stop-color="#6B0AEA"/>
<stop offset="1" stop-color="#A55AFF" stop-opacity="0"/>
</linearGradient>
<linearGradient id="paint57_linear_0_1" x1="428.744" y1="351.822" x2="603.945" y2="346.969" gradientUnits="userSpaceOnUse">
<stop stop-color="#6B0AEA"/>
<stop offset="1" stop-color="#A55AFF" stop-opacity="0"/>
</linearGradient>
<linearGradient id="paint58_linear_0_1" x1="428.648" y1="367.11" x2="603.848" y2="362.257" gradientUnits="userSpaceOnUse">
<stop stop-color="#6B0AEA"/>
<stop offset="1" stop-color="#A55AFF" stop-opacity="0"/>
</linearGradient>
<linearGradient id="paint59_linear_0_1" x1="428.667" y1="367.749" x2="603.868" y2="362.895" gradientUnits="userSpaceOnUse">
<stop stop-color="#6B0AEA"/>
<stop offset="1" stop-color="#A55AFF" stop-opacity="0"/>
</linearGradient>
<linearGradient id="paint60_linear_0_1" x1="428.687" y1="368.407" x2="603.887" y2="363.553" gradientUnits="userSpaceOnUse">
<stop stop-color="#6B0AEA"/>
<stop offset="1" stop-color="#A55AFF" stop-opacity="0"/>
</linearGradient>
<linearGradient id="paint61_linear_0_1" x1="428.706" y1="369.045" x2="603.906" y2="364.192" gradientUnits="userSpaceOnUse">
<stop stop-color="#6B0AEA"/>
<stop offset="1" stop-color="#A55AFF" stop-opacity="0"/>
</linearGradient>
<linearGradient id="paint62_linear_0_1" x1="428.725" y1="369.703" x2="603.926" y2="364.85" gradientUnits="userSpaceOnUse">
<stop stop-color="#6B0AEA"/>
<stop offset="1" stop-color="#A55AFF" stop-opacity="0"/>
</linearGradient>
<linearGradient id="paint63_linear_0_1" x1="428.745" y1="370.342" x2="603.945" y2="365.489" gradientUnits="userSpaceOnUse">
<stop stop-color="#6B0AEA"/>
<stop offset="1" stop-color="#A55AFF" stop-opacity="0"/>
</linearGradient>
<linearGradient id="paint64_linear_0_1" x1="475.57" y1="112.109" x2="612.797" y2="108.313" gradientUnits="userSpaceOnUse">
<stop stop-color="#6B0AEA"/>
<stop offset="1" stop-color="#A55AFF" stop-opacity="0"/>
</linearGradient>
<linearGradient id="paint65_linear_0_1" x1="475.585" y1="112.612" x2="612.812" y2="108.831" gradientUnits="userSpaceOnUse">
<stop stop-color="#6B0AEA"/>
<stop offset="1" stop-color="#A55AFF" stop-opacity="0"/>
</linearGradient>
<linearGradient id="paint66_linear_0_1" x1="475.6" y1="113.13" x2="612.827" y2="109.334" gradientUnits="userSpaceOnUse">
<stop stop-color="#6B0AEA"/>
<stop offset="1" stop-color="#A55AFF" stop-opacity="0"/>
</linearGradient>
<linearGradient id="paint67_linear_0_1" x1="475.615" y1="113.633" x2="612.842" y2="109.852" gradientUnits="userSpaceOnUse">
<stop stop-color="#6B0AEA"/>
<stop offset="1" stop-color="#A55AFF" stop-opacity="0"/>
</linearGradient>
<linearGradient id="paint68_linear_0_1" x1="475.63" y1="114.136" x2="612.857" y2="110.355" gradientUnits="userSpaceOnUse">
<stop stop-color="#6B0AEA"/>
<stop offset="1" stop-color="#A55AFF" stop-opacity="0"/>
</linearGradient>
<linearGradient id="paint69_linear_0_1" x1="475.645" y1="114.654" x2="612.872" y2="110.873" gradientUnits="userSpaceOnUse">
<stop stop-color="#6B0AEA"/>
<stop offset="1" stop-color="#A55AFF" stop-opacity="0"/>
</linearGradient>
<linearGradient id="paint70_linear_0_1" x1="475.963" y1="126.19" x2="613.19" y2="122.394" gradientUnits="userSpaceOnUse">
<stop stop-color="#6B0AEA"/>
<stop offset="1" stop-color="#A55AFF" stop-opacity="0"/>
</linearGradient>
<linearGradient id="paint71_linear_0_1" x1="455.383" y1="126.19" x2="592.61" y2="122.394" gradientUnits="userSpaceOnUse">
<stop stop-color="#6B0AEA"/>
<stop offset="1" stop-color="#A55AFF" stop-opacity="0"/>
</linearGradient>
<linearGradient id="paint72_linear_0_1" x1="475.978" y1="126.693" x2="613.205" y2="122.912" gradientUnits="userSpaceOnUse">
<stop stop-color="#6B0AEA"/>
<stop offset="1" stop-color="#A55AFF" stop-opacity="0"/>
</linearGradient>
<linearGradient id="paint73_linear_0_1" x1="475.993" y1="127.211" x2="613.22" y2="123.415" gradientUnits="userSpaceOnUse">
<stop stop-color="#6B0AEA"/>
<stop offset="1" stop-color="#A55AFF" stop-opacity="0"/>
</linearGradient>
<linearGradient id="paint74_linear_0_1" x1="476.008" y1="127.714" x2="613.22" y2="123.933" gradientUnits="userSpaceOnUse">
<stop stop-color="#6B0AEA"/>
<stop offset="1" stop-color="#A55AFF" stop-opacity="0"/>
</linearGradient>
<linearGradient id="paint75_linear_0_1" x1="476.023" y1="128.217" x2="613.235" y2="124.436" gradientUnits="userSpaceOnUse">
<stop stop-color="#6B0AEA"/>
<stop offset="1" stop-color="#A55AFF" stop-opacity="0"/>
</linearGradient>
<linearGradient id="paint76_linear_0_1" x1="476.023" y1="128.735" x2="613.251" y2="124.954" gradientUnits="userSpaceOnUse">
<stop stop-color="#6B0AEA"/>
<stop offset="1" stop-color="#A55AFF" stop-opacity="0"/>
</linearGradient>
<linearGradient id="paint77_linear_0_1" x1="476.341" y1="140.271" x2="613.583" y2="136.475" gradientUnits="userSpaceOnUse">
<stop stop-color="#6B0AEA"/>
<stop offset="1" stop-color="#A55AFF" stop-opacity="0"/>
</linearGradient>
<linearGradient id="paint78_linear_0_1" x1="455.776" y1="140.271" x2="593.003" y2="136.475" gradientUnits="userSpaceOnUse">
<stop stop-color="#6B0AEA"/>
<stop offset="1" stop-color="#A55AFF" stop-opacity="0"/>
</linearGradient>
<linearGradient id="paint79_linear_0_1" x1="435.196" y1="140.271" x2="572.423" y2="136.475" gradientUnits="userSpaceOnUse">
<stop stop-color="#6B0AEA"/>
<stop offset="1" stop-color="#A55AFF" stop-opacity="0"/>
</linearGradient>
<linearGradient id="paint80_linear_0_1" x1="414.631" y1="140.271" x2="551.858" y2="136.475" gradientUnits="userSpaceOnUse">
<stop stop-color="#6B0AEA"/>
<stop offset="1" stop-color="#A55AFF" stop-opacity="0"/>
</linearGradient>
<linearGradient id="paint81_linear_0_1" x1="476.356" y1="140.774" x2="613.583" y2="136.993" gradientUnits="userSpaceOnUse">
<stop stop-color="#6B0AEA"/>
<stop offset="1" stop-color="#A55AFF" stop-opacity="0"/>
</linearGradient>
<linearGradient id="paint82_linear_0_1" x1="476.371" y1="141.292" x2="613.598" y2="137.496" gradientUnits="userSpaceOnUse">
<stop stop-color="#6B0AEA"/>
<stop offset="1" stop-color="#A55AFF" stop-opacity="0"/>
</linearGradient>
<linearGradient id="paint83_linear_0_1" x1="476.386" y1="141.795" x2="613.613" y2="138.014" gradientUnits="userSpaceOnUse">
<stop stop-color="#6B0AEA"/>
<stop offset="1" stop-color="#A55AFF" stop-opacity="0"/>
</linearGradient>
<linearGradient id="paint84_linear_0_1" x1="476.401" y1="142.298" x2="613.629" y2="138.517" gradientUnits="userSpaceOnUse">
<stop stop-color="#6B0AEA"/>
<stop offset="1" stop-color="#A55AFF" stop-opacity="0"/>
</linearGradient>
<linearGradient id="paint85_linear_0_1" x1="476.416" y1="142.816" x2="613.644" y2="139.035" gradientUnits="userSpaceOnUse">
<stop stop-color="#6B0AEA"/>
<stop offset="1" stop-color="#A55AFF" stop-opacity="0"/>
</linearGradient>
<linearGradient id="paint86_linear_0_1" x1="476.764" y1="155.374" x2="613.991" y2="151.578" gradientUnits="userSpaceOnUse">
<stop stop-color="#6B0AEA"/>
<stop offset="1" stop-color="#A55AFF" stop-opacity="0"/>
</linearGradient>
<linearGradient id="paint87_linear_0_1" x1="476.78" y1="155.877" x2="614.007" y2="152.096" gradientUnits="userSpaceOnUse">
<stop stop-color="#6B0AEA"/>
<stop offset="1" stop-color="#A55AFF" stop-opacity="0"/>
</linearGradient>
<linearGradient id="paint88_linear_0_1" x1="476.795" y1="156.38" x2="614.022" y2="152.598" gradientUnits="userSpaceOnUse">
<stop stop-color="#6B0AEA"/>
<stop offset="1" stop-color="#A55AFF" stop-opacity="0"/>
</linearGradient>
<linearGradient id="paint89_linear_0_1" x1="476.81" y1="156.898" x2="614.037" y2="153.117" gradientUnits="userSpaceOnUse">
<stop stop-color="#6B0AEA"/>
<stop offset="1" stop-color="#A55AFF" stop-opacity="0"/>
</linearGradient>
<linearGradient id="paint90_linear_0_1" x1="476.734" y1="168.937" x2="613.961" y2="165.156" gradientUnits="userSpaceOnUse">
<stop stop-color="#6B0AEA"/>
<stop offset="1" stop-color="#A55AFF" stop-opacity="0"/>
</linearGradient>
<linearGradient id="paint91_linear_0_1" x1="476.749" y1="169.44" x2="613.976" y2="165.659" gradientUnits="userSpaceOnUse">
<stop stop-color="#6B0AEA"/>
<stop offset="1" stop-color="#A55AFF" stop-opacity="0"/>
</linearGradient>
<linearGradient id="paint92_linear_0_1" x1="476.764" y1="169.958" x2="613.991" y2="166.177" gradientUnits="userSpaceOnUse">
<stop stop-color="#6B0AEA"/>
<stop offset="1" stop-color="#A55AFF" stop-opacity="0"/>
</linearGradient>
<linearGradient id="paint93_linear_0_1" x1="476.779" y1="170.461" x2="614.006" y2="166.68" gradientUnits="userSpaceOnUse">
<stop stop-color="#6B0AEA"/>
<stop offset="1" stop-color="#A55AFF" stop-opacity="0"/>
</linearGradient>
<linearGradient id="paint94_linear_0_1" x1="476.794" y1="170.979" x2="614.021" y2="167.198" gradientUnits="userSpaceOnUse">
<stop stop-color="#6B0AEA"/>
<stop offset="1" stop-color="#A55AFF" stop-opacity="0"/>
</linearGradient>
<linearGradient id="paint95_linear_0_1" x1="476.809" y1="171.482" x2="614.037" y2="167.701" gradientUnits="userSpaceOnUse">
<stop stop-color="#6B0AEA"/>
<stop offset="1" stop-color="#A55AFF" stop-opacity="0"/>
</linearGradient>
<linearGradient id="paint96_linear_0_1" x1="783.156" y1="61.5399" x2="984.248" y2="55.9578" gradientUnits="userSpaceOnUse">
<stop stop-color="#6B0AEA"/>
<stop offset="1" stop-color="#A55AFF" stop-opacity="0"/>
</linearGradient>
<linearGradient id="paint97_linear_0_1" x1="783.178" y1="62.2743" x2="984.27" y2="56.7143" gradientUnits="userSpaceOnUse">
<stop stop-color="#6B0AEA"/>
<stop offset="1" stop-color="#A55AFF" stop-opacity="0"/>
</linearGradient>
<linearGradient id="paint98_linear_0_1" x1="783.2" y1="63.031" x2="984.293" y2="57.4489" gradientUnits="userSpaceOnUse">
<stop stop-color="#6B0AEA"/>
<stop offset="1" stop-color="#A55AFF" stop-opacity="0"/>
</linearGradient>
<linearGradient id="paint99_linear_0_1" x1="783.222" y1="63.7654" x2="984.315" y2="58.2053" gradientUnits="userSpaceOnUse">
<stop stop-color="#6B0AEA"/>
<stop offset="1" stop-color="#A55AFF" stop-opacity="0"/>
</linearGradient>
<linearGradient id="paint100_linear_0_1" x1="783.244" y1="64.4998" x2="984.337" y2="58.9397" gradientUnits="userSpaceOnUse">
<stop stop-color="#6B0AEA"/>
<stop offset="1" stop-color="#A55AFF" stop-opacity="0"/>
</linearGradient>
<linearGradient id="paint101_linear_0_1" x1="783.266" y1="65.2564" x2="984.359" y2="59.6963" gradientUnits="userSpaceOnUse">
<stop stop-color="#6B0AEA"/>
<stop offset="1" stop-color="#A55AFF" stop-opacity="0"/>
</linearGradient>
<linearGradient id="paint102_linear_0_1" x1="783.732" y1="82.103" x2="984.825" y2="76.5209" gradientUnits="userSpaceOnUse">
<stop stop-color="#6B0AEA"/>
<stop offset="1" stop-color="#A55AFF" stop-opacity="0"/>
</linearGradient>
<linearGradient id="paint103_linear_0_1" x1="753.574" y1="82.103" x2="954.666" y2="76.5209" gradientUnits="userSpaceOnUse">
<stop stop-color="#6B0AEA"/>
<stop offset="1" stop-color="#A55AFF" stop-opacity="0"/>
</linearGradient>
<linearGradient id="paint104_linear_0_1" x1="783.754" y1="82.8374" x2="984.847" y2="77.2774" gradientUnits="userSpaceOnUse">
<stop stop-color="#6B0AEA"/>
<stop offset="1" stop-color="#A55AFF" stop-opacity="0"/>
</linearGradient>
<linearGradient id="paint105_linear_0_1" x1="783.776" y1="83.5941" x2="984.869" y2="78.012" gradientUnits="userSpaceOnUse">
<stop stop-color="#6B0AEA"/>
<stop offset="1" stop-color="#A55AFF" stop-opacity="0"/>
</linearGradient>
<linearGradient id="paint106_linear_0_1" x1="783.798" y1="84.3285" x2="984.869" y2="78.7685" gradientUnits="userSpaceOnUse">
<stop stop-color="#6B0AEA"/>
<stop offset="1" stop-color="#A55AFF" stop-opacity="0"/>
</linearGradient>
<linearGradient id="paint107_linear_0_1" x1="783.82" y1="85.0629" x2="984.891" y2="79.5028" gradientUnits="userSpaceOnUse">
<stop stop-color="#6B0AEA"/>
<stop offset="1" stop-color="#A55AFF" stop-opacity="0"/>
</linearGradient>
<linearGradient id="paint108_linear_0_1" x1="783.82" y1="85.8195" x2="984.913" y2="80.2595" gradientUnits="userSpaceOnUse">
<stop stop-color="#6B0AEA"/>
<stop offset="1" stop-color="#A55AFF" stop-opacity="0"/>
</linearGradient>
<linearGradient id="paint109_linear_0_1" x1="784.286" y1="102.666" x2="985.401" y2="97.0841" gradientUnits="userSpaceOnUse">
<stop stop-color="#6B0AEA"/>
<stop offset="1" stop-color="#A55AFF" stop-opacity="0"/>
</linearGradient>
<linearGradient id="paint110_linear_0_1" x1="754.15" y1="102.666" x2="955.243" y2="97.0841" gradientUnits="userSpaceOnUse">
<stop stop-color="#6B0AEA"/>
<stop offset="1" stop-color="#A55AFF" stop-opacity="0"/>
</linearGradient>
<linearGradient id="paint111_linear_0_1" x1="723.992" y1="102.666" x2="925.084" y2="97.0841" gradientUnits="userSpaceOnUse">
<stop stop-color="#6B0AEA"/>
<stop offset="1" stop-color="#A55AFF" stop-opacity="0"/>
</linearGradient>
<linearGradient id="paint112_linear_0_1" x1="693.856" y1="102.666" x2="894.948" y2="97.0841" gradientUnits="userSpaceOnUse">
<stop stop-color="#6B0AEA"/>
<stop offset="1" stop-color="#A55AFF" stop-opacity="0"/>
</linearGradient>
<linearGradient id="paint113_linear_0_1" x1="784.308" y1="103.401" x2="985.401" y2="97.8405" gradientUnits="userSpaceOnUse">
<stop stop-color="#6B0AEA"/>
<stop offset="1" stop-color="#A55AFF" stop-opacity="0"/>
</linearGradient>
<linearGradient id="paint114_linear_0_1" x1="784.33" y1="104.157" x2="985.423" y2="98.5751" gradientUnits="userSpaceOnUse">
<stop stop-color="#6B0AEA"/>
<stop offset="1" stop-color="#A55AFF" stop-opacity="0"/>
</linearGradient>
<linearGradient id="paint115_linear_0_1" x1="784.352" y1="104.892" x2="985.445" y2="99.3316" gradientUnits="userSpaceOnUse">
<stop stop-color="#6B0AEA"/>
<stop offset="1" stop-color="#A55AFF" stop-opacity="0"/>
</linearGradient>
<linearGradient id="paint116_linear_0_1" x1="784.374" y1="105.626" x2="985.467" y2="100.066" gradientUnits="userSpaceOnUse">
<stop stop-color="#6B0AEA"/>
<stop offset="1" stop-color="#A55AFF" stop-opacity="0"/>
</linearGradient>
<linearGradient id="paint117_linear_0_1" x1="784.396" y1="106.383" x2="985.489" y2="100.823" gradientUnits="userSpaceOnUse">
<stop stop-color="#6B0AEA"/>
<stop offset="1" stop-color="#A55AFF" stop-opacity="0"/>
</linearGradient>
<linearGradient id="paint118_linear_0_1" x1="784.906" y1="124.72" x2="985.999" y2="119.138" gradientUnits="userSpaceOnUse">
<stop stop-color="#6B0AEA"/>
<stop offset="1" stop-color="#A55AFF" stop-opacity="0"/>
</linearGradient>
<linearGradient id="paint119_linear_0_1" x1="784.928" y1="125.455" x2="986.021" y2="119.895" gradientUnits="userSpaceOnUse">
<stop stop-color="#6B0AEA"/>
<stop offset="1" stop-color="#A55AFF" stop-opacity="0"/>
</linearGradient>
<linearGradient id="paint120_linear_0_1" x1="784.95" y1="126.189" x2="986.043" y2="120.629" gradientUnits="userSpaceOnUse">
<stop stop-color="#6B0AEA"/>
<stop offset="1" stop-color="#A55AFF" stop-opacity="0"/>
</linearGradient>
<linearGradient id="paint121_linear_0_1" x1="784.973" y1="126.946" x2="986.065" y2="121.386" gradientUnits="userSpaceOnUse">
<stop stop-color="#6B0AEA"/>
<stop offset="1" stop-color="#A55AFF" stop-opacity="0"/>
</linearGradient>
<linearGradient id="paint122_linear_0_1" x1="784.862" y1="144.527" x2="985.955" y2="138.967" gradientUnits="userSpaceOnUse">
<stop stop-color="#6B0AEA"/>
<stop offset="1" stop-color="#A55AFF" stop-opacity="0"/>
</linearGradient>
<linearGradient id="paint123_linear_0_1" x1="784.884" y1="145.261" x2="985.977" y2="139.701" gradientUnits="userSpaceOnUse">
<stop stop-color="#6B0AEA"/>
<stop offset="1" stop-color="#A55AFF" stop-opacity="0"/>
</linearGradient>
<linearGradient id="paint124_linear_0_1" x1="784.906" y1="146.018" x2="985.999" y2="140.458" gradientUnits="userSpaceOnUse">
<stop stop-color="#6B0AEA"/>
<stop offset="1" stop-color="#A55AFF" stop-opacity="0"/>
</linearGradient>
<linearGradient id="paint125_linear_0_1" x1="784.928" y1="146.752" x2="986.021" y2="141.192" gradientUnits="userSpaceOnUse">
<stop stop-color="#6B0AEA"/>
<stop offset="1" stop-color="#A55AFF" stop-opacity="0"/>
</linearGradient>
<linearGradient id="paint126_linear_0_1" x1="784.95" y1="147.509" x2="986.043" y2="141.949" gradientUnits="userSpaceOnUse">
<stop stop-color="#6B0AEA"/>
<stop offset="1" stop-color="#A55AFF" stop-opacity="0"/>
</linearGradient>
<linearGradient id="paint127_linear_0_1" x1="784.973" y1="148.243" x2="986.065" y2="142.683" gradientUnits="userSpaceOnUse">
<stop stop-color="#6B0AEA"/>
<stop offset="1" stop-color="#A55AFF" stop-opacity="0"/>
</linearGradient>
<linearGradient id="paint128_linear_0_1" x1="763.156" y1="593.54" x2="964.248" y2="587.958" gradientUnits="userSpaceOnUse">
<stop stop-color="#6B0AEA"/>
<stop offset="1" stop-color="#A55AFF" stop-opacity="0"/>
</linearGradient>
<linearGradient id="paint129_linear_0_1" x1="763.178" y1="594.274" x2="964.27" y2="588.714" gradientUnits="userSpaceOnUse">
<stop stop-color="#6B0AEA"/>
<stop offset="1" stop-color="#A55AFF" stop-opacity="0"/>
</linearGradient>
<linearGradient id="paint130_linear_0_1" x1="763.2" y1="595.031" x2="964.293" y2="589.449" gradientUnits="userSpaceOnUse">
<stop stop-color="#6B0AEA"/>
<stop offset="1" stop-color="#A55AFF" stop-opacity="0"/>
</linearGradient>
<linearGradient id="paint131_linear_0_1" x1="763.222" y1="595.765" x2="964.315" y2="590.205" gradientUnits="userSpaceOnUse">
<stop stop-color="#6B0AEA"/>
<stop offset="1" stop-color="#A55AFF" stop-opacity="0"/>
</linearGradient>
<linearGradient id="paint132_linear_0_1" x1="763.244" y1="596.5" x2="964.337" y2="590.94" gradientUnits="userSpaceOnUse">
<stop stop-color="#6B0AEA"/>
<stop offset="1" stop-color="#A55AFF" stop-opacity="0"/>
</linearGradient>
<linearGradient id="paint133_linear_0_1" x1="763.266" y1="597.256" x2="964.359" y2="591.696" gradientUnits="userSpaceOnUse">
<stop stop-color="#6B0AEA"/>
<stop offset="1" stop-color="#A55AFF" stop-opacity="0"/>
</linearGradient>
<linearGradient id="paint134_linear_0_1" x1="763.732" y1="614.103" x2="964.825" y2="608.521" gradientUnits="userSpaceOnUse">
<stop stop-color="#6B0AEA"/>
<stop offset="1" stop-color="#A55AFF" stop-opacity="0"/>
</linearGradient>
<linearGradient id="paint135_linear_0_1" x1="733.574" y1="614.103" x2="934.666" y2="608.521" gradientUnits="userSpaceOnUse">
<stop stop-color="#6B0AEA"/>
<stop offset="1" stop-color="#A55AFF" stop-opacity="0"/>
</linearGradient>
<linearGradient id="paint136_linear_0_1" x1="763.754" y1="614.837" x2="964.847" y2="609.277" gradientUnits="userSpaceOnUse">
<stop stop-color="#6B0AEA"/>
<stop offset="1" stop-color="#A55AFF" stop-opacity="0"/>
</linearGradient>
<linearGradient id="paint137_linear_0_1" x1="763.776" y1="615.594" x2="964.869" y2="610.012" gradientUnits="userSpaceOnUse">
<stop stop-color="#6B0AEA"/>
<stop offset="1" stop-color="#A55AFF" stop-opacity="0"/>
</linearGradient>
<linearGradient id="paint138_linear_0_1" x1="763.798" y1="616.328" x2="964.869" y2="610.768" gradientUnits="userSpaceOnUse">
<stop stop-color="#6B0AEA"/>
<stop offset="1" stop-color="#A55AFF" stop-opacity="0"/>
</linearGradient>
<linearGradient id="paint139_linear_0_1" x1="763.82" y1="617.063" x2="964.891" y2="611.503" gradientUnits="userSpaceOnUse">
<stop stop-color="#6B0AEA"/>
<stop offset="1" stop-color="#A55AFF" stop-opacity="0"/>
</linearGradient>
<linearGradient id="paint140_linear_0_1" x1="763.82" y1="617.82" x2="964.913" y2="612.259" gradientUnits="userSpaceOnUse">
<stop stop-color="#6B0AEA"/>
<stop offset="1" stop-color="#A55AFF" stop-opacity="0"/>
</linearGradient>
<linearGradient id="paint141_linear_0_1" x1="764.286" y1="634.666" x2="965.401" y2="629.084" gradientUnits="userSpaceOnUse">
<stop stop-color="#6B0AEA"/>
<stop offset="1" stop-color="#A55AFF" stop-opacity="0"/>
</linearGradient>
<linearGradient id="paint142_linear_0_1" x1="734.15" y1="634.666" x2="935.243" y2="629.084" gradientUnits="userSpaceOnUse">
<stop stop-color="#6B0AEA"/>
<stop offset="1" stop-color="#A55AFF" stop-opacity="0"/>
</linearGradient>
<linearGradient id="paint143_linear_0_1" x1="703.992" y1="634.666" x2="905.084" y2="629.084" gradientUnits="userSpaceOnUse">
<stop stop-color="#6B0AEA"/>
<stop offset="1" stop-color="#A55AFF" stop-opacity="0"/>
</linearGradient>
<linearGradient id="paint144_linear_0_1" x1="673.856" y1="634.666" x2="874.948" y2="629.084" gradientUnits="userSpaceOnUse">
<stop stop-color="#6B0AEA"/>
<stop offset="1" stop-color="#A55AFF" stop-opacity="0"/>
</linearGradient>
<linearGradient id="paint145_linear_0_1" x1="764.308" y1="635.401" x2="965.401" y2="629.841" gradientUnits="userSpaceOnUse">
<stop stop-color="#6B0AEA"/>
<stop offset="1" stop-color="#A55AFF" stop-opacity="0"/>
</linearGradient>
<linearGradient id="paint146_linear_0_1" x1="764.33" y1="636.157" x2="965.423" y2="630.575" gradientUnits="userSpaceOnUse">
<stop stop-color="#6B0AEA"/>
<stop offset="1" stop-color="#A55AFF" stop-opacity="0"/>
</linearGradient>
<linearGradient id="paint147_linear_0_1" x1="764.352" y1="636.892" x2="965.445" y2="631.332" gradientUnits="userSpaceOnUse">
<stop stop-color="#6B0AEA"/>
<stop offset="1" stop-color="#A55AFF" stop-opacity="0"/>
</linearGradient>
<linearGradient id="paint148_linear_0_1" x1="764.374" y1="637.626" x2="965.467" y2="632.066" gradientUnits="userSpaceOnUse">
<stop stop-color="#6B0AEA"/>
<stop offset="1" stop-color="#A55AFF" stop-opacity="0"/>
</linearGradient>
<linearGradient id="paint149_linear_0_1" x1="764.396" y1="638.383" x2="965.489" y2="632.823" gradientUnits="userSpaceOnUse">
<stop stop-color="#6B0AEA"/>
<stop offset="1" stop-color="#A55AFF" stop-opacity="0"/>
</linearGradient>
<linearGradient id="paint150_linear_0_1" x1="764.906" y1="656.72" x2="965.999" y2="651.138" gradientUnits="userSpaceOnUse">
<stop stop-color="#6B0AEA"/>
<stop offset="1" stop-color="#A55AFF" stop-opacity="0"/>
</linearGradient>
<linearGradient id="paint151_linear_0_1" x1="764.928" y1="657.455" x2="966.021" y2="651.895" gradientUnits="userSpaceOnUse">
<stop stop-color="#6B0AEA"/>
<stop offset="1" stop-color="#A55AFF" stop-opacity="0"/>
</linearGradient>
<linearGradient id="paint152_linear_0_1" x1="764.95" y1="658.189" x2="966.043" y2="652.629" gradientUnits="userSpaceOnUse">
<stop stop-color="#6B0AEA"/>
<stop offset="1" stop-color="#A55AFF" stop-opacity="0"/>
</linearGradient>
<linearGradient id="paint153_linear_0_1" x1="764.973" y1="658.946" x2="966.065" y2="653.386" gradientUnits="userSpaceOnUse">
<stop stop-color="#6B0AEA"/>
<stop offset="1" stop-color="#A55AFF" stop-opacity="0"/>
</linearGradient>
<linearGradient id="paint154_linear_0_1" x1="764.862" y1="676.527" x2="965.955" y2="670.967" gradientUnits="userSpaceOnUse">
<stop stop-color="#6B0AEA"/>
<stop offset="1" stop-color="#A55AFF" stop-opacity="0"/>
</linearGradient>
<linearGradient id="paint155_linear_0_1" x1="764.884" y1="677.261" x2="965.977" y2="671.701" gradientUnits="userSpaceOnUse">
<stop stop-color="#6B0AEA"/>
<stop offset="1" stop-color="#A55AFF" stop-opacity="0"/>
</linearGradient>
<linearGradient id="paint156_linear_0_1" x1="764.906" y1="678.018" x2="965.999" y2="672.458" gradientUnits="userSpaceOnUse">
<stop stop-color="#6B0AEA"/>
<stop offset="1" stop-color="#A55AFF" stop-opacity="0"/>
</linearGradient>
<linearGradient id="paint157_linear_0_1" x1="764.928" y1="678.752" x2="966.021" y2="673.192" gradientUnits="userSpaceOnUse">
<stop stop-color="#6B0AEA"/>
<stop offset="1" stop-color="#A55AFF" stop-opacity="0"/>
</linearGradient>
<linearGradient id="paint158_linear_0_1" x1="764.95" y1="679.509" x2="966.043" y2="673.949" gradientUnits="userSpaceOnUse">
<stop stop-color="#6B0AEA"/>
<stop offset="1" stop-color="#A55AFF" stop-opacity="0"/>
</linearGradient>
<linearGradient id="paint159_linear_0_1" x1="764.973" y1="680.243" x2="966.065" y2="674.683" gradientUnits="userSpaceOnUse">
<stop stop-color="#6B0AEA"/>
<stop offset="1" stop-color="#A55AFF" stop-opacity="0"/>
</linearGradient>
<clipPath id="clip0_0_1">
<rect width="899" height="15" fill="white"/>
</clipPath>
<clipPath id="clip1_0_1">
<rect width="203" height="80" fill="white" transform="translate(212 116) rotate(-180)"/>
</clipPath>
<clipPath id="clip2_0_1">
<rect width="203" height="80" fill="white" transform="translate(346 291)"/>
</clipPath>
<clipPath id="clip3_0_1">
<rect width="159" height="63" fill="white" transform="translate(412 109)"/>
</clipPath>
<clipPath id="clip4_0_1">
<rect width="233" height="92" fill="white" transform="translate(690 57)"/>
</clipPath>
<clipPath id="clip5_0_1">
<rect width="233" height="92" fill="white" transform="translate(670 589)"/>
</clipPath>
</defs>
</svg>
