<svg width="337" height="349" viewBox="0 0 337 349" fill="none" xmlns="http://www.w3.org/2000/svg">
<path d="M0.5 30.5847L28.5493 0.5H336.5V323.769L311.945 347.578H0.5V30.5847Z" fill="#091629" fill-opacity="0.8" stroke="#39F0BA"/>
<path d="M26 23.7198L11 39.785V88.3585M326 249.546V314.342L310 330.943" stroke="#39F0BA"/>
<g clip-path="url(#clip0_849_40447)">
<g opacity="0.44">
<path d="M9.62378 316H8.8457V338H9.62378V316Z" fill="#00BDFF" fill-opacity="0.4"/>
<path d="M14.8571 326.922H14.079V338H14.8571V326.922Z" fill="#00BDFF" fill-opacity="0.4"/>
<path d="M20.0966 326.922H19.3185V338H20.0966V326.922Z" fill="#00BDFF" fill-opacity="0.4"/>
<path d="M25.33 326.922H24.5519V338H25.33V326.922Z" fill="#00BDFF" fill-opacity="0.4"/>
<path d="M30.5631 316H29.785V338H30.5631V316Z" fill="#00BDFF" fill-opacity="0.4"/>
<path d="M35.7959 326.922H35.0178V338H35.7959V326.922Z" fill="#00BDFF" fill-opacity="0.4"/>
<path d="M41.036 326.922H40.2579V338H41.036V326.922Z" fill="#00BDFF" fill-opacity="0.4"/>
<path d="M46.2692 326.922H45.4911V338H46.2692V326.922Z" fill="#00BDFF" fill-opacity="0.4"/>
<path d="M51.502 326.922H50.7239V338H51.502V326.922Z" fill="#00BDFF" fill-opacity="0.4"/>
<path d="M56.7354 316H55.9573V338H56.7354V316Z" fill="#00BDFF" fill-opacity="0.4"/>
<path d="M61.9753 326.922H61.1973V338H61.9753V326.922Z" fill="#00BDFF" fill-opacity="0.4"/>
<path d="M67.2081 326.922H66.4301V338H67.2081V326.922Z" fill="#00BDFF" fill-opacity="0.4"/>
<path d="M72.4414 326.922H71.6633V338H72.4414V326.922Z" fill="#00BDFF" fill-opacity="0.4"/>
<path d="M77.6814 326.922H76.9033V338H77.6814V326.922Z" fill="#00BDFF" fill-opacity="0.4"/>
<path d="M82.9148 316H82.1367V338H82.9148V316Z" fill="#00BDFF" fill-opacity="0.4"/>
<path d="M88.1476 326.922H87.3695V338H88.1476V326.922Z" fill="#00BDFF" fill-opacity="0.4"/>
<path d="M93.3806 326.922H92.6025V338H93.3806V326.922Z" fill="#00BDFF" fill-opacity="0.4"/>
<path d="M98.6209 326.922H97.8428V338H98.6209V326.922Z" fill="#00BDFF" fill-opacity="0.4"/>
<path d="M103.854 326.922H103.076V338H103.854V326.922Z" fill="#00BDFF" fill-opacity="0.4"/>
<path d="M109.087 316H108.309V338H109.087V316Z" fill="#00BDFF" fill-opacity="0.4"/>
<path d="M114.32 326.922H113.542V338H114.32V326.922Z" fill="#00BDFF" fill-opacity="0.4"/>
<path d="M119.56 326.922H118.782V338H119.56V326.922Z" fill="#00BDFF" fill-opacity="0.4"/>
<path d="M124.793 326.922H124.015V338H124.793V326.922Z" fill="#00BDFF" fill-opacity="0.4"/>
<path d="M130.026 326.922H129.248V338H130.026V326.922Z" fill="#00BDFF" fill-opacity="0.4"/>
<path d="M135.266 316H134.488V338H135.266V316Z" fill="#00BDFF" fill-opacity="0.4"/>
<path d="M140.499 326.922H139.721V338H140.499V326.922Z" fill="#00BDFF" fill-opacity="0.4"/>
<path d="M145.732 326.922H144.954V338H145.732V326.922Z" fill="#00BDFF" fill-opacity="0.4"/>
<path d="M150.965 326.922H150.187V338H150.965V326.922Z" fill="#00BDFF" fill-opacity="0.4"/>
<path d="M156.205 326.922H155.427V338H156.205V326.922Z" fill="#00BDFF" fill-opacity="0.4"/>
<path d="M161.438 316H160.66V338H161.438V316Z" fill="#00BDFF" fill-opacity="0.4"/>
<path d="M161.342 316H160.564V338H161.342V316Z" fill="#00BDFF" fill-opacity="0.4"/>
<path d="M166.575 326.922H165.797V338H166.575V326.922Z" fill="#00BDFF" fill-opacity="0.4"/>
<path d="M171.815 326.922H171.036V338H171.815V326.922Z" fill="#00BDFF" fill-opacity="0.4"/>
<path d="M177.048 326.922H176.27V338H177.048V326.922Z" fill="#00BDFF" fill-opacity="0.4"/>
<path d="M182.281 316H181.503V338H182.281V316Z" fill="#00BDFF" fill-opacity="0.4"/>
<path d="M187.514 326.922H186.736V338H187.514V326.922Z" fill="#00BDFF" fill-opacity="0.4"/>
<path d="M192.754 326.922H191.976V338H192.754V326.922Z" fill="#00BDFF" fill-opacity="0.4"/>
<path d="M197.987 326.922H197.209V338H197.987V326.922Z" fill="#00BDFF" fill-opacity="0.4"/>
<path d="M203.22 326.922H202.442V338H203.22V326.922Z" fill="#00BDFF" fill-opacity="0.4"/>
<path d="M208.453 316H207.675V338H208.453V316Z" fill="#00BDFF" fill-opacity="0.4"/>
<path d="M213.693 326.922H212.915V338H213.693V326.922Z" fill="#00BDFF" fill-opacity="0.4"/>
<path d="M218.926 326.922H218.148V338H218.926V326.922Z" fill="#00BDFF" fill-opacity="0.4"/>
<path d="M224.159 326.922H223.381V338H224.159V326.922Z" fill="#00BDFF" fill-opacity="0.4"/>
<path d="M229.399 326.922H228.621V338H229.399V326.922Z" fill="#00BDFF" fill-opacity="0.4"/>
<path d="M234.633 316H233.855V338H234.633V316Z" fill="#00BDFF" fill-opacity="0.4"/>
<path d="M239.866 326.922H239.088V338H239.866V326.922Z" fill="#00BDFF" fill-opacity="0.4"/>
<path d="M245.099 326.922H244.321V338H245.099V326.922Z" fill="#00BDFF" fill-opacity="0.4"/>
<path d="M250.339 326.922H249.561V338H250.339V326.922Z" fill="#00BDFF" fill-opacity="0.4"/>
<path d="M255.572 326.922H254.794V338H255.572V326.922Z" fill="#00BDFF" fill-opacity="0.4"/>
<path d="M260.805 316H260.027V338H260.805V316Z" fill="#00BDFF" fill-opacity="0.4"/>
<path d="M266.038 326.922H265.26V338H266.038V326.922Z" fill="#00BDFF" fill-opacity="0.4"/>
<path d="M271.278 326.922H270.5V338H271.278V326.922Z" fill="#00BDFF" fill-opacity="0.4"/>
<path d="M276.511 326.922H275.733V338H276.511V326.922Z" fill="#00BDFF" fill-opacity="0.4"/>
<path d="M281.744 326.922H280.966V338H281.744V326.922Z" fill="#00BDFF" fill-opacity="0.4"/>
<path d="M286.984 316H286.206V338H286.984V316Z" fill="#00BDFF" fill-opacity="0.4"/>
<path d="M292.217 326.922H291.439V338H292.217V326.922Z" fill="#00BDFF" fill-opacity="0.4"/>
<path d="M297.45 326.922H296.672V338H297.45V326.922Z" fill="#00BDFF" fill-opacity="0.4"/>
<path d="M302.683 326.922H301.905V338H302.683V326.922Z" fill="#00BDFF" fill-opacity="0.4"/>
</g>
</g>
<defs>
<clipPath id="clip0_849_40447">
<rect width="305" height="22" fill="white" transform="translate(1 316)"/>
</clipPath>
</defs>
</svg>
