<svg width="207" height="139" viewBox="0 0 207 139" fill="none" xmlns="http://www.w3.org/2000/svg">
<g clip-path="url(#clip0_51_3275)">
<path d="M96.8933 91.4966C97.2132 91.4966 97.5171 91.4679 97.789 91.3962L136 82.2051C136.896 81.9901 137.648 81.4595 138.112 80.7426C138.575 80.0113 138.703 79.1653 138.463 78.348C137.984 76.6991 135.984 75.681 134.193 76.1112L95.9976 85.3023C95.0859 85.5174 94.3341 86.0336 93.8703 86.7648C93.4064 87.4961 93.2785 88.3421 93.5184 89.1594C93.9183 90.5502 95.3098 91.5109 96.8933 91.5109V91.4966Z" fill="#6B0AEA"/>
<path d="M80.3783 23.9896C78.5221 23.5294 76.4151 24.5834 75.8967 26.2906L65.1274 62.0377C64.8765 62.8839 64.9936 63.7598 65.4953 64.5169C65.9802 65.274 66.7662 65.8084 67.7026 66.0311C68.0036 66.1053 68.3381 66.1498 68.6558 66.1498C68.9568 66.1498 69.2746 66.1202 69.5923 66.0459C70.8465 65.7342 71.8331 64.8583 72.1676 63.7449L82.9369 27.983C83.2044 27.1516 83.0706 26.2609 82.5857 25.5038C82.1007 24.7467 81.3148 24.2123 80.395 23.9896H80.3783Z" fill="#6B0AEA"/>
<path d="M143.242 98.0268C141.93 96.8603 139.659 96.8463 138.299 98.0268C137.643 98.617 137.276 99.404 137.292 100.219C137.292 101.048 137.659 101.821 138.299 102.397L166.195 127.258C166.851 127.834 167.731 128.143 168.659 128.143C168.963 128.143 169.267 128.115 169.554 128.045C170.146 127.905 170.706 127.623 171.122 127.244C171.778 126.654 172.146 125.881 172.146 125.066C172.146 124.237 171.778 123.464 171.122 122.859L143.226 98.0127L143.242 98.0268Z" fill="#6B0AEA"/>
<path d="M169.64 46.5291C167.917 46.0844 165.945 47.1029 165.479 48.7526L155.483 83.3104C155.25 84.1281 155.359 84.9745 155.809 85.7061C156.275 86.4377 157.004 86.9541 157.858 87.1693C158.153 87.241 158.448 87.2841 158.743 87.2841C159.022 87.2841 159.317 87.2554 159.612 87.1836C160.776 86.8967 161.707 86.036 162.018 84.9601L172.03 50.4167C172.263 49.599 172.139 48.7526 171.704 48.021C171.254 47.2894 170.524 46.773 169.671 46.5578L169.64 46.5291Z" fill="#6B0AEA"/>
<path d="M255.783 60.9298C254.831 57.6865 251.04 55.6252 247.345 56.4901L217.93 29.8658C218.269 28.7991 218.285 27.646 217.962 26.5504C217.139 23.826 214.396 21.9089 211.266 21.9089C210.653 21.9089 210.056 21.9809 209.475 22.1251C207.055 22.7017 205.231 24.3738 204.586 26.4784L164.07 36.194C162.36 34.666 159.778 34.0317 157.423 34.5939H157.374L127.895 7.8688C128.234 6.8021 128.234 5.64891 127.927 4.5678C126.975 1.31004 123.071 -0.736865 119.456 0.128025C117.052 0.704619 115.197 2.37674 114.551 4.48131L74.0355 14.1969C72.3252 12.6834 69.7436 12.0347 67.3878 12.6113C65.5968 13.0437 64.0962 14.0672 63.1765 15.5087C62.2407 16.9501 61.9986 18.6367 62.4827 20.2511C62.7731 21.2458 63.3217 22.1539 64.1124 22.9035L53.1404 59.4163C51.4623 59.8775 50.0424 60.8866 49.155 62.256C48.2191 63.6975 47.9771 65.384 48.4611 66.9985C49.3808 70.1265 52.9306 72.159 56.5126 71.5247L86.3952 98.5814C86.1693 99.5616 86.1854 100.542 86.4758 101.508C86.7663 102.488 87.331 103.41 88.0894 104.146L77.1335 140.73C75.4716 141.192 74.084 142.186 73.1965 143.556C72.2768 144.997 72.0186 146.684 72.5027 148.298C73.4224 151.426 77.0206 153.444 80.5542 152.824L110.308 179.78C110.082 180.732 110.114 181.712 110.388 182.678C111.195 185.402 113.938 187.319 117.084 187.319C117.681 187.319 118.295 187.247 118.875 187.103C121.151 186.555 122.958 184.984 123.684 182.995L164.506 173.207C166.2 174.605 168.604 175.182 170.944 174.634C172.735 174.202 174.236 173.178 175.171 171.722C176.091 170.281 176.349 168.594 175.881 166.994C175.559 165.942 174.962 164.991 174.123 164.212L185.03 127.815C185.208 127.757 185.401 127.714 185.563 127.642C187.563 126.979 189.096 125.523 189.742 123.706L230.564 113.919C232.258 115.331 234.727 115.894 237.002 115.346C238.793 114.928 240.293 113.89 241.213 112.434C242.149 110.993 242.391 109.306 241.923 107.692C241.617 106.654 241.003 105.702 240.164 104.924L251.072 68.512C252.782 68.0652 254.202 67.0417 255.122 65.6579C256.041 64.2164 256.3 62.5299 255.816 60.9154L255.783 60.9298ZM61.7566 67.2868C62.16 66.1624 62.1923 64.9516 61.8534 63.784C61.5307 62.6884 60.8853 61.6794 59.9979 60.901L70.8408 24.6909C70.8408 24.6909 70.9053 24.6765 70.9376 24.6621C73.3579 24.0855 75.1812 22.4134 75.8266 20.3088L116.342 10.5932C118.004 12.0635 120.505 12.7266 122.796 12.2221L152.485 39.1058C152.195 40.1148 152.211 41.1959 152.501 42.205C152.792 43.1996 153.373 44.1077 154.131 44.8573L143.175 81.4422C141.949 81.7881 140.852 82.4224 140.013 83.3017C139.319 84.008 138.835 84.8441 138.544 85.7378L98.0287 95.439C96.7379 94.3002 94.9791 93.6371 93.172 93.6371C92.575 93.6371 91.9618 93.7092 91.3971 93.8389C91.3164 93.8678 91.2358 93.8822 91.1551 93.8966L61.7566 67.2868ZM167.297 162.569C164.845 163.174 162.973 164.947 162.408 167.138L122.135 176.796C120.828 175.542 119.005 174.822 117.084 174.822C116.487 174.822 115.874 174.894 115.31 175.023C115.229 175.052 115.148 175.067 115.068 175.081L85.8143 148.586C86.2177 147.462 86.25 146.251 85.9111 145.098C85.5884 143.974 84.9107 142.965 83.991 142.186L94.8339 105.976C94.8339 105.976 94.9146 105.976 94.9469 105.947C97.3026 105.385 99.1259 103.771 99.8036 101.695L140.448 91.9506C142.062 93.3488 144.434 93.9686 146.596 93.5506L176.269 120.42C176.027 121.4 176.043 122.424 176.333 123.418C176.656 124.485 177.285 125.465 178.173 126.258L167.281 162.569H167.297ZM233.339 103.295C230.903 103.9 229.031 105.674 228.466 107.865L188.193 117.523C186.886 116.268 185.062 115.533 183.142 115.533C182.529 115.533 181.932 115.605 181.367 115.749C181.351 115.749 181.319 115.749 181.303 115.749L151.921 89.1253C152.275 88.0442 152.292 86.891 151.953 85.7954C151.63 84.6999 150.985 83.7053 150.097 82.9269L160.956 46.6591C160.956 46.6591 160.989 46.6591 161.005 46.6591C163.425 46.0825 165.264 44.4248 165.91 42.3059L206.425 32.6047C208.087 34.075 210.492 34.7381 212.863 34.2335L242.391 60.9731C242.101 62.0109 242.101 63.1065 242.391 64.1443C242.714 65.2255 243.343 66.2057 244.214 66.9841L233.339 103.295V103.295Z" fill="#6B0AEA"/>
</g>
<defs>
<clipPath id="clip0_51_3275">
<rect width="206.185" height="137.799" fill="white" transform="translate(0.815186 0.207214)"/>
</clipPath>
</defs>
</svg>
