<svg width="179" height="161" viewBox="0 0 179 161" fill="none" xmlns="http://www.w3.org/2000/svg">
<path opacity="0.77" d="M114.528 12.3387L108.132 22.6229C108.021 22.7995 108.158 23.0221 108.383 23.0221H121.172C121.392 23.0221 121.533 22.7995 121.423 22.6229L115.026 12.3387C114.916 12.162 114.638 12.162 114.528 12.3387Z" fill="url(#paint0_linear_516_30248)" stroke="#6B0AEA" stroke-miterlimit="10"/>
<path d="M114.257 19.4021L113.833 16.3508C113.818 16.2228 113.862 16.1021 113.963 15.9888C114.072 15.8706 114.239 15.8115 114.464 15.8115C114.696 15.8115 114.859 15.8706 114.954 15.9888C115.055 16.1021 115.099 16.2228 115.084 16.3508L114.66 19.4021H114.257ZM114.453 21.2195C114.286 21.2195 114.138 21.1752 114.007 21.0865C113.884 20.9929 113.822 20.8796 113.822 20.7467C113.822 20.6137 113.887 20.5004 114.018 20.4068C114.148 20.3132 114.297 20.2664 114.464 20.2664C114.645 20.2664 114.794 20.3132 114.91 20.4068C115.034 20.5004 115.095 20.6137 115.095 20.7467C115.095 20.8796 115.03 20.9929 114.899 21.0865C114.769 21.1752 114.62 21.2195 114.453 21.2195Z" fill="#6B0AEA"/>
<path opacity="0.77" d="M25.528 4.33866L19.1317 14.6229C19.0213 14.7995 19.1583 15.0221 19.3828 15.0221H32.1716C32.3923 15.0221 32.5331 14.7995 32.4227 14.6229L26.0265 4.33866C25.9161 4.16202 25.6383 4.16202 25.528 4.33866Z" fill="url(#paint1_linear_516_30248)" stroke="#6B0AEA" stroke-miterlimit="10"/>
<path d="M25.2573 11.4021L24.8329 8.35084C24.8184 8.22279 24.8619 8.10212 24.9635 7.98883C25.0723 7.87063 25.2392 7.81152 25.4641 7.81152C25.6962 7.81152 25.8594 7.87063 25.9537 7.98883C26.0553 8.10212 26.0988 8.22279 26.0843 8.35084L25.6599 11.4021H25.2573ZM25.4532 13.2195C25.2863 13.2195 25.1376 13.1752 25.007 13.0865C24.8837 12.9929 24.822 12.8796 24.822 12.7467C24.822 12.6137 24.8873 12.5004 25.0179 12.4068C25.1485 12.3132 25.2972 12.2664 25.4641 12.2664C25.6454 12.2664 25.7941 12.3132 25.9102 12.4068C26.0335 12.5004 26.0952 12.6137 26.0952 12.7467C26.0952 12.8796 26.0299 12.9929 25.8993 13.0865C25.7687 13.1752 25.62 13.2195 25.4532 13.2195Z" fill="#6B0AEA"/>
<g clip-path="url(#clip0_516_30248)">
<g filter="url(#filter0_f_516_30248)">
<path d="M45.661 169.37L12.1612 114.455C11.7505 113.785 10.7164 113.785 10.3057 114.455L-23.1941 169.37C-23.6049 170.04 -23.0949 170.885 -22.2592 170.885H44.7403C45.5618 170.885 46.0859 170.04 45.6752 169.37H45.661ZM8.74752 139.244C9.10165 138.708 9.63991 138.453 10.3623 138.453C11.1414 138.453 11.6938 138.722 12.0054 139.244C12.3171 139.781 12.4445 140.33 12.3879 140.907L11.3255 152.035H9.38494L8.29425 140.907C8.23759 140.33 8.37924 139.781 8.73336 139.244H8.74752ZM11.793 157.612C11.3822 158.027 10.8864 158.229 10.334 158.229C9.78156 158.229 9.29995 158.027 8.88918 157.612C8.4784 157.196 8.28009 156.7 8.28009 156.124C8.28009 155.547 8.49256 155.051 8.90334 154.636C9.31412 154.22 9.80989 154.019 10.3623 154.019C10.9572 154.019 11.4388 154.22 11.8355 154.636C12.2321 155.051 12.4162 155.547 12.4162 156.124C12.4162 156.7 12.2037 157.196 11.793 157.612Z" fill="#6B0AEA"/>
</g>
</g>
<path d="M62.9735 134.704L57.1603 124.097C57.0891 123.968 56.9096 123.968 56.8383 124.097L51.0251 134.704C50.9539 134.833 51.0423 134.996 51.1874 134.996H62.8138C62.9563 134.996 63.0473 134.833 62.976 134.704H62.9735ZM56.568 128.885C56.6294 128.781 56.7228 128.732 56.8482 128.732C56.9834 128.732 57.0792 128.784 57.1333 128.885C57.1874 128.989 57.2095 129.095 57.1997 129.206L57.0153 131.355H56.6786L56.4893 129.206C56.4795 129.095 56.504 128.989 56.5655 128.885H56.568ZM57.0964 132.433C57.0251 132.513 56.9391 132.552 56.8433 132.552C56.7474 132.552 56.6638 132.513 56.5925 132.433C56.5213 132.352 56.4868 132.256 56.4868 132.145C56.4868 132.034 56.5237 131.938 56.595 131.858C56.6663 131.777 56.7523 131.739 56.8482 131.739C56.9514 131.739 57.035 131.777 57.1038 131.858C57.1726 131.938 57.2046 132.034 57.2046 132.145C57.2046 132.256 57.1677 132.352 57.0964 132.433Z" fill="#6B0AEA"/>
<path opacity="0.77" d="M18.6736 84.1813L10.0525 98.2545C9.90373 98.4962 10.0884 98.8008 10.3909 98.8008H27.628C27.9255 98.8008 28.1152 98.4962 27.9665 98.2545L19.3454 84.1813C19.1967 83.9396 18.8223 83.9396 18.6736 84.1813Z" fill="url(#paint2_linear_516_30248)" stroke="#6B0AEA" stroke-miterlimit="10"/>
<path d="M18.3088 93.847L17.7368 89.6716C17.7173 89.4964 17.7759 89.3312 17.9128 89.1762C18.0595 89.0145 18.2844 88.9336 18.5875 88.9336C18.9004 88.9336 19.1204 89.0145 19.2475 89.1762C19.3844 89.3312 19.4431 89.4964 19.4235 89.6716L18.8515 93.847H18.3088ZM18.5728 96.334C18.348 96.334 18.1475 96.2733 17.9715 96.152C17.8053 96.0239 17.7222 95.8689 17.7222 95.6869C17.7222 95.505 17.8102 95.35 17.9862 95.2219C18.1622 95.0938 18.3626 95.0298 18.5875 95.0298C18.832 95.0298 19.0324 95.0938 19.1889 95.2219C19.3551 95.35 19.4382 95.505 19.4382 95.6869C19.4382 95.8689 19.3502 96.0239 19.1742 96.152C18.9982 96.2733 18.7977 96.334 18.5728 96.334Z" fill="#6B0AEA"/>
<g clip-path="url(#clip1_516_30248)">
<g opacity="0.77" filter="url(#filter1_f_516_30248)">
<path d="M158.472 96.5488L128.085 147.782C127.56 148.662 128.211 149.771 129.278 149.771H190.034C191.083 149.771 191.751 148.662 191.227 147.782L160.84 96.5488C160.316 95.6688 158.996 95.6688 158.472 96.5488Z" fill="url(#paint3_linear_516_30248)"/>
<path d="M158.472 96.5488L128.085 147.782C127.56 148.662 128.211 149.771 129.278 149.771H190.034C191.083 149.771 191.751 148.662 191.227 147.782L160.84 96.5488C160.316 95.6688 158.996 95.6688 158.472 96.5488Z" stroke="#C927E0" stroke-miterlimit="10"/>
</g>
<g filter="url(#filter2_f_516_30248)">
<path d="M159.189 132.815L158.409 124.555C158.383 124.208 158.463 123.882 158.649 123.575C158.849 123.255 159.156 123.095 159.569 123.095C159.996 123.095 160.296 123.255 160.469 123.575C160.656 123.882 160.736 124.208 160.709 124.555L159.929 132.815H159.189ZM159.549 137.735C159.243 137.735 158.969 137.615 158.729 137.375C158.503 137.122 158.389 136.815 158.389 136.455C158.389 136.095 158.509 135.788 158.749 135.535C158.989 135.282 159.263 135.155 159.569 135.155C159.903 135.155 160.176 135.282 160.389 135.535C160.616 135.788 160.729 136.095 160.729 136.455C160.729 136.815 160.609 137.122 160.369 137.375C160.129 137.615 159.856 137.735 159.549 137.735Z" fill="#9F23B5"/>
</g>
</g>
<path d="M134.927 123.272L118.941 97.2383C118.745 96.9206 118.251 96.9206 118.055 97.2383L102.069 123.272C101.873 123.59 102.116 123.99 102.515 123.99H134.488C134.88 123.99 135.13 123.59 134.934 123.272H134.927ZM117.312 108.99C117.481 108.736 117.738 108.615 118.082 108.615C118.454 108.615 118.718 108.743 118.867 108.99C119.015 109.245 119.076 109.505 119.049 109.779L118.542 115.054H117.616L117.096 109.779C117.069 109.505 117.136 109.245 117.305 108.99H117.312ZM118.765 117.698C118.569 117.895 118.333 117.99 118.069 117.99C117.805 117.99 117.575 117.895 117.379 117.698C117.183 117.501 117.089 117.266 117.089 116.993C117.089 116.719 117.19 116.484 117.386 116.287C117.582 116.09 117.819 115.995 118.082 115.995C118.366 115.995 118.596 116.09 118.785 116.287C118.975 116.484 119.063 116.719 119.063 116.993C119.063 117.266 118.961 117.501 118.765 117.698Z" fill="#6B0AEA"/>
<g filter="url(#filter3_f_516_30248)">
<path opacity="0.77" d="M144.022 35.197L139.016 42.7748C138.93 42.905 139.037 43.069 139.213 43.069H149.221C149.394 43.069 149.504 42.905 149.418 42.7748L144.412 35.197C144.326 35.0668 144.108 35.0668 144.022 35.197Z" fill="url(#paint4_linear_516_30248)" stroke="#6B0AEA" stroke-miterlimit="10"/>
<path d="M143.81 40.4015L143.478 38.1533C143.467 38.0589 143.501 37.97 143.58 37.8865C143.665 37.7994 143.796 37.7559 143.972 37.7559C144.153 37.7559 144.281 37.7994 144.355 37.8865C144.435 37.97 144.469 38.0589 144.457 38.1533L144.125 40.4015H143.81ZM143.963 41.7407C143.833 41.7407 143.716 41.708 143.614 41.6427C143.518 41.5737 143.469 41.4903 143.469 41.3923C143.469 41.2943 143.52 41.2108 143.623 41.1419C143.725 41.0729 143.841 41.0384 143.972 41.0384C144.114 41.0384 144.23 41.0729 144.321 41.1419C144.418 41.2108 144.466 41.2943 144.466 41.3923C144.466 41.4903 144.415 41.5737 144.312 41.6427C144.21 41.708 144.094 41.7407 143.963 41.7407Z" fill="#6B0AEA"/>
</g>
<g opacity="0.8" clip-path="url(#clip2_516_30248)" filter="url(#filter4_f_516_30248)">
<path d="M86.9706 46.6781L80.673 35.1075C80.5957 34.9663 80.4014 34.9663 80.3241 35.1075L74.0265 46.6781C73.9493 46.8194 74.0451 46.9973 74.2023 46.9973H86.7975C86.9519 46.9973 87.0505 46.8194 86.9733 46.6781H86.9706ZM80.0312 40.3307C80.0978 40.2177 80.199 40.164 80.3348 40.164C80.4812 40.164 80.5851 40.2205 80.6437 40.3307C80.7023 40.4437 80.7262 40.5595 80.7156 40.681L80.5159 43.0256H80.151L79.946 40.681C79.9354 40.5595 79.962 40.4437 80.0286 40.3307H80.0312ZM80.6037 44.2007C80.5265 44.2883 80.4333 44.3307 80.3295 44.3307C80.2256 44.3307 80.1351 44.2883 80.0578 44.2007C79.9806 44.1132 79.9433 44.0086 79.9433 43.8872C79.9433 43.7657 79.9833 43.6612 80.0605 43.5736C80.1377 43.4861 80.2309 43.4437 80.3348 43.4437C80.4466 43.4437 80.5372 43.4861 80.6117 43.5736C80.6863 43.6612 80.7209 43.7657 80.7209 43.8872C80.7209 44.0086 80.681 44.1132 80.6037 44.2007Z" fill="#6B0AEA"/>
</g>
<defs>
<filter id="filter0_f_516_30248" x="-34.339" y="102.952" width="91.1572" height="78.9323" filterUnits="userSpaceOnUse" color-interpolation-filters="sRGB">
<feFlood flood-opacity="0" result="BackgroundImageFix"/>
<feBlend mode="normal" in="SourceGraphic" in2="BackgroundImageFix" result="shape"/>
<feGaussianBlur stdDeviation="5.5" result="effect1_foregroundBlur_516_30248"/>
</filter>
<filter id="filter1_f_516_30248" x="123.397" y="91.3888" width="72.5164" height="62.8824" filterUnits="userSpaceOnUse" color-interpolation-filters="sRGB">
<feFlood flood-opacity="0" result="BackgroundImageFix"/>
<feBlend mode="normal" in="SourceGraphic" in2="BackgroundImageFix" result="shape"/>
<feGaussianBlur stdDeviation="2" result="effect1_foregroundBlur_516_30248"/>
</filter>
<filter id="filter2_f_516_30248" x="154.369" y="119.095" width="10.38" height="22.6399" filterUnits="userSpaceOnUse" color-interpolation-filters="sRGB">
<feFlood flood-opacity="0" result="BackgroundImageFix"/>
<feBlend mode="normal" in="SourceGraphic" in2="BackgroundImageFix" result="shape"/>
<feGaussianBlur stdDeviation="2" result="effect1_foregroundBlur_516_30248"/>
</filter>
<filter id="filter3_f_516_30248" x="134" y="31" width="20" height="16" filterUnits="userSpaceOnUse" color-interpolation-filters="sRGB">
<feFlood flood-opacity="0" result="BackgroundImageFix"/>
<feBlend mode="normal" in="SourceGraphic" in2="BackgroundImageFix" result="shape"/>
<feGaussianBlur stdDeviation="0.5" result="effect1_foregroundBlur_516_30248"/>
</filter>
<filter id="filter4_f_516_30248" x="72" y="33" width="17" height="16" filterUnits="userSpaceOnUse" color-interpolation-filters="sRGB">
<feFlood flood-opacity="0" result="BackgroundImageFix"/>
<feBlend mode="normal" in="SourceGraphic" in2="BackgroundImageFix" result="shape"/>
<feGaussianBlur stdDeviation="1" result="effect1_foregroundBlur_516_30248"/>
</filter>
<linearGradient id="paint0_linear_516_30248" x1="109.452" y1="17.6133" x2="121.221" y2="17.6133" gradientUnits="userSpaceOnUse">
<stop stop-color="#2D2E46"/>
<stop offset="0.4" stop-color="#1A1B2F"/>
<stop offset="1"/>
</linearGradient>
<linearGradient id="paint1_linear_516_30248" x1="20.452" y1="9.61326" x2="32.2211" y2="9.61326" gradientUnits="userSpaceOnUse">
<stop stop-color="#2D2E46"/>
<stop offset="0.4" stop-color="#1A1B2F"/>
<stop offset="1"/>
</linearGradient>
<linearGradient id="paint2_linear_516_30248" x1="11.8321" y1="91.3992" x2="27.6947" y2="91.3992" gradientUnits="userSpaceOnUse">
<stop stop-color="#2D2E46"/>
<stop offset="0.4" stop-color="#1A1B2F"/>
<stop offset="1"/>
</linearGradient>
<linearGradient id="paint3_linear_516_30248" x1="134.357" y1="122.826" x2="190.269" y2="122.826" gradientUnits="userSpaceOnUse">
<stop stop-color="#2D2E46"/>
<stop offset="0.4" stop-color="#1A1B2F"/>
<stop offset="1"/>
</linearGradient>
<linearGradient id="paint4_linear_516_30248" x1="140.049" y1="39.0835" x2="149.26" y2="39.0835" gradientUnits="userSpaceOnUse">
<stop stop-color="#2D2E46"/>
<stop offset="0.4" stop-color="#1A1B2F"/>
<stop offset="1"/>
</linearGradient>
<clipPath id="clip0_516_30248">
<rect width="51" height="52" fill="white" transform="translate(0 109)"/>
</clipPath>
<clipPath id="clip1_516_30248">
<rect width="52" height="65" fill="white" transform="translate(127 95)"/>
</clipPath>
<clipPath id="clip2_516_30248">
<rect width="13" height="12" fill="white" transform="translate(74 35)"/>
</clipPath>
</defs>
</svg>
