<svg width="308" height="87" viewBox="0 0 308 87" fill="none" xmlns="http://www.w3.org/2000/svg">
<g clip-path="url(#clip0_51_3130)">
<g filter="url(#filter0_df_51_3130)">
<path d="M398.15 81.663C398.187 81.663 398.224 81.6588 398.26 81.6506C409.496 81.6582 419.645 83.3381 426.972 86.0353C430.646 87.3877 433.584 88.9863 435.594 90.7365C437.606 92.4876 438.641 94.3458 438.641 96.2309C438.641 98.1161 437.606 99.9742 435.594 101.725C433.584 103.476 430.646 105.074 426.972 106.427C419.628 109.13 409.45 110.811 398.183 110.811C386.917 110.811 376.738 109.13 369.394 106.427C365.721 105.074 362.782 103.476 360.772 101.725C358.76 99.9742 357.725 98.1161 357.725 96.2309C357.725 94.743 358.394 93.2712 359.656 91.845C359.774 91.7117 359.812 91.5257 359.756 91.3567C359.7 91.1877 359.559 91.0611 359.384 91.0244L243.521 66.6087C243.422 66.5877 243.319 66.5975 243.225 66.6366C235.786 69.7487 224.866 71.7237 212.64 71.7237C210.996 71.7237 209.386 71.6868 207.775 71.6128C207.626 71.606 207.481 71.6663 207.381 71.7773L173.873 108.896C173.753 109.029 173.713 109.215 173.768 109.385C173.824 109.555 173.965 109.683 174.14 109.72C180.243 111.02 185.314 112.876 188.846 115.078C192.399 117.294 194.274 119.779 194.274 122.306C194.274 124.191 193.238 126.049 191.227 127.8C189.216 129.55 186.278 131.149 182.604 132.501C175.261 135.205 165.082 136.886 153.816 136.886C142.549 136.886 132.37 135.205 125.027 132.501C121.353 131.149 118.415 129.55 116.404 127.8C114.393 126.049 113.357 124.191 113.357 122.306C113.357 120.421 114.393 118.563 116.404 116.811C118.415 115.061 121.353 113.463 125.027 112.11C132.37 109.407 142.549 107.725 153.816 107.725C155.46 107.725 157.07 107.762 158.681 107.836C158.83 107.843 158.975 107.783 159.075 107.672L192.583 70.553C192.703 70.4203 192.743 70.2337 192.687 70.0636C192.632 69.8936 192.49 69.7659 192.315 69.7288C186.213 68.4357 181.142 66.5823 177.61 64.3815C174.057 62.1676 172.182 59.683 172.182 57.1558C172.182 55.3513 173.126 53.5689 174.985 51.88C175.122 51.7556 175.179 51.5659 175.133 51.3867C175.088 51.2074 174.947 51.068 174.767 51.0242L70.8713 25.6798C70.7748 25.6563 70.6736 25.662 70.5804 25.6962C63.2322 28.3951 53.0789 30.0733 41.8291 30.0733C30.5624 30.0733 20.384 28.3919 13.0403 25.6886C9.36648 24.3362 6.4284 22.7376 4.41798 20.9874C2.40641 19.2362 1.37085 17.3781 1.37085 15.4929C1.37085 13.6078 2.40641 11.7496 4.41798 9.99845C6.4284 8.24827 9.36648 6.64967 13.0403 5.29727C20.384 2.59393 30.5624 0.912598 41.8291 0.912598C53.0959 0.912598 63.2743 2.59393 70.618 5.29727C74.2918 6.64967 77.2299 8.24827 79.2403 9.99845C81.2519 11.7496 82.2874 13.6078 82.2874 15.4929C82.2874 17.2933 81.3143 19.0758 79.451 20.7687C79.3141 20.8931 79.257 21.0828 79.3027 21.2621C79.3483 21.4413 79.4891 21.5807 79.6688 21.6245L183.598 46.9689C183.695 46.9924 183.796 46.9867 183.889 46.9525C191.237 44.2538 201.626 42.5754 212.64 42.5754C223.655 42.5754 233.608 44.1795 240.925 46.7809C241.018 46.8141 241.119 46.8188 241.215 46.7946L288.376 34.8839C288.556 34.8382 288.697 34.6958 288.74 34.5145C288.783 34.3331 288.721 34.1428 288.58 34.0209C286.552 32.2671 285.517 30.4 285.517 28.518C285.517 26.6328 286.552 24.7747 288.564 23.0235C290.574 21.2733 293.513 19.6747 297.186 18.3223C304.53 15.619 314.709 13.9377 325.975 13.9377C337.242 13.9377 347.42 15.6221 354.764 18.3269C358.438 19.6801 361.376 21.2791 363.386 23.0288C365.398 24.7795 366.434 26.6361 366.434 28.518C366.434 30.3999 365.398 32.2564 363.386 34.0072C361.376 35.7569 358.438 37.3559 354.764 38.709C347.42 41.4139 337.242 43.0983 325.975 43.0983C314.961 43.0983 305.008 41.4943 297.691 38.8928C297.598 38.8597 297.497 38.855 297.401 38.8792L250.24 50.7899C250.059 50.8356 249.919 50.9779 249.876 51.1593C249.833 51.3407 249.894 51.5309 250.035 51.6529C252.063 53.4067 253.099 55.2738 253.099 57.1558C253.099 58.6437 252.43 60.1155 251.168 61.5417C251.05 61.675 251.012 61.861 251.068 62.03C251.124 62.199 251.265 62.3256 251.439 62.3623L367.302 86.7781C367.402 86.799 367.505 86.7892 367.599 86.7498C375.004 83.6381 385.923 81.663 398.15 81.663Z" stroke="url(#paint0_linear_51_3130)" stroke-linejoin="round" shape-rendering="crispEdges"/>
</g>
<g filter="url(#filter1_df_51_3130)">
<path d="M398.15 81.663C398.187 81.663 398.224 81.6588 398.26 81.6506C409.496 81.6582 419.645 83.3381 426.972 86.0353C430.646 87.3877 433.584 88.9863 435.594 90.7365C437.606 92.4876 438.641 94.3458 438.641 96.2309C438.641 98.1161 437.606 99.9742 435.594 101.725C433.584 103.476 430.646 105.074 426.972 106.427C419.628 109.13 409.45 110.811 398.183 110.811C386.917 110.811 376.738 109.13 369.394 106.427C365.721 105.074 362.782 103.476 360.772 101.725C358.76 99.9742 357.725 98.1161 357.725 96.2309C357.725 94.743 358.394 93.2712 359.656 91.845C359.774 91.7117 359.812 91.5257 359.756 91.3567C359.7 91.1877 359.559 91.0611 359.384 91.0244L243.521 66.6087C243.422 66.5877 243.319 66.5975 243.225 66.6366C235.786 69.7487 224.866 71.7237 212.64 71.7237C210.996 71.7237 209.386 71.6868 207.775 71.6128C207.626 71.606 207.481 71.6663 207.381 71.7773L173.873 108.896C173.753 109.029 173.713 109.215 173.768 109.385C173.824 109.555 173.965 109.683 174.14 109.72C180.243 111.02 185.314 112.876 188.846 115.078C192.399 117.294 194.274 119.779 194.274 122.306C194.274 124.191 193.238 126.049 191.227 127.8C189.216 129.55 186.278 131.149 182.604 132.501C175.261 135.205 165.082 136.886 153.816 136.886C142.549 136.886 132.37 135.205 125.027 132.501C121.353 131.149 118.415 129.55 116.404 127.8C114.393 126.049 113.357 124.191 113.357 122.306C113.357 120.421 114.393 118.563 116.404 116.811C118.415 115.061 121.353 113.463 125.027 112.11C132.37 109.407 142.549 107.725 153.816 107.725C155.46 107.725 157.07 107.762 158.681 107.836C158.83 107.843 158.975 107.783 159.075 107.672L192.583 70.553C192.703 70.4203 192.743 70.2337 192.687 70.0636C192.632 69.8936 192.49 69.7659 192.315 69.7288C186.213 68.4357 181.142 66.5823 177.61 64.3815C174.057 62.1676 172.182 59.683 172.182 57.1558C172.182 55.3513 173.126 53.5689 174.985 51.88C175.122 51.7556 175.179 51.5659 175.133 51.3867C175.088 51.2074 174.947 51.068 174.767 51.0242L70.8713 25.6798C70.7748 25.6563 70.6736 25.662 70.5804 25.6962C63.2322 28.3951 53.0789 30.0733 41.8291 30.0733C30.5624 30.0733 20.384 28.3919 13.0403 25.6886C9.36648 24.3362 6.4284 22.7376 4.41798 20.9874C2.40641 19.2362 1.37085 17.3781 1.37085 15.4929C1.37085 13.6078 2.40641 11.7496 4.41798 9.99845C6.4284 8.24827 9.36648 6.64967 13.0403 5.29727C20.384 2.59393 30.5624 0.912598 41.8291 0.912598C53.0959 0.912598 63.2743 2.59393 70.618 5.29727C74.2918 6.64967 77.2299 8.24827 79.2403 9.99845C81.2519 11.7496 82.2874 13.6078 82.2874 15.4929C82.2874 17.2933 81.3143 19.0758 79.451 20.7687C79.3141 20.8931 79.257 21.0828 79.3027 21.2621C79.3483 21.4413 79.4891 21.5807 79.6688 21.6245L183.598 46.9689C183.695 46.9924 183.796 46.9867 183.889 46.9525C191.237 44.2538 201.626 42.5754 212.64 42.5754C223.655 42.5754 233.608 44.1795 240.925 46.7809C241.018 46.8141 241.119 46.8188 241.215 46.7946L288.376 34.8839C288.556 34.8382 288.697 34.6958 288.74 34.5145C288.783 34.3331 288.721 34.1428 288.58 34.0209C286.552 32.2671 285.517 30.4 285.517 28.518C285.517 26.6328 286.552 24.7747 288.564 23.0235C290.574 21.2733 293.513 19.6747 297.186 18.3223C304.53 15.619 314.709 13.9377 325.975 13.9377C337.242 13.9377 347.42 15.6221 354.764 18.3269C358.438 19.6801 361.376 21.2791 363.386 23.0288C365.398 24.7795 366.434 26.6361 366.434 28.518C366.434 30.3999 365.398 32.2564 363.386 34.0072C361.376 35.7569 358.438 37.3559 354.764 38.709C347.42 41.4139 337.242 43.0983 325.975 43.0983C314.961 43.0983 305.008 41.4943 297.691 38.8928C297.598 38.8597 297.497 38.855 297.401 38.8792L250.24 50.7899C250.059 50.8356 249.919 50.9779 249.876 51.1593C249.833 51.3407 249.894 51.5309 250.035 51.6529C252.063 53.4067 253.099 55.2738 253.099 57.1558C253.099 58.6437 252.43 60.1155 251.168 61.5417C251.05 61.675 251.012 61.861 251.068 62.03C251.124 62.199 251.265 62.3256 251.439 62.3623L367.302 86.7781C367.402 86.799 367.505 86.7892 367.599 86.7498C375.004 83.6381 385.923 81.663 398.15 81.663Z" stroke="url(#paint1_linear_51_3130)" stroke-linejoin="round" shape-rendering="crispEdges"/>
</g>
</g>
<defs>
<filter id="filter0_df_51_3130" x="-9.12915" y="-9.5874" width="458.271" height="156.974" filterUnits="userSpaceOnUse" color-interpolation-filters="sRGB">
<feFlood flood-opacity="0" result="BackgroundImageFix"/>
<feColorMatrix in="SourceAlpha" type="matrix" values="0 0 0 0 0 0 0 0 0 0 0 0 0 0 0 0 0 0 127 0" result="hardAlpha"/>
<feOffset/>
<feGaussianBlur stdDeviation="5"/>
<feComposite in2="hardAlpha" operator="out"/>
<feColorMatrix type="matrix" values="0 0 0 0 0.98575 0 0 0 0 0.2875 0 0 0 0 1 0 0 0 0.4 0"/>
<feBlend mode="normal" in2="BackgroundImageFix" result="effect1_dropShadow_51_3130"/>
<feBlend mode="normal" in="SourceGraphic" in2="effect1_dropShadow_51_3130" result="shape"/>
<feGaussianBlur stdDeviation="0.5" result="effect2_foregroundBlur_51_3130"/>
</filter>
<filter id="filter1_df_51_3130" x="-18.1292" y="-18.5874" width="476.271" height="174.974" filterUnits="userSpaceOnUse" color-interpolation-filters="sRGB">
<feFlood flood-opacity="0" result="BackgroundImageFix"/>
<feColorMatrix in="SourceAlpha" type="matrix" values="0 0 0 0 0 0 0 0 0 0 0 0 0 0 0 0 0 0 127 0" result="hardAlpha"/>
<feOffset/>
<feGaussianBlur stdDeviation="5"/>
<feComposite in2="hardAlpha" operator="out"/>
<feColorMatrix type="matrix" values="0 0 0 0 0.98575 0 0 0 0 0.2875 0 0 0 0 1 0 0 0 0.4 0"/>
<feBlend mode="normal" in2="BackgroundImageFix" result="effect1_dropShadow_51_3130"/>
<feBlend mode="normal" in="SourceGraphic" in2="effect1_dropShadow_51_3130" result="shape"/>
<feGaussianBlur stdDeviation="9.5" result="effect2_foregroundBlur_51_3130"/>
</filter>
<linearGradient id="paint0_linear_51_3130" x1="12.8891" y1="0.352752" x2="34.1478" y2="168.606" gradientUnits="userSpaceOnUse">
<stop stop-color="#6B0AEA"/>
<stop offset="0.515625" stop-color="#6B0AEA"/>
<stop offset="1" stop-color="#FB49FF"/>
</linearGradient>
<linearGradient id="paint1_linear_51_3130" x1="12.8891" y1="0.352752" x2="34.1478" y2="168.606" gradientUnits="userSpaceOnUse">
<stop stop-color="#6B0AEA"/>
<stop offset="0.515625" stop-color="#6B0AEA"/>
<stop offset="1" stop-color="#FB49FF"/>
</linearGradient>
<clipPath id="clip0_51_3130">
<rect width="306.789" height="85.9315" fill="white" transform="translate(0.87085 0.412598)"/>
</clipPath>
</defs>
</svg>
