<svg width="52" height="52" viewBox="0 0 52 52" fill="none" xmlns="http://www.w3.org/2000/svg">
<path d="M13 4.97059V3C13 1.89543 13.8954 1 15 1H45C46.1046 1 47 1.89543 47 3V44C47 45.1046 46.1046 46 45 46H39.5" stroke="#6B0AEA" stroke-width="2" stroke-linecap="round" stroke-linejoin="round"/>
<path d="M10 17H32" stroke="#6B0AEA" stroke-width="3" stroke-linecap="round" stroke-linejoin="round"/>
<path d="M10 23H21" stroke="#6B0AEA" stroke-width="3" stroke-linecap="round" stroke-linejoin="round"/>
<path d="M10 28H32" stroke="#6B0AEA" stroke-width="3" stroke-linecap="round" stroke-linejoin="round"/>
<path d="M4.5 7V49H7.5V7H4.5ZM7 51.5H38V48.5H7V51.5ZM40.5 49V22.28H37.5V49H40.5ZM40.5 22.28V7H37.5V22.28H40.5ZM38 4.5H7V7.5H38V4.5ZM40.5 7C40.5 5.61929 39.3807 4.5 38 4.5V7.5C37.7239 7.5 37.5 7.27614 37.5 7H40.5ZM38 51.5C39.3807 51.5 40.5 50.3807 40.5 49H37.5C37.5 48.7239 37.7239 48.5 38 48.5V51.5ZM4.5 49C4.5 50.3807 5.61929 51.5 7 51.5V48.5C7.27614 48.5 7.5 48.7239 7.5 49H4.5ZM7.5 7C7.5 7.27614 7.27614 7.5 7 7.5V4.5C5.61929 4.5 4.5 5.61929 4.5 7H7.5Z" fill="#6B0AEA"/>
</svg>
