<svg width="42" height="54" viewBox="0 0 42 54" fill="none" xmlns="http://www.w3.org/2000/svg">
<path d="M8 15H30" stroke="#6B0AEA" stroke-width="3" stroke-linecap="round" stroke-linejoin="round"/>
<path d="M8 21H19" stroke="#6B0AEA" stroke-width="3" stroke-linecap="round" stroke-linejoin="round"/>
<path d="M8 27H32" stroke="#6B0AEA" stroke-width="3" stroke-linecap="round" stroke-linejoin="round"/>
<path d="M0.5 3V51H3.5V3H0.5ZM3 53.5H39V50.5H3V53.5ZM41.5 51V20.5H38.5V51H41.5ZM41.5 20.5V3H38.5V20.5H41.5ZM39 0.5H3V3.5H39V0.5ZM41.5 3C41.5 1.61929 40.3807 0.5 39 0.5V3.5C38.7239 3.5 38.5 3.27614 38.5 3H41.5ZM39 53.5C40.3807 53.5 41.5 52.3807 41.5 51H38.5C38.5 50.7239 38.7239 50.5 39 50.5V53.5ZM0.5 51C0.5 52.3807 1.61929 53.5 3 53.5V50.5C3.27614 50.5 3.5 50.7239 3.5 51H0.5ZM3.5 3C3.5 3.27614 3.27614 3.5 3 3.5V0.5C1.61929 0.5 0.5 1.61929 0.5 3H3.5Z" fill="#6B0AEA"/>
</svg>
