<svg width="52" height="52" viewBox="0 0 52 52" fill="none" xmlns="http://www.w3.org/2000/svg">
<g clip-path="url(#clip0_581_93082)">
<path d="M24.7259 49.0645C13.7947 49.0645 4.93555 40.2054 4.93555 29.2742C4.93555 18.3431 13.7947 9.48389 24.7259 9.48389C35.657 9.48389 44.5162 18.3431 44.5162 29.2742C44.5162 40.2054 35.657 49.0645 24.7259 49.0645Z" stroke="#6B0AEA" stroke-width="3"/>
<path d="M24.7256 20.1497V29.781L31.3154 36.3709" stroke="#6B0AEA" stroke-width="3" stroke-linecap="round"/>
<path d="M48.8558 22.5459C49.4238 22.4201 49.7845 21.8567 49.6338 21.2948C48.4988 17.0629 46.2223 13.2163 43.0444 10.1806C39.8665 7.14482 35.9197 5.04673 31.6404 4.10645C31.0721 3.98158 30.5259 4.36771 30.4261 4.94091C30.3264 5.51411 30.7109 6.05709 31.2787 6.18436C35.1467 7.0515 38.7131 8.95679 41.589 11.7041C44.465 14.4514 46.5315 17.9268 47.5746 21.7512C47.7277 22.3125 48.2877 22.6718 48.8558 22.5459Z" fill="#6B0AEA"/>
<path d="M40.9775 4.94739C41.1864 4.62185 41.0923 4.1877 40.7616 3.98708C36.642 1.48833 31.9377 0.115736 27.1208 0.00700477C26.734 -0.00172491 26.4212 0.313706 26.4224 0.70054C26.4235 1.08737 26.7381 1.39907 27.1248 1.40833C31.6721 1.51719 36.1123 2.81275 40.0046 5.16635C40.3356 5.36651 40.7685 5.27292 40.9775 4.94739Z" fill="#6B0AEA"/>
</g>
<defs>
<clipPath id="clip0_581_93082">
<rect width="52" height="52" fill="white"/>
</clipPath>
</defs>
</svg>
