<svg width="52" height="52" viewBox="0 0 52 52" fill="none" xmlns="http://www.w3.org/2000/svg">
<g clip-path="url(#clip0_581_93054)">
<path d="M39.3869 33.1935L12.6174 33.1935L23.612 4.98224L23.6146 4.9756L23.6171 4.96892C23.8454 4.3576 24.2046 3.87104 24.701 3.52679L24.763 3.48379L24.8179 3.43199C25.0971 3.16824 25.5259 2.99987 25.9999 2.99987C26.5438 2.99987 26.9132 3.14746 27.3591 3.49434L27.3807 3.51117L27.4033 3.52679C27.8467 3.83433 28.1242 4.27659 28.3827 4.96892L28.3853 4.97566L28.3879 4.98237L39.3869 33.1935ZM4.7476 45.9953C4.73709 45.8878 4.72612 45.7756 4.71436 45.6581C4.71921 44.9004 4.83753 44.1371 5.06441 43.4389C5.12088 43.3154 5.17409 43.1977 5.22499 43.085C5.5366 42.3953 5.7618 41.8969 6.11759 41.4558C6.5514 40.9179 7.0606 40.4951 7.5948 40.221C8.1378 39.9424 8.7135 39.7988 9.27402 39.7988L42.7281 39.7988C43.8587 39.7988 45.0026 40.3599 45.8839 41.4549C46.7635 42.548 47.2887 44.2025 47.2856 45.7046L47.2856 45.7048C47.2825 47.3423 46.7584 48.8565 45.869 49.9568C44.9867 51.0483 43.8426 51.6002 42.7061 51.6002L42.5912 51.6002L41.4897 51.6002L41.5958 52.6965C41.6694 53.4564 41.7073 54.2163 41.7096 54.9906C41.7093 60.269 40.0133 65.3064 37.0378 68.9929C34.0641 72.6772 30.0874 74.6841 26.1044 74.6841C21.9171 74.6841 17.9424 72.6711 14.9736 68.9929C11.9975 65.3056 10.2972 60.2675 10.2972 54.9892C10.2972 54.2122 10.3308 53.4551 10.4081 52.7023L10.5212 51.6002L9.41331 51.6002L9.29724 51.6002C8.72395 51.6002 8.14926 51.4649 7.61801 51.1924C7.077 50.9148 6.56936 50.5034 6.1292 49.9576C5.69589 49.4204 5.33441 48.7638 5.09224 48.0382C4.88718 47.4237 4.83199 46.859 4.7476 45.9953Z" stroke="#6B0AEA" stroke-width="2"/>
<path d="M9.88037 51.3589L41.0804 51.3589" stroke="#6B0AEA" stroke-width="2" stroke-linecap="round" stroke-linejoin="round"/>
</g>
<defs>
<clipPath id="clip0_581_93054">
<rect width="52" height="52" fill="white" transform="translate(52 52) rotate(-180)"/>
</clipPath>
</defs>
</svg>
