<svg width="53" height="53" viewBox="0 0 53 53" fill="none" xmlns="http://www.w3.org/2000/svg">
<path d="M51.9493 40.0785L51.9497 40.0765C52.1724 39.1203 51.62 38.0115 50.6468 37.4819L39.6656 32.7754L39.6622 32.7739C38.7769 32.3905 37.7342 32.6505 37.1338 33.3953L37.1287 33.4016L37.1287 33.4016L32.6514 38.8654C32.357 39.2246 31.8541 39.3339 31.4372 39.1292C24.2058 35.5787 18.3285 29.7024 14.7795 22.4738C14.5732 22.0536 14.6861 21.5464 15.0511 21.2533L20.5162 16.8659C21.2605 16.2559 21.5153 15.2214 21.1384 14.3341C21.1382 14.3336 21.138 14.3331 21.1378 14.3326L16.4156 3.32042C15.9853 2.34444 14.9383 1.82108 13.9243 2.05603L13.9233 2.05627L3.6848 4.41747L3.68239 4.41803L3.68239 4.41803C2.69213 4.64383 2 5.51092 2 6.53547C2 31.6059 22.3947 51.998 47.4682 52L51.9493 40.0785ZM51.9493 40.0785L49.5877 50.3155L49.5874 50.3168M51.9493 40.0785L49.5874 50.3168M49.5874 50.3168C49.3602 51.3082 48.4936 52 47.4683 52L49.5874 50.3168Z" stroke="#6B0AEA" stroke-width="2" stroke-linejoin="round"/>
</svg>
