<svg width="50" height="50" viewBox="0 0 50 50" fill="none" xmlns="http://www.w3.org/2000/svg">
<g clip-path="url(#clip0_581_93092)">
<path d="M15.625 34.375H34.375V15.625H15.625V34.375ZM43.75 17.1875H48.4375C49.2969 17.1875 50 16.4844 50 15.625C50 14.7656 49.3006 14.0625 48.4375 14.0625H43.75V12.5C43.75 9.04785 40.9521 6.25 37.5 6.25H35.9375V1.5625C35.9375 0.699609 35.2344 0 34.375 0C33.5121 0 32.8125 0.699609 32.8125 1.5625V6.25H26.5625V1.5625C26.5625 0.699609 25.8594 0 25 0C24.1406 0 23.4375 0.699609 23.4375 1.5625V6.25H17.1875V1.5625C17.1875 0.699609 16.4844 0 15.625 0C14.7656 0 14.0625 0.699609 14.0625 1.5625V6.25H12.5C9.04785 6.25 6.25 9.04785 6.25 12.5V14.0625H1.5625C0.699609 14.0625 0 14.7656 0 15.625C0 16.4844 0.699609 17.1875 1.5625 17.1875H6.25V23.4375H1.5625C0.699609 23.4375 0 24.1406 0 25C0 25.8594 0.699609 26.5625 1.5625 26.5625H6.25V32.8125H1.5625C0.699609 32.8125 0 33.5156 0 34.375C0 35.2344 0.699609 35.9375 1.5625 35.9375H6.25V37.5C6.25 40.9521 9.04785 43.75 12.5 43.75H14.0625V48.4375C14.0625 49.2969 14.7656 50 15.625 50C16.4881 50 17.1875 49.3004 17.1875 48.4375V43.75H23.4375V48.4375C23.4375 49.3004 24.1371 50 25 50C25.8631 50 26.5625 49.3004 26.5625 48.4375V43.75H32.8125V48.4375C32.8125 49.3004 33.5121 50 34.375 50C35.2381 50 35.9375 49.3004 35.9375 48.4375V43.75H37.5C40.9521 43.75 43.75 40.9521 43.75 37.5V35.9375H48.4375C49.3006 35.9375 50 35.2379 50 34.375C50 33.5121 49.3006 32.8125 48.4375 32.8125H43.75V26.5625H48.4375C49.2969 26.5625 50 25.8594 50 25C50 24.1406 49.3006 23.4375 48.4375 23.4375H43.75V17.1875ZM37.5 35.9375C37.5 36.8004 36.8006 37.5 35.9375 37.5H14.0625C13.2031 37.5 12.5 36.7969 12.5 35.9375V14.0625C12.5 13.2031 13.2031 12.5 14.0625 12.5H35.9375C36.7969 12.5 37.5 13.2031 37.5 14.0625V35.9375Z" fill="#6B0AEA"/>
</g>
<defs>
<clipPath id="clip0_581_93092">
<rect width="50" height="50" fill="white"/>
</clipPath>
</defs>
</svg>
