<svg width="49" height="56" viewBox="0 0 49 56" fill="none" xmlns="http://www.w3.org/2000/svg">
<g clip-path="url(#clip0_581_93090)">
<path d="M18.1867 7.47864C19.2473 5.6093 21.2865 4.36884 23.5757 4.36884C24.1567 4.36884 24.7172 4.44939 25.2474 4.59817C26.3267 2.83577 28.2889 1.67212 30.5097 1.67212C33.8572 1.67212 36.67 4.32458 36.67 7.7172V12.8253C37.3239 12.5509 38.0787 12.6427 38.6495 13.0741L41.3278 15.0984C41.3566 15.1201 41.3848 15.1427 41.4124 15.166C42.7488 16.2948 43.604 18.0074 43.604 19.8524V25.6841C43.604 29.1363 41.891 32.3934 39.0494 34.4061L39.0479 34.4071L35.2832 37.0683V46.8197C35.2832 47.9242 34.3878 48.8197 33.2832 48.8197H11.0946C9.99 48.8197 9.09457 47.9242 9.09457 46.8197V37.0654C5.73276 34.4865 3.5474 30.4786 3.5474 25.9538V15.8074C3.5474 12.417 6.35969 9.76228 9.70778 9.76228C10.069 9.76228 10.4214 9.79428 10.7628 9.85418C11.8629 8.166 13.7864 7.06556 15.9483 7.06556C16.7365 7.06556 17.4918 7.21175 18.1867 7.47864Z" stroke="#6B0AEA" stroke-width="4" stroke-linejoin="round"/>
</g>
<defs>
<clipPath id="clip0_581_93090">
<rect width="49" height="56" fill="white" transform="matrix(-1 0 0 1 49 0)"/>
</clipPath>
</defs>
</svg>
