<svg width="53" height="53" viewBox="0 0 53 53" fill="none" xmlns="http://www.w3.org/2000/svg">
<path d="M21.9823 4.48448C21.7153 4.49367 21.5068 4.73192 21.5166 5.01663L21.6763 9.6563C21.6861 9.94101 21.9104 10.1644 22.1774 10.1552C22.4444 10.146 22.6528 9.90775 22.643 9.62303L22.5011 5.49889L26.3681 5.36582C26.6351 5.35663 26.8435 5.11838 26.8337 4.83366C26.8239 4.54895 26.5996 4.32559 26.3326 4.33478L21.9823 4.48448ZM38.2677 21.6933C38.5347 21.6841 38.7432 21.4459 38.7334 21.1611L38.5737 16.5215C38.5639 16.2368 38.3396 16.0134 38.0726 16.0226C37.8056 16.0318 37.5972 16.27 37.607 16.5547L37.7489 20.6789L33.8819 20.812C33.6149 20.8211 33.4065 21.0594 33.4163 21.3441C33.4261 21.6288 33.6504 21.8522 33.9174 21.843L38.2677 21.6933ZM21.6707 5.37629L37.9207 21.5541L38.5793 20.8015L22.3293 4.62371L21.6707 5.37629Z" fill="#6B0AEA"/>
<path d="M11 1V8C11 8.55228 11.4477 9 12 9H18" stroke="#6B0AEA" stroke-width="2"/>
<path d="M42 26V33C42 33.5523 42.4477 34 43 34H49" stroke="#6B0AEA" stroke-width="2"/>
<path d="M17.7424 8.11454L17 8.78453L17.7424 8.11454ZM0 2V20H2V2H0ZM2 22H17V20H2V22ZM19 20V8.78453H17V20H19ZM18.4847 7.44454L12.3616 0.660014L10.8769 2L17 8.78453L18.4847 7.44454ZM10.8769 0H2V2H10.8769V0ZM12.3616 0.660014C11.9824 0.239828 11.4429 0 10.8769 0V2V2L12.3616 0.660014ZM19 8.78453C19 8.28949 18.8164 7.81204 18.4847 7.44454L17 8.78453H19ZM17 22C18.1046 22 19 21.1046 19 20H17V22ZM0 20C0 21.1046 0.89543 22 2 22V20H0ZM2 2L2 2V0C0.895427 0 0 0.895432 0 2H2Z" fill="#6B0AEA"/>
<path d="M48.7424 33.1145L48 33.7845L48.7424 33.1145ZM31 27V45H33V27H31ZM33 47H48V45H33V47ZM50 45V33.7845H48V45H50ZM49.4847 32.4445L43.3616 25.66L41.8769 27L48 33.7845L49.4847 32.4445ZM41.8769 25H33V27H41.8769V25ZM43.3616 25.66C42.9824 25.2398 42.4429 25 41.8769 25V27V27L43.3616 25.66ZM50 33.7845C50 33.2895 49.8164 32.812 49.4847 32.4445L48 33.7845H50ZM48 47C49.1046 47 50 46.1046 50 45H48V47ZM31 45C31 46.1046 31.8954 47 33 47V45H31ZM33 27L33 27V25C31.8954 25 31 25.8954 31 27H33Z" fill="#6B0AEA"/>
</svg>
