<svg width="51" height="44" viewBox="0 0 51 44" fill="none" xmlns="http://www.w3.org/2000/svg">
<path d="M24.28 30.888L23.368 21C23.32 20.488 23.44 20 23.728 19.536C24.032 19.056 24.488 18.816 25.096 18.816C25.752 18.816 26.208 19.056 26.464 19.536C26.736 20 26.848 20.488 26.8 21L25.912 30.888H24.28ZM25.072 36.384C24.608 36.384 24.2 36.2 23.848 35.832C23.512 35.464 23.344 35.024 23.344 34.512C23.344 34 23.52 33.56 23.872 33.192C24.224 32.824 24.632 32.64 25.096 32.64C25.592 32.64 26 32.824 26.32 33.192C26.656 33.56 26.824 34 26.824 34.512C26.824 35.024 26.648 35.464 26.296 35.832C25.944 36.2 25.536 36.384 25.072 36.384Z" fill="#6B0AEA"/>
<path d="M25.067 1.75C25.2594 1.41667 25.7406 1.41667 25.933 1.75L48.8827 41.5C49.0751 41.8333 48.8346 42.25 48.4497 42.25H2.55033C2.16543 42.25 1.92487 41.8333 2.11731 41.5L25.067 1.75Z" stroke="#6B0AEA" stroke-width="3" stroke-linejoin="round"/>
</svg>
