<svg width="52" height="52" viewBox="0 0 52 52" fill="none" xmlns="http://www.w3.org/2000/svg">
<path d="M21.1867 8.47864C22.2473 6.6093 24.2865 5.36884 26.5757 5.36884C27.1567 5.36884 27.7172 5.44939 28.2474 5.59817C29.3267 3.83577 31.2889 2.67212 33.5097 2.67212C36.8572 2.67212 39.67 5.32458 39.67 8.7172V13.8253C40.3239 13.5509 41.0787 13.6427 41.6495 14.0741L44.3278 16.0984C44.3566 16.1201 44.3848 16.1427 44.4124 16.166C45.7488 17.2948 46.604 19.0074 46.604 20.8524V26.6841C46.604 30.1363 44.891 33.3934 42.0494 35.4061L42.0479 35.4071L38.2832 38.0683V47.8197C38.2832 48.9242 37.3878 49.8197 36.2832 49.8197H14.0946C12.99 49.8197 12.0946 48.9242 12.0946 47.8197V38.0654C8.73276 35.4865 6.5474 31.4786 6.5474 26.9538V16.8074C6.5474 13.417 9.35969 10.7623 12.7078 10.7623C13.069 10.7623 13.4214 10.7943 13.7628 10.8542C14.8629 9.166 16.7864 8.06556 18.9483 8.06556C19.7365 8.06556 20.4918 8.21175 21.1867 8.47864Z" stroke="#6B0AEA" stroke-width="4" stroke-linejoin="round"/>
</svg>
