<svg width="53" height="44" viewBox="0 0 53 44" fill="none" xmlns="http://www.w3.org/2000/svg">
<path d="M5.70337 20.6105L1.56997 13.9987C0.984529 13.0651 1.12066 11.8662 1.90257 11.0843C15.3506 -2.36168 37.2249 -2.36168 50.6724 11.0858C51.4538 11.8672 51.5908 13.0669 51.0044 13.9997L46.871 20.6116C46.2699 21.5753 45.0643 21.9687 43.9982 21.5529L35.7357 18.2493C34.7646 17.858 34.1665 16.8689 34.2715 15.8279L34.837 10.6541C29.3365 8.77584 23.3371 8.77584 17.8344 10.6541L18.3525 15.8711C18.464 16.9087 17.8632 17.9072 16.887 18.2933L8.625 21.5974C7.56353 21.927 6.30033 21.5699 5.70337 20.6105Z" stroke="#6B0AEA" stroke-width="2" stroke-linecap="round" stroke-linejoin="round"/>
<path d="M39.3747 19.2779H13.342C12.501 19.2779 11.7499 19.804 11.4624 20.5944L4.55335 39.5944C4.07904 40.8987 5.04501 42.2779 6.43294 42.2779H46.6676C48.0706 42.2779 49.0375 40.871 48.5348 39.5612L41.2418 20.5612C40.9451 19.7881 40.2027 19.2779 39.3747 19.2779Z" stroke="#6B0AEA" stroke-width="2" stroke-linecap="round" stroke-linejoin="round"/>
</svg>
