<svg width="1382" height="2885" viewBox="0 0 1382 2885" fill="none" xmlns="http://www.w3.org/2000/svg">
<path d="M16.8333 3.5C16.8333 4.97276 18.0272 6.16667 19.5 6.16667C20.9728 6.16667 22.1667 4.97276 22.1667 3.5C22.1667 2.02724 20.9728 0.833333 19.5 0.833333C18.0272 0.833333 16.8333 2.02724 16.8333 3.5ZM16.8333 582C16.8333 583.473 18.0272 584.667 19.5 584.667C20.9728 584.667 22.1667 583.473 22.1667 582C22.1667 580.527 20.9728 579.333 19.5 579.333C18.0272 579.333 16.8333 580.527 16.8333 582ZM19 3.5V582H20V3.5H19Z" fill="#39F0BA"/>
<path d="M1359.33 3.5C1359.33 4.97276 1360.53 6.16667 1362 6.16667C1363.47 6.16667 1364.67 4.97276 1364.67 3.5C1364.67 2.02724 1363.47 0.833333 1362 0.833333C1360.53 0.833333 1359.33 2.02724 1359.33 3.5ZM1359.33 582C1359.33 583.473 1360.53 584.667 1362 584.667C1363.47 584.667 1364.67 583.473 1364.67 582C1364.67 580.527 1363.47 579.333 1362 579.333C1360.53 579.333 1359.33 580.527 1359.33 582ZM1361.5 3.5V582H1362.5V3.5H1361.5Z" fill="#39F0BA"/>
<path d="M0.333333 312C0.333333 313.473 1.52724 314.667 3 314.667C4.47276 314.667 5.66667 313.473 5.66667 312C5.66667 310.527 4.47276 309.333 3 309.333C1.52724 309.333 0.333333 310.527 0.333333 312ZM0.333333 890.5C0.333333 891.973 1.52724 893.167 3 893.167C4.47276 893.167 5.66667 891.973 5.66667 890.5C5.66667 889.027 4.47276 887.833 3 887.833C1.52724 887.833 0.333333 889.027 0.333333 890.5ZM2.5 312V890.5H3.5V312H2.5Z" fill="#39F0BA"/>
<path d="M1375.33 312C1375.33 313.473 1376.53 314.667 1378 314.667C1379.47 314.667 1380.67 313.473 1380.67 312C1380.67 310.527 1379.47 309.333 1378 309.333C1376.53 309.333 1375.33 310.527 1375.33 312ZM1375.33 890.5C1375.33 891.973 1376.53 893.167 1378 893.167C1379.47 893.167 1380.67 891.973 1380.67 890.5C1380.67 889.027 1379.47 887.833 1378 887.833C1376.53 887.833 1375.33 889.027 1375.33 890.5ZM1377.5 312V890.5H1378.5V312H1377.5Z" fill="#39F0BA"/>
<path d="M0.333333 1122C0.333333 1123.47 1.52724 1124.67 3 1124.67C4.47276 1124.67 5.66667 1123.47 5.66667 1122C5.66667 1120.53 4.47276 1119.33 3 1119.33C1.52724 1119.33 0.333333 1120.53 0.333333 1122ZM0.333333 1700.5C0.333333 1701.97 1.52724 1703.17 3 1703.17C4.47276 1703.17 5.66667 1701.97 5.66667 1700.5C5.66667 1699.03 4.47276 1697.83 3 1697.83C1.52724 1697.83 0.333333 1699.03 0.333333 1700.5ZM2.5 1122V1700.5H3.5V1122H2.5Z" fill="#39F0BA"/>
<path d="M0.333333 1843C0.333333 1844.47 1.52724 1845.67 3 1845.67C4.47276 1845.67 5.66667 1844.47 5.66667 1843C5.66667 1841.53 4.47276 1840.33 3 1840.33C1.52724 1840.33 0.333333 1841.53 0.333333 1843ZM0.333309 2403C0.333309 2404.47 1.52722 2405.67 2.99998 2405.67C4.47273 2405.67 5.66664 2404.47 5.66664 2403C5.66664 2401.53 4.47274 2400.33 2.99998 2400.33C1.52722 2400.33 0.333309 2401.53 0.333309 2403ZM2.5 1843L2.49998 2403L3.49998 2403L3.5 1843L2.5 1843Z" fill="#39F0BA"/>
<path d="M1381.67 1795C1381.67 1796.47 1380.47 1797.67 1379 1797.67C1377.53 1797.67 1376.33 1796.47 1376.33 1795C1376.33 1793.53 1377.53 1792.33 1379 1792.33C1380.47 1792.33 1381.67 1793.53 1381.67 1795ZM1381.67 2355C1381.67 2356.47 1380.47 2357.67 1379 2357.67C1377.53 2357.67 1376.33 2356.47 1376.33 2355C1376.33 2353.53 1377.53 2352.33 1379 2352.33C1380.47 2352.33 1381.67 2353.53 1381.67 2355ZM1379.5 1795L1379.5 2355L1378.5 2355L1378.5 1795L1379.5 1795Z" fill="#39F0BA"/>
<path d="M0.333333 2546C0.333333 2547.47 1.52724 2548.67 3 2548.67C4.47276 2548.67 5.66667 2547.47 5.66667 2546C5.66667 2544.53 4.47276 2543.33 3 2543.33C1.52724 2543.33 0.333333 2544.53 0.333333 2546ZM0.333333 2882C0.333333 2883.47 1.52724 2884.67 3 2884.67C4.47276 2884.67 5.66667 2883.47 5.66667 2882C5.66667 2880.53 4.47276 2879.33 3 2879.33C1.52724 2879.33 0.333333 2880.53 0.333333 2882ZM2.5 2546V2882H3.5V2546H2.5Z" fill="#39F0BA"/>
<path d="M1381.67 2498C1381.67 2499.47 1380.47 2500.67 1379 2500.67C1377.53 2500.67 1376.33 2499.47 1376.33 2498C1376.33 2496.53 1377.53 2495.33 1379 2495.33C1380.47 2495.33 1381.67 2496.53 1381.67 2498ZM1381.67 2834C1381.67 2835.47 1380.47 2836.67 1379 2836.67C1377.53 2836.67 1376.33 2835.47 1376.33 2834C1376.33 2832.53 1377.53 2831.33 1379 2831.33C1380.47 2831.33 1381.67 2832.53 1381.67 2834ZM1379.5 2498V2834H1378.5V2498H1379.5Z" fill="#39F0BA"/>
<path d="M1375.33 1122C1375.33 1123.47 1376.53 1124.67 1378 1124.67C1379.47 1124.67 1380.67 1123.47 1380.67 1122C1380.67 1120.53 1379.47 1119.33 1378 1119.33C1376.53 1119.33 1375.33 1120.53 1375.33 1122ZM1375.33 1700.5C1375.33 1701.97 1376.53 1703.17 1378 1703.17C1379.47 1703.17 1380.67 1701.97 1380.67 1700.5C1380.67 1699.03 1379.47 1697.83 1378 1697.83C1376.53 1697.83 1375.33 1699.03 1375.33 1700.5ZM1377.5 1122V1700.5H1378.5V1122H1377.5Z" fill="#39F0BA"/>
<path d="M17.3333 847C17.3333 848.473 18.5272 849.667 20 849.667C21.4728 849.667 22.6667 848.473 22.6667 847C22.6667 845.527 21.4728 844.333 20 844.333C18.5272 844.333 17.3333 845.527 17.3333 847ZM17.3334 1313C17.3334 1314.47 18.5273 1315.67 20 1315.67C21.4728 1315.67 22.6667 1314.47 22.6667 1313C22.6667 1311.53 21.4728 1310.33 20 1310.33C18.5273 1310.33 17.3334 1311.53 17.3334 1313ZM19.5 847L19.5 1313L20.5 1313L20.5 847L19.5 847Z" fill="#39F0BA"/>
<path d="M17.3333 1559C17.3333 1560.47 18.5272 1561.67 20 1561.67C21.4728 1561.67 22.6667 1560.47 22.6667 1559C22.6667 1557.53 21.4728 1556.33 20 1556.33C18.5272 1556.33 17.3333 1557.53 17.3333 1559ZM17.3334 2025C17.3334 2026.47 18.5273 2027.67 20 2027.67C21.4728 2027.67 22.6667 2026.47 22.6667 2025C22.6667 2023.53 21.4728 2022.33 20 2022.33C18.5273 2022.33 17.3334 2023.53 17.3334 2025ZM19.5 1559L19.5 2025L20.5 2025L20.5 1559L19.5 1559Z" fill="#39F0BA"/>
<path d="M1364.67 1511C1364.67 1512.47 1363.47 1513.67 1362 1513.67C1360.53 1513.67 1359.33 1512.47 1359.33 1511C1359.33 1509.53 1360.53 1508.33 1362 1508.33C1363.47 1508.33 1364.67 1509.53 1364.67 1511ZM1364.67 1977C1364.67 1978.47 1363.47 1979.67 1362 1979.67C1360.53 1979.67 1359.33 1978.47 1359.33 1977C1359.33 1975.53 1360.53 1974.33 1362 1974.33C1363.47 1974.33 1364.67 1975.53 1364.67 1977ZM1362.5 1511L1362.5 1977L1361.5 1977L1361.5 1511L1362.5 1511Z" fill="#39F0BA"/>
<path d="M17.3333 2335C17.3333 2336.47 18.5272 2337.67 20 2337.67C21.4728 2337.67 22.6667 2336.47 22.6667 2335C22.6667 2333.53 21.4728 2332.33 20 2332.33C18.5272 2332.33 17.3333 2333.53 17.3333 2335ZM17.3333 2673C17.3333 2674.47 18.5273 2675.67 20 2675.67C21.4728 2675.67 22.6667 2674.47 22.6667 2673C22.6667 2671.53 21.4728 2670.33 20 2670.33C18.5273 2670.33 17.3333 2671.53 17.3333 2673ZM19.5 2335L19.5 2673L20.5 2673L20.5 2335L19.5 2335Z" fill="#39F0BA"/>
<path d="M1364.67 2287C1364.67 2288.47 1363.47 2289.67 1362 2289.67C1360.53 2289.67 1359.33 2288.47 1359.33 2287C1359.33 2285.53 1360.53 2284.33 1362 2284.33C1363.47 2284.33 1364.67 2285.53 1364.67 2287ZM1364.67 2625C1364.67 2626.47 1363.47 2627.67 1362 2627.67C1360.53 2627.67 1359.33 2626.47 1359.33 2625C1359.33 2623.53 1360.53 2622.33 1362 2622.33C1363.47 2622.33 1364.67 2623.53 1364.67 2625ZM1362.5 2287L1362.5 2625L1361.5 2625L1361.5 2287L1362.5 2287Z" fill="#39F0BA"/>
<path d="M1359.33 847C1359.33 848.473 1360.53 849.667 1362 849.667C1363.47 849.667 1364.67 848.473 1364.67 847C1364.67 845.527 1363.47 844.333 1362 844.333C1360.53 844.333 1359.33 845.527 1359.33 847ZM1359.33 1313C1359.33 1314.47 1360.53 1315.67 1362 1315.67C1363.47 1315.67 1364.67 1314.47 1364.67 1313C1364.67 1311.53 1363.47 1310.33 1362 1310.33C1360.53 1310.33 1359.33 1311.53 1359.33 1313ZM1361.5 847L1361.5 1313L1362.5 1313L1362.5 847L1361.5 847Z" fill="#39F0BA"/>
</svg>
