<svg width="1187" height="627" viewBox="0 0 1187 627" fill="none" xmlns="http://www.w3.org/2000/svg" xmlns:xlink="http://www.w3.org/1999/xlink">
<path d="M0.50001 513.017L0.500054 6.00002C0.500054 4.57167 0.501153 3.55074 0.605401 2.77486C0.707818 2.01332 0.9013 1.56319 1.23223 1.23226C1.56329 0.901325 2.01336 0.707782 2.77483 0.605365C3.55071 0.501056 4.57171 0.500019 6.00005 0.500019L483.978 0.500061C484.643 0.500061 484.903 0.502624 485.152 0.556213C485.4 0.609802 485.639 0.714721 486.244 0.988708L665.74 82.1618C666.309 82.4189 666.658 82.5795 667.034 82.6607C667.399 82.7394 667.772 82.7393 668.363 82.7393L668.419 82.7393L1180 82.7393C1181.43 82.7393 1182.45 82.7404 1183.23 82.8447C1183.99 82.9471 1184.44 83.1406 1184.77 83.4716C1185.1 83.8025 1185.29 84.2526 1185.39 85.0141C1185.5 85.79 1185.5 86.811 1185.5 88.2393L1185.5 620C1185.5 621.428 1185.5 622.449 1185.39 623.225C1185.29 623.987 1185.1 624.437 1184.77 624.768C1184.44 625.099 1183.99 625.292 1183.23 625.395C1182.45 625.499 1181.43 625.5 1180 625.5L177.64 625.5C176.76 625.5 176.416 625.495 176.094 625.403C175.772 625.311 175.478 625.133 174.731 624.667L3.09071 517.685C2.39198 517.249 1.89771 516.941 1.52857 516.658C1.16798 516.383 0.957651 516.154 0.814097 515.896C0.670542 515.637 0.588144 515.338 0.54481 514.886C0.500498 514.423 0.50001 513.841 0.50001 513.017Z" fill="url(#paint0_linear_0_1)"/>
<path d="M0.50001 513.017L0.500054 6.00002C0.500054 4.57167 0.501153 3.55074 0.605401 2.77486C0.707818 2.01332 0.9013 1.56319 1.23223 1.23226C1.56329 0.901325 2.01336 0.707782 2.77483 0.605365C3.55071 0.501056 4.57171 0.500019 6.00005 0.500019L483.978 0.500061C484.643 0.500061 484.903 0.502624 485.152 0.556213C485.4 0.609802 485.639 0.714721 486.244 0.988708L665.74 82.1618C666.309 82.4189 666.658 82.5795 667.034 82.6607C667.399 82.7394 667.772 82.7393 668.363 82.7393L668.419 82.7393L1180 82.7393C1181.43 82.7393 1182.45 82.7404 1183.23 82.8447C1183.99 82.9471 1184.44 83.1406 1184.77 83.4716C1185.1 83.8025 1185.29 84.2526 1185.39 85.0141C1185.5 85.79 1185.5 86.811 1185.5 88.2393L1185.5 620C1185.5 621.428 1185.5 622.449 1185.39 623.225C1185.29 623.987 1185.1 624.437 1184.77 624.768C1184.44 625.099 1183.99 625.292 1183.23 625.395C1182.45 625.499 1181.43 625.5 1180 625.5L177.64 625.5C176.76 625.5 176.416 625.495 176.094 625.403C175.772 625.311 175.478 625.133 174.731 624.667L3.09071 517.685C2.39198 517.249 1.89771 516.941 1.52857 516.658C1.16798 516.383 0.957651 516.154 0.814097 515.896C0.670542 515.637 0.588144 515.338 0.54481 514.886C0.500498 514.423 0.50001 513.841 0.50001 513.017Z" fill="url(#pattern0)" fill-opacity="0.8"/>
<path d="M0.50001 513.017L0.500054 6.00002C0.500054 4.57167 0.501153 3.55074 0.605401 2.77486C0.707818 2.01332 0.9013 1.56319 1.23223 1.23226C1.56329 0.901325 2.01336 0.707782 2.77483 0.605365C3.55071 0.501056 4.57171 0.500019 6.00005 0.500019L483.978 0.500061C484.643 0.500061 484.903 0.502624 485.152 0.556213C485.4 0.609802 485.639 0.714721 486.244 0.988708L665.74 82.1618C666.309 82.4189 666.658 82.5795 667.034 82.6607C667.399 82.7394 667.772 82.7393 668.363 82.7393L668.419 82.7393L1180 82.7393C1181.43 82.7393 1182.45 82.7404 1183.23 82.8447C1183.99 82.9471 1184.44 83.1406 1184.77 83.4716C1185.1 83.8025 1185.29 84.2526 1185.39 85.0141C1185.5 85.79 1185.5 86.811 1185.5 88.2393L1185.5 620C1185.5 621.428 1185.5 622.449 1185.39 623.225C1185.29 623.987 1185.1 624.437 1184.77 624.768C1184.44 625.099 1183.99 625.292 1183.23 625.395C1182.45 625.499 1181.43 625.5 1180 625.5L177.64 625.5C176.76 625.5 176.416 625.495 176.094 625.403C175.772 625.311 175.478 625.133 174.731 624.667L3.09071 517.685C2.39198 517.249 1.89771 516.941 1.52857 516.658C1.16798 516.383 0.957651 516.154 0.814097 515.896C0.670542 515.637 0.588144 515.338 0.54481 514.886C0.500498 514.423 0.50001 513.841 0.50001 513.017Z" stroke="#39F0BA"/>
<path d="M8.66667 74C8.66667 76.9455 11.0545 79.3333 14 79.3333C16.9455 79.3333 19.3333 76.9455 19.3333 74C19.3333 71.0545 16.9455 68.6667 14 68.6667C11.0545 68.6667 8.66667 71.0545 8.66667 74ZM47 41V40C46.7348 40 46.4804 40.1054 46.2929 40.2929L47 41ZM477 41L477.424 40.0946C477.292 40.0323 477.147 40 477 40V41ZM661.5 127.5L661.076 128.405C661.208 128.468 661.353 128.5 661.5 128.5V127.5ZM1081.5 127.5L1082.21 126.793C1082.02 126.605 1081.77 126.5 1081.5 126.5V127.5ZM1143 189H1144C1144 188.735 1143.89 188.48 1143.71 188.293L1143 189ZM1142 291C1142 291.552 1142.45 292 1143 292C1143.55 292 1144 291.552 1144 291H1142ZM14.7071 74.7071L47.7071 41.7071L46.2929 40.2929L13.2929 73.2929L14.7071 74.7071ZM47 42L477 42V40L47 40V42ZM661.5 128.5L1081.5 128.5V126.5L661.5 126.5V128.5ZM1080.79 128.207L1142.29 189.707L1143.71 188.293L1082.21 126.793L1080.79 128.207ZM1142 189V291H1144V189H1142ZM476.576 41.9054L661.076 128.405L661.924 126.595L477.424 40.0946L476.576 41.9054Z" fill="url(#paint1_linear_0_1)"/>
<path d="M8.66667 74C8.66667 76.9455 11.0545 79.3333 14 79.3333C16.9455 79.3333 19.3333 76.9455 19.3333 74C19.3333 71.0545 16.9455 68.6667 14 68.6667C11.0545 68.6667 8.66667 71.0545 8.66667 74ZM47 41V40C46.7348 40 46.4804 40.1054 46.2929 40.2929L47 41ZM477 41L477.424 40.0946C477.292 40.0323 477.147 40 477 40V41ZM661.5 127.5L661.076 128.405C661.208 128.468 661.353 128.5 661.5 128.5V127.5ZM1081.5 127.5L1082.21 126.793C1082.02 126.605 1081.77 126.5 1081.5 126.5V127.5ZM1143 189H1144C1144 188.735 1143.89 188.48 1143.71 188.293L1143 189ZM1142 291C1142 291.552 1142.45 292 1143 292C1143.55 292 1144 291.552 1144 291H1142ZM14.7071 74.7071L47.7071 41.7071L46.2929 40.2929L13.2929 73.2929L14.7071 74.7071ZM47 42L477 42V40L47 40V42ZM661.5 128.5L1081.5 128.5V126.5L661.5 126.5V128.5ZM1080.79 128.207L1142.29 189.707L1143.71 188.293L1082.21 126.793L1080.79 128.207ZM1142 189V291H1144V189H1142ZM476.576 41.9054L661.076 128.405L661.924 126.595L477.424 40.0946L476.576 41.9054Z" fill="url(#pattern1)" fill-opacity="0.6" style="mix-blend-mode:color"/>
<path d="M428 5H476.5L512 21" stroke="url(#paint2_linear_0_1)"/>
<path d="M428 5H476.5L512 21" stroke="url(#pattern2)" stroke-opacity="0.6" style="mix-blend-mode:color"/>
<path d="M631 73L660.5 86.5H708" stroke="url(#paint3_linear_0_1)"/>
<path d="M631 73L660.5 86.5H708" stroke="url(#pattern3)" stroke-opacity="0.6" style="mix-blend-mode:color"/>
<path d="M24.3333 455C24.3333 456.473 25.5272 457.667 27 457.667C28.4728 457.667 29.6667 456.473 29.6667 455C29.6667 453.527 28.4728 452.333 27 452.333C25.5272 452.333 24.3333 453.527 24.3333 455ZM100.5 497L100.252 497.434L100.367 497.5L100.5 497.5L100.5 497ZM1055 547.004L1055 547.504L1055.13 547.504L1055.24 547.442L1055 547.004ZM476.5 497L476.699 496.542L476.604 496.5L476.5 496.5L476.5 497ZM591.5 547.004L591.301 547.462L591.396 547.504L591.5 547.504L591.5 547.004ZM26.7519 455.434L100.252 497.434L100.748 496.566L27.2481 454.566L26.7519 455.434ZM1055.24 547.442L1146.24 497.438L1145.76 496.562L1054.76 546.566L1055.24 547.442ZM100.5 497.5L476.5 497.5L476.5 496.5L100.5 496.5L100.5 497.5ZM476.301 497.459L591.301 547.462L591.699 546.545L476.699 496.542L476.301 497.459ZM591.5 547.504L1055 547.504L1055 546.504L591.5 546.504L591.5 547.504Z" fill="url(#paint4_linear_0_1)"/>
<path d="M0 0V27.4154V33L1.47692 30.9692V23.8615L23.1385 3.04615L24.6154 1.52308H30.0308L32 0H28.5538H0Z" fill="#39F0BA"/>
<path d="M1186.5 626.5L1186.5 599.5L1186.5 594L1185 596L1185 603L1163 623.5L1161.5 625L1156 625L1154 626.5L1157.5 626.5L1186.5 626.5Z" fill="#39F0BA"/>
<path d="M1185.5 82L1158.5 82L1153 82L1155 83.5L1162 83.5L1182.5 105.5L1184 107L1184 112.5L1185.5 114.5L1185.5 111L1185.5 82Z" fill="url(#paint5_linear_0_1)"/>
<path d="M0 26V0H26L23.0566 3.56863H19.1321L16.6792 2.03922H1.96226V15.8039L3.43396 17.8431V22.4314L0 26Z" fill="url(#paint6_linear_0_1)"/>
<path d="M1186.5 601L1186.5 626.5L1160 626.5L1163 623L1167 623L1169.5 624.5L1184.5 624.5L1184.5 611L1183 609L1183 604.5L1186.5 601Z" fill="url(#paint7_linear_0_1)"/>
<path d="M1161 81L1186.5 81L1186.5 107.5L1183 104.5L1183 100.5L1184.5 98L1184.5 83L1171 83L1169 84.5L1164.5 84.5L1161 81Z" fill="url(#paint8_linear_0_1)"/>
<rect y="155" width="2" height="124" fill="#39F0BA"/>
<rect x="1183" y="293" width="2" height="124" fill="url(#paint9_linear_0_1)"/>
<rect x="1183" y="293" width="2" height="124" fill="url(#pattern4)" fill-opacity="0.6" style="mix-blend-mode:color"/>
<rect x="908" y="86" width="1.00001" height="124" transform="rotate(90 908 86)" fill="url(#paint10_linear_0_1)"/>
<rect x="908" y="86" width="1.00001" height="124" transform="rotate(90 908 86)" fill="url(#pattern5)" fill-opacity="0.6" style="mix-blend-mode:color"/>
<defs>
<pattern id="pattern0" patternContentUnits="objectBoundingBox" width="0.172681" height="0.327157">
<use xlink:href="#image0_0_1" transform="scale(0.000674536 0.00127796)"/>
</pattern>
<pattern id="pattern1" patternContentUnits="objectBoundingBox" width="0.0974314" height="0.44">
<use xlink:href="#image1_0_1" transform="scale(0.00044287 0.002)"/>
</pattern>
<pattern id="pattern2" patternContentUnits="objectBoundingBox" width="1.30952" height="6.875">
<use xlink:href="#image1_0_1" transform="scale(0.00595238 0.03125)"/>
</pattern>
<pattern id="pattern3" patternContentUnits="objectBoundingBox" width="1.42857" height="8.14815">
<use xlink:href="#image1_0_1" transform="scale(0.00649351 0.037037)"/>
</pattern>
<pattern id="pattern4" patternContentUnits="objectBoundingBox" width="55" height="0.887097">
<use xlink:href="#image1_0_1" transform="scale(0.25 0.00403226)"/>
</pattern>
<pattern id="pattern5" patternContentUnits="objectBoundingBox" width="109.999" height="0.887097">
<use xlink:href="#image1_0_1" transform="scale(0.499997 0.00403226)"/>
</pattern>
<linearGradient id="paint0_linear_0_1" x1="671.078" y1="312.591" x2="-668.623" y2="862.964" gradientUnits="userSpaceOnUse">
<stop stop-color="#150B2C"/>
<stop offset="1" stop-color="#181235"/>
</linearGradient>
<linearGradient id="paint1_linear_0_1" x1="1216.5" y1="248.5" x2="-1566" y2="-211" gradientUnits="userSpaceOnUse">
<stop stop-color="#39F0BA"/>
<stop offset="0.769111" stop-color="#11001D"/>
</linearGradient>
<linearGradient id="paint2_linear_0_1" x1="428" y1="1.50002" x2="579.5" y2="95" gradientUnits="userSpaceOnUse">
<stop stop-color="#39F0BA"/>
<stop offset="1" stop-color="#11001D"/>
</linearGradient>
<linearGradient id="paint3_linear_0_1" x1="650.5" y1="73" x2="650.5" y2="140" gradientUnits="userSpaceOnUse">
<stop stop-color="#39F0BA"/>
<stop offset="1" stop-color="#11001D"/>
</linearGradient>
<linearGradient id="paint4_linear_0_1" x1="1324.5" y1="454.498" x2="-138" y2="691.997" gradientUnits="userSpaceOnUse">
<stop stop-color="#39F0BA"/>
<stop offset="1" stop-color="#11001D"/>
</linearGradient>
<linearGradient id="paint5_linear_0_1" x1="1185.5" y1="98.25" x2="1153" y2="98.25" gradientUnits="userSpaceOnUse">
<stop stop-color="#39F0BA"/>
<stop offset="1" stop-color="#11001D"/>
</linearGradient>
<linearGradient id="paint6_linear_0_1" x1="29.434" y1="27.0196" x2="-15.4534" y2="-17.6464" gradientUnits="userSpaceOnUse">
<stop stop-color="#39F0BA"/>
<stop offset="0.46875" stop-color="#268070"/>
<stop offset="1" stop-color="#11001D"/>
</linearGradient>
<linearGradient id="paint7_linear_0_1" x1="1156.5" y1="600" x2="1200.5" y2="645.5" gradientUnits="userSpaceOnUse">
<stop stop-color="#39F0BA"/>
<stop offset="0.46875" stop-color="#268070"/>
<stop offset="1" stop-color="#11001D"/>
</linearGradient>
<linearGradient id="paint8_linear_0_1" x1="1160" y1="111" x2="1205.5" y2="67" gradientUnits="userSpaceOnUse">
<stop stop-color="#39F0BA"/>
<stop offset="0.46875" stop-color="#268070"/>
<stop offset="1" stop-color="#11001D"/>
</linearGradient>
<linearGradient id="paint9_linear_0_1" x1="1184" y1="293" x2="1184" y2="417" gradientUnits="userSpaceOnUse">
<stop stop-color="#39F0BA"/>
<stop offset="1" stop-color="#11001D"/>
</linearGradient>
<linearGradient id="paint10_linear_0_1" x1="908.5" y1="86" x2="908.5" y2="210" gradientUnits="userSpaceOnUse">
<stop stop-color="#39F0BA"/>
<stop offset="1" stop-color="#11001D"/>
</linearGradient>
</defs>
</svg>
