<svg viewBox="0 0 928 216" fill="none"
    xmlns="http://www.w3.org/2000/svg">
    <path d="M0.5 19.0363L15.7362 0.5H927.5V184.992L907.232 215.5H0.5V19.0363Z" fill="#091629" fill-opacity="0.8" stroke="#39F0BA"/>
    <path d="M35.8319 16L21 29.7063V54.5M911.616 155V180.571L892 203" stroke="#39F0BA"/>
    <g clip-path="url(#clip0_0_1)">
        <g opacity="0.44">
            <path d="M42.4537 184H41V205H42.4537V184Z" fill="#00BDFF" fill-opacity="0.4"/>
            <path d="M52.231 194.426H50.7773V205H52.231V194.426Z" fill="#00BDFF" fill-opacity="0.4"/>
            <path d="M62.0201 194.426H60.5664V205H62.0201V194.426Z" fill="#00BDFF" fill-opacity="0.4"/>
            <path d="M71.7974 194.426H70.3438V205H71.7974V194.426Z" fill="#00BDFF" fill-opacity="0.4"/>
            <path d="M81.5748 184H80.1211V205H81.5748V184Z" fill="#00BDFF" fill-opacity="0.4"/>
            <path d="M91.3511 194.426H89.8975V205H91.3511V194.426Z" fill="#00BDFF" fill-opacity="0.4"/>
            <path d="M101.141 194.426H99.6877V205H101.141V194.426Z" fill="#00BDFF" fill-opacity="0.4"/>
            <path d="M110.918 194.426H109.465V205H110.918V194.426Z" fill="#00BDFF" fill-opacity="0.4"/>
            <path d="M120.695 194.426H119.241V205H120.695V194.426Z" fill="#00BDFF" fill-opacity="0.4"/>
            <path d="M130.472 184H129.019V205H130.472V184Z" fill="#00BDFF" fill-opacity="0.4"/>
            <path d="M140.262 194.426H138.808V205H140.262V194.426Z" fill="#00BDFF" fill-opacity="0.4"/>
            <path d="M150.039 194.426H148.585V205H150.039V194.426Z" fill="#00BDFF" fill-opacity="0.4"/>
            <path d="M159.816 194.426H158.363V205H159.816V194.426Z" fill="#00BDFF" fill-opacity="0.4"/>
            <path d="M169.606 194.426H168.152V205H169.606V194.426Z" fill="#00BDFF" fill-opacity="0.4"/>
            <path d="M179.383 184H177.93V205H179.383V184Z" fill="#00BDFF" fill-opacity="0.4"/>
            <path d="M189.16 194.426H187.706V205H189.16V194.426Z" fill="#00BDFF" fill-opacity="0.4"/>
            <path d="M198.937 194.426H197.483V205H198.937V194.426Z" fill="#00BDFF" fill-opacity="0.4"/>
            <path d="M208.727 194.426H207.273V205H208.727V194.426Z" fill="#00BDFF" fill-opacity="0.4"/>
            <path d="M218.503 194.426H217.05V205H218.503V194.426Z" fill="#00BDFF" fill-opacity="0.4"/>
            <path d="M228.281 184H226.827V205H228.281V184Z" fill="#00BDFF" fill-opacity="0.4"/>
            <path d="M238.058 194.426H236.604V205H238.058V194.426Z" fill="#00BDFF" fill-opacity="0.4"/>
            <path d="M247.847 194.426H246.394V205H247.847V194.426Z" fill="#00BDFF" fill-opacity="0.4"/>
            <path d="M257.625 194.426H256.171V205H257.625V194.426Z" fill="#00BDFF" fill-opacity="0.4"/>
            <path d="M267.402 194.426H265.948V205H267.402V194.426Z" fill="#00BDFF" fill-opacity="0.4"/>
            <path d="M277.191 184H275.737V205H277.191V184Z" fill="#00BDFF" fill-opacity="0.4"/>
            <path d="M286.968 194.426H285.515V205H286.968V194.426Z" fill="#00BDFF" fill-opacity="0.4"/>
            <path d="M296.746 194.426H295.292V205H296.746V194.426Z" fill="#00BDFF" fill-opacity="0.4"/>
            <path d="M306.522 194.426H305.068V205H306.522V194.426Z" fill="#00BDFF" fill-opacity="0.4"/>
            <path d="M316.312 194.426H314.859V205H316.312V194.426Z" fill="#00BDFF" fill-opacity="0.4"/>
            <path d="M326.089 184H324.636V205H326.089V184Z" fill="#00BDFF" fill-opacity="0.4"/>
            <path d="M325.909 184H324.455V205H325.909V184Z" fill="#00BDFF" fill-opacity="0.4"/>
            <path d="M335.686 194.426H334.232V205H335.686V194.426Z" fill="#00BDFF" fill-opacity="0.4"/>
            <path d="M345.475 194.426H344.021V205H345.475V194.426Z" fill="#00BDFF" fill-opacity="0.4"/>
            <path d="M355.253 194.426H353.799V205H355.253V194.426Z" fill="#00BDFF" fill-opacity="0.4"/>
            <path d="M365.03 184H363.576V205H365.03V184Z" fill="#00BDFF" fill-opacity="0.4"/>
            <path d="M374.806 194.426H373.353V205H374.806V194.426Z" fill="#00BDFF" fill-opacity="0.4"/>
            <path d="M384.597 194.426H383.143V205H384.597V194.426Z" fill="#00BDFF" fill-opacity="0.4"/>
            <path d="M394.373 194.426H392.92V205H394.373V194.426Z" fill="#00BDFF" fill-opacity="0.4"/>
            <path d="M404.15 194.426H402.696V205H404.15V194.426Z" fill="#00BDFF" fill-opacity="0.4"/>
            <path d="M413.927 184H412.474V205H413.927V184Z" fill="#00BDFF" fill-opacity="0.4"/>
            <path d="M423.717 194.426H422.263V205H423.717V194.426Z" fill="#00BDFF" fill-opacity="0.4"/>
            <path d="M433.494 194.426H432.04V205H433.494V194.426Z" fill="#00BDFF" fill-opacity="0.4"/>
            <path d="M443.271 194.426H441.818V205H443.271V194.426Z" fill="#00BDFF" fill-opacity="0.4"/>
            <path d="M453.061 194.426H451.607V205H453.061V194.426Z" fill="#00BDFF" fill-opacity="0.4"/>
            <path d="M462.838 184H461.385V205H462.838V184Z" fill="#00BDFF" fill-opacity="0.4"/>
            <path d="M472.615 194.426H471.161V205H472.615V194.426Z" fill="#00BDFF" fill-opacity="0.4"/>
            <path d="M482.392 194.426H480.938V205H482.392V194.426Z" fill="#00BDFF" fill-opacity="0.4"/>
            <path d="M492.182 194.426H490.729V205H492.182V194.426Z" fill="#00BDFF" fill-opacity="0.4"/>
            <path d="M501.959 194.426H500.505V205H501.959V194.426Z" fill="#00BDFF" fill-opacity="0.4"/>
            <path d="M511.736 184H510.282V205H511.736V184Z" fill="#00BDFF" fill-opacity="0.4"/>
            <path d="M521.513 194.426H520.06V205H521.513V194.426Z" fill="#00BDFF" fill-opacity="0.4"/>
            <path d="M531.302 194.426H529.849V205H531.302V194.426Z" fill="#00BDFF" fill-opacity="0.4"/>
            <path d="M541.08 194.426H539.626V205H541.08V194.426Z" fill="#00BDFF" fill-opacity="0.4"/>
            <path d="M550.857 194.426H549.403V205H550.857V194.426Z" fill="#00BDFF" fill-opacity="0.4"/>
            <path d="M560.646 184H559.192V205H560.646V184Z" fill="#00BDFF" fill-opacity="0.4"/>
            <path d="M570.423 194.426H568.97V205H570.423V194.426Z" fill="#00BDFF" fill-opacity="0.4"/>
            <path d="M580.201 194.426H578.747V205H580.201V194.426Z" fill="#00BDFF" fill-opacity="0.4"/>
            <path d="M589.977 194.426H588.523V205H589.977V194.426Z" fill="#00BDFF" fill-opacity="0.4"/>
            <path d="M599.767 194.426H598.314V205H599.767V194.426Z" fill="#00BDFF" fill-opacity="0.4"/>
            <path d="M609.544 184H608.091V205H609.544V184Z" fill="#00BDFF" fill-opacity="0.4"/>
            <path d="M609.365 184H607.911V205H609.365V184Z" fill="#00BDFF" fill-opacity="0.4"/>
            <path d="M619.142 194.426H617.688V205H619.142V194.426Z" fill="#00BDFF" fill-opacity="0.4"/>
            <path d="M628.919 194.426H627.465V205H628.919V194.426Z" fill="#00BDFF" fill-opacity="0.4"/>
            <path d="M638.709 194.426H637.255V205H638.709V194.426Z" fill="#00BDFF" fill-opacity="0.4"/>
            <path d="M648.486 184H647.032V205H648.486V184Z" fill="#00BDFF" fill-opacity="0.4"/>
            <path d="M658.262 194.426H656.809V205H658.262V194.426Z" fill="#00BDFF" fill-opacity="0.4"/>
            <path d="M668.052 194.426H666.599V205H668.052V194.426Z" fill="#00BDFF" fill-opacity="0.4"/>
            <path d="M677.829 194.426H676.376V205H677.829V194.426Z" fill="#00BDFF" fill-opacity="0.4"/>
            <path d="M687.606 194.426H686.152V205H687.606V194.426Z" fill="#00BDFF" fill-opacity="0.4"/>
            <path d="M697.383 184H695.93V205H697.383V184Z" fill="#00BDFF" fill-opacity="0.4"/>
            <path d="M707.173 194.426H705.72V205H707.173V194.426Z" fill="#00BDFF" fill-opacity="0.4"/>
            <path d="M716.95 194.426H715.496V205H716.95V194.426Z" fill="#00BDFF" fill-opacity="0.4"/>
            <path d="M726.727 194.426H725.274V205H726.727V194.426Z" fill="#00BDFF" fill-opacity="0.4"/>
            <path d="M736.504 194.426H735.051V205H736.504V194.426Z" fill="#00BDFF" fill-opacity="0.4"/>
            <path d="M746.295 184H744.841V205H746.295V184Z" fill="#00BDFF" fill-opacity="0.4"/>
            <path d="M756.071 194.426H754.617V205H756.071V194.426Z" fill="#00BDFF" fill-opacity="0.4"/>
            <path d="M765.848 194.426H764.394V205H765.848V194.426Z" fill="#00BDFF" fill-opacity="0.4"/>
            <path d="M775.638 194.426H774.185V205H775.638V194.426Z" fill="#00BDFF" fill-opacity="0.4"/>
            <path d="M785.415 194.426H783.961V205H785.415V194.426Z" fill="#00BDFF" fill-opacity="0.4"/>
            <path d="M795.192 184H793.738V205H795.192V184Z" fill="#00BDFF" fill-opacity="0.4"/>
            <path d="M804.969 194.426H803.516V205H804.969V194.426Z" fill="#00BDFF" fill-opacity="0.4"/>
            <path d="M814.758 194.426H813.305V205H814.758V194.426Z" fill="#00BDFF" fill-opacity="0.4"/>
            <path d="M824.536 194.426H823.082V205H824.536V194.426Z" fill="#00BDFF" fill-opacity="0.4"/>
            <path d="M834.313 194.426H832.859V205H834.313V194.426Z" fill="#00BDFF" fill-opacity="0.4"/>
            <path d="M844.089 184H842.636V205H844.089V184Z" fill="#00BDFF" fill-opacity="0.4"/>
            <path d="M853.879 194.426H852.426V205H853.879V194.426Z" fill="#00BDFF" fill-opacity="0.4"/>
            <path d="M863.657 194.426H862.203V205H863.657V194.426Z" fill="#00BDFF" fill-opacity="0.4"/>
            <path d="M873.433 194.426H871.979V205H873.433V194.426Z" fill="#00BDFF" fill-opacity="0.4"/>
            <path d="M883.223 194.426H881.77V205H883.223V194.426Z" fill="#00BDFF" fill-opacity="0.4"/>
            <path d="M893.001 184H891.547V205H893.001V184Z" fill="#00BDFF" fill-opacity="0.4"/>
        </g>
    </g>
    <defs>
        <clipPath id="clip0_0_1">
            <rect width="852" height="21" fill="white" transform="translate(41 184)"/>
        </clipPath>
    </defs>
</svg>
