<svg width="326" height="349" viewBox="0 0 326 349" fill="none" xmlns="http://www.w3.org/2000/svg">
<path d="M0.5 30.58L27.6294 0.5H325.5V323.774L301.751 347.578H0.5V30.58Z" fill="#091629" fill-opacity="0.8" stroke="#39F0BA"/>
<path d="M25.4762 24.0001L11 40.0536V88.5919M315 249.662V314.411L299.559 331" stroke="#39F0BA"/>
<g clip-path="url(#clip0_516_30248)">
<g opacity="0.44">
<path d="M13.2279 322H12.4855V344H13.2279V322Z" fill="#00BDFF" fill-opacity="0.4"/>
<path d="M18.2209 332.922H17.4786V344H18.2209V332.922Z" fill="#00BDFF" fill-opacity="0.4"/>
<path d="M23.22 332.922H22.4777V344H23.22V332.922Z" fill="#00BDFF" fill-opacity="0.4"/>
<path d="M28.2131 332.922H27.4708V344H28.2131V332.922Z" fill="#00BDFF" fill-opacity="0.4"/>
<path d="M33.2061 322H32.4637V344H33.2061V322Z" fill="#00BDFF" fill-opacity="0.4"/>
<path d="M38.1987 332.922H37.4563V344H38.1987V332.922Z" fill="#00BDFF" fill-opacity="0.4"/>
<path d="M43.1983 332.922H42.4559V344H43.1983V332.922Z" fill="#00BDFF" fill-opacity="0.4"/>
<path d="M48.1912 332.922H47.4489V344H48.1912V332.922Z" fill="#00BDFF" fill-opacity="0.4"/>
<path d="M53.1838 332.922H52.4415V344H53.1838V332.922Z" fill="#00BDFF" fill-opacity="0.4"/>
<path d="M58.1769 322H57.4346V344H58.1769V322Z" fill="#00BDFF" fill-opacity="0.4"/>
<path d="M63.1764 332.922H62.434V344H63.1764V332.922Z" fill="#00BDFF" fill-opacity="0.4"/>
<path d="M68.169 332.922H67.4266V344H68.169V332.922Z" fill="#00BDFF" fill-opacity="0.4"/>
<path d="M73.1622 332.922H72.4198V344H73.1622V332.922Z" fill="#00BDFF" fill-opacity="0.4"/>
<path d="M78.1616 332.922H77.4192V344H78.1616V332.922Z" fill="#00BDFF" fill-opacity="0.4"/>
<path d="M83.1547 322H82.4123V344H83.1547V322Z" fill="#00BDFF" fill-opacity="0.4"/>
<path d="M88.1473 332.922H87.405V344H88.1473V332.922Z" fill="#00BDFF" fill-opacity="0.4"/>
<path d="M93.1402 332.922H92.3978V344H93.1402V332.922Z" fill="#00BDFF" fill-opacity="0.4"/>
<path d="M98.1398 332.922H97.3975V344H98.1398V332.922Z" fill="#00BDFF" fill-opacity="0.4"/>
<path d="M103.132 332.922H102.39V344H103.132V332.922Z" fill="#00BDFF" fill-opacity="0.4"/>
<path d="M108.125 322H107.383V344H108.125V322Z" fill="#00BDFF" fill-opacity="0.4"/>
<path d="M113.119 332.922H112.376V344H113.119V332.922Z" fill="#00BDFF" fill-opacity="0.4"/>
<path d="M118.118 332.922H117.375V344H118.118V332.922Z" fill="#00BDFF" fill-opacity="0.4"/>
<path d="M123.111 332.922H122.368V344H123.111V332.922Z" fill="#00BDFF" fill-opacity="0.4"/>
<path d="M128.104 332.922H127.361V344H128.104V332.922Z" fill="#00BDFF" fill-opacity="0.4"/>
<path d="M133.103 322H132.36V344H133.103V322Z" fill="#00BDFF" fill-opacity="0.4"/>
<path d="M138.096 332.922H137.353V344H138.096V332.922Z" fill="#00BDFF" fill-opacity="0.4"/>
<path d="M143.089 332.922H142.346V344H143.089V332.922Z" fill="#00BDFF" fill-opacity="0.4"/>
<path d="M148.081 332.922H147.339V344H148.081V332.922Z" fill="#00BDFF" fill-opacity="0.4"/>
<path d="M153.081 332.922H152.339V344H153.081V332.922Z" fill="#00BDFF" fill-opacity="0.4"/>
<path d="M158.074 322H157.332V344H158.074V322Z" fill="#00BDFF" fill-opacity="0.4"/>
<path d="M157.982 322H157.239V344H157.982V322Z" fill="#00BDFF" fill-opacity="0.4"/>
<path d="M162.975 332.922H162.232V344H162.975V332.922Z" fill="#00BDFF" fill-opacity="0.4"/>
<path d="M167.974 332.922H167.232V344H167.974V332.922Z" fill="#00BDFF" fill-opacity="0.4"/>
<path d="M172.967 332.922H172.225V344H172.967V332.922Z" fill="#00BDFF" fill-opacity="0.4"/>
<path d="M177.96 322H177.218V344H177.96V322Z" fill="#00BDFF" fill-opacity="0.4"/>
<path d="M182.953 332.922H182.21V344H182.953V332.922Z" fill="#00BDFF" fill-opacity="0.4"/>
<path d="M187.952 332.922H187.21V344H187.952V332.922Z" fill="#00BDFF" fill-opacity="0.4"/>
<path d="M192.945 332.922H192.203V344H192.945V332.922Z" fill="#00BDFF" fill-opacity="0.4"/>
<path d="M197.938 332.922H197.195V344H197.938V332.922Z" fill="#00BDFF" fill-opacity="0.4"/>
<path d="M202.931 322H202.188V344H202.931V322Z" fill="#00BDFF" fill-opacity="0.4"/>
<path d="M207.93 332.922H207.188V344H207.93V332.922Z" fill="#00BDFF" fill-opacity="0.4"/>
<path d="M212.923 332.922H212.181V344H212.923V332.922Z" fill="#00BDFF" fill-opacity="0.4"/>
<path d="M217.916 332.922H217.174V344H217.916V332.922Z" fill="#00BDFF" fill-opacity="0.4"/>
<path d="M222.915 332.922H222.173V344H222.915V332.922Z" fill="#00BDFF" fill-opacity="0.4"/>
<path d="M227.909 322H227.166V344H227.909V322Z" fill="#00BDFF" fill-opacity="0.4"/>
<path d="M232.901 332.922H232.159V344H232.901V332.922Z" fill="#00BDFF" fill-opacity="0.4"/>
<path d="M237.894 332.922H237.152V344H237.894V332.922Z" fill="#00BDFF" fill-opacity="0.4"/>
<path d="M242.894 332.922H242.151V344H242.894V332.922Z" fill="#00BDFF" fill-opacity="0.4"/>
<path d="M247.886 332.922H247.144V344H247.886V332.922Z" fill="#00BDFF" fill-opacity="0.4"/>
<path d="M252.879 322H252.137V344H252.879V322Z" fill="#00BDFF" fill-opacity="0.4"/>
<path d="M257.872 332.922H257.13V344H257.872V332.922Z" fill="#00BDFF" fill-opacity="0.4"/>
<path d="M262.871 332.922H262.129V344H262.871V332.922Z" fill="#00BDFF" fill-opacity="0.4"/>
<path d="M267.864 332.922H267.122V344H267.864V332.922Z" fill="#00BDFF" fill-opacity="0.4"/>
<path d="M272.858 332.922H272.115V344H272.858V332.922Z" fill="#00BDFF" fill-opacity="0.4"/>
<path d="M277.857 322H277.114V344H277.857V322Z" fill="#00BDFF" fill-opacity="0.4"/>
<path d="M282.85 332.922H282.107V344H282.85V332.922Z" fill="#00BDFF" fill-opacity="0.4"/>
<path d="M287.843 332.922H287.1V344H287.843V332.922Z" fill="#00BDFF" fill-opacity="0.4"/>
<path d="M292.835 332.922H292.093V344H292.835V332.922Z" fill="#00BDFF" fill-opacity="0.4"/>
</g>
</g>
<defs>
<clipPath id="clip0_516_30248">
<rect width="291" height="22" fill="white" transform="translate(5 322)"/>
</clipPath>
</defs>
</svg>
