<svg width="20" height="19" viewBox="0 0 20 19" fill="none" xmlns="http://www.w3.org/2000/svg">
<path d="M15.3734 18.4627L15.3699 18.4627C11.4197 18.4578 7.63757 16.9647 4.85176 14.3181C2.06691 11.6724 0.505188 8.09112 0.5 4.36118C0.50009 3.3457 0.924509 2.36631 1.689 1.64003C2.45444 0.912838 3.49783 0.500108 4.59082 0.500121L4.59444 0.500095C4.82114 0.498455 5.0474 0.518004 5.26991 0.558426L5.27976 0.560215L5.28967 0.561609C5.50367 0.591693 5.71386 0.641634 5.91718 0.710625L5.91718 0.710632L5.91973 0.711482C6.00464 0.739787 6.07738 0.787708 6.13222 0.847815C6.18689 0.907743 6.22199 0.977698 6.237 1.04993L6.23857 1.05753L6.24039 1.06508L7.60747 6.75309C7.60749 6.75316 7.6075 6.75324 7.60752 6.75331C7.62392 6.82219 7.62198 6.89364 7.60166 6.96196C7.58127 7.03051 7.54235 7.09581 7.48578 7.15081L7.48567 7.1507L7.47676 7.15981C7.44553 7.19176 7.44252 7.19403 7.43746 7.19785L7.43682 7.19833C7.42677 7.20594 7.39931 7.22503 7.32117 7.26807C7.16134 7.35609 6.86497 7.50387 6.2455 7.8101L5.80249 8.02908L6.01627 8.47462C7.05299 10.6353 8.86873 12.3642 11.1268 13.3527L11.5447 13.5357L11.7651 13.1362C12.0927 12.5426 12.2502 12.2595 12.3436 12.1072C12.3891 12.033 12.4088 12.0077 12.4162 11.9989L12.4167 11.9982C12.4204 11.9938 12.4229 11.9909 12.4565 11.9612L12.4566 11.9613L12.4659 11.9527C12.5242 11.8986 12.598 11.8573 12.6815 11.8349C12.7649 11.8125 12.8535 11.8102 12.9383 11.8285C12.9384 11.8285 12.9385 11.8285 12.9386 11.8285L18.9243 13.127C18.9246 13.127 18.9248 13.1271 18.9251 13.1271C19.011 13.1462 19.088 13.1852 19.1496 13.238C19.2113 13.291 19.2553 13.3557 19.2801 13.4246L19.2801 13.4246L19.2822 13.4302C19.3556 13.6263 19.4108 13.8278 19.4474 14.0325C19.4825 14.2412 19.5001 14.4521 19.5 14.6633C19.4829 15.6733 19.0465 16.6417 18.2767 17.3556C17.5052 18.0712 16.4618 18.4718 15.3734 18.4627Z" stroke="#39F0BA"/>
</svg>
