<svg width="66" height="76" viewBox="0 0 66 76" fill="none" xmlns="http://www.w3.org/2000/svg">
<g clip-path="url(#clip0_2_3686)">
<path d="M60.7368 31.8909C61.5345 32.23 62.4544 31.8558 62.7921 31.0549C63.4907 29.3946 63.8575 27.822 63.8924 26.3721C64.9055 25.6413 65.5751 24.4546 65.5751 23.1041C65.5751 20.8884 63.7935 19.0878 61.5985 19.0878C60.9988 19.0878 60.4399 19.234 59.9334 19.4678C56.4168 17.5327 50.8392 17.3749 44.2019 18.8656C42.2165 12.277 39.3113 7.43057 35.8937 5.30257C35.7015 3.26226 34.0189 1.66626 31.9521 1.66626C29.8852 1.66626 28.2026 3.26226 28.0105 5.30257C24.5987 7.43057 21.6934 12.2712 19.7081 18.8481C14.7068 17.7023 10.2471 17.4626 6.86439 18.2869C6.026 18.4915 5.50783 19.345 5.71161 20.1927C5.91538 21.0404 6.75959 21.5607 7.60381 21.3561C10.4974 20.6487 14.4274 20.8767 18.8872 21.894C18.1827 24.8346 17.6412 28.0441 17.3035 31.4583C14.4448 33.4927 11.8423 35.6324 9.55423 37.8189C8.82646 37.0355 8.1278 36.2463 7.50483 35.4629C3.65056 30.634 2.25324 26.413 3.67385 23.8875C4.09887 23.1275 3.83687 22.1629 3.08581 21.7361C2.33475 21.3035 1.37992 21.5724 0.949079 22.3324C-1.16437 26.0973 0.291175 31.4641 5.06535 37.4447C5.75818 38.3158 6.53253 39.1869 7.34181 40.058C6.53253 40.929 5.75818 41.7943 5.06535 42.6653C0.291175 48.6401 -1.17019 54.0069 0.943257 57.7776C2.64333 60.8001 6.45102 62.2616 11.5454 62.2616C13.9907 62.2616 16.7504 61.8933 19.7023 61.2269C22.4154 70.23 26.846 76.0001 31.9521 76.0001C34.7584 76.0001 37.454 74.2989 39.7479 71.0718C40.2487 70.3644 40.0915 69.3764 39.387 68.8678C38.6883 68.3592 37.7044 68.5229 37.2037 69.2303C36.0334 70.8789 34.1703 72.8373 31.9521 72.8373C28.0978 72.8373 24.8898 67.6576 22.7705 60.4318C25.7049 59.59 28.779 58.4792 31.9521 57.0586C35.1368 58.485 38.2225 59.6017 41.1744 60.4493C40.8251 61.6069 40.4583 62.7235 40.0449 63.7758C39.7247 64.5826 40.1206 65.5063 40.924 65.822C41.7275 66.1435 42.6357 65.746 42.956 64.9392C43.4159 63.7758 43.8176 62.5189 44.2077 61.2327C47.1479 61.8992 49.9134 62.2675 52.3529 62.2675C57.4473 62.2675 61.255 60.806 62.9551 57.7835C65.0743 54.0127 63.613 48.646 58.8388 42.6653C58.1402 41.7943 57.3658 40.9232 56.5565 40.0521C57.459 39.0875 58.3148 38.117 59.0717 37.1466C59.6073 36.4626 59.4909 35.4687 58.8097 34.9309C58.1343 34.393 57.1446 34.51 56.6089 35.194C55.9277 36.0709 55.1534 36.9478 54.3441 37.8189C52.0618 35.6383 49.4535 33.4986 46.6006 31.4641C46.2629 28.0675 45.7273 24.8696 45.0228 21.9466C50.3326 20.7072 54.9729 20.5201 57.8374 21.818C57.6977 22.2213 57.6103 22.654 57.6103 23.11C57.6103 25.0158 58.932 26.606 60.7019 27.0152C60.5738 28.0207 60.2478 29.0029 59.9043 29.8213C59.5666 30.6223 59.9392 31.5518 60.731 31.8909H60.7368ZM28.9886 8.33672C29.7164 9.16688 30.7702 9.69888 31.9521 9.69888C33.134 9.69888 34.1878 9.16688 34.9156 8.33672C37.4482 10.2075 39.5791 14.3816 41.1278 19.6549C38.1993 20.4967 35.1193 21.6309 31.9579 23.0515C28.8198 21.6484 25.734 20.5084 22.7822 19.649C24.3309 14.3816 26.456 10.2075 28.9944 8.33672H28.9886ZM21.9729 22.7066C23.9699 23.2912 26.0426 24.0103 28.1502 24.8638C26.945 25.4835 25.734 26.1266 24.5172 26.8223C23.2363 27.553 22.002 28.3189 20.7852 29.0964C21.0938 26.8924 21.4897 24.741 21.9671 22.7066H21.9729ZM43.8933 40.0463C43.8933 42.3789 43.7944 44.6764 43.6139 46.9038C41.7799 48.1607 39.8527 49.3709 37.8383 50.5226C35.9403 51.6041 33.9607 52.6213 31.9521 53.5509C29.9434 52.6213 27.9639 51.61 26.0659 50.5226C24.0689 49.3767 22.1476 48.1724 20.3252 46.9213C20.1215 44.6297 20.0167 42.3204 20.0167 40.0404C20.0167 37.7604 20.1273 35.4512 20.3252 33.1595C22.1476 31.9084 24.0689 30.7041 26.0659 29.5641C27.9697 28.4709 29.9609 27.4536 31.9754 26.5241C33.9316 27.442 35.8937 28.4475 37.8441 29.5641C39.8411 30.7041 41.7624 31.9143 43.5848 33.1595C43.7885 35.4512 43.8933 37.7604 43.8933 40.0404V40.0463ZM16.896 41.4201C16.1682 40.5841 15.1086 40.0463 13.9209 40.0463C13.3037 40.0463 12.7273 40.1983 12.2033 40.4496C12.0578 40.3152 11.9122 40.1807 11.7667 40.0463C13.3503 38.5321 15.1027 37.0413 16.995 35.5915C16.9251 37.0472 16.8785 38.5321 16.8785 40.0463C16.8785 40.5081 16.8843 40.9641 16.8902 41.4201H16.896ZM3.67385 56.2167C2.25324 53.6912 3.65056 49.4761 7.50483 44.6472C8.1278 43.858 8.82646 43.0746 9.55423 42.2912C9.74636 42.4724 9.94432 42.6595 10.1481 42.8466C10.0258 43.2383 9.93849 43.6416 9.93849 44.0743C9.93849 46.29 11.7201 48.0847 13.9209 48.0847C14.6137 48.0847 15.2541 47.8918 15.8189 47.582C16.3021 47.9444 16.8028 48.2952 17.3093 48.6518C17.647 52.0484 18.1827 55.2463 18.8813 58.1693C11.6153 59.8706 5.5777 59.6016 3.67967 56.2226L3.67385 56.2167ZM21.9613 57.345C21.4897 55.3281 21.0996 53.1943 20.7852 51.002C22.002 51.7853 23.2363 52.5453 24.5172 53.2761C25.7165 53.9601 26.9159 54.6032 28.1036 55.2112C26.0368 56.0355 23.9641 56.7546 21.9613 57.345ZM35.8005 55.2053C36.9882 54.5973 38.1818 53.9601 39.387 53.2703C40.6853 52.5278 41.9429 51.7503 43.1714 50.9669C42.8686 53.2001 42.4785 55.334 42.0011 57.3567C39.975 56.7663 37.8907 56.0355 35.8005 55.2053ZM60.2303 56.2109C58.3323 59.59 52.2947 59.853 45.0228 58.1518C45.7273 55.1878 46.2571 51.9958 46.589 48.646C49.4535 46.6056 52.0618 44.466 54.3441 42.2795C55.0777 43.0629 55.7705 43.8521 56.3935 44.6355C60.2478 49.4644 61.6451 53.6795 60.2245 56.205L60.2303 56.2109ZM52.1375 40.0463C50.5481 41.5604 48.7956 43.057 46.8976 44.5127C46.9733 43.0395 47.0198 41.5546 47.0198 40.0463C47.0198 38.538 46.9791 37.0472 46.9092 35.5915C48.8014 37.0413 50.5539 38.5321 52.1375 40.0463ZM43.1132 29.0906C41.8963 28.313 40.662 27.5472 39.3812 26.8164C38.1876 26.1324 36.9882 25.4952 35.7889 24.8872C37.8616 24.0629 39.9284 23.338 41.9371 22.7475C42.4145 24.7703 42.8046 26.9041 43.1132 29.0906Z" fill="#39F0BA"/>
<path d="M37.9067 6.48783C38.5713 3.64965 36.8186 0.807946 33.9921 0.140691C31.1656 -0.526564 28.3355 1.23331 27.671 4.07148C27.0065 6.90965 28.7591 9.75137 31.5856 10.4186C34.4122 11.0859 37.2422 9.326 37.9067 6.48783Z" fill="#39F0BA"/>
<path d="M20.5129 46.3333C21.1775 43.4951 19.4248 40.6534 16.5983 39.9861C13.7718 39.3189 10.9417 41.0788 10.2772 43.9169C9.61267 46.7551 11.3653 49.5968 14.1918 50.2641C17.0184 50.9313 19.8484 49.1715 20.5129 46.3333Z" fill="#39F0BA"/>
<path d="M65.8631 23.6244C66.533 20.7875 64.7858 17.9424 61.9606 17.2697C59.1353 16.597 56.3019 18.3514 55.632 21.1883C54.962 24.0252 56.7093 26.8703 59.5345 27.543C62.3597 28.2157 65.1931 26.4613 65.8631 23.6244Z" fill="#39F0BA"/>
</g>
<defs>
<clipPath id="clip0_2_3686">
<rect width="66" height="76" fill="white"/>
</clipPath>
</defs>
</svg>
