<svg width="18" height="17" viewBox="0 0 18 17" fill="none" xmlns="http://www.w3.org/2000/svg">
<ellipse cx="2.57143" cy="2.61538" rx="2.57143" ry="2.61538" fill="#39F0BA"/>
<ellipse cx="2.57143" cy="14.3844" rx="2.57143" ry="2.61538" fill="#39F0BA"/>
<path d="M18 2.61538C18 4.05982 16.8488 5.23077 15.4286 5.23077C14.0084 5.23077 12.8572 4.05982 12.8572 2.61538C12.8572 1.17095 14.0084 0 15.4286 0C16.8488 0 18 1.17095 18 2.61538Z" fill="#39F0BA"/>
<path d="M11.4904 8.50015C11.4904 9.94459 10.3391 11.1155 8.91894 11.1155C7.49878 11.1155 6.34751 9.94459 6.34751 8.50015C6.34751 7.05571 7.49878 5.88477 8.91894 5.88477C10.3391 5.88477 11.4904 7.05571 11.4904 8.50015Z" fill="#39F0BA"/>
<ellipse cx="15.4286" cy="14.3844" rx="2.57143" ry="2.61538" fill="#39F0BA"/>
</svg>
