<svg width="174" height="44" viewBox="0 0 174 44" fill="none" xmlns="http://www.w3.org/2000/svg">
<path d="M43.2385 11.1207C47.5031 11.1207 50.9631 14.5927 50.9631 18.8788C50.9631 23.1648 47.506 26.6369 43.2385 26.6369C41.0929 26.6369 39.1536 25.7577 37.7537 24.3399C37.3912 25.6127 36.9049 26.8322 36.3096 27.9866C38.2311 29.4636 40.6331 30.3427 43.2414 30.3427C49.5455 30.3427 54.6559 25.2102 54.6559 18.8788C54.6559 12.5474 49.5455 7.41479 43.2414 7.41479C40.6331 7.41479 38.2341 8.29391 36.3096 9.77093C36.9049 10.9253 37.3912 12.1448 37.7537 13.4176C39.1536 11.9998 41.0929 11.1207 43.2385 11.1207Z" fill="#1097AB"/>
<path d="M43.2384 0C38.909 0 34.9214 1.47407 31.7443 3.94564C32.6786 4.7626 33.5362 5.66835 34.3025 6.6481C36.8047 4.80108 39.8934 3.70589 43.2384 3.70589C51.582 3.70589 58.3458 10.499 58.3458 18.8787C58.3458 27.2584 51.582 34.0515 43.2384 34.0515C39.8934 34.0515 36.8047 32.9593 34.3025 31.1093C34.0549 30.9258 33.8103 30.7364 33.5746 30.538C32.6138 29.7329 31.7561 28.8094 31.0164 27.7941C30.1794 26.6398 29.5015 25.361 29.0123 23.9935C28.4435 22.3952 28.1311 20.6754 28.1311 18.8787C28.1311 17.082 28.1664 16.2295 28.7352 14.6311C28.0751 13.5064 27.5298 12.5799 26.2832 10.7269C24.9982 13.2814 24.4382 15.8181 24.4382 18.8757C24.4382 21.9334 25.1662 24.8223 26.4541 27.3768C27.02 28.4986 27.6919 29.5553 28.4582 30.5351C29.2215 31.5089 30.0792 32.4058 31.0164 33.2139C31.2522 33.4181 31.4938 33.6164 31.7414 33.8088C34.9185 36.2804 38.906 37.7545 43.2355 37.7545C53.6155 37.7545 62.0328 29.3008 62.0328 18.8757C62.0328 8.45072 53.6185 0 43.2384 0Z" fill="#1097AB"/>
<path d="M18.7973 37.7574C23 37.7574 26.8756 36.3662 30.0084 34.0249H30.0232C30.1145 33.9568 30.203 33.8828 30.2943 33.8118H30.2973C29.7786 33.3559 29.2834 32.8735 28.8148 32.3703C28.5908 32.1276 28.3757 31.8819 28.1664 31.6303C28.134 31.5918 28.1045 31.5533 28.0721 31.5148C25.234 28.0872 23.5216 23.6857 23.5216 18.8787C23.5216 16.4693 23.9519 14.1605 24.7359 12.0264L25.6849 9.98399L22.8791 4.26828C24.6504 4.76556 26.292 5.57955 27.7361 6.6481C27.9837 6.83162 28.2283 7.02106 28.4641 7.21938C29.4249 8.02449 30.2825 8.948 31.0223 9.96327C31.8593 11.1177 32.5371 12.3964 33.0264 13.7639C33.5952 15.3623 33.9076 17.082 33.9076 18.8787C33.9076 20.6754 33.5952 22.3952 33.0264 23.9935C33.6659 25.2782 34.5353 26.4266 35.5845 27.3798C36.2005 26.1543 36.6927 24.8519 37.0316 23.4904C37.4 22.0133 37.6004 20.4682 37.6004 18.8787C37.6004 17.2892 37.403 15.7411 37.0316 14.2671C36.6897 12.9055 36.2005 11.6031 35.5845 10.3777C35.0187 9.25584 34.3467 8.19913 33.5804 7.21938C32.8171 6.24554 31.9595 5.34867 31.0223 4.5406C30.7865 4.33636 30.5448 4.13804 30.2973 3.94564C27.6183 1.86774 24.3734 0.497276 20.8338 0.115439C20.8073 0.109519 20.7807 0.109519 20.7572 0.106559C20.486 0.0769593 20.2149 0.0562395 19.9408 0.0384797C19.8818 0.0355197 19.8229 0.0295997 19.764 0.0266398C19.4427 0.00887992 19.1215 0 18.8002 0C18.4554 0 18.1165 0.0118399 17.7775 0.0295997C17.7716 0.0295997 17.7628 0.0295997 17.7569 0.0295997C7.85725 0.574235 0 8.80296 0 18.8787C0 28.9545 8.41722 37.7574 18.7973 37.7574ZM20.2001 23.1056L16.1418 23.5762L15.1074 17.6296L17.5742 14.1783L21.1845 16.1437L20.2001 23.1026V23.1056ZM15.461 4.0818L7.37685 28.8005C5.08393 26.1395 3.69285 22.6734 3.69285 18.8758C3.69285 11.6475 8.72667 5.60619 15.464 4.07884L15.461 4.0818Z" fill="#66449B"/>
<path d="M74.6996 6.05493L67.8626 10.0175L66.8611 10.5994V15.1754V25.8756H70.7515V12.919L74.6996 10.631L78.6451 12.919V25.8756H82.5931V15.2096V10.631L81.534 10.0175L74.6996 6.05493Z" fill="#66449B"/>
<path d="M122.501 10.6362V25.8756H126.392L126.386 10.6362H122.501Z" fill="#1097AB"/>
<path d="M119.869 10.6309H115.921L115.924 13.8509L107.747 18.5955V17.5054L107.75 17.5028V14.6013H107.744V10.6361H103.859V15.1832V19.7592L103.864 25.9492H107.755L107.747 23.5822L107.771 23.1583L119.882 16.1337L119.874 16.5839L119.869 10.6309Z" fill="#1097AB"/>
<path d="M97.342 23.5875L93.3966 25.8755L89.4485 23.5875V10.6309H85.5031V21.2968V25.8755L86.5595 26.489L93.3966 30.4515L100.234 26.489L101.235 25.9071V21.3311V10.6309H97.342V23.5875Z" fill="#1097AB"/>
<path d="M144.79 25.9386V22.3921L144.761 11.9999V10.6624L143.704 10.0489L136.867 6.08374L130.03 10.0489L129.029 10.6282V16.7497L129.058 24.7801V25.9044L130.114 26.5179L136.951 30.483L140.842 28.2266V32.8211L136.98 35.0617L133.032 32.7737L129.084 30.4857V35.0643L130.14 35.6778L136.978 39.643L143.815 35.6778H143.757L144.813 35.0643V32.1629H144.785V25.9412L144.79 25.9386ZM136.951 25.907L133.003 23.619L132.974 12.9188L136.865 10.6624L140.813 12.9504L140.871 12.982V12.9873L140.813 12.9478L140.842 23.648L136.951 25.9044V25.907Z" fill="#1097AB"/>
<path d="M162.066 10.0175L155.229 6.05493L148.394 10.0175L147.393 10.5994V15.1754V25.8756H151.283V12.919L155.229 10.631L159.177 12.919V25.8756H163.125V15.2096V10.631L162.066 10.0175Z" fill="#1097AB"/>
</svg>
