<svg width="90" height="85" viewBox="0 0 98 85" fill="none" xmlns="http://www.w3.org/2000/svg">
<g filter="url(#filter0_d_1118_43553)">
<g filter="url(#filter1_d_1118_43553)">
<path d="M41.3809 37.0952L41.4958 48.2875" stroke="#39F0BA" stroke-width="5" stroke-linecap="round" stroke-linejoin="round"/>
</g>
<g filter="url(#filter2_d_1118_43553)">
<path d="M41.417 55.5728L41.4277 55.5729" stroke="#39F0BA" stroke-width="5" stroke-linecap="round" stroke-linejoin="round"/>
</g>
<g clip-path="url(#clip0_1118_43553)">
<g filter="url(#filter3_d_1118_43553)">
<path d="M58.6185 46.9972C58.6752 46.9972 58.729 46.9917 58.7771 46.9778L65.5429 45.1987C65.7015 45.1571 65.8346 45.0544 65.9167 44.9156C65.9988 44.774 66.0215 44.6103 65.979 44.4521C65.8941 44.1329 65.5401 43.9358 65.2229 44.0191L58.4599 45.7982C58.2985 45.8398 58.1654 45.9398 58.0833 46.0813C58.0012 46.2229 57.9785 46.3866 58.021 46.5448C58.0918 46.814 58.3382 47 58.6185 47V46.9972Z" fill="#39F0BA"/>
</g>
<g filter="url(#filter4_d_1118_43553)">
<path d="M70.1288 66.0171L62.5162 67.7991C62.1466 67.8852 61.9267 68.2188 62.0223 68.5441C62.102 68.8137 62.3792 69 62.6947 69C62.752 69 62.8126 68.9944 62.8731 68.9805L70.4825 67.1986C70.6609 67.1569 70.8139 67.0568 70.9063 66.915C70.9987 66.7733 71.0242 66.6092 70.9764 66.4536C70.8808 66.1366 70.4984 65.9337 70.1256 66.0199L70.1288 66.0171Z" fill="#39F0BA"/>
</g>
<g filter="url(#filter5_d_1118_43553)">
<path d="M83.1945 36.1987C82.928 35.9354 82.472 35.9322 82.2055 36.1987C82.0739 36.3287 82 36.5064 82 36.6904C82 36.8775 82.0739 37.052 82.2055 37.1852L87.8055 42.7938C87.9372 42.9239 88.1138 43 88.3 43C88.361 43 88.422 42.9905 88.483 42.9778C88.5986 42.9461 88.7078 42.8826 88.7945 42.797C88.9261 42.6669 89 42.4924 89 42.3053C89 42.1181 88.9294 41.9436 88.7977 41.8104L83.1977 36.2018L83.1945 36.1987Z" fill="#39F0BA"/>
</g>
<g filter="url(#filter6_d_1118_43553)">
<path d="M55.4037 32.023C54.9929 31.925 54.5265 32.1495 54.4118 32.513L52.0282 40.1244C51.9727 40.3046 51.9986 40.4911 52.1097 40.6523C52.217 40.8135 52.391 40.9273 52.5982 40.9747C52.6648 40.9905 52.7389 41 52.8092 41C52.8758 41 52.9461 40.9937 53.0165 40.9779C53.294 40.9115 53.5124 40.725 53.5864 40.4879L55.97 32.8733C56.0292 32.6963 55.9996 32.5066 55.8922 32.3454C55.7849 32.1842 55.611 32.0704 55.4074 32.023H55.4037Z" fill="#39F0BA"/>
</g>
<g filter="url(#filter7_d_1118_43553)">
<path d="M67.1951 52.1988C66.9317 51.9353 66.4755 51.9322 66.2025 52.1988C66.0708 52.3321 65.9969 52.5098 66.0001 52.6939C66.0001 52.8811 66.074 53.0557 66.2025 53.1858L71.805 58.8001C71.9367 58.9302 72.1134 59 72.2997 59C72.3607 59 72.4218 58.9937 72.4796 58.9778C72.5984 58.946 72.7109 58.8826 72.7944 58.7969C72.9261 58.6636 73 58.489 73 58.305C73 58.1177 72.9261 57.9432 72.7944 57.8067L67.1919 52.1956L67.1951 52.1988Z" fill="#39F0BA"/>
</g>
<g filter="url(#filter8_d_1118_43553)">
<path d="M75.552 38.023C75.244 37.9251 74.8916 38.1494 74.8083 38.5128L73.0213 46.1247C72.9797 46.3048 72.9991 46.4913 73.0796 46.6524C73.1628 46.8136 73.2932 46.9273 73.4458 46.9747C73.4986 46.9905 73.5513 47 73.604 47C73.654 47 73.7067 46.9937 73.7594 46.9779C73.9675 46.9147 74.134 46.7251 74.1895 46.4881L75.9793 38.8793C76.021 38.6992 75.9988 38.5128 75.9211 38.3516C75.8406 38.1905 75.7102 38.0767 75.5576 38.0293L75.552 38.023Z" fill="#39F0BA"/>
</g>
<g filter="url(#filter9_d_1118_43553)">
<mask id="path-9-outside-1_1118_43553" maskUnits="userSpaceOnUse" x="45" y="24.0007" width="50" height="51" fill="black">
<rect fill="white" x="45" y="24.0007" width="50" height="51"/>
<path d="M93.9444 40.9513C93.7245 40.1032 92.8486 39.5642 91.9952 39.7904L85.2008 32.8286C85.2791 32.5497 85.2828 32.2481 85.2083 31.9617C85.0182 31.2493 84.3846 30.748 83.6616 30.748C83.52 30.748 83.3821 30.7668 83.2479 30.8045C82.6888 30.9553 82.2677 31.3925 82.1186 31.9428L72.7601 34.4833C72.3651 34.0838 71.7687 33.9179 71.2246 34.0649H71.2134L64.4042 27.0768C64.4825 26.7978 64.4825 26.4963 64.4116 26.2136C64.1918 25.3618 63.2898 24.8265 62.455 25.0527C61.8997 25.2034 61.471 25.6407 61.322 26.191L51.9635 28.7314C51.5684 28.3357 50.9721 28.1661 50.428 28.3168C50.0143 28.4299 49.6676 28.6975 49.4552 29.0744C49.239 29.4514 49.1831 29.8924 49.2949 30.3145C49.362 30.5746 49.4887 30.8121 49.6714 31.0081L47.137 40.5555C46.7494 40.6761 46.4214 40.94 46.2164 41.2981C46.0003 41.675 45.9444 42.116 46.0562 42.5381C46.2686 43.3561 47.0886 43.8875 47.916 43.7217L54.8184 50.7965C54.7662 51.0528 54.7699 51.3091 54.837 51.5617C54.9041 51.818 55.0345 52.0592 55.2097 52.2514L52.6791 61.8178C52.2952 61.9384 51.9747 62.1984 51.7697 62.5565C51.5572 62.9334 51.4976 63.3744 51.6094 63.7966C51.8218 64.6145 52.653 65.1422 53.4692 64.9801L60.3418 72.0286C60.2896 72.2774 60.297 72.5337 60.3604 72.7862C60.5468 73.4986 61.1803 73.9999 61.9071 73.9999C62.045 73.9999 62.1866 73.9811 62.3208 73.9434C62.8463 73.8001 63.2637 73.3893 63.4314 72.8691L72.8608 70.3098C73.2521 70.6754 73.8074 70.8262 74.3478 70.683C74.7615 70.5699 75.1081 70.3023 75.3243 69.9216C75.5367 69.5447 75.5964 69.1037 75.4883 68.6853C75.4137 68.4101 75.2758 68.1614 75.082 67.9578L77.6015 58.4405C77.6425 58.4254 77.6872 58.4141 77.7245 58.3953C78.1866 58.2219 78.5407 57.8412 78.6898 57.3663L88.1191 54.807C88.5104 55.1764 89.0806 55.3234 89.6062 55.1801C90.0198 55.0708 90.3665 54.7994 90.5789 54.4188C90.7951 54.0418 90.851 53.6008 90.7429 53.1787C90.6721 52.9073 90.5304 52.6585 90.3366 52.455L92.8561 42.9339C93.2512 42.8171 93.5791 42.5494 93.7916 42.1876C94.004 41.8107 94.0636 41.3697 93.9518 40.9475L93.9444 40.9513ZM49.1272 42.6135C49.2204 42.3195 49.2279 42.0029 49.1496 41.6976C49.0751 41.4111 48.926 41.1473 48.721 40.9438L51.2255 31.4754C51.2255 31.4754 51.2404 31.4717 51.2479 31.4679C51.8069 31.3171 52.2281 30.8799 52.3772 30.3296L61.7357 27.7891C62.1195 28.1736 62.6972 28.347 63.2265 28.2151L70.0841 35.2447C70.0171 35.5085 70.0208 35.7912 70.0879 36.0551C70.1549 36.3151 70.2891 36.5526 70.4643 36.7486L67.9337 46.3149C67.6504 46.4054 67.397 46.5712 67.2032 46.8011C67.0429 46.9858 66.9311 47.2044 66.864 47.4381L57.5055 49.9748C57.2074 49.6771 56.8011 49.5037 56.3837 49.5037C56.2458 49.5037 56.1042 49.5225 55.9737 49.5564C55.9551 49.564 55.9365 49.5678 55.9178 49.5715L49.1272 42.6135ZM73.5055 67.5281C72.939 67.6864 72.5067 68.1501 72.3762 68.723L63.0737 71.2484C62.7718 70.9204 62.3506 70.732 61.9071 70.732C61.7692 70.732 61.6276 70.7508 61.4971 70.7848C61.4785 70.7923 61.4599 70.7961 61.4412 70.7998L54.6842 63.872C54.7774 63.578 54.7848 63.2614 54.7065 62.9598C54.632 62.6658 54.4755 62.402 54.263 62.1984L56.7676 52.7301C56.7676 52.7301 56.7862 52.7301 56.7937 52.7226C57.3378 52.5756 57.759 52.1534 57.9155 51.6107L67.3038 49.0627C67.6765 49.4283 68.2244 49.5904 68.7238 49.4811L75.5777 56.5069C75.5218 56.7632 75.5256 57.0308 75.5926 57.2909C75.6672 57.5698 75.8125 57.8261 76.0175 58.0334L73.5018 67.5281H73.5055ZM88.7601 52.0291C88.1973 52.1874 87.765 52.651 87.6346 53.2239L78.332 55.7493C78.0301 55.4214 77.6089 55.2291 77.1654 55.2291C77.0238 55.2291 76.8859 55.248 76.7555 55.2857C76.7517 55.2857 76.7443 55.2857 76.7406 55.2857L69.9537 48.3239C70.0357 48.0412 70.0394 47.7397 69.9611 47.4532C69.8866 47.1668 69.7375 46.9067 69.5325 46.7031L72.0408 37.2197C72.0408 37.2197 72.0483 37.2197 72.052 37.2197C72.611 37.069 73.0359 36.6355 73.185 36.0814L82.5435 33.5448C82.9274 33.9292 83.4827 34.1026 84.0306 33.9707L90.851 40.9626C90.7839 41.234 90.7839 41.5204 90.851 41.7918C90.9255 42.0745 91.0709 42.3308 91.2721 42.5344L88.7601 52.0291Z"/>
</mask>
<path d="M93.9444 40.9513C93.7245 40.1032 92.8486 39.5642 91.9952 39.7904L85.2008 32.8286C85.2791 32.5497 85.2828 32.2481 85.2083 31.9617C85.0182 31.2493 84.3846 30.748 83.6616 30.748C83.52 30.748 83.3821 30.7668 83.2479 30.8045C82.6888 30.9553 82.2677 31.3925 82.1186 31.9428L72.7601 34.4833C72.3651 34.0838 71.7687 33.9179 71.2246 34.0649H71.2134L64.4042 27.0768C64.4825 26.7978 64.4825 26.4963 64.4116 26.2136C64.1918 25.3618 63.2898 24.8265 62.455 25.0527C61.8997 25.2034 61.471 25.6407 61.322 26.191L51.9635 28.7314C51.5684 28.3357 50.9721 28.1661 50.428 28.3168C50.0143 28.4299 49.6676 28.6975 49.4552 29.0744C49.239 29.4514 49.1831 29.8924 49.2949 30.3145C49.362 30.5746 49.4887 30.8121 49.6714 31.0081L47.137 40.5555C46.7494 40.6761 46.4214 40.94 46.2164 41.2981C46.0003 41.675 45.9444 42.116 46.0562 42.5381C46.2686 43.3561 47.0886 43.8875 47.916 43.7217L54.8184 50.7965C54.7662 51.0528 54.7699 51.3091 54.837 51.5617C54.9041 51.818 55.0345 52.0592 55.2097 52.2514L52.6791 61.8178C52.2952 61.9384 51.9747 62.1984 51.7697 62.5565C51.5572 62.9334 51.4976 63.3744 51.6094 63.7966C51.8218 64.6145 52.653 65.1422 53.4692 64.9801L60.3418 72.0286C60.2896 72.2774 60.297 72.5337 60.3604 72.7862C60.5468 73.4986 61.1803 73.9999 61.9071 73.9999C62.045 73.9999 62.1866 73.9811 62.3208 73.9434C62.8463 73.8001 63.2637 73.3893 63.4314 72.8691L72.8608 70.3098C73.2521 70.6754 73.8074 70.8262 74.3478 70.683C74.7615 70.5699 75.1081 70.3023 75.3243 69.9216C75.5367 69.5447 75.5964 69.1037 75.4883 68.6853C75.4137 68.4101 75.2758 68.1614 75.082 67.9578L77.6015 58.4405C77.6425 58.4254 77.6872 58.4141 77.7245 58.3953C78.1866 58.2219 78.5407 57.8412 78.6898 57.3663L88.1191 54.807C88.5104 55.1764 89.0806 55.3234 89.6062 55.1801C90.0198 55.0708 90.3665 54.7994 90.5789 54.4188C90.7951 54.0418 90.851 53.6008 90.7429 53.1787C90.6721 52.9073 90.5304 52.6585 90.3366 52.455L92.8561 42.9339C93.2512 42.8171 93.5791 42.5494 93.7916 42.1876C94.004 41.8107 94.0636 41.3697 93.9518 40.9475L93.9444 40.9513ZM49.1272 42.6135C49.2204 42.3195 49.2279 42.0029 49.1496 41.6976C49.0751 41.4111 48.926 41.1473 48.721 40.9438L51.2255 31.4754C51.2255 31.4754 51.2404 31.4717 51.2479 31.4679C51.8069 31.3171 52.2281 30.8799 52.3772 30.3296L61.7357 27.7891C62.1195 28.1736 62.6972 28.347 63.2265 28.2151L70.0841 35.2447C70.0171 35.5085 70.0208 35.7912 70.0879 36.0551C70.1549 36.3151 70.2891 36.5526 70.4643 36.7486L67.9337 46.3149C67.6504 46.4054 67.397 46.5712 67.2032 46.8011C67.0429 46.9858 66.9311 47.2044 66.864 47.4381L57.5055 49.9748C57.2074 49.6771 56.8011 49.5037 56.3837 49.5037C56.2458 49.5037 56.1042 49.5225 55.9737 49.5564C55.9551 49.564 55.9365 49.5678 55.9178 49.5715L49.1272 42.6135ZM73.5055 67.5281C72.939 67.6864 72.5067 68.1501 72.3762 68.723L63.0737 71.2484C62.7718 70.9204 62.3506 70.732 61.9071 70.732C61.7692 70.732 61.6276 70.7508 61.4971 70.7848C61.4785 70.7923 61.4599 70.7961 61.4412 70.7998L54.6842 63.872C54.7774 63.578 54.7848 63.2614 54.7065 62.9598C54.632 62.6658 54.4755 62.402 54.263 62.1984L56.7676 52.7301C56.7676 52.7301 56.7862 52.7301 56.7937 52.7226C57.3378 52.5756 57.759 52.1534 57.9155 51.6107L67.3038 49.0627C67.6765 49.4283 68.2244 49.5904 68.7238 49.4811L75.5777 56.5069C75.5218 56.7632 75.5256 57.0308 75.5926 57.2909C75.6672 57.5698 75.8125 57.8261 76.0175 58.0334L73.5018 67.5281H73.5055ZM88.7601 52.0291C88.1973 52.1874 87.765 52.651 87.6346 53.2239L78.332 55.7493C78.0301 55.4214 77.6089 55.2291 77.1654 55.2291C77.0238 55.2291 76.8859 55.248 76.7555 55.2857C76.7517 55.2857 76.7443 55.2857 76.7406 55.2857L69.9537 48.3239C70.0357 48.0412 70.0394 47.7397 69.9611 47.4532C69.8866 47.1668 69.7375 46.9067 69.5325 46.7031L72.0408 37.2197C72.0408 37.2197 72.0483 37.2197 72.052 37.2197C72.611 37.069 73.0359 36.6355 73.185 36.0814L82.5435 33.5448C82.9274 33.9292 83.4827 34.1026 84.0306 33.9707L90.851 40.9626C90.7839 41.234 90.7839 41.5204 90.851 41.7918C90.9255 42.0745 91.0709 42.3308 91.2721 42.5344L88.7601 52.0291Z" fill="#39F0BA"/>
<path d="M93.9444 40.9513C93.7245 40.1032 92.8486 39.5642 91.9952 39.7904L85.2008 32.8286C85.2791 32.5497 85.2828 32.2481 85.2083 31.9617C85.0182 31.2493 84.3846 30.748 83.6616 30.748C83.52 30.748 83.3821 30.7668 83.2479 30.8045C82.6888 30.9553 82.2677 31.3925 82.1186 31.9428L72.7601 34.4833C72.3651 34.0838 71.7687 33.9179 71.2246 34.0649H71.2134L64.4042 27.0768C64.4825 26.7978 64.4825 26.4963 64.4116 26.2136C64.1918 25.3618 63.2898 24.8265 62.455 25.0527C61.8997 25.2034 61.471 25.6407 61.322 26.191L51.9635 28.7314C51.5684 28.3357 50.9721 28.1661 50.428 28.3168C50.0143 28.4299 49.6676 28.6975 49.4552 29.0744C49.239 29.4514 49.1831 29.8924 49.2949 30.3145C49.362 30.5746 49.4887 30.8121 49.6714 31.0081L47.137 40.5555C46.7494 40.6761 46.4214 40.94 46.2164 41.2981C46.0003 41.675 45.9444 42.116 46.0562 42.5381C46.2686 43.3561 47.0886 43.8875 47.916 43.7217L54.8184 50.7965C54.7662 51.0528 54.7699 51.3091 54.837 51.5617C54.9041 51.818 55.0345 52.0592 55.2097 52.2514L52.6791 61.8178C52.2952 61.9384 51.9747 62.1984 51.7697 62.5565C51.5572 62.9334 51.4976 63.3744 51.6094 63.7966C51.8218 64.6145 52.653 65.1422 53.4692 64.9801L60.3418 72.0286C60.2896 72.2774 60.297 72.5337 60.3604 72.7862C60.5468 73.4986 61.1803 73.9999 61.9071 73.9999C62.045 73.9999 62.1866 73.9811 62.3208 73.9434C62.8463 73.8001 63.2637 73.3893 63.4314 72.8691L72.8608 70.3098C73.2521 70.6754 73.8074 70.8262 74.3478 70.683C74.7615 70.5699 75.1081 70.3023 75.3243 69.9216C75.5367 69.5447 75.5964 69.1037 75.4883 68.6853C75.4137 68.4101 75.2758 68.1614 75.082 67.9578L77.6015 58.4405C77.6425 58.4254 77.6872 58.4141 77.7245 58.3953C78.1866 58.2219 78.5407 57.8412 78.6898 57.3663L88.1191 54.807C88.5104 55.1764 89.0806 55.3234 89.6062 55.1801C90.0198 55.0708 90.3665 54.7994 90.5789 54.4188C90.7951 54.0418 90.851 53.6008 90.7429 53.1787C90.6721 52.9073 90.5304 52.6585 90.3366 52.455L92.8561 42.9339C93.2512 42.8171 93.5791 42.5494 93.7916 42.1876C94.004 41.8107 94.0636 41.3697 93.9518 40.9475L93.9444 40.9513ZM49.1272 42.6135C49.2204 42.3195 49.2279 42.0029 49.1496 41.6976C49.0751 41.4111 48.926 41.1473 48.721 40.9438L51.2255 31.4754C51.2255 31.4754 51.2404 31.4717 51.2479 31.4679C51.8069 31.3171 52.2281 30.8799 52.3772 30.3296L61.7357 27.7891C62.1195 28.1736 62.6972 28.347 63.2265 28.2151L70.0841 35.2447C70.0171 35.5085 70.0208 35.7912 70.0879 36.0551C70.1549 36.3151 70.2891 36.5526 70.4643 36.7486L67.9337 46.3149C67.6504 46.4054 67.397 46.5712 67.2032 46.8011C67.0429 46.9858 66.9311 47.2044 66.864 47.4381L57.5055 49.9748C57.2074 49.6771 56.8011 49.5037 56.3837 49.5037C56.2458 49.5037 56.1042 49.5225 55.9737 49.5564C55.9551 49.564 55.9365 49.5678 55.9178 49.5715L49.1272 42.6135ZM73.5055 67.5281C72.939 67.6864 72.5067 68.1501 72.3762 68.723L63.0737 71.2484C62.7718 70.9204 62.3506 70.732 61.9071 70.732C61.7692 70.732 61.6276 70.7508 61.4971 70.7848C61.4785 70.7923 61.4599 70.7961 61.4412 70.7998L54.6842 63.872C54.7774 63.578 54.7848 63.2614 54.7065 62.9598C54.632 62.6658 54.4755 62.402 54.263 62.1984L56.7676 52.7301C56.7676 52.7301 56.7862 52.7301 56.7937 52.7226C57.3378 52.5756 57.759 52.1534 57.9155 51.6107L67.3038 49.0627C67.6765 49.4283 68.2244 49.5904 68.7238 49.4811L75.5777 56.5069C75.5218 56.7632 75.5256 57.0308 75.5926 57.2909C75.6672 57.5698 75.8125 57.8261 76.0175 58.0334L73.5018 67.5281H73.5055ZM88.7601 52.0291C88.1973 52.1874 87.765 52.651 87.6346 53.2239L78.332 55.7493C78.0301 55.4214 77.6089 55.2291 77.1654 55.2291C77.0238 55.2291 76.8859 55.248 76.7555 55.2857C76.7517 55.2857 76.7443 55.2857 76.7406 55.2857L69.9537 48.3239C70.0357 48.0412 70.0394 47.7397 69.9611 47.4532C69.8866 47.1668 69.7375 46.9067 69.5325 46.7031L72.0408 37.2197C72.0408 37.2197 72.0483 37.2197 72.052 37.2197C72.611 37.069 73.0359 36.6355 73.185 36.0814L82.5435 33.5448C82.9274 33.9292 83.4827 34.1026 84.0306 33.9707L90.851 40.9626C90.7839 41.234 90.7839 41.5204 90.851 41.7918C90.9255 42.0745 91.0709 42.3308 91.2721 42.5344L88.7601 52.0291Z" stroke="#39F0BA" mask="url(#path-9-outside-1_1118_43553)"/>
</g>
</g>
<g filter="url(#filter10_d_1118_43553)">
<path d="M50.3839 28.2406L44.0471 16.5977C42.939 14.5618 40.0391 14.4981 38.8426 16.4833L11.7413 61.4515C10.5363 63.4509 11.9762 66 14.3107 66H41.5446H54" stroke="#39F0BA" stroke-width="3" stroke-linecap="round" stroke-linejoin="round"/>
</g>
</g>
<defs>
<filter id="filter0_d_1118_43553" x="5.80371" y="13.532" width="92.1963" height="68.468" filterUnits="userSpaceOnUse" color-interpolation-filters="sRGB">
<feFlood flood-opacity="0" result="BackgroundImageFix"/>
<feColorMatrix in="SourceAlpha" type="matrix" values="0 0 0 0 0 0 0 0 0 0 0 0 0 0 0 0 0 0 127 0" result="hardAlpha"/>
<feOffset dy="4"/>
<feGaussianBlur stdDeviation="2"/>
<feComposite in2="hardAlpha" operator="out"/>
<feColorMatrix type="matrix" values="0 0 0 0 0 0 0 0 0 0 0 0 0 0 0 0 0 0 0.25 0"/>
<feBlend mode="normal" in2="BackgroundImageFix" result="effect1_dropShadow_1118_43553"/>
<feBlend mode="normal" in="SourceGraphic" in2="effect1_dropShadow_1118_43553" result="shape"/>
</filter>
<filter id="filter1_d_1118_43553" x="29.8809" y="25.5952" width="23.1147" height="34.1924" filterUnits="userSpaceOnUse" color-interpolation-filters="sRGB">
<feFlood flood-opacity="0" result="BackgroundImageFix"/>
<feColorMatrix in="SourceAlpha" type="matrix" values="0 0 0 0 0 0 0 0 0 0 0 0 0 0 0 0 0 0 127 0" result="hardAlpha"/>
<feOffset/>
<feGaussianBlur stdDeviation="4.5"/>
<feComposite in2="hardAlpha" operator="out"/>
<feColorMatrix type="matrix" values="0 0 0 0 0.694118 0 0 0 0 0.309804 0 0 0 0 1 0 0 0 0.2 0"/>
<feBlend mode="normal" in2="BackgroundImageFix" result="effect1_dropShadow_1118_43553"/>
<feBlend mode="normal" in="SourceGraphic" in2="effect1_dropShadow_1118_43553" result="shape"/>
</filter>
<filter id="filter2_d_1118_43553" x="29.917" y="44.0728" width="23.0107" height="23" filterUnits="userSpaceOnUse" color-interpolation-filters="sRGB">
<feFlood flood-opacity="0" result="BackgroundImageFix"/>
<feColorMatrix in="SourceAlpha" type="matrix" values="0 0 0 0 0 0 0 0 0 0 0 0 0 0 0 0 0 0 127 0" result="hardAlpha"/>
<feOffset/>
<feGaussianBlur stdDeviation="4.5"/>
<feComposite in2="hardAlpha" operator="out"/>
<feColorMatrix type="matrix" values="0 0 0 0 0.694118 0 0 0 0 0.309804 0 0 0 0 1 0 0 0 0.2 0"/>
<feBlend mode="normal" in2="BackgroundImageFix" result="effect1_dropShadow_1118_43553"/>
<feBlend mode="normal" in="SourceGraphic" in2="effect1_dropShadow_1118_43553" result="shape"/>
</filter>
<filter id="filter3_d_1118_43553" x="49" y="35" width="26" height="21" filterUnits="userSpaceOnUse" color-interpolation-filters="sRGB">
<feFlood flood-opacity="0" result="BackgroundImageFix"/>
<feColorMatrix in="SourceAlpha" type="matrix" values="0 0 0 0 0 0 0 0 0 0 0 0 0 0 0 0 0 0 127 0" result="hardAlpha"/>
<feOffset/>
<feGaussianBlur stdDeviation="4.5"/>
<feComposite in2="hardAlpha" operator="out"/>
<feColorMatrix type="matrix" values="0 0 0 0 0.694118 0 0 0 0 0.309804 0 0 0 0 1 0 0 0 0.2 0"/>
<feBlend mode="normal" in2="BackgroundImageFix" result="effect1_dropShadow_1118_43553"/>
<feBlend mode="normal" in="SourceGraphic" in2="effect1_dropShadow_1118_43553" result="shape"/>
</filter>
<filter id="filter4_d_1118_43553" x="53" y="57" width="27" height="21" filterUnits="userSpaceOnUse" color-interpolation-filters="sRGB">
<feFlood flood-opacity="0" result="BackgroundImageFix"/>
<feColorMatrix in="SourceAlpha" type="matrix" values="0 0 0 0 0 0 0 0 0 0 0 0 0 0 0 0 0 0 127 0" result="hardAlpha"/>
<feOffset/>
<feGaussianBlur stdDeviation="4.5"/>
<feComposite in2="hardAlpha" operator="out"/>
<feColorMatrix type="matrix" values="0 0 0 0 0.694118 0 0 0 0 0.309804 0 0 0 0 1 0 0 0 0.2 0"/>
<feBlend mode="normal" in2="BackgroundImageFix" result="effect1_dropShadow_1118_43553"/>
<feBlend mode="normal" in="SourceGraphic" in2="effect1_dropShadow_1118_43553" result="shape"/>
</filter>
<filter id="filter5_d_1118_43553" x="73" y="27" width="25" height="25" filterUnits="userSpaceOnUse" color-interpolation-filters="sRGB">
<feFlood flood-opacity="0" result="BackgroundImageFix"/>
<feColorMatrix in="SourceAlpha" type="matrix" values="0 0 0 0 0 0 0 0 0 0 0 0 0 0 0 0 0 0 127 0" result="hardAlpha"/>
<feOffset/>
<feGaussianBlur stdDeviation="4.5"/>
<feComposite in2="hardAlpha" operator="out"/>
<feColorMatrix type="matrix" values="0 0 0 0 0.694118 0 0 0 0 0.309804 0 0 0 0 1 0 0 0 0.2 0"/>
<feBlend mode="normal" in2="BackgroundImageFix" result="effect1_dropShadow_1118_43553"/>
<feBlend mode="normal" in="SourceGraphic" in2="effect1_dropShadow_1118_43553" result="shape"/>
</filter>
<filter id="filter6_d_1118_43553" x="43" y="23" width="22" height="27" filterUnits="userSpaceOnUse" color-interpolation-filters="sRGB">
<feFlood flood-opacity="0" result="BackgroundImageFix"/>
<feColorMatrix in="SourceAlpha" type="matrix" values="0 0 0 0 0 0 0 0 0 0 0 0 0 0 0 0 0 0 127 0" result="hardAlpha"/>
<feOffset/>
<feGaussianBlur stdDeviation="4.5"/>
<feComposite in2="hardAlpha" operator="out"/>
<feColorMatrix type="matrix" values="0 0 0 0 0.694118 0 0 0 0 0.309804 0 0 0 0 1 0 0 0 0.2 0"/>
<feBlend mode="normal" in2="BackgroundImageFix" result="effect1_dropShadow_1118_43553"/>
<feBlend mode="normal" in="SourceGraphic" in2="effect1_dropShadow_1118_43553" result="shape"/>
</filter>
<filter id="filter7_d_1118_43553" x="57" y="43" width="25" height="25" filterUnits="userSpaceOnUse" color-interpolation-filters="sRGB">
<feFlood flood-opacity="0" result="BackgroundImageFix"/>
<feColorMatrix in="SourceAlpha" type="matrix" values="0 0 0 0 0 0 0 0 0 0 0 0 0 0 0 0 0 0 127 0" result="hardAlpha"/>
<feOffset/>
<feGaussianBlur stdDeviation="4.5"/>
<feComposite in2="hardAlpha" operator="out"/>
<feColorMatrix type="matrix" values="0 0 0 0 0.694118 0 0 0 0 0.309804 0 0 0 0 1 0 0 0 0.2 0"/>
<feBlend mode="normal" in2="BackgroundImageFix" result="effect1_dropShadow_1118_43553"/>
<feBlend mode="normal" in="SourceGraphic" in2="effect1_dropShadow_1118_43553" result="shape"/>
</filter>
<filter id="filter8_d_1118_43553" x="64" y="29" width="21" height="27" filterUnits="userSpaceOnUse" color-interpolation-filters="sRGB">
<feFlood flood-opacity="0" result="BackgroundImageFix"/>
<feColorMatrix in="SourceAlpha" type="matrix" values="0 0 0 0 0 0 0 0 0 0 0 0 0 0 0 0 0 0 127 0" result="hardAlpha"/>
<feOffset/>
<feGaussianBlur stdDeviation="4.5"/>
<feComposite in2="hardAlpha" operator="out"/>
<feColorMatrix type="matrix" values="0 0 0 0 0.694118 0 0 0 0 0.309804 0 0 0 0 1 0 0 0 0.2 0"/>
<feBlend mode="normal" in2="BackgroundImageFix" result="effect1_dropShadow_1118_43553"/>
<feBlend mode="normal" in="SourceGraphic" in2="effect1_dropShadow_1118_43553" result="shape"/>
</filter>
<filter id="filter9_d_1118_43553" x="36.5" y="15.5005" width="67.0073" height="67.9995" filterUnits="userSpaceOnUse" color-interpolation-filters="sRGB">
<feFlood flood-opacity="0" result="BackgroundImageFix"/>
<feColorMatrix in="SourceAlpha" type="matrix" values="0 0 0 0 0 0 0 0 0 0 0 0 0 0 0 0 0 0 127 0" result="hardAlpha"/>
<feOffset/>
<feGaussianBlur stdDeviation="4.5"/>
<feComposite in2="hardAlpha" operator="out"/>
<feColorMatrix type="matrix" values="0 0 0 0 0.694118 0 0 0 0 0.309804 0 0 0 0 1 0 0 0 0.2 0"/>
<feBlend mode="normal" in2="BackgroundImageFix" result="effect1_dropShadow_1118_43553"/>
<feBlend mode="normal" in="SourceGraphic" in2="effect1_dropShadow_1118_43553" result="shape"/>
</filter>
<filter id="filter10_d_1118_43553" x="0.803711" y="4.53198" width="63.6963" height="71.968" filterUnits="userSpaceOnUse" color-interpolation-filters="sRGB">
<feFlood flood-opacity="0" result="BackgroundImageFix"/>
<feColorMatrix in="SourceAlpha" type="matrix" values="0 0 0 0 0 0 0 0 0 0 0 0 0 0 0 0 0 0 127 0" result="hardAlpha"/>
<feOffset/>
<feGaussianBlur stdDeviation="4.5"/>
<feComposite in2="hardAlpha" operator="out"/>
<feColorMatrix type="matrix" values="0 0 0 0 0.694118 0 0 0 0 0.309804 0 0 0 0 1 0 0 0 0.2 0"/>
<feBlend mode="normal" in2="BackgroundImageFix" result="effect1_dropShadow_1118_43553"/>
<feBlend mode="normal" in="SourceGraphic" in2="effect1_dropShadow_1118_43553" result="shape"/>
</filter>
<clipPath id="clip0_1118_43553">
<rect width="48" height="49" fill="white" transform="translate(46 25)"/>
</clipPath>
</defs>
</svg>
